#N canvas 3 75 450 300 10;
#X obj 226 59 sel 1;
#X obj 226 81 t b b b;
#X msg 263 122 0;
#X msg 193 137 1;
#X obj 101 101 bng 25 250 50 0 empty empty empty 17 7 0 10 -262144
-4034 -1;
#X obj 216 178 spigot 1;
#X obj 226 35 inlet;
#X obj 210 224 outlet;
#X obj 339 34 inlet;
#X text 96 255 switch off activity for some time (default: 1sec);
#X obj 68 173 s Trigger\$1;
#X obj 194 114 del 8000;
#X connect 0 0 1 0;
#X connect 1 0 11 0;
#X connect 1 1 2 0;
#X connect 1 2 5 0;
#X connect 2 0 5 1;
#X connect 3 0 5 1;
#X connect 4 0 7 0;
#X connect 4 0 10 0;
#X connect 5 0 4 0;
#X connect 6 0 0 0;
#X connect 8 0 11 1;
#X connect 11 0 3 0;
#X coords 0 -1 1 1 26 26 2 100 100;
