#N canvas 1746 263 677 314 10;
#X obj 138 32 inlet;
#X obj 144 240 outlet;
#X text 64 4 like change but takes symbols;
#X text 10 269 xjimmies lib. z. settel/jm dumas 2003-2007;
#X text 6 4 change1:;
#X obj 284 32 inlet;
#X text 327 31 <sym> sets comparison symbol;
#X obj 144 203 symbol;
#X obj 134 167 sel 0;
#X obj 134 140 eqsym;
#X obj 138 70 t s s s;
#X connect 0 0 10 0;
#X connect 5 0 9 1;
#X connect 7 0 1 0;
#X connect 8 0 7 0;
#X connect 9 0 8 0;
#X connect 10 0 9 1;
#X connect 10 1 9 0;
#X connect 10 2 7 1;
