#N canvas 221 261 800 384 10;
#X obj 49 22 inlet;
#X obj 49 129 f;
#X obj 75 129 + 1;
#X msg 49 87 5;
#X obj 49 109 until;
#X obj 95 172 * 72;
#X obj 95 194 % 360;
#X text 128 171 rotation angle;
#X text 184 16 Args: \$0 \, <>node number;
#X obj 49 43 i \$2;
#X msg 105 107 createNode nodeRoot\$1 GroupNode;
#X obj 105 128 s \$1-to-SPIN;
#X obj 68 218 pack f f f;
#X msg 68 243 createNode node\$1 GroupNode \, createNode led\$1 ShapeNode
\, /node\$1 setParent nodeRoot\$3 \, /led\$1 setParent node\$1 \, /led\$1
setShape 1 \, /led\$1 setTranslation 0 1 0 \, /node\$1 setOrientation
0 0 \$2 \, /led\$1 setScale 0.3 0.3 0.3;
#N canvas 84 401 937 339 reporters 1;
#X obj 120 34 t f f;
#X obj 120 12 inlet;
#X msg 120 131 15;
#X obj 120 153 until;
#X obj 120 175 counter 15;
#X obj 120 109 t b b f;
#X obj 120 195 pack f f;
#X msg 173 149 0;
#X obj 147 88 s \$1-to-SPIN;
#X msg 120 218 /reporter\$2 addTarget constrained\$1;
#X msg 147 55 createNode reporter\$1 ReporterNode \, /reporter\$1 setParent
node\$1 \, /reporter\$1 setReporting DISTANCE 1;
#X obj 120 239 s \$1-to-SPIN-TCP;
#X connect 0 0 5 0;
#X connect 0 1 10 0;
#X connect 1 0 0 0;
#X connect 2 0 3 0;
#X connect 3 0 4 0;
#X connect 4 0 6 0;
#X connect 5 0 2 0;
#X connect 5 1 7 0;
#X connect 5 2 6 1;
#X connect 7 0 4 2;
#X connect 9 0 11 0;
#X connect 10 0 8 0;
#X restore 49 328 pd reporters;
#X obj 49 151 t f f f;
#X obj 68 305 s \$1-to-SPIN-TCP;
#X obj 49 65 t b f b;
#X msg 141 71 0;
#X connect 0 0 9 0;
#X connect 1 0 2 0;
#X connect 1 0 15 0;
#X connect 2 0 1 1;
#X connect 3 0 4 0;
#X connect 4 0 1 0;
#X connect 5 0 6 0;
#X connect 6 0 12 1;
#X connect 9 0 17 0;
#X connect 10 0 11 0;
#X connect 12 0 13 0;
#X connect 13 0 16 0;
#X connect 15 0 14 0;
#X connect 15 1 12 0;
#X connect 15 2 5 0;
#X connect 17 0 3 0;
#X connect 17 1 1 1;
#X connect 17 1 10 0;
#X connect 17 1 12 2;
#X connect 17 2 18 0;
#X connect 18 0 1 1;
