#N canvas 142 239 761 428 10;
#X obj 505 55 route resize;
#X floatatom 534 76 10 0 0 0 - - -;
#X floatatom 227 19 10 0 0 0 - - -;
#X msg 228 275 gfreq \$1;
#X floatatom 228 257 5 0 0 0 - - -;
#X floatatom 229 103 5 0 0 0 - - -;
#X msg 229 122 gain \$1;
#X floatatom 205 180 5 0 0 0 - - -;
#X msg 205 208 gdur \$1;
#X obj 314 21 hsl 128 15 0 1 0 0 empty empty empty -2 -8 0 10 -262144
-1 -1 8255 1;
#X obj 311 38 *;
#X msg 51 69 trisize 512;
#X msg 227 37 \$1 5;
#X floatatom 528 123 10 0 0 0 - - -;
#X obj 505 97 / 44.1;
#X obj 227 56 line;
#X msg 227 75 onset \$1;
#X obj 460 164 line;
#X obj 460 124 pack 1 0;
#X msg 460 144 0 \, \$1 \$2;
#X obj 460 106 bng 15 250 50 0 empty empty empty 17 7 0 10 -262144
-1 -1;
#X floatatom 333 219 5 0 0 0 - - -;
#X obj 228 238 expr 441/$f1 * $f2;
#X obj 461 342 line;
#X msg 461 322 \$1 300;
#X obj 461 302 spigot;
#X obj 481 233 -;
#X obj 461 209 t f f f;
#X obj 481 276 change;
#X obj 506 296 tgl 15 0 empty empty empty 17 7 0 10 -262144 -1 -1 0
1;
#X obj 479 255 > 0.017;
#X obj 49 35 loadbang;
#X obj 505 35 r \$1_buf;
#X obj 461 189 r env_\$1;
#X obj 49 207 throw~ \$2;
#X obj 50 97 ../rj/s_grain~ ch1_buf wndw;
#X obj 607 10 inlet;
#X obj 607 31 u_dispatch \$0 gpos;
#X obj 607 51 u_dispatch \$0 gsynch;
#X obj 607 71 u_dispatch \$0 duration;
#X obj 607 111 u_dispatch \$0 gain;
#X obj 448 18 r \$0-gpos;
#X obj 435 53 r \$0-gsynch;
#X obj 206 160 r \$0-duration;
#X obj 333 199 r \$0-freqmult;
#X obj 268 101 r \$0-gain;
#X obj 607 91 u_dispatch \$0 freqmult;
#X connect 0 0 1 0;
#X connect 0 0 14 0;
#X connect 2 0 12 0;
#X connect 3 0 35 0;
#X connect 4 0 3 0;
#X connect 5 0 6 0;
#X connect 6 0 35 0;
#X connect 7 0 8 0;
#X connect 7 0 22 0;
#X connect 8 0 35 0;
#X connect 9 0 10 0;
#X connect 10 0 2 0;
#X connect 11 0 35 0;
#X connect 12 0 15 0;
#X connect 14 0 10 1;
#X connect 14 0 13 0;
#X connect 14 0 18 1;
#X connect 15 0 16 0;
#X connect 16 0 35 0;
#X connect 17 0 9 0;
#X connect 18 0 19 0;
#X connect 19 0 17 0;
#X connect 20 0 18 0;
#X connect 21 0 22 1;
#X connect 22 0 4 0;
#X connect 23 0 9 0;
#X connect 24 0 23 0;
#X connect 25 0 24 0;
#X connect 26 0 30 0;
#X connect 27 0 25 0;
#X connect 27 1 26 1;
#X connect 27 2 26 0;
#X connect 28 0 29 0;
#X connect 28 0 25 1;
#X connect 30 0 28 0;
#X connect 31 0 11 0;
#X connect 32 0 0 0;
#X connect 33 0 27 0;
#X connect 35 0 34 0;
#X connect 36 0 37 0;
#X connect 37 0 38 0;
#X connect 38 0 39 0;
#X connect 39 0 46 0;
#X connect 41 0 9 0;
#X connect 42 0 20 0;
#X connect 43 0 7 0;
#X connect 44 0 21 0;
#X connect 45 0 5 0;
#X connect 46 0 40 0;
