#N canvas 3 75 1009 665 10;
#X obj 160 17 inlet;
#X msg 314 424 /gr setParam basedur \$1;
#X obj 249 149 t f f;
#X obj 276 171 + 0.02;
#X obj 205 176 pack f f;
#X msg 235 200 /gr\$1 setParam pitch_min \$2;
#X msg 163 250 /gr\$1 setParam pitch_max \$2;
#X obj 162 227 pack f f;
#X obj 57 159 s \$0-gran;
#X obj 150 137 r \$0-gran;
#X obj 162 204 r \$0-gran;
#X obj 274 355 pack f f;
#X obj 238 330 r \$0-gran;
#X obj 111 470 r \$0-gran;
#X msg 278 380 /gr\$1 setParam density \$2;
#X obj 480 584 pack f f;
#X obj 464 500 r \$0-gran;
#X obj 249 127 expr random(1 \, 10)*0.1;
#X obj 312 332 expr random(4 \, 8);
#X text 329 21 args: \$0;
#X obj 554 399 f;
#X obj 554 443 line;
#X obj 554 463 t b a;
#X obj 567 361 bng 15 250 50 0 empty empty empty 17 7 0 10 -262144
-1 -1;
#X msg 554 421 \$1 \, 0 10000;
#X obj 446 336 expr random(10 \, 100)*0.1;
#X obj 216 18 bng 15 250 50 0 empty empty empty 17 7 0 10 -262144 -1
-1;
#X obj 169 282 s \$1-to-SPIN-TCP;
#X obj 587 108 s \$1-to-SPIN-TCP;
#N canvas 173 75 1009 665 GrannysFiles 0;
#X obj 424 241 playlist all 250 300 {Helvetica 10 bold} #457782 yellow
black red;
#X obj 437 164 thisdir;
#X obj 439 144 bng 15 250 50 0 empty empty empty 17 7 0 10 -262144
-1 -1;
#X msg 437 208 location \$1;
#X obj 122 210 t a f;
#X obj 122 548 pack f s;
#X obj 122 188 t f b;
#X msg 217 182 seek \$1;
#X floatatom 124 116 5 0 0 0 - - -;
#X obj 116 33 inlet;
#X obj 116 55 random 5;
#X obj 437 186 makefilename %s/../snd;
#X msg 123 580 /gr\$1 setParam path \$2 \, /gr\$1 setParam stop 1;
#X obj 121 604 outlet;
#X obj 264 136 r count_media;
#X obj 217 158 weighted;
#X obj 707 252 playlist all 250 300 {Helvetica 10 bold} #457782 yellow
black red;
#X obj 707 161 thisdir;
#X msg 707 205 location \$1;
#X obj 707 183 makefilename %s/../snd-curated;
#X obj 221 271 gate 2;
#X obj 243 227 expr random(1 \, 3);
#X obj 231 22 bng 15 250 50 0 empty empty empty 17 7 0 10 -262144 -1
-1;
#X obj 217 204 t a b;
#X connect 0 0 5 1;
#X connect 1 0 11 0;
#X connect 2 0 1 0;
#X connect 2 0 17 0;
#X connect 3 0 0 0;
#X connect 4 0 5 0;
#X connect 5 0 12 0;
#X connect 6 0 4 0;
#X connect 6 1 15 0;
#X connect 7 0 23 0;
#X connect 8 0 6 0;
#X connect 9 0 10 0;
#X connect 9 0 2 0;
#X connect 10 0 8 0;
#X connect 11 0 3 0;
#X connect 12 0 13 0;
#X connect 14 0 15 1;
#X connect 15 0 7 0;
#X connect 17 0 19 0;
#X connect 18 0 16 0;
#X connect 19 0 18 0;
#X connect 20 0 0 0;
#X connect 20 1 16 0;
#X connect 21 0 20 0;
#X connect 22 0 10 0;
#X connect 23 0 20 1;
#X connect 23 1 21 0;
#X restore 587 86 pd GrannysFiles;
#X obj 470 120 del 30000;
#X msg 480 609 /gr\$1 setParam mul \$2;
#X msg 110 491 /gr\$1 setParam play 1;
#N canvas 1195 504 450 300 linearTranslations 0;
#X obj 124 53 inlet;
#X obj 140 99 random 10;
#X obj 140 121 - 5;
#X obj 207 100 random 10;
#X obj 207 122 - 5;
#X obj 125 181 pack f f f f;
#X obj 125 203 outlet;
#X floatatom 225 20 5 0 0 0 - - -;
#X obj 225 41 / 2;
#X obj 124 75 t f b b b;
#X obj 271 120 + 5;
#X obj 272 99 random 10;
#X connect 0 0 9 0;
#X connect 1 0 2 0;
#X connect 2 0 5 1;
#X connect 3 0 4 0;
#X connect 4 0 5 2;
#X connect 5 0 6 0;
#X connect 7 0 8 0;
#X connect 7 0 1 1;
#X connect 7 0 3 1;
#X connect 7 0 11 1;
#X connect 8 0 2 1;
#X connect 8 0 4 1;
#X connect 8 0 10 1;
#X connect 9 0 5 0;
#X connect 9 1 1 0;
#X connect 9 2 3 0;
#X connect 9 3 11 0;
#X connect 10 0 5 3;
#X connect 11 0 10 0;
#X restore 647 230 pd linearTranslations;
#X obj 647 204 r \$0-self;
#X obj 33 118 s \$0-self;
#X msg 648 251 /constrained\$1 translateTo \$2 \$3 0 \$4 LinearMotion
;
#X obj 160 39 f \$2;
#X obj 160 62 t f b b b;
#X obj 648 272 s \$1-to-SPIN;
#X obj 479 629 s \$1-to-SPIN;
#X obj 161 613 s \$1-to-SPIN;
#X obj 575 520 r volume_scale;
#X obj 575 542 * 0.01;
#X obj 548 565 * 0.7;
#X obj 525 499 expr random(5 \, 10)*0.1;
#X connect 0 0 37 0;
#X connect 1 0 41 0;
#X connect 2 0 4 1;
#X connect 2 1 3 0;
#X connect 3 0 7 1;
#X connect 4 0 5 0;
#X connect 5 0 27 0;
#X connect 6 0 27 0;
#X connect 7 0 6 0;
#X connect 9 0 4 0;
#X connect 10 0 7 0;
#X connect 11 0 14 0;
#X connect 12 0 11 0;
#X connect 13 0 32 0;
#X connect 14 0 41 0;
#X connect 15 0 31 0;
#X connect 16 0 15 0;
#X connect 17 0 2 0;
#X connect 18 0 11 1;
#X connect 20 0 24 0;
#X connect 21 0 22 0;
#X connect 22 0 15 0;
#X connect 23 0 20 0;
#X connect 24 0 21 0;
#X connect 25 0 1 0;
#X connect 26 0 37 0;
#X connect 29 0 28 0;
#X connect 30 0 20 0;
#X connect 31 0 40 0;
#X connect 32 0 41 0;
#X connect 33 0 36 0;
#X connect 34 0 33 0;
#X connect 36 0 39 0;
#X connect 37 0 38 0;
#X connect 37 0 35 0;
#X connect 38 0 8 0;
#X connect 38 0 29 0;
#X connect 38 1 17 0;
#X connect 38 1 18 0;
#X connect 38 2 45 0;
#X connect 38 3 25 0;
#X connect 38 3 30 0;
#X connect 42 0 43 0;
#X connect 43 0 44 1;
#X connect 44 0 15 1;
#X connect 44 0 20 1;
#X connect 45 0 15 1;
#X connect 45 0 44 0;
