#N canvas 65 75 805 649 10;
#X obj 160 42 inlet;
#X msg 314 424 /gr setParam basedur \$1;
#X obj 249 149 t f f;
#X obj 276 171 + 0.02;
#X obj 205 176 pack f f;
#X msg 235 200 /gr\$1 setParam pitch_min \$2;
#X msg 163 250 /gr\$1 setParam pitch_max \$2;
#X obj 162 227 pack f f;
#X obj 85 97 s \$0-gran;
#X obj 150 137 r \$0-gran;
#X obj 162 204 r \$0-gran;
#X obj 274 355 pack f f;
#X obj 219 333 r \$0-gran;
#X obj 111 470 r \$0-gran;
#X msg 309 384 /gr\$1 setParam density \$2;
#X msg 110 491 /gr\$1 setParam play 1;
#X obj 480 533 pack f f;
#X obj 464 500 r \$0-gran;
#X obj 249 127 expr random(1 \, 10)*0.1;
#X obj 312 332 expr random(4 \, 8);
#X obj 161 613 s \$1-to-SPIN-TCP;
#X text 329 21 args: \$0;
#X obj 554 399 f;
#X obj 554 443 line;
#X obj 554 463 t b a;
#X obj 567 361 bng 15 250 50 0 empty empty empty 17 7 0 10 -262144
-1 -1;
#X obj 470 120 del 10000;
#X msg 554 421 \$1 \, 0 10000;
#X obj 160 62 t \$2 b b b;
#X obj 446 336 expr random(10 \, 100)*0.1;
#X obj 525 499 expr random(9 \, 10)*0.5;
#X obj 216 18 bng 15 250 50 0 empty empty empty 17 7 0 10 -262144 -1
-1;
#X obj 479 578 s \$1-to-SPIN-TCP;
#X obj 169 282 s \$1-to-SPIN-TCP;
#X obj 587 108 s \$1-to-SPIN-TCP;
#N canvas 12 75 1009 665 GrannysFiles 0;
#X obj 560 141 playlist all 400 300 {Helvetica 10 bold} #457782 yellow
black red;
#X obj 560 50 thisdir;
#X obj 562 30 bng 15 250 50 0 empty empty empty 17 7 0 10 -262144 -1
-1;
#X msg 560 94 location \$1;
#X obj 122 210 t a f;
#X obj 122 424 pack f s;
#X obj 122 188 t f b;
#X obj 215 174 random 200;
#X msg 215 196 seek \$1;
#X floatatom 124 116 5 0 0 0 - - -;
#X obj 116 33 inlet;
#X obj 116 55 random 5;
#X obj 288 143 r count_media;
#X obj 560 72 makefilename %s/../snd;
#X msg 123 456 /gr\$1 setParam path \$2 \, /gr\$1 setParam stop 1;
#X obj 121 480 outlet;
#X connect 0 0 5 1;
#X connect 1 0 13 0;
#X connect 2 0 1 0;
#X connect 3 0 0 0;
#X connect 4 0 5 0;
#X connect 5 0 14 0;
#X connect 6 0 4 0;
#X connect 6 1 7 0;
#X connect 7 0 8 0;
#X connect 8 0 0 0;
#X connect 9 0 6 0;
#X connect 10 0 11 0;
#X connect 10 0 2 0;
#X connect 11 0 9 0;
#X connect 12 0 7 1;
#X connect 13 0 3 0;
#X connect 14 0 15 0;
#X restore 587 86 pd GrannysFiles;
#X msg 480 558 /gr\$1 setParam mul 7;
#X connect 0 0 28 0;
#X connect 1 0 20 0;
#X connect 2 0 4 1;
#X connect 2 1 3 0;
#X connect 3 0 7 1;
#X connect 4 0 5 0;
#X connect 5 0 33 0;
#X connect 6 0 33 0;
#X connect 7 0 6 0;
#X connect 9 0 4 0;
#X connect 10 0 7 0;
#X connect 11 0 14 0;
#X connect 12 0 11 0;
#X connect 13 0 15 0;
#X connect 14 0 20 0;
#X connect 15 0 20 0;
#X connect 16 0 36 0;
#X connect 17 0 16 0;
#X connect 18 0 2 0;
#X connect 19 0 11 1;
#X connect 22 0 27 0;
#X connect 23 0 24 0;
#X connect 24 0 16 0;
#X connect 24 1 16 1;
#X connect 25 0 22 0;
#X connect 26 0 22 0;
#X connect 27 0 23 0;
#X connect 28 0 8 0;
#X connect 28 1 18 0;
#X connect 28 1 19 0;
#X connect 28 2 30 0;
#X connect 28 3 26 0;
#X connect 28 3 29 0;
#X connect 28 3 35 0;
#X connect 29 0 1 0;
#X connect 30 0 16 1;
#X connect 30 0 22 1;
#X connect 31 0 28 0;
#X connect 35 0 34 0;
#X connect 36 0 32 0;
