#N canvas 224 91 711 597 10;
#X obj 160 42 inlet;
#X msg 308 413 /gr setParam basedur \$1;
#X obj 249 149 t f f;
#X obj 276 171 + 0.02;
#X obj 232 290 s \$0-to-SPIN-TCP;
#X obj 205 176 pack f f;
#X msg 235 200 /gr\$1 setParam pitch_min \$2;
#X msg 252 254 /gr\$1 setParam pitch_max \$2;
#X obj 217 226 pack f f;
#X obj 85 97 s \$0-gran;
#X obj 150 137 r \$0-gran;
#X obj 162 204 r \$0-gran;
#X obj 274 355 pack f f;
#X obj 219 333 r \$0-gran;
#X obj 111 470 r \$0-gran;
#X msg 309 384 /gr\$1 setParam density \$2;
#X msg 110 491 /gr\$1 setParam play 1;
#X obj 362 531 pack f f;
#X obj 308 502 r \$0-gran;
#X obj 249 127 expr random(1 \, 10)*0.1;
#X obj 312 332 expr random(4 \, 8);
#X obj 168 549 s \$1-to-SPIN-TCP;
#X text 329 21 args: \$0;
#X msg 317 562 /gr\$1 setParam mul \$2;
#X obj 554 399 f;
#X obj 554 443 line;
#X obj 66 312 p;
#X obj 554 463 t b a;
#X obj 567 361 bng 15 250 50 0 empty empty empty 17 7 0 10 -262144
-1 -1;
#X obj 470 120 del 10000;
#X msg 554 421 \$1 \, 0 10000;
#X obj 160 62 t \$2 b b b;
#X obj 393 492 expr random(9 \, 10)*0.1;
#X connect 0 0 31 0;
#X connect 2 0 5 1;
#X connect 2 1 3 0;
#X connect 3 0 8 1;
#X connect 5 0 6 0;
#X connect 6 0 4 0;
#X connect 7 0 4 0;
#X connect 8 0 7 0;
#X connect 10 0 5 0;
#X connect 11 0 8 0;
#X connect 12 0 15 0;
#X connect 13 0 12 0;
#X connect 14 0 16 0;
#X connect 15 0 21 0;
#X connect 16 0 21 0;
#X connect 16 0 26 0;
#X connect 17 0 23 0;
#X connect 18 0 17 0;
#X connect 19 0 2 0;
#X connect 20 0 12 1;
#X connect 23 0 21 0;
#X connect 24 0 30 0;
#X connect 25 0 27 0;
#X connect 27 0 17 0;
#X connect 27 1 17 1;
#X connect 28 0 24 0;
#X connect 29 0 24 0;
#X connect 30 0 25 0;
#X connect 31 0 9 0;
#X connect 31 1 19 0;
#X connect 31 1 20 0;
#X connect 31 2 32 0;
#X connect 31 3 29 0;
#X connect 32 0 17 1;
#X connect 32 0 24 1;
