#N canvas 3 75 450 300 10;
#X obj 96 174 line;
#X obj 96 82 t b b b;
#X obj 193 104 del 3000;
#N canvas 440 133 450 300 spinners 1;
#X obj 75 17 inlet;
#X floatatom 236 126 5 0 0 1 (deg/sec) - -;
#X msg 265 103 0;
#X obj 75 66 until;
#X msg 235 103 \$1;
#X obj 75 110 t f b;
#X obj 102 134 random 50;
#X obj 75 154 pack f f;
#X msg 73 175 /spinner\$1 setSpin 0 0 \$2;
#X obj 24 151 print;
#X obj 75 88 counter 5 30;
#X msg 75 44 30;
#X obj 73 194 s to-spin;
#X connect 0 0 11 0;
#X connect 1 0 7 1;
#X connect 2 0 1 0;
#X connect 3 0 10 0;
#X connect 4 0 1 0;
#X connect 5 0 7 0;
#X connect 5 1 6 0;
#X connect 6 0 4 0;
#X connect 7 0 8 0;
#X connect 8 0 12 0;
#X connect 10 0 5 0;
#X connect 10 0 9 0;
#X connect 11 0 3 0;
#X restore 194 127 pd spinners go;
#X msg 96 152 0 \, 1 1000;
#X obj 96 45 inlet;
#X obj 96 196 outlet;
#X msg 120 131 1 \, 0 2000;
#X obj 120 104 del 5000;
#X connect 0 0 6 0;
#X connect 1 0 4 0;
#X connect 1 1 8 0;
#X connect 1 2 2 0;
#X connect 4 0 0 0;
#X connect 5 0 1 0;
#X connect 7 0 0 0;
#X connect 8 0 7 0;
