#N canvas 298 182 586 492 10;
#X obj 28 142 env~;
#X obj 27 10 inlet~;
#X obj 28 171 +;
#X floatatom 28 230 5 0 0 0 - - -;
#X obj 28 249 vsl 10 100 0 1 0 0 empty empty empty 0 -9 0 10 -262144
-1 -1 2430 1;
#X obj 28 211 clip 0 0.98;
#X obj 28 191 * 0.001;
#X obj 56 171 * 0.7;
#X obj 108 173 vsl 10 80 0 127 0 0 empty empty empty 0 -9 0 10 -262144
-1 -1 3216 1;
#X obj 108 259 t f f;
#X obj 109 281 -;
#X obj 109 321 change;
#X obj 109 341 sel 1;
#X obj 331 141 s~ \$1;
#X obj 109 405 s trigger_rec_\$1;
#X obj 28 355 s env_\$1;
#X obj 333 121 e_softclip \$1;
#X floatatom 74 301 5 0 0 0 - - -;
#X floatatom 145 300 5 0 0 0 - - -;
#X obj 80 35 lop~ 8000;
#X obj 84 82 *~;
#X obj 84 102 env~;
#X obj 212 372 tgl 15 0 empty empty empty 17 7 0 10 -262144 -1 -1 1
1;
#X obj 301 239 metro 1000;
#X obj 301 261 f;
#X obj 328 261 + 1;
#X obj 301 219 tgl 15 0 empty empty empty 17 7 0 10 -262144 -1 -1 1
1;
#X obj 301 307 == 29;
#X obj 175 322 t f f;
#X obj 301 329 sel 1;
#X msg 301 349 0;
#X obj 84 125 spigot;
#X obj 153 157 +;
#X obj 153 180 == 2;
#X obj 156 206 tgl 15 0 empty empty empty 17 7 0 10 -262144 -1 -1 1
1;
#X obj 208 132 t b f;
#X floatatom 201 176 5 0 0 0 - - -;
#X obj 153 113 r trig1;
#X obj 208 113 r trig2;
#X msg 155 344 1;
#X floatatom 345 304 5 0 0 0 - - -;
#X obj 299 282 % 120;
#X obj 249 390 r presence;
#X obj 107 301 > 15;
#X obj 221 55 hip~ 2000;
#X obj 203 88 lop~ 700;
#X connect 0 0 2 0;
#X connect 1 0 19 0;
#X connect 1 0 0 0;
#X connect 1 0 20 0;
#X connect 1 0 20 1;
#X connect 2 0 6 0;
#X connect 2 0 7 0;
#X connect 3 0 4 0;
#X connect 4 0 15 0;
#X connect 5 0 3 0;
#X connect 6 0 5 0;
#X connect 7 0 2 1;
#X connect 8 0 9 0;
#X connect 9 0 10 1;
#X connect 9 1 10 0;
#X connect 10 0 17 0;
#X connect 10 0 43 0;
#X connect 11 0 12 0;
#X connect 12 0 14 0;
#X connect 12 0 22 0;
#X connect 12 0 39 0;
#X connect 16 0 13 0;
#X connect 18 0 43 1;
#X connect 19 0 44 0;
#X connect 19 0 45 0;
#X connect 20 0 21 0;
#X connect 21 0 31 0;
#X connect 22 0 14 0;
#X connect 23 0 24 0;
#X connect 24 0 25 0;
#X connect 24 0 41 0;
#X connect 25 0 24 1;
#X connect 26 0 23 0;
#X connect 27 0 29 0;
#X connect 28 0 26 0;
#X connect 28 1 24 1;
#X connect 29 0 30 0;
#X connect 30 0 28 0;
#X connect 30 0 22 0;
#X connect 31 0 8 0;
#X connect 32 0 33 0;
#X connect 32 0 36 0;
#X connect 33 0 31 1;
#X connect 33 0 34 0;
#X connect 35 0 32 0;
#X connect 35 1 32 1;
#X connect 37 0 32 0;
#X connect 38 0 35 0;
#X connect 39 0 28 0;
#X connect 41 0 27 0;
#X connect 41 0 40 0;
#X connect 43 0 11 0;
#X connect 44 0 16 0;
#X connect 45 0 16 0;
