#N canvas 242 315 450 300 10;
#X msg 93 213 \; LED-\$1 \$2;
#X obj 93 113 until;
#X obj 93 173 t f b;
#X obj 93 193 pack 0 1;
#X msg 183 213 \; LED-\$1 \$2;
#X obj 183 113 until;
#X obj 183 173 t f b;
#X obj 183 193 pack 0 0;
#X obj 73 26 bng 15 250 50 0 empty empty empty 17 7 0 10 -262144 -1
-1;
#X obj 93 46 t b b;
#X obj 120 67 del 100;
#X obj 93 153 + \$1;
#X obj 183 153 + \$1;
#X obj 91 7 inlet;
#X text 215 29 arg: LED offset;
#X msg 93 91 4;
#X obj 94 133 counter 1 4;
#X msg 183 91 4;
#X obj 183 133 counter 1 4;
#X connect 1 0 16 0;
#X connect 2 0 3 0;
#X connect 3 0 0 0;
#X connect 5 0 18 0;
#X connect 6 0 7 0;
#X connect 7 0 4 0;
#X connect 8 0 9 0;
#X connect 9 0 15 0;
#X connect 9 1 10 0;
#X connect 10 0 17 0;
#X connect 11 0 2 0;
#X connect 12 0 6 0;
#X connect 13 0 9 0;
#X connect 15 0 1 0;
#X connect 16 0 11 0;
#X connect 17 0 5 0;
#X connect 18 0 12 0;
