#N canvas 3 77 450 300 10;
#X obj 108 63 route distance;
#X obj 108 105 list-accum;
#X obj 108 84 list-group 15;
#X obj 108 127 / 15;
#X obj 108 212 s \$1-to-SPIN;
#X text 267 32 args \$0 \, LED#;
#X obj 108 43 OSCparse /reporter\$2;
#X obj 108 191 prepend /led\$2;
#X obj 51 213 s LED-\$2;
#X obj 108 147 m_scale 0 10 1 0;
#X obj 108 22 r \$1-from-SPIN;
#X msg 108 168 setColor 1 1 1 \$1;
#X connect 0 0 2 0;
#X connect 1 0 3 0;
#X connect 2 0 1 0;
#X connect 3 0 9 0;
#X connect 6 0 0 0;
#X connect 7 0 4 0;
#X connect 9 0 11 0;
#X connect 9 0 8 0;
#X connect 10 0 6 0;
#X connect 11 0 7 0;
