#N canvas 3 75 430 501 10;
#X obj 108 97 route distance;
#X obj 108 166 list-accum;
#X obj 108 297 s \$1-to-SPIN;
#X text 299 0 args \$0 \, LED#;
#X obj 108 77 OSCparse /reporter\$2;
#X obj 108 276 prepend /led\$2;
#X obj 51 298 s LED-\$2;
#X obj 108 13 r \$1-from-SPIN;
#X msg 108 253 setColor 1 1 1 \$1;
#X obj 108 230 clip 0 1;
#X obj 108 145 list-group 15;
#X obj 108 119 list split 1;
#X obj 141 35 r reporterON;
#X obj 108 55 spigot;
#X obj 108 208 m_scale 0 5 1 0;
#X obj 108 188 / 15;
#X text 219 30 global reporting setting;
#X connect 0 0 11 0;
#X connect 1 0 15 0;
#X connect 4 0 0 0;
#X connect 5 0 2 0;
#X connect 7 0 13 0;
#X connect 8 0 5 0;
#X connect 9 0 8 0;
#X connect 9 0 6 0;
#X connect 10 0 1 0;
#X connect 11 1 10 0;
#X connect 12 0 13 1;
#X connect 13 0 4 0;
#X connect 14 0 9 0;
#X connect 15 0 14 0;
