#N canvas 184 140 771 571 10;
#X floatatom 208 365 5 0 0 0 - - -;
#X msg 198 338 1;
#X msg 169 338 0;
#X obj 123 225 t b b;
#X obj 123 247 del 150;
#X obj 123 25 inlet;
#X obj 185 389 s LED-\$1;
#X text 254 27 Arg: LED number;
#X msg 302 321 \; LED-1 \$1 \; LED-2 \$1 \; LED-3 \$1 \; LED-4 \$1
\; LED-5 \$1;
#X obj 321 253 prepend;
#X obj 360 147 loadbang;
#X obj 360 169 i \$1;
#X obj 360 191 - 6;
#X obj 320 281 route 0 6 12 18 24;
#X msg 378 321 \; LED-7 \$1 \; LED-8 \$1 \; LED-9 \$1 \; LED-10 \$1
\; LED-11 \$1;
#X msg 461 324 \; LED-13 \$1 \; LED-14 \$1 \; LED-15 \$1 \; LED-16
\$1 \; LED-17 \$1;
#X msg 537 324 \; LED-19 \$1 \; LED-20 \$1 \; LED-21 \$1 \; LED-22
\$1 \; LED-23 \$1;
#X msg 618 326 \; LED-25 \$1 \; LED-26 \$1 \; LED-27 \$1 \; LED-28
\$1 \; LED-29 \$1;
#X obj 124 70 route duration;
#X obj 124 96 * 1000;
#X obj 124 118 t f f;
#X connect 0 0 6 0;
#X connect 1 0 6 0;
#X connect 1 0 9 0;
#X connect 2 0 6 0;
#X connect 2 0 9 0;
#X connect 3 0 4 0;
#X connect 3 1 1 0;
#X connect 4 0 2 0;
#X connect 5 0 18 0;
#X connect 9 0 13 0;
#X connect 10 0 11 0;
#X connect 11 0 12 0;
#X connect 12 0 9 1;
#X connect 13 0 8 0;
#X connect 13 1 14 0;
#X connect 13 2 15 0;
#X connect 13 3 16 0;
#X connect 13 4 17 0;
#X connect 18 0 19 0;
#X connect 19 0 20 0;
#X connect 20 0 3 0;
#X connect 20 1 4 1;
