#N canvas 42 400 759 303 10;
#X obj 46 46 vsl 10 80 0 1 0 0 empty LED-\$1 \$2 0 40 1 9 -262144 -1
-4160 0 0;
#X obj 46 229 outlet;
#X obj 46 208 int;
#X msg 347 159 \$1 \, \$2 \$3;
#X obj 347 137 pack f f f;
#X obj 327 40 t b b b;
#X obj 347 181 line;
#X obj 437 157 prepend set;
#X msg 437 179 0.07 0.12 3726;
#X obj 327 20 bng 15 250 50 0 empty autopilot empty 17 7 0 10 -262144
-1 -1;
#X obj 346 85 t f b f;
#X obj 347 115 f;
#X obj 520 62 expr random(1000 \, 4000);
#X obj 346 63 expr random(0 \, 90)*0.01;
#X obj 46 187 expr 127 * pow(($f1 * 0.8 + 0.2) \, 1.75) * $f2;
#X obj 123 150 f 1;
#X obj 46 134 t a b;
#X obj 138 128 r LED_coefficient;
#X connect 0 0 16 0;
#X connect 2 0 1 0;
#X connect 3 0 6 0;
#X connect 4 0 3 0;
#X connect 4 0 7 0;
#X connect 5 1 13 0;
#X connect 5 2 12 0;
#X connect 6 0 0 0;
#X connect 7 0 8 0;
#X connect 9 0 5 0;
#X connect 10 0 11 1;
#X connect 10 1 11 0;
#X connect 10 2 4 1;
#X connect 11 0 4 0;
#X connect 12 0 4 2;
#X connect 13 0 10 0;
#X connect 14 0 2 0;
#X connect 15 0 14 1;
#X connect 16 0 14 0;
#X connect 16 1 15 0;
#X connect 17 0 15 1;
#X coords 0 -1 1 1 13 86 2 44 43;
