#N canvas 88 339 759 303 10;
#X obj 46 46 vsl 10 80 0 1 0 0 empty LED-\$1 \$1 0 40 1 9 -262144 -1
-4160 572 1;
#X obj 44 179 outlet;
#X obj 44 158 int;
#X obj 44 137 expr 127 * pow(($f1 * 0.8 + 0.2) \, 1.75);
#X msg 347 159 \$1 \, \$2 \$3;
#X obj 347 137 pack f f f;
#X obj 327 40 t b b b;
#X obj 347 181 line;
#X obj 437 157 prepend set;
#X msg 437 179 0.07 0.12 3726;
#X obj 327 20 bng 15 250 50 0 empty autopilot empty 17 7 0 10 -262144
-1 -1;
#X obj 346 85 t f b f;
#X obj 347 115 f;
#X obj 520 62 expr random(1000 \, 4000);
#X obj 346 63 expr random(0 \, 90)*0.01;
#X connect 0 0 3 0;
#X connect 2 0 1 0;
#X connect 3 0 2 0;
#X connect 4 0 7 0;
#X connect 5 0 4 0;
#X connect 5 0 8 0;
#X connect 6 1 14 0;
#X connect 6 2 13 0;
#X connect 7 0 0 0;
#X connect 8 0 9 0;
#X connect 10 0 6 0;
#X connect 11 0 12 1;
#X connect 11 1 12 0;
#X connect 11 2 5 1;
#X connect 12 0 5 0;
#X connect 13 0 5 2;
#X connect 14 0 11 0;
#X coords 0 -1 1 1 13 86 2 44 43;
