#N canvas 902 106 834 704 10;
#X obj -39 35 openpanel;
#X obj -39 3 bng 24 250 50 0 empty empty Read 0 -6 0 14 -262144 -1
-1;
#X obj -188 184 *~ 0;
#X obj -188 211 +~ 1;
#X obj -188 123 phasor~ 0;
#X obj -188 246 tabread4~ \$0-looptab;
#X obj 69 142 symbol \$0-looptab;
#X obj -39 191 pack s s;
#X obj 36 -1 loadbang;
#X obj 37 72 t b b;
#X floatatom -40 304 9 0 0 0 - - -;
#X obj -188 271 outlet~;
#X obj -39 327 sel 0;
#X obj -96 -83 inlet;
#X obj 252 -4 inlet;
#X text 293 -2 filename to read;
#X obj 25 385 / 44100;
#X msg -10 385 1;
#X obj -10 418 /;
#X text -181 468 xjimmies lib. z. settel/jm dumas 2003-2007;
#X text 46 -106 messages: <bang> to open fileread dialog;
#X text 114 -90 <float> to start/stop read pointer;
#X obj -96 15 tgl 15 1 empty empty empty 0 -6 0 8 -262144 -1 -1 1 1
;
#X obj 158 414 outlet;
#X text 207 416 current soundfile;
#X obj 251 49 t s s;
#X obj 158 327 symbol \$1;
#X obj -188 155 *~ 1;
#X obj 252 25 symbol;
#X text 117 -77 phase <0% - 100%> to offset the read head by a certain
percentage of the loop;
#X obj -130 98 * 0.01;
#X obj -21 136 change1;
#X obj -21 112 symbol \$1;
#X obj 290 465 outlet;
#X text 339 467 file duration ms.;
#X obj -39 280 soundfiler;
#X obj 25 418 * 1000;
#X obj 69 359 samplerate~;
#X obj -10 358 t b f b;
#X obj -96 -57 route float bang phase speed;
#X text 116 -49 speed <0% - 100$> to scale the speed of the loop;
#X obj -188 95 * 1;
#X obj -157 65 * 0.01;
#X obj -187 38 t b f;
#X obj -188 61 f 1;
#X obj 273 224 table \$0-looptab;
#X text -203 -191 loop1~.pd audioFile Looper;
#X text -203 -168 <opt> arg: soundfile name;
#X text 30 304 samples read;
#X msg -40 218 read -maxsize 1e+07 \$1 \$2;
#X connect 0 0 7 0;
#X connect 1 0 0 0;
#X connect 2 0 3 0;
#X connect 3 0 5 0;
#X connect 4 0 27 0;
#X connect 5 0 11 0;
#X connect 6 0 7 1;
#X connect 7 0 49 0;
#X connect 8 0 9 0;
#X connect 9 0 32 0;
#X connect 9 1 6 0;
#X connect 10 0 12 0;
#X connect 12 1 38 0;
#X connect 13 0 39 0;
#X connect 14 0 28 0;
#X connect 16 0 18 1;
#X connect 16 0 36 0;
#X connect 17 0 18 0;
#X connect 18 0 44 0;
#X connect 22 0 27 1;
#X connect 25 0 7 0;
#X connect 25 1 26 1;
#X connect 26 0 23 0;
#X connect 27 0 2 0;
#X connect 28 0 25 0;
#X connect 30 0 4 1;
#X connect 31 0 7 0;
#X connect 32 0 31 0;
#X connect 35 0 2 1;
#X connect 35 0 10 0;
#X connect 36 0 33 0;
#X connect 37 0 16 1;
#X connect 38 0 17 0;
#X connect 38 0 26 0;
#X connect 38 1 16 0;
#X connect 38 2 37 0;
#X connect 39 0 22 0;
#X connect 39 1 1 0;
#X connect 39 2 30 0;
#X connect 39 3 43 0;
#X connect 41 0 4 0;
#X connect 42 0 41 1;
#X connect 43 0 44 0;
#X connect 43 1 42 0;
#X connect 44 0 41 0;
#X connect 49 0 35 0;
#X coords 0 0.858871 0.00180505 0.857651 200 140 0;
