#N canvas 0 0 450 300 10;
#X obj 197 60 env~;
#X obj 101 102 vu 10 80 empty empty -1 -8 0 10 -66577 -1 0 0;
#X obj 197 81 - 100;
#X obj 197 41 inlet~;
#X connect 0 0 2 0;
#X connect 2 0 1 0;
#X connect 3 0 0 0;
#X coords 0 -1 1 1 12 84 2 100 100;
