#N canvas 48 75 973 665 10;
#X msg 252 105 createNode listener0 Listener;
#X obj 132 148 t f b;
#X msg 195 190 createNode recorder\$1 SoundNode;
#X obj 132 79 t b b;
#X obj 132 451 pack f f f s;
#X obj 182 255 expr random(100 \, 500);
#X obj 182 297 t f b f;
#X obj 206 338 del;
#X obj 221 319 * 1000;
#X obj 435 371 date;
#X obj 466 371 time;
#X obj 435 350 t b b;
#X obj 109 80 bng 15 250 50 0 empty empty empty 17 7 0 10 -262144 -1
-1;
#X msg 206 418 deleteNode recorder\$1;
#X obj 206 398 i;
#X obj 375 433 symbol;
#X floatatom 295 298 5 0 0 0 - - -;
#X obj 182 275 / 10;
#X obj 242 339 bng 15 250 50 0 empty empty empty 17 7 0 10 -262144
-1 -1;
#X obj 24 585 prepend set;
#X msg 24 607 0 0 34.1 20150425-17-37-24;
#X obj 132 124 spigot 1;
#X obj 132 170 t a a b b f;
#X text 401 190 create SoundNode;
#X text 316 250 give some random duration;
#X text 420 426 provide a filename based on date and time;
#X text 233 390 delete SoundNode after use;
#X obj 205 365 t b b;
#X obj 56 421 s \$0-gate;
#X msg 55 398 1;
#X obj 186 103 r \$0-gate;
#X msg 175 82 0;
#X text 215 72 close the gate after trigger and keep it close while
recording n seconds;
#X obj 132 13 inlet;
#X obj 132 58 t b b;
#X text 341 54 Inlet 0: bang - triggers recording;
#X text 303 7 Arguments: \$0 \, channel to record from. The channel
number is also ID so there should not be more than one recorders on
the same channel;
#X obj 133 553 s \$1-to-SPIN-TCP;
#X obj 195 210 s \$1-to-SPIN-TCP;
#X obj 132 103 i \$2;
#X msg 131 474 /recorder\$1 setDirectivityFlag 1 \, /recorder\$1 setParam
setMediaURI plugin://Recorder \, /recorder\$1 setParam inchannel \$2
\, /recorder\$1 setParam dur \$3 \, /recorder\$1 setParam filename
/home/mis/src/Re-Collect/snd/\$4.wav \, /recorder\$1 setParam play
1;
#X obj 176 7 bng 15 250 50 0 empty empty empty 17 7 0 10 -262144 -1
-1;
#X obj 374 411 sprintf %04d%02d%02d-%02d-%02d-%02d;
#X msg 277 561 \$3 \$4;
#X obj 277 605 t b f;
#X obj 277 667 del;
#X obj 277 693 symbol;
#X obj 277 857 f \$2;
#X obj 277 879 pack f s;
#X obj 249 947 s \$1-to-SPIN;
#X obj 277 583 unpack f s;
#X obj 252 665 bng 15 250 50 0 empty empty empty 17 7 0 10 -262144
-1 -1;
#X floatatom 434 607 5 0 0 0 - - -;
#X obj 302 627 * 1000;
#X obj 301 648 + 1000;
#N canvas 571 160 450 300 velocities 0;
#X obj 124 53 inlet;
#X obj 124 75 t a b b b;
#X obj 140 99 random 10;
#X obj 140 121 - 5;
#X obj 140 143 * 0.1;
#X obj 207 100 random 10;
#X obj 207 122 - 5;
#X obj 207 144 * 0.1;
#X obj 272 99 random 10;
#X obj 272 121 - 5;
#X obj 272 143 * 0.1;
#X obj 125 181 pack f f f f;
#X obj 125 203 outlet;
#X floatatom 225 20 5 0 0 0 - - -;
#X obj 225 41 / 2;
#X connect 0 0 1 0;
#X connect 1 0 11 0;
#X connect 1 1 2 0;
#X connect 1 2 5 0;
#X connect 1 3 8 0;
#X connect 2 0 3 0;
#X connect 3 0 4 0;
#X connect 4 0 11 1;
#X connect 5 0 6 0;
#X connect 6 0 7 0;
#X connect 7 0 11 2;
#X connect 8 0 9 0;
#X connect 9 0 10 0;
#X connect 10 0 11 3;
#X connect 11 0 12 0;
#X connect 13 0 14 0;
#X connect 13 0 2 1;
#X connect 13 0 5 1;
#X connect 13 0 8 1;
#X connect 14 0 3 1;
#X connect 14 0 6 1;
#X connect 14 0 9 1;
#X restore 564 654 pd velocities;
#X msg 564 675 /recconstrained\$1 setVelocity \$2 \$3 \$4;
#X obj 564 697 s \$1-to-SPIN;
#X msg 440 738 \; agitated_state 1;
#X obj 11 757 outlet;
#X obj 11 734 prepend duration;
#X msg 276 899 /recsnd\$1 setParam path /home/mis/src/Re-Collect/snd/\$2.wav
\, /recsnd\$1 setParam mul 2 \, /recsnd\$1 setParam play 1 \, /recsnd\$1
setParam speed 1;
#X obj 252 126 s \$1-to-SPIN-TCP;
#X obj 245 829 shell;
#X text 479 818 normalize audio before playback;
#X obj 246 787 pack s s;
#X msg 305 787 -30dBFS;
#X obj 277 715 t s s b;
#X obj 290 763 r normalizationLevel;
#X msg 245 806 normalize-audio -a -40dBFS /home/mis/src/Re-Collect/snd/\$1.wav
;
#X obj 132 36 del 2000;
#X connect 0 0 62 0;
#X connect 1 0 22 0;
#X connect 2 0 38 0;
#X connect 3 0 31 0;
#X connect 3 1 39 0;
#X connect 4 0 40 0;
#X connect 4 0 19 0;
#X connect 4 0 43 0;
#X connect 5 0 17 0;
#X connect 6 0 4 2;
#X connect 6 0 60 0;
#X connect 6 1 7 0;
#X connect 6 2 8 0;
#X connect 7 0 27 0;
#X connect 8 0 7 1;
#X connect 9 0 42 0;
#X connect 9 1 42 1;
#X connect 9 2 42 2;
#X connect 10 0 42 3;
#X connect 10 1 42 4;
#X connect 10 2 42 5;
#X connect 11 0 9 0;
#X connect 11 1 10 0;
#X connect 12 0 3 0;
#X connect 13 0 37 0;
#X connect 14 0 13 0;
#X connect 15 0 4 3;
#X connect 17 0 6 0;
#X connect 17 0 16 0;
#X connect 18 0 14 0;
#X connect 19 0 20 0;
#X connect 21 0 1 0;
#X connect 22 0 4 0;
#X connect 22 0 14 1;
#X connect 22 1 4 1;
#X connect 22 2 5 0;
#X connect 22 3 11 0;
#X connect 22 4 2 0;
#X connect 27 0 29 0;
#X connect 27 1 14 0;
#X connect 29 0 28 0;
#X connect 30 0 21 1;
#X connect 31 0 21 1;
#X connect 33 0 70 0;
#X connect 34 0 3 0;
#X connect 34 1 0 0;
#X connect 39 0 21 0;
#X connect 40 0 37 0;
#X connect 41 0 70 0;
#X connect 42 0 15 0;
#X connect 43 0 50 0;
#X connect 44 0 45 0;
#X connect 44 1 52 0;
#X connect 44 1 53 0;
#X connect 45 0 46 0;
#X connect 46 0 67 0;
#X connect 47 0 48 0;
#X connect 48 0 61 0;
#X connect 48 0 55 0;
#X connect 50 0 44 0;
#X connect 50 1 46 1;
#X connect 51 0 46 0;
#X connect 53 0 54 0;
#X connect 54 0 45 1;
#X connect 55 0 56 0;
#X connect 56 0 57 0;
#X connect 60 0 59 0;
#X connect 61 0 49 0;
#X connect 63 1 47 0;
#X connect 65 0 69 0;
#X connect 66 0 65 1;
#X connect 67 0 65 0;
#X connect 67 1 48 1;
#X connect 67 2 58 0;
#X connect 68 0 65 1;
#X connect 69 0 63 0;
#X connect 70 0 34 0;
