#N canvas 258 300 766 468 10;
#X obj 247 288 loadbang;
#X obj 158 328 s_playtable;
#X obj 197 223 sel 0;
#X obj 414 222 route resize;
#X floatatom 414 262 10 0 0 0 - - -;
#X obj 414 242 / 44.1;
#X obj 258 346 spigot;
#X obj 302 345 tgl 15 0 empty empty empty 17 7 0 10 -262144 -1 -1 0
1;
#X obj 322 291 loadbang;
#X obj 158 391 throw~ \$2;
#X msg 247 308 sr 44100 \, fade 300;
#X obj 197 244 del 10000;
#X obj 158 306 prepend \$1_buf;
#X obj 414 202 r \$1_buf;
#X obj 134 262 bng 15 250 50 0 empty empty empty 17 7 0 10 -262144
-1 -1;
#X floatatom 399 326 5 0 0 0 - - -;
#X msg 35 294 ch3 1 0.5 0 2832.83;
#X obj 106 88 inlet;
#X text 46 65 playcommand (excluding the name of buffer);
#X obj 106 132 unpack;
#X obj 158 283 pack 1 1 0 0;
#X text 415 39 Arguments: <table_name> <out_bus name>;
#X text 427 73 table_name = table to play from;
#X text 429 94 out_bus name = a matching catch~;
#X obj 106 110 route play;
#X msg 322 328 0;
#X connect 0 0 10 0;
#X connect 1 0 9 0;
#X connect 1 1 6 0;
#X connect 2 0 11 0;
#X connect 3 0 5 0;
#X connect 4 0 20 3;
#X connect 5 0 4 0;
#X connect 6 0 20 0;
#X connect 7 0 6 1;
#X connect 8 0 25 0;
#X connect 10 0 1 1;
#X connect 11 0 20 0;
#X connect 12 0 1 0;
#X connect 13 0 3 0;
#X connect 14 0 20 0;
#X connect 15 0 20 1;
#X connect 16 0 1 0;
#X connect 17 0 24 0;
#X connect 19 0 20 0;
#X connect 19 1 20 1;
#X connect 20 0 12 0;
#X connect 24 0 19 0;
#X connect 24 1 1 0;
#X connect 25 0 7 0;
