#N canvas 72 94 1079 721 10;
#X obj 36 -116 inlet;
#N canvas 109 125 450 300 randombits 0;
#X obj 114 35 inlet;
#X obj 114 57 t f b b b;
#X obj 114 149 pack f f f f;
#X obj 114 171 outlet;
#X obj 165 79 expr random(1 \, 1000)*0.1;
#X obj 147 99 expr random(0 \, 70)*0.1;
#X text 297 118 pitch;
#X text 299 100 loop start;
#X text 320 79 loop duration;
#X obj 131 120 expr random(1 \, 120) * 0.01;
#X connect 0 0 1 0;
#X connect 1 0 2 0;
#X connect 1 1 9 0;
#X connect 1 2 5 0;
#X connect 1 3 4 0;
#X connect 2 0 3 0;
#X connect 4 0 2 3;
#X connect 5 0 2 2;
#X connect 9 0 2 1;
#X restore 36 -48 pd randombits;
#X obj 36 9 s \$1-to-SPIN-TCP;
#X msg 158 52 /ml\$1 setParam transposition \$2;
#X floatatom 209 11 5 0 0 0 - - -;
#X obj 158 9 bng 15 250 50 0 empty empty empty 17 7 0 10 -262144 -1
-1;
#X obj 158 74 s \$1-to-SPIN-TCP;
#X obj 36 -70 f \$2;
#N canvas 88 75 504 418 microChords 0;
#X text 126 115 classical just intonation scale;
#X obj 123 203 list-nth;
#X obj 123 156 t a b;
#X msg 123 134 1 1.066 1.111 1.2 1.25 1.333 1.5 1.6 1.666 1.8 1.875
2;
#X obj 150 178 random 12;
#X obj 96 226 *;
#X obj 96 102 t f b;
#X obj 144 271 prepend set;
#X msg 144 293 1333.2 1440;
#X floatatom 177 57 5 0 0 0 - - -;
#X obj 264 250 prepend set;
#X msg 264 272 2 3;
#X obj -2 341 outlet;
#X obj 207 342 outlet;
#X obj 93 9 inlet;
#X obj 96 56 until;
#X obj 174 25 inlet;
#X msg 96 34 2;
#X obj 96 248 list-group 2;
#X obj 216 227 list-group 2;
#X obj 96 80 f 1200;
#X connect 1 0 5 1;
#X connect 2 0 1 0;
#X connect 2 1 4 0;
#X connect 3 0 2 0;
#X connect 4 0 1 1;
#X connect 4 0 19 0;
#X connect 5 0 18 0;
#X connect 6 0 5 0;
#X connect 6 1 3 0;
#X connect 7 0 8 0;
#X connect 7 0 13 0;
#X connect 9 0 20 1;
#X connect 10 0 11 0;
#X connect 14 0 17 0;
#X connect 15 0 20 0;
#X connect 16 0 9 0;
#X connect 17 0 15 0;
#X connect 18 0 7 0;
#X connect 18 0 12 0;
#X connect 19 0 10 0;
#X connect 20 0 6 0;
#X restore 437 -43 pd microChords;
#X msg 505 -14 1333.2 1440;
#X floatatom 518 -65 5 0 0 0 - - -;
#X obj 437 -22 t b a;
#X obj 437 20 list append;
#X msg 437 42 /ml\$1 event freq \$2 \$3;
#X obj 437 -64 inlet;
#X text 442 -87 change chord;
#X obj 437 64 s \$1-to-SPIN-TCP;
#X obj 437 -1 f \$2;
#X text 272 -127 args: \$0 \, ML instance number;
#X obj 36 -94 t b b b;
#X obj 465 126 t b b;
#X obj 465 148 f \$2;
#X obj 465 220 pack f f;
#X obj 497 171 line;
#X obj 497 193 t b a;
#X msg 465 242 /ml\$1 setParam mul \$2;
#X obj 465 264 s \$1-to-SPIN-TCP;
#X obj 158 31 pack 0 0;
#X obj 148 -106 bng 15 250 50 0 empty empty empty 17 7 0 10 -262144
-1 -1;
#X obj 26 162 playlist all 400 300 {Helvetica 10 bold} #457782 yellow
black red;
#X obj 29 77 thisdir;
#X msg 29 121 location \$1;
#X msg -140 218 seek \$1;
#X floatatom -110 167 5 0 0 0 - - -;
#X obj 31 51 bng 15 250 50 0 empty empty empty 17 7 0 10 -262144 -1
-1;
#X obj 29 99 makefilename %s/../snd;
#X obj -226 237 pack f s;
#X obj -199 189 random 30;
#X msg -227 281 /ml\$1 setParam path \$2;
#X obj -226 305 s \$1-to-SPIN-TCP;
#X obj -146 138 r count_media;
#X obj 464 104 del 30000;
#X msg 497 149 0.7 \, 0 5000;
#X msg 459 309 \$1 \$4;
#X obj 459 331 unpack;
#X obj 481 352 * 1000;
#X obj 462 372 pack;
#N canvas 420 209 553 414 sequence 0;
#X obj 94 98 bng 15 250 50 0 empty empty empty 0 -6 0 8 -262144 -1
-1;
#X obj 320 101 bng 15 250 50 0 empty empty empty 0 -6 0 8 -262144 -1
-1;
#X text 315 79 clear;
#X text 91 78 send;
#X obj 94 177 list append;
#X obj 241 152 t l;
#X obj 122 138 list prepend;
#X obj 94 245 t l l;
#X obj 149 245 print start;
#X obj 248 196 print stored;
#X obj 94 321 del;
#X obj 133 323 list append;
#X msg 122 99 250 57;
#X msg 182 99 500 52;
#X msg 243 99 750 55;
#X obj 94 296 unpack;
#X obj 94 270 list split 2;
#X text 175 77 -- add --;
#X obj 225 301 print done;
#X obj 90 12 inlet;
#X obj 90 34 t b a;
#X obj 130 366 outlet;
#X msg 42 77 \$1;
#X obj 31 104 del;
#X connect 0 0 4 0;
#X connect 1 0 6 1;
#X connect 4 0 7 0;
#X connect 5 0 6 1;
#X connect 6 0 5 0;
#X connect 6 0 4 1;
#X connect 6 0 9 0;
#X connect 7 0 16 0;
#X connect 7 1 8 0;
#X connect 10 0 11 0;
#X connect 11 0 16 0;
#X connect 12 0 6 0;
#X connect 13 0 6 0;
#X connect 14 0 6 0;
#X connect 15 0 10 0;
#X connect 15 1 21 0;
#X connect 16 0 15 0;
#X connect 16 1 11 1;
#X connect 16 2 18 0;
#X connect 16 2 1 0;
#X connect 19 0 20 0;
#X connect 20 0 0 0;
#X connect 20 0 23 0;
#X connect 20 1 6 0;
#X connect 20 1 22 0;
#X connect 22 0 23 1;
#X connect 23 0 0 0;
#X restore 461 416 pd sequence;
#X msg 461 394 \$2 \$1;
#X msg 462 443 \; toSpin /reporter* removeTarget constrained\$1;
#X msg -174 474 \; toSpin /reporter* addTarget constrained\$1;
#X text 451 287 sequence removing reporter targets;
#X msg 36 -27 /ml\$1 setParam pitch \$2 \, /ml\$1 setParam start \$3
\, /ml\$1 setParam dur \$4 \, /ml\$1 setParam play 1 \, /ml\$1 setParam
mul 1;
#N canvas 571 148 450 300 linearTranslations 0;
#X obj 124 53 inlet;
#X obj 140 99 random 10;
#X obj 140 121 - 5;
#X obj 207 100 random 10;
#X obj 207 122 - 5;
#X obj 125 181 pack f f f f;
#X obj 125 203 outlet;
#X floatatom 225 20 5 0 0 0 - - -;
#X obj 225 41 / 2;
#X obj 124 75 t b b b b;
#X obj 272 99 random 3;
#X obj 271 120 + 0.5;
#X connect 0 0 9 0;
#X connect 1 0 2 0;
#X connect 2 0 5 1;
#X connect 3 0 4 0;
#X connect 4 0 5 2;
#X connect 5 0 6 0;
#X connect 7 0 8 0;
#X connect 7 0 1 1;
#X connect 7 0 3 1;
#X connect 7 0 10 1;
#X connect 8 0 2 1;
#X connect 8 0 4 1;
#X connect 8 0 11 1;
#X connect 9 0 5 0;
#X connect 9 1 1 0;
#X connect 9 2 3 0;
#X connect 9 3 10 0;
#X connect 10 0 11 0;
#X connect 11 0 5 3;
#X restore 464 513 pd linearTranslations;
#X obj 464 553 s \$1-to-SPIN;
#X obj -94 -16 s \$0-self;
#X obj 461 492 r \$0-self;
#X msg 464 532 /constrained\$1 translateTo \$2 \$3 0 \$4 LinearMotion
;
#X connect 0 0 19 0;
#X connect 1 0 52 0;
#X connect 1 0 50 0;
#X connect 1 0 43 0;
#X connect 3 0 6 0;
#X connect 4 0 27 1;
#X connect 5 0 27 0;
#X connect 7 0 1 0;
#X connect 7 0 27 0;
#X connect 7 0 36 0;
#X connect 7 0 55 0;
#X connect 8 0 11 0;
#X connect 8 1 9 0;
#X connect 10 0 8 1;
#X connect 11 0 17 0;
#X connect 11 1 12 1;
#X connect 12 0 13 0;
#X connect 13 0 16 0;
#X connect 14 0 8 0;
#X connect 17 0 12 0;
#X connect 19 0 7 0;
#X connect 19 1 8 0;
#X connect 19 1 37 0;
#X connect 19 2 34 0;
#X connect 19 2 41 0;
#X connect 20 0 21 0;
#X connect 20 1 42 0;
#X connect 21 0 22 0;
#X connect 22 0 25 0;
#X connect 23 0 24 0;
#X connect 24 0 22 0;
#X connect 24 1 22 1;
#X connect 25 0 26 0;
#X connect 27 0 3 0;
#X connect 28 0 19 0;
#X connect 29 0 36 1;
#X connect 30 0 35 0;
#X connect 31 0 29 0;
#X connect 32 0 29 0;
#X connect 33 0 32 0;
#X connect 34 0 30 0;
#X connect 35 0 31 0;
#X connect 36 0 38 0;
#X connect 37 0 32 0;
#X connect 38 0 39 0;
#X connect 40 0 37 1;
#X connect 41 0 20 0;
#X connect 42 0 23 0;
#X connect 43 0 44 0;
#X connect 44 0 46 0;
#X connect 44 1 45 0;
#X connect 45 0 46 1;
#X connect 46 0 48 0;
#X connect 47 0 49 0;
#X connect 48 0 47 0;
#X connect 52 0 2 0;
#X connect 53 0 57 0;
#X connect 56 0 53 0;
#X connect 57 0 54 0;
