#N canvas 1211 535 669 507 10;
#X obj 36 -92 inlet;
#N canvas 109 137 450 300 randombits 0;
#X obj 114 35 inlet;
#X obj 114 57 t f b b b;
#X obj 114 149 pack f f f f;
#X obj 114 171 outlet;
#X obj 165 79 expr random(1 \, 1000)*0.1;
#X obj 147 99 expr random(0 \, 70)*0.1;
#X obj 131 120 expr random(1 \, 200) * 0.01;
#X text 297 118 pitch;
#X text 299 100 loop start;
#X text 320 79 loop duration;
#X connect 0 0 1 0;
#X connect 1 0 2 0;
#X connect 1 1 6 0;
#X connect 1 2 5 0;
#X connect 1 3 4 0;
#X connect 2 0 3 0;
#X connect 4 0 2 3;
#X connect 5 0 2 2;
#X connect 6 0 2 1;
#X restore 36 -48 pd randombits;
#X msg 36 -26 /ml\$1 setParam pitch \$2 \, /ml\$1 setParam start \$3
\, /ml\$1 setParam dur \$4 \, /ml\$1 setParam play 1;
#X obj 36 9 s \$1-to-SPIN-TCP;
#X text 272 -127 args: \$0 \,;
#X msg 158 52 /ml\$1 setParam transposition \$2;
#X floatatom 209 11 5 0 0 0 - - -;
#X obj 158 9 bng 15 250 50 0 empty empty empty 17 7 0 10 -262144 -1
-1;
#X obj 158 31 pack 0 -7;
#X obj 158 74 s \$1-to-SPIN-TCP;
#X obj 36 -70 f \$2;
#N canvas 88 75 504 418 microChords 0;
#X text 126 115 classical just intonation scale;
#X obj 123 203 list-nth;
#X obj 123 156 t a b;
#X msg 123 134 1 1.066 1.111 1.2 1.25 1.333 1.5 1.6 1.666 1.8 1.875
2;
#X obj 150 178 random 12;
#X obj 96 226 *;
#X obj 96 102 t f b;
#X obj 144 271 prepend set;
#X msg 144 293 200 333.2;
#X floatatom 177 57 5 0 0 0 - - -;
#X obj 264 250 prepend set;
#X msg 264 272 0 8;
#X obj -2 341 outlet;
#X obj 207 342 outlet;
#X obj 93 9 inlet;
#X obj 96 56 until;
#X obj 96 81 f 200;
#X obj 174 25 inlet;
#X msg 96 34 2;
#X obj 96 248 list-group 2;
#X obj 216 227 list-group 2;
#X connect 1 0 5 1;
#X connect 2 0 1 0;
#X connect 2 1 4 0;
#X connect 3 0 2 0;
#X connect 4 0 1 1;
#X connect 4 0 20 0;
#X connect 5 0 19 0;
#X connect 6 0 5 0;
#X connect 6 1 3 0;
#X connect 7 0 8 0;
#X connect 7 0 13 0;
#X connect 9 0 16 1;
#X connect 10 0 11 0;
#X connect 14 0 18 0;
#X connect 15 0 16 0;
#X connect 16 0 6 0;
#X connect 17 0 9 0;
#X connect 18 0 15 0;
#X connect 19 0 7 0;
#X connect 19 0 12 0;
#X connect 20 0 10 0;
#X restore 437 -43 pd microChords;
#X msg 505 -14 200 333.2;
#X floatatom 518 -65 5 0 0 0 - - -;
#X obj 437 -1 f;
#X obj 437 -22 t b a;
#X obj 437 20 list append;
#X msg 437 42 /ml\$1 event freq \$2 \$3;
#X obj 437 -64 inlet;
#X text 442 -87 change chord;
#X obj 437 64 s \$1-to-SPIN-TCP;
#X connect 0 0 10 0;
#X connect 1 0 2 0;
#X connect 2 0 3 0;
#X connect 5 0 9 0;
#X connect 6 0 8 1;
#X connect 7 0 8 0;
#X connect 8 0 5 0;
#X connect 10 0 1 0;
#X connect 10 0 8 0;
#X connect 11 0 15 0;
#X connect 11 1 12 0;
#X connect 13 0 11 1;
#X connect 14 0 16 0;
#X connect 15 0 14 0;
#X connect 15 1 16 1;
#X connect 16 0 17 0;
#X connect 17 0 20 0;
#X connect 18 0 11 0;
