#N canvas 3 75 1009 665 10;
#X obj 36 -116 inlet;
#N canvas 148 122 450 300 randombits 0;
#X obj 114 5 inlet;
#X obj 113 252 outlet;
#X obj 146 180 expr random(0 \, 70)*0.1;
#X text 296 199 pitch;
#X text 298 181 loop start;
#X text 319 160 loop duration;
#X obj 130 201 expr random(1 \, 120) * 0.01;
#X obj 164 160 expr random(1 \, 25)*0.1;
#X obj 114 27 t f b b b b;
#X obj 231 88 r volume_scale;
#X obj 113 230 pack f f f f f;
#X text 337 88 volume;
#X obj 231 110 * 0.01;
#X obj 204 138 * 0.7;
#X obj 204 67 expr random(5 \, 10)*0.5;
#X connect 0 0 8 0;
#X connect 2 0 10 2;
#X connect 6 0 10 1;
#X connect 7 0 10 3;
#X connect 8 0 10 0;
#X connect 8 1 6 0;
#X connect 8 2 2 0;
#X connect 8 3 7 0;
#X connect 8 4 14 0;
#X connect 9 0 12 0;
#X connect 10 0 1 0;
#X connect 12 0 13 1;
#X connect 13 0 10 4;
#X connect 14 0 13 0;
#X restore 36 -48 pd randombits;
#X obj 36 9 s \$1-to-SPIN-TCP;
#X obj 36 -70 f \$2;
#X text 272 -127 args: \$0 \, ML instance number;
#X obj 36 -94 t b b b;
#X obj 75 -115 bng 15 250 50 0 empty empty empty 17 7 0 10 -262144
-1 -1;
#X obj 12 168 playlist all 250 300 {Helvetica 10 bold} #457782 yellow
black red;
#X obj 29 77 thisdir;
#X msg -140 218 seek \$1;
#X floatatom -88 218 5 0 0 0 - - -;
#X obj 31 51 bng 15 250 50 0 empty empty empty 17 7 0 10 -262144 -1
-1;
#X obj 29 99 makefilename %s/../snd;
#X obj -139 446 pack f s;
#X msg -139 469 /ml\$1 setParam path \$2;
#X obj -138 493 s \$1-to-SPIN-TCP;
#X msg 36 484 \; toSpin /reporter* addTarget constrained\$1;
#X obj -51 -41 s \$0-self;
#X obj -98 174 r count_media;
#X msg 29 121 location \$1 \, sort 0;
#X msg 36 -27 /ml\$1 setParam pitch \$2 \, /ml\$1 setParam start \$3
\, /ml\$1 setParam dur \$4 \, /ml\$1 setParam play 1 \, /ml\$1 setParam
mul \$5;
#X obj -145 196 weighted;
#X obj 91 -94 s \$0-bang;
#X obj 122 -49 s \$0-randombits;
#X obj 459 -107 cnv 15 150 180 empty empty empty 20 12 0 14 -233017
-66577 0;
#X msg 720 -49 /ml\$1 setParam transposition \$2;
#X floatatom 774 -69 5 0 0 0 - - -;
#X obj 720 -27 s \$1-to-SPIN-TCP;
#N canvas 88 80 504 418 microChords 0;
#X text 126 115 classical just intonation scale;
#X obj 123 203 list-nth;
#X obj 123 156 t a b;
#X msg 123 134 1 1.066 1.111 1.2 1.25 1.333 1.5 1.6 1.666 1.8 1.875
2;
#X obj 150 178 random 12;
#X obj 96 226 *;
#X obj 96 102 t f b;
#X obj 144 271 prepend set;
#X msg 144 293 1279.2 1920;
#X floatatom 177 57 5 0 0 0 - - -;
#X obj 264 250 prepend set;
#X msg 264 272 1 7;
#X obj -2 341 outlet;
#X obj 207 342 outlet;
#X obj 93 9 inlet;
#X obj 96 56 until;
#X obj 174 25 inlet;
#X msg 96 34 2;
#X obj 96 248 list-group 2;
#X obj 216 227 list-group 2;
#X obj 96 80 f 1200;
#X connect 1 0 5 1;
#X connect 2 0 1 0;
#X connect 2 1 4 0;
#X connect 3 0 2 0;
#X connect 4 0 1 1;
#X connect 4 0 19 0;
#X connect 5 0 18 0;
#X connect 6 0 5 0;
#X connect 6 1 3 0;
#X connect 7 0 8 0;
#X connect 7 0 13 0;
#X connect 9 0 20 1;
#X connect 10 0 11 0;
#X connect 14 0 17 0;
#X connect 15 0 20 0;
#X connect 16 0 9 0;
#X connect 17 0 15 0;
#X connect 18 0 7 0;
#X connect 18 0 12 0;
#X connect 19 0 10 0;
#X connect 20 0 6 0;
#X restore 460 -54 pd microChords;
#X msg 528 -25 1279.2 1920;
#X floatatom 541 -76 5 0 0 0 - - -;
#X obj 460 -33 t b a;
#X obj 460 9 list append;
#X msg 460 31 /ml\$1 event freq \$2 \$3;
#X obj 460 -75 inlet;
#X text 533 -101 change chord;
#X obj 460 53 s \$1-to-SPIN-TCP;
#X obj 460 -12 f \$2;
#X obj 720 -70 pack 0 0;
#N canvas 1117 138 450 300 linearTranslations 0;
#X obj 124 53 inlet;
#X obj 140 99 random 10;
#X obj 140 121 - 5;
#X obj 207 100 random 10;
#X obj 207 122 - 5;
#X obj 125 181 pack f f f f;
#X obj 125 203 outlet;
#X floatatom 225 20 5 0 0 0 - - -;
#X obj 225 41 / 2;
#X obj 124 75 t f b b b;
#X obj 271 120 + 5;
#X obj 272 99 random 10;
#X connect 0 0 9 0;
#X connect 1 0 2 0;
#X connect 2 0 5 1;
#X connect 3 0 4 0;
#X connect 4 0 5 2;
#X connect 5 0 6 0;
#X connect 7 0 8 0;
#X connect 7 0 1 1;
#X connect 7 0 3 1;
#X connect 7 0 11 1;
#X connect 8 0 2 1;
#X connect 8 0 4 1;
#X connect 8 0 10 1;
#X connect 9 0 5 0;
#X connect 9 1 1 0;
#X connect 9 2 3 0;
#X connect 9 3 11 0;
#X connect 10 0 5 3;
#X connect 11 0 10 0;
#X restore 676 319 pd linearTranslations;
#X obj 677 359 s \$1-to-SPIN;
#X obj 676 298 r \$0-self;
#X msg 676 338 /constrained\$1 translateTo \$2 \$3 0 \$4 LinearMotion
;
#X msg 618 7 /ml\$1 setParam pitch \$2 \, /ml\$1 setParam start \$3
\, /ml\$1 setParam dur \$4 \, /ml\$1 setParam play 1 \, /ml\$1 setParam
mul 0.3 \, /ml\$1 setParam harm_wet 0.5 \, /ml\$1 setParam xfade 20
\, /ml\$1 setParam res_mix 0.5;
#N canvas 109 137 450 300 randombits 0;
#X obj 114 35 inlet;
#X obj 114 57 t f b b b;
#X obj 114 149 pack f f f f;
#X obj 114 171 outlet;
#X obj 147 99 expr random(0 \, 70)*0.1;
#X obj 131 120 expr random(1 \, 200) * 0.01;
#X text 297 118 pitch;
#X text 299 100 loop start;
#X text 320 79 loop duration;
#X obj 165 79 expr random(1 \, 500)*0.1;
#X connect 0 0 1 0;
#X connect 1 0 2 0;
#X connect 1 1 5 0;
#X connect 1 2 4 0;
#X connect 1 3 9 0;
#X connect 2 0 3 0;
#X connect 4 0 2 2;
#X connect 5 0 2 1;
#X connect 9 0 2 3;
#X restore 618 -19 pd randombits;
#X msg 618 233 /ml11 setParam start \$1;
#X obj 617 256 s \$1-to-SPIN;
#X floatatom 620 214 5 0 0 0 - - -;
#X obj 498 -77 bng 15 250 50 0 empty empty empty 17 7 0 10 -262144
-1 -1;
#X msg 620 95 \$3;
#X text 646 90 onset;
#X obj 620 117 moses 3;
#X msg 620 139 \$1 \, 4 15000;
#X msg 631 162 \$0 \, 0 15000;
#X obj 620 192 line;
#X obj 720 -92 r \$0-self;
#X obj 459 -102 r \$0-bang;
#X obj 617 -42 r \$0-self;
#X obj 620 73 r \$0-randombits;
#X obj 459 75 cnv 15 150 205 empty empty empty 20 12 0 14 -233017 -66577
0;
#X obj 467 121 t b b;
#X obj 467 143 f \$2;
#X obj 467 215 pack f f;
#X obj 499 166 line;
#X obj 499 188 t b a;
#X msg 467 237 /ml\$1 setParam mul \$2;
#X obj 467 259 s \$1-to-SPIN-TCP;
#X msg 499 144 0.7 \, 0 5000;
#X obj 466 99 del 10000;
#X obj 466 78 r \$0-bang;
#X obj 384 284 cnv 15 280 205 empty empty empty 20 12 0 14 -233017
-66577 0;
#X msg 388 321 \$1 \$4;
#X obj 388 343 unpack;
#X obj 407 364 * 1000;
#X obj 388 384 pack;
#N canvas 420 206 553 414 sequence 0;
#X obj 94 98 bng 15 250 50 0 empty empty empty 0 -6 0 8 -262144 -1
-1;
#X obj 320 101 bng 15 250 50 0 empty empty empty 0 -6 0 8 -262144 -1
-1;
#X text 315 79 clear;
#X text 91 78 send;
#X obj 94 177 list append;
#X obj 241 152 t l;
#X obj 122 138 list prepend;
#X obj 94 245 t l l;
#X obj 149 245 print start;
#X obj 248 196 print stored;
#X obj 94 321 del;
#X obj 133 323 list append;
#X msg 122 99 250 57;
#X msg 182 99 500 52;
#X msg 243 99 750 55;
#X obj 94 296 unpack;
#X obj 94 270 list split 2;
#X text 175 77 -- add --;
#X obj 225 301 print done;
#X obj 90 12 inlet;
#X obj 90 34 t b a;
#X obj 130 366 outlet;
#X msg 42 77 \$1;
#X obj 31 104 del;
#X connect 0 0 4 0;
#X connect 1 0 6 1;
#X connect 4 0 7 0;
#X connect 5 0 6 1;
#X connect 6 0 5 0;
#X connect 6 0 4 1;
#X connect 6 0 9 0;
#X connect 7 0 16 0;
#X connect 7 1 8 0;
#X connect 10 0 11 0;
#X connect 11 0 16 0;
#X connect 12 0 6 0;
#X connect 13 0 6 0;
#X connect 14 0 6 0;
#X connect 15 0 10 0;
#X connect 15 1 21 0;
#X connect 16 0 15 0;
#X connect 16 1 11 1;
#X connect 16 2 18 0;
#X connect 16 2 1 0;
#X connect 19 0 20 0;
#X connect 20 0 0 0;
#X connect 20 0 23 0;
#X connect 20 1 6 0;
#X connect 20 1 22 0;
#X connect 22 0 23 1;
#X connect 23 0 0 0;
#X restore 387 428 pd sequence;
#X msg 387 406 \$2 \$1;
#X msg 388 455 \; toSpin /reporter* removeTarget constrained\$1;
#X text 394 303 sequence removing reporter targets;
#X obj 388 291 r \$0-randombits;
#X connect 0 0 5 0;
#X connect 1 0 20 0;
#X connect 1 0 16 0;
#X connect 1 0 23 0;
#X connect 3 0 1 0;
#X connect 3 0 13 0;
#X connect 3 0 17 0;
#X connect 5 0 3 0;
#X connect 5 1 21 0;
#X connect 5 2 11 0;
#X connect 5 2 22 0;
#X connect 6 0 5 0;
#X connect 7 0 13 1;
#X connect 8 0 12 0;
#X connect 9 0 7 0;
#X connect 10 0 9 0;
#X connect 11 0 8 0;
#X connect 12 0 19 0;
#X connect 13 0 14 0;
#X connect 14 0 15 0;
#X connect 18 0 21 1;
#X connect 19 0 7 0;
#X connect 20 0 2 0;
#X connect 21 0 9 0;
#X connect 25 0 27 0;
#X connect 26 0 38 1;
#X connect 28 0 31 0;
#X connect 28 1 29 0;
#X connect 30 0 28 1;
#X connect 31 0 37 0;
#X connect 31 1 32 1;
#X connect 32 0 33 0;
#X connect 33 0 36 0;
#X connect 34 0 28 0;
#X connect 37 0 32 0;
#X connect 38 0 25 0;
#X connect 39 0 42 0;
#X connect 41 0 39 0;
#X connect 42 0 40 0;
#X connect 44 0 43 0;
#X connect 45 0 46 0;
#X connect 47 0 45 0;
#X connect 48 0 28 0;
#X connect 49 0 51 0;
#X connect 51 0 52 0;
#X connect 52 0 54 0;
#X connect 53 0 54 0;
#X connect 54 0 47 0;
#X connect 55 0 38 0;
#X connect 56 0 28 0;
#X connect 57 0 44 0;
#X connect 58 0 49 0;
#X connect 60 0 61 0;
#X connect 60 1 67 0;
#X connect 61 0 62 0;
#X connect 62 0 65 0;
#X connect 63 0 64 0;
#X connect 64 0 62 0;
#X connect 64 1 62 1;
#X connect 65 0 66 0;
#X connect 67 0 63 0;
#X connect 68 0 60 0;
#X connect 69 0 68 0;
#X connect 71 0 72 0;
#X connect 72 0 74 0;
#X connect 72 1 73 0;
#X connect 73 0 74 1;
#X connect 74 0 76 0;
#X connect 75 0 77 0;
#X connect 76 0 75 0;
#X connect 79 0 71 0;
