#N canvas 137 75 884 631 10;
#X obj 36 -116 inlet;
#N canvas 109 128 450 300 randombits 1;
#X obj 114 35 inlet;
#X obj 114 57 t f b b b;
#X obj 114 149 pack f f f f;
#X obj 114 171 outlet;
#X obj 165 79 expr random(1 \, 1000)*0.1;
#X obj 147 99 expr random(0 \, 70)*0.1;
#X text 297 118 pitch;
#X text 299 100 loop start;
#X text 320 79 loop duration;
#X obj 131 120 expr random(1 \, 120) * 0.01;
#X connect 0 0 1 0;
#X connect 1 0 2 0;
#X connect 1 1 9 0;
#X connect 1 2 5 0;
#X connect 1 3 4 0;
#X connect 2 0 3 0;
#X connect 4 0 2 3;
#X connect 5 0 2 2;
#X connect 9 0 2 1;
#X restore 36 -48 pd randombits;
#X obj 36 9 s \$1-to-SPIN-TCP;
#X msg 158 52 /ml\$1 setParam transposition \$2;
#X floatatom 209 11 5 0 0 0 - - -;
#X obj 158 9 bng 15 250 50 0 empty empty empty 17 7 0 10 -262144 -1
-1;
#X obj 158 74 s \$1-to-SPIN-TCP;
#X obj 36 -70 f \$2;
#N canvas 88 75 504 418 microChords 0;
#X text 126 115 classical just intonation scale;
#X obj 123 203 list-nth;
#X obj 123 156 t a b;
#X msg 123 134 1 1.066 1.111 1.2 1.25 1.333 1.5 1.6 1.666 1.8 1.875
2;
#X obj 150 178 random 12;
#X obj 96 226 *;
#X obj 96 102 t f b;
#X obj 144 271 prepend set;
#X msg 144 293 1279.2 1800;
#X floatatom 177 57 5 0 0 0 - - -;
#X obj 264 250 prepend set;
#X msg 264 272 1 6;
#X obj -2 341 outlet;
#X obj 207 342 outlet;
#X obj 93 9 inlet;
#X obj 96 56 until;
#X obj 174 25 inlet;
#X msg 96 34 2;
#X obj 96 248 list-group 2;
#X obj 216 227 list-group 2;
#X obj 96 80 f 1200;
#X connect 1 0 5 1;
#X connect 2 0 1 0;
#X connect 2 1 4 0;
#X connect 3 0 2 0;
#X connect 4 0 1 1;
#X connect 4 0 19 0;
#X connect 5 0 18 0;
#X connect 6 0 5 0;
#X connect 6 1 3 0;
#X connect 7 0 8 0;
#X connect 7 0 13 0;
#X connect 9 0 20 1;
#X connect 10 0 11 0;
#X connect 14 0 17 0;
#X connect 15 0 20 0;
#X connect 16 0 9 0;
#X connect 17 0 15 0;
#X connect 18 0 7 0;
#X connect 18 0 12 0;
#X connect 19 0 10 0;
#X connect 20 0 6 0;
#X restore 437 -43 pd microChords;
#X msg 505 -14 1279.2 1800;
#X floatatom 518 -65 5 0 0 0 - - -;
#X obj 437 -22 t b a;
#X obj 437 20 list append;
#X msg 437 42 /ml\$1 event freq \$2 \$3;
#X obj 437 -64 inlet;
#X text 442 -87 change chord;
#X obj 437 64 s \$1-to-SPIN-TCP;
#X obj 437 -1 f \$2;
#X text 272 -127 args: \$0 \, ML instance number;
#X obj 36 -94 t b b b;
#X obj 465 126 t b b;
#X obj 465 148 f \$2;
#X obj 465 220 pack f f;
#X obj 497 171 line;
#X obj 497 193 t b a;
#X msg 465 242 /ml\$1 setParam mul \$2;
#X obj 465 264 s \$1-to-SPIN-TCP;
#X msg 497 149 1 \, 0 5000;
#X obj 158 31 pack 0 0;
#X obj 148 -106 bng 15 250 50 0 empty empty empty 17 7 0 10 -262144
-1 -1;
#X obj 29 159 playlist all 400 300 {Helvetica 10 bold} #457782 yellow
black red;
#X obj 29 77 thisdir;
#X msg 29 121 location \$1;
#X msg -140 218 seek \$1;
#X floatatom -110 167 5 0 0 0 - - -;
#X obj 31 51 bng 15 250 50 0 empty empty empty 17 7 0 10 -262144 -1
-1;
#X obj 29 99 makefilename %s/../snd;
#X obj -226 237 pack f s;
#X obj -199 189 random 30;
#X msg -227 281 /ml\$1 setParam path \$2;
#X obj -226 305 s \$1-to-SPIN-TCP;
#X obj -146 138 r count_media;
#X msg 36 -27 /ml\$1 setParam pitch \$2 \, /ml\$1 setParam start \$3
\, /ml\$1 setParam dur \$4 \, /ml\$1 setParam play 1 \, /ml\$1 setParam
mul 3;
#X obj 464 104 del 30000;
#X connect 0 0 19 0;
#X connect 1 0 42 0;
#X connect 3 0 6 0;
#X connect 4 0 28 1;
#X connect 5 0 28 0;
#X connect 7 0 1 0;
#X connect 7 0 28 0;
#X connect 7 0 37 0;
#X connect 8 0 11 0;
#X connect 8 1 9 0;
#X connect 10 0 8 1;
#X connect 11 0 17 0;
#X connect 11 1 12 1;
#X connect 12 0 13 0;
#X connect 13 0 16 0;
#X connect 14 0 8 0;
#X connect 17 0 12 0;
#X connect 19 0 7 0;
#X connect 19 1 8 0;
#X connect 19 1 38 0;
#X connect 19 2 35 0;
#X connect 19 2 43 0;
#X connect 20 0 21 0;
#X connect 20 1 27 0;
#X connect 21 0 22 0;
#X connect 22 0 25 0;
#X connect 23 0 24 0;
#X connect 24 0 22 0;
#X connect 24 1 22 1;
#X connect 25 0 26 0;
#X connect 27 0 23 0;
#X connect 28 0 3 0;
#X connect 29 0 19 0;
#X connect 30 0 37 1;
#X connect 31 0 36 0;
#X connect 32 0 30 0;
#X connect 33 0 30 0;
#X connect 34 0 33 0;
#X connect 35 0 31 0;
#X connect 36 0 32 0;
#X connect 37 0 39 0;
#X connect 38 0 33 0;
#X connect 39 0 40 0;
#X connect 41 0 38 1;
#X connect 42 0 2 0;
#X connect 43 0 20 0;
