#N canvas 0 0 653 535 10;
#N canvas 0 0 593 530 monitor-activity 0;
#X obj 98 268 outlet;
#X obj 98 122 t b b;
#X msg 161 184 1;
#X obj 98 184 del 150;
#X msg 98 205 0;
#X obj 98 235 change -1;
#X obj 98 84 inlet;
#X obj 144 84 inlet;
#X text 321 83 monitor activity;
#X connect 1 0 3 0;
#X connect 1 1 2 0;
#X connect 2 0 5 0;
#X connect 3 0 4 0;
#X connect 4 0 5 0;
#X connect 5 0 0 0;
#X connect 6 0 1 0;
#X connect 7 0 3 1;
#X restore 199 151 pd monitor-activity;
#X floatatom 329 125 5 0 0 1 wait-period - -;
#X floatatom 199 93 5 0 0 0 - - -;
#X msg 252 92 bang;
#X obj 199 193 tgl 15 0 empty empty empty 17 7 0 10 -262144 -1 -1 0
1;
#X obj 130 115 select 1;
#X msg 112 74 1;
#X msg 148 75 0;
#X floatatom 334 349 5 0 0 1 wait-period - -;
#X floatatom 201 308 5 0 0 0 - - -;
#X msg 254 307 bang;
#X obj 132 330 select 1;
#X msg 114 289 1;
#X msg 150 290 0;
#X obj 201 366 b;
#X obj 201 418 bng 15 250 50 0 empty empty empty 17 7 0 10 -262144
-1 -1;
#X text 77 15 Will send a 0 \, when nothing happens for "wait-period"
milliseconds (default is 150 ms) \, and send a 1 \, if something happens:
;
#X text 80 248 Simpler version will only report missing activity with
a bang:;
#X msg 299 306 start monitoring;
#X obj 201 388 del 500;
#X connect 0 0 4 0;
#X connect 1 0 0 1;
#X connect 2 0 0 0;
#X connect 3 0 0 0;
#X connect 5 0 0 0;
#X connect 6 0 5 0;
#X connect 7 0 5 0;
#X connect 8 0 19 1;
#X connect 9 0 14 0;
#X connect 10 0 14 0;
#X connect 11 0 14 0;
#X connect 12 0 11 0;
#X connect 13 0 11 0;
#X connect 14 0 19 0;
#X connect 18 0 14 0;
#X connect 19 0 15 0;
