#N canvas 151 119 609 473 10;
#X obj 6 7 cnv 15 120 60 empty empty empty 20 12 0 14 -183083 -66577
0;
#X obj 100 165 tgl 24 1 empty empty Play -3 -6 0 14 -262144 -1 -1 0
1;
#X obj 129 373 outlet~;
#X obj 413 164 bng 24 250 50 0 empty empty Read -3 -6 0 14 -262144
-1 -1;
#X obj 204 266 loop1~ stevie.aif;
#X obj 129 351 sw1~;
#X obj 355 241 inlet;
#X text 352 227 readFile;
#X obj 456 221 inlet;
#X text 453 207 play-switch;
#X text 16 429 xjimmies lib. z. settel/jm dumas 2003-2007;
#X connect 1 0 5 1;
#X connect 1 0 4 0;
#X connect 3 0 4 0;
#X connect 4 0 5 0;
#X connect 5 0 2 0;
#X connect 6 0 4 1;
#X connect 8 0 1 0;
#X coords 0 428 2 427 119 59 1;
