#N canvas 495 235 463 384 10;
#X obj 71 88 fileBrowser;
#X obj 302 22 bng 15 250 50 0 empty empty empty 17 7 0 10 -262144 -1
-1;
#X obj 78 333 readsf~;
#X msg 102 272 open \$1;
#X msg 47 286 1;
#X obj 108 11 loadbang;
#X msg 108 40 symbol snd;
#X obj 88 363 throw~ \$1;
#X text 294 272 arguments: catch~ bus;
#X obj 22 6 inlet;
#X obj 21 61 + 1;
#X obj 19 36 random 50;
#X obj 66 253 t b a a;
#X obj 205 300 print NOW_PLAYING:;
#X connect 0 0 12 0;
#X connect 1 0 0 1;
#X connect 2 0 7 0;
#X connect 3 0 2 0;
#X connect 4 0 2 0;
#X connect 5 0 6 0;
#X connect 6 0 0 0;
#X connect 9 0 11 0;
#X connect 10 0 0 0;
#X connect 11 0 10 0;
#X connect 12 0 4 0;
#X connect 12 1 3 0;
#X connect 12 2 13 0;
