#N canvas 0 0 450 300 10;
#X msg 79 137 gpos \$1;
#X obj 79 90 random 100;
#X obj 79 114 * 0.01;
#X msg 183 113 duration \$1;
#X msg 272 116 freqmult \$1;
#X obj 272 70 random 10;
#X obj 272 94 - 5;
#X obj 81 19 inlet;
#X obj 82 40 t b b b;
#X obj 82 190 outlet;
#X obj 183 91 random 100;
#X connect 0 0 9 0;
#X connect 1 0 2 0;
#X connect 2 0 0 0;
#X connect 3 0 9 0;
#X connect 4 0 9 0;
#X connect 5 0 6 0;
#X connect 6 0 4 0;
#X connect 7 0 8 0;
#X connect 8 0 1 0;
#X connect 8 1 10 0;
#X connect 8 2 5 0;
#X connect 10 0 3 0;
