#N canvas 12 75 751 550 10;
#X msg 65 57 record \$1;
#X obj 65 39 tgl 15 0 empty empty empty 17 7 0 10 -262144 -1 -1 0 1
;
#X obj 247 288 loadbang;
#X obj 158 328 s_playtable;
#X obj 158 240 sel 0;
#X obj 65 19 r trigger_rec_\$1;
#X obj 414 222 route resize;
#X floatatom 414 262 10 0 0 0 - - -;
#X obj 414 242 / 44.1;
#X obj 258 346 spigot;
#X obj 302 345 tgl 15 0 empty empty empty 17 7 0 10 -262144 -1 -1 1
1;
#X obj 322 291 loadbang;
#X msg 322 328 1;
#X obj 127 381 throw~ \$2;
#X msg 247 308 sr 44100 \, fade 300;
#X obj 158 261 del 10000;
#X obj 65 77 mis.infrec~ \$1_buf;
#X obj 158 306 prepend \$1_buf;
#X obj 414 202 r \$1_buf;
#X obj 134 262 bng 15 250 50 0 empty empty empty 17 7 0 10 -262144
-1 -1;
#X floatatom 399 326 5 0 0 0 - - -;
#X msg 35 294 ch3 1 0.5 0 2832.83;
#X obj 510 92 inlet;
#X obj 510 114 route play;
#X text 450 69 playcommand (excluding the name of buffer);
#X obj 510 136 unpack;
#X obj 158 283 pack 1 1 0 0;
#X connect 0 0 16 0;
#X connect 1 0 0 0;
#X connect 1 0 4 0;
#X connect 2 0 14 0;
#X connect 3 0 13 0;
#X connect 3 1 9 0;
#X connect 4 0 15 0;
#X connect 5 0 1 0;
#X connect 6 0 8 0;
#X connect 7 0 26 3;
#X connect 8 0 7 0;
#X connect 9 0 26 0;
#X connect 10 0 9 1;
#X connect 11 0 12 0;
#X connect 12 0 10 0;
#X connect 14 0 3 1;
#X connect 15 0 26 0;
#X connect 17 0 3 0;
#X connect 18 0 6 0;
#X connect 19 0 26 0;
#X connect 20 0 26 1;
#X connect 21 0 3 0;
#X connect 22 0 23 0;
#X connect 23 0 25 0;
#X connect 25 0 26 0;
#X connect 25 1 26 1;
#X connect 26 0 17 0;
