#N canvas 0 0 450 300 10;
#X obj 79 212 outlet~;
#X obj 76 142 line~;
#X obj 224 139 line~;
#X obj 223 209 outlet~;
#X obj 77 164 tabread4~ \$1;
#X obj 224 161 tabread4~ \$1;
#X obj 93 53 inlet;
#X obj 215 52 inlet;
#X msg 76 122 88200 \, 0 2000;
#X msg 224 119 0 \, 88200 2000;
#X connect 1 0 4 0;
#X connect 2 0 5 0;
#X connect 4 0 0 0;
#X connect 5 0 3 0;
#X connect 6 0 8 0;
#X connect 7 0 9 0;
#X connect 8 0 1 0;
#X connect 9 0 2 0;
