#N canvas 52 34 708 551 10;
#X obj 95 66 pack;
#X obj 93 31 notein;
#X obj 40 252 vsl 15 128 0 127 0 0 empty empty empty 0 -8 0 8 -262144
-1 -1 0 1;
#X floatatom 61 270 5 0 0 0 - - -;
#X obj 138 252 vsl 15 128 0 127 0 0 empty empty empty 0 -8 0 8 -262144
-1 -1 0 1;
#X floatatom 159 270 5 0 0 0 - - -;
#X obj 241 249 vsl 15 128 0 127 0 0 empty empty empty 0 -8 0 8 -262144
-1 -1 0 1;
#X floatatom 262 267 5 0 0 0 - - -;
#X obj 418 305 tgl 15 0 empty empty empty 0 -6 0 8 -262144 -1 -1 1
1;
#X obj 499 278 tgl 15 0 empty empty empty 0 -6 0 8 -262144 -1 -1 1
1;
#X obj 93 100 route 0 1 2 3 4;
#X obj 418 328 s trig1;
#X obj 496 369 s trig2;
#X obj 40 390 s sonar1;
#X obj 138 392 s sonar2;
#X obj 241 391 s sonar3;
#X connect 0 0 10 0;
#X connect 1 0 0 0;
#X connect 1 1 0 1;
#X connect 2 0 13 0;
#X connect 4 0 14 0;
#X connect 6 0 15 0;
#X connect 8 0 11 0;
#X connect 9 0 12 0;
#X connect 10 0 2 0;
#X connect 10 0 3 0;
#X connect 10 1 4 0;
#X connect 10 1 5 0;
#X connect 10 2 6 0;
#X connect 10 2 7 0;
#X connect 10 3 8 0;
#X connect 10 4 9 0;
