#N canvas 189 100 832 531 10;
#X obj 46 -106 inlet;
#N canvas 571 105 450 300 randombits 0;
#X obj 114 35 inlet;
#X obj 114 57 t f b b b;
#X obj 114 149 pack f f f f;
#X obj 114 171 outlet;
#X text 297 118 pitch;
#X obj 131 120 expr random(1 \, 150) * 0.01;
#X obj 147 99 expr random(10 \, 30)*0.1;
#X text 308 74 volume;
#X obj 165 79 expr random(30 \, 50)*0.1;
#X connect 0 0 1 0;
#X connect 1 0 2 0;
#X connect 1 1 5 0;
#X connect 1 2 6 0;
#X connect 1 3 8 0;
#X connect 2 0 3 0;
#X connect 5 0 2 1;
#X connect 6 0 2 2;
#X connect 8 0 2 3;
#X restore 46 -38 pd randombits;
#X obj 46 19 s \$1-to-SPIN-TCP;
#X obj 46 -60 f \$2;
#X text 282 -117 args: \$0 \, ML instance number;
#X obj 158 -96 bng 15 250 50 0 empty empty empty 17 7 0 10 -262144
-1 -1;
#X obj 506 18 playlist all 400 300 {Helvetica 10 bold} #457782 yellow
black red;
#X obj 506 -73 thisdir;
#X msg 506 -29 location \$1;
#X msg 337 68 seek \$1;
#X floatatom 367 17 5 0 0 0 - - -;
#X obj 508 -99 bng 15 250 50 0 empty empty empty 17 7 0 10 -262144
-1 -1;
#X obj 506 -51 makefilename %s/../snd;
#X msg 259 127 /snd\$1 setParam path \$2;
#X obj 251 87 pack f s;
#X obj 278 39 random 30;
#X obj 46 -84 t b b b b;
#X obj 412 -36 r count_media;
#X msg 45 -16 /snd\$1 setParam speed \$2 \, /snd\$1 setParam mul 5
\, /snd\$1 setParam play 1;
#X connect 0 0 16 0;
#X connect 1 0 18 0;
#X connect 3 0 1 0;
#X connect 3 0 14 0;
#X connect 5 0 16 0;
#X connect 6 0 14 1;
#X connect 7 0 12 0;
#X connect 8 0 6 0;
#X connect 9 0 6 0;
#X connect 10 0 9 0;
#X connect 11 0 7 0;
#X connect 12 0 8 0;
#X connect 13 0 2 0;
#X connect 14 0 13 0;
#X connect 15 0 9 0;
#X connect 16 0 3 0;
#X connect 16 2 15 0;
#X connect 16 3 11 0;
#X connect 17 0 15 1;
#X connect 18 0 2 0;
