#N canvas 3 75 1009 665 10;
#X obj 46 -106 inlet;
#N canvas 571 89 450 300 randombits 0;
#X obj 114 35 inlet;
#X obj 114 57 t f b b b;
#X obj 114 249 pack f f f f;
#X obj 114 271 outlet;
#X text 297 178 pitch;
#X text 308 74 volume;
#X obj 131 220 expr random(1 \, 120) * 0.01;
#X obj 192 101 r volume_scale;
#X obj 192 123 * 0.01;
#X text 294 217 speed;
#X obj 147 198 expr random(5 \, 15)*0.1;
#X obj 165 161 * 0.7;
#X obj 165 79 expr random(4 \, 10)*0.8;
#X connect 0 0 1 0;
#X connect 1 0 2 0;
#X connect 1 1 6 0;
#X connect 1 2 10 0;
#X connect 1 3 12 0;
#X connect 2 0 3 0;
#X connect 6 0 2 1;
#X connect 7 0 8 0;
#X connect 8 0 11 1;
#X connect 10 0 2 2;
#X connect 11 0 2 3;
#X connect 12 0 11 0;
#X restore 47 -38 pd randombits;
#X obj 46 -60 f \$2;
#X text 282 -117 args: \$0 \, ML instance number;
#X obj 85 -105 bng 15 250 50 0 empty empty empty 17 7 0 10 -262144
-1 -1;
#X obj 516 40 playlist all 250 300 {Helvetica 10 bold} #457782 yellow
black red;
#X obj 519 -42 thisdir;
#X msg 273 87 seek \$1;
#X obj 521 -68 bng 15 250 50 0 empty empty empty 17 7 0 10 -262144
-1 -1;
#X obj 519 -20 makefilename %s/../snd;
#X msg 310 421 /snd\$1 setParam path \$2;
#X obj 310 398 pack f s;
#X obj 46 -84 t b b b b;
#X obj 318 44 r count_media;
#X msg 49 -19 /snd\$1 setParam speed \$2 \, /snd\$1 setParam mul \$4
\, /snd\$1 setParam play 1;
#X obj 70 178 unpack;
#X obj 92 199 * 1000;
#X obj 73 219 pack;
#N canvas 420 210 553 414 sequence 0;
#X obj 94 98 bng 15 250 50 0 empty empty empty 0 -6 0 8 -262144 -1
-1;
#X obj 320 101 bng 15 250 50 0 empty empty empty 0 -6 0 8 -262144 -1
-1;
#X text 315 79 clear;
#X text 91 78 send;
#X obj 94 177 list append;
#X obj 241 152 t l;
#X obj 122 138 list prepend;
#X obj 94 245 t l l;
#X obj 149 245 print start;
#X obj 248 196 print stored;
#X obj 94 321 del;
#X obj 133 323 list append;
#X msg 122 99 250 57;
#X msg 182 99 500 52;
#X msg 243 99 750 55;
#X obj 94 296 unpack;
#X obj 94 270 list split 2;
#X text 175 77 -- add --;
#X obj 225 301 print done;
#X obj 90 12 inlet;
#X obj 90 34 t b a;
#X obj 130 366 outlet;
#X msg 42 77 \$1;
#X obj 31 104 del;
#X connect 0 0 4 0;
#X connect 1 0 6 1;
#X connect 4 0 7 0;
#X connect 5 0 6 1;
#X connect 6 0 5 0;
#X connect 6 0 4 1;
#X connect 6 0 9 0;
#X connect 7 0 16 0;
#X connect 7 1 8 0;
#X connect 10 0 11 0;
#X connect 11 0 16 0;
#X connect 12 0 6 0;
#X connect 13 0 6 0;
#X connect 14 0 6 0;
#X connect 15 0 10 0;
#X connect 15 1 21 0;
#X connect 16 0 15 0;
#X connect 16 1 11 1;
#X connect 16 2 18 0;
#X connect 16 2 1 0;
#X connect 19 0 20 0;
#X connect 20 0 0 0;
#X connect 20 0 23 0;
#X connect 20 1 6 0;
#X connect 20 1 22 0;
#X connect 22 0 23 1;
#X connect 23 0 0 0;
#X restore 72 263 pd sequence;
#X msg 72 241 \$2 \$1;
#X msg 73 283 \; toSpin /reporter* removeTarget constrained\$1;
#X msg 46 322 \; toSpin /reporter* addTarget constrained\$1;
#X msg 70 156 \$1 10;
#N canvas 834 697 450 300 linearTranslations 0;
#X obj 124 53 inlet;
#X obj 140 99 random 10;
#X obj 140 121 - 5;
#X obj 207 100 random 10;
#X obj 207 122 - 5;
#X obj 125 181 pack f f f f;
#X obj 125 203 outlet;
#X floatatom 225 20 5 0 0 0 - - -;
#X obj 225 41 / 2;
#X obj 271 120 + 0.5;
#X obj 124 75 t f b b b;
#X obj 272 99 random 10;
#X connect 0 0 10 0;
#X connect 1 0 2 0;
#X connect 2 0 5 1;
#X connect 3 0 4 0;
#X connect 4 0 5 2;
#X connect 5 0 6 0;
#X connect 7 0 8 0;
#X connect 7 0 1 1;
#X connect 7 0 3 1;
#X connect 7 0 11 1;
#X connect 8 0 2 1;
#X connect 8 0 4 1;
#X connect 8 0 9 1;
#X connect 9 0 5 3;
#X connect 10 0 5 0;
#X connect 10 1 1 0;
#X connect 10 2 3 0;
#X connect 10 3 11 0;
#X connect 11 0 9 0;
#X restore 34 466 pd linearTranslations;
#X obj 34 506 s \$1-to-SPIN;
#X obj 34 446 r \$0-self;
#X obj 79 -58 s \$0-self;
#X msg 34 485 /constrained\$1 translateTo \$2 \$3 0 \$4 LinearMotion
;
#X msg 519 2 location \$1 \, sort 0;
#X msg 622 370 sndfile-info \$1 | grep Frames | grep -E -o '[0-9]*'
;
#X obj 620 394 shell;
#X obj 620 417 / 44100;
#X text 684 419 length of file in seconds;
#X text 682 469 subtract 2 seconds;
#X obj 458 390 del 1000;
#X obj 458 455 line;
#X obj 503 455 r \$0-self;
#X obj 458 518 s \$1-to-SPIN;
#X msg 458 433 \$2 \, \$1 2000;
#X msg 519 389 \$4;
#X obj 458 413 pack;
#X msg 458 497 /snd\$2 setParam mul \$1;
#X obj 620 461 - 2000;
#X obj 620 439 * 1000;
#X obj 618 498 print SFPLAYER_LEN;
#X obj 760 493 prepend set;
#X msg 760 515 6888.89;
#X obj 458 475 pack f f;
#X floatatom 696 442 5 0 0 0 - - -;
#N canvas 3 76 450 300 velocities 0;
#X obj 115 31 inlet;
#X obj 115 53 t a b b b;
#X msg 115 235 /constrained\$1 setVelocity \$2 \$3 \$4;
#X obj 132 171 expr random( -10 \, 10);
#X obj 132 193 * 0.01;
#X obj 115 215 pack f f f f;
#X obj 149 122 expr random( -10 \, 10);
#X obj 166 76 expr random( -10 \, 10);
#X obj 115 257 outlet;
#X obj 166 98 * 0.08;
#X obj 149 144 * 0.06;
#X connect 0 0 1 0;
#X connect 1 0 5 0;
#X connect 1 1 3 0;
#X connect 1 2 6 0;
#X connect 1 3 7 0;
#X connect 2 0 8 0;
#X connect 3 0 4 0;
#X connect 4 0 5 1;
#X connect 5 0 2 0;
#X connect 6 0 10 0;
#X connect 7 0 9 0;
#X connect 9 0 5 3;
#X connect 10 0 5 2;
#X restore 176 465 pd velocities;
#X obj 175 443 r \$0-self;
#X obj 273 66 weighted;
#X obj 134 -38 s \$0-randombits;
#X obj 518 369 r \$0-randombits;
#X obj 123 -84 s \$0-bang;
#X obj 51 26 s \$1-to-SPIN;
#X obj 310 442 s \$1-to-SPIN;
#X obj 310 376 r \$0-self;
#X obj 773 39 playlist all 250 300 {Helvetica 10 bold} #457782 yellow
black red;
#X obj 776 -43 thisdir;
#X msg 776 1 location \$1 \, sort 0;
#X obj 776 -21 makefilename %s/../snd-curated;
#X obj 273 24 r \$0-bang;
#X obj 273 109 t a b;
#X obj 301 129 expr random(1 \, 3);
#X obj 272 152 gate 2;
#X connect 0 0 12 0;
#X connect 1 0 14 0;
#X connect 1 0 21 0;
#X connect 1 0 22 0;
#X connect 1 0 52 0;
#X connect 2 0 1 0;
#X connect 2 0 26 0;
#X connect 4 0 12 0;
#X connect 5 0 11 1;
#X connect 5 0 29 0;
#X connect 6 0 9 0;
#X connect 7 0 5 0;
#X connect 7 0 63 0;
#X connect 8 0 6 0;
#X connect 8 0 59 0;
#X connect 9 0 28 0;
#X connect 10 0 56 0;
#X connect 11 0 10 0;
#X connect 12 0 2 0;
#X connect 12 1 34 0;
#X connect 12 2 51 0;
#X connect 12 3 8 0;
#X connect 12 3 54 0;
#X connect 13 0 51 1;
#X connect 14 0 55 0;
#X connect 15 0 17 0;
#X connect 15 1 16 0;
#X connect 16 0 17 1;
#X connect 17 0 19 0;
#X connect 18 0 20 0;
#X connect 19 0 18 0;
#X connect 22 0 15 0;
#X connect 23 0 27 0;
#X connect 25 0 23 0;
#X connect 27 0 24 0;
#X connect 28 0 5 0;
#X connect 29 0 30 0;
#X connect 30 0 31 0;
#X connect 31 0 43 0;
#X connect 31 0 48 0;
#X connect 34 0 40 0;
#X connect 35 0 47 0;
#X connect 36 0 47 1;
#X connect 38 0 35 0;
#X connect 39 0 40 1;
#X connect 40 0 38 0;
#X connect 41 0 37 0;
#X connect 42 0 34 1;
#X connect 42 0 44 0;
#X connect 42 0 45 0;
#X connect 43 0 42 0;
#X connect 45 0 46 0;
#X connect 47 0 41 0;
#X connect 49 0 24 0;
#X connect 50 0 49 0;
#X connect 51 0 7 0;
#X connect 53 0 39 0;
#X connect 57 0 11 0;
#X connect 58 0 29 0;
#X connect 58 0 11 1;
#X connect 59 0 61 0;
#X connect 60 0 58 0;
#X connect 61 0 60 0;
#X connect 62 0 51 0;
#X connect 63 0 65 1;
#X connect 63 1 64 0;
#X connect 64 0 65 0;
#X connect 65 0 5 0;
#X connect 65 1 58 0;
