#N canvas 647 181 1076 689 10;
#X obj 46 -106 inlet;
#N canvas 571 100 450 300 randombits 1;
#X obj 114 35 inlet;
#X obj 114 57 t f b b b;
#X obj 114 209 pack f f f f;
#X obj 114 231 outlet;
#X text 297 178 pitch;
#X obj 147 159 expr random(10 \, 30)*0.1;
#X text 308 74 volume;
#X obj 131 180 expr random(1 \, 120) * 0.01;
#X obj 165 79 expr random(3 \, 10)*0.3;
#X obj 165 121 * 0.5;
#X obj 192 101 r volume_scale;
#X connect 0 0 1 0;
#X connect 1 0 2 0;
#X connect 1 1 7 0;
#X connect 1 2 5 0;
#X connect 1 3 8 0;
#X connect 2 0 3 0;
#X connect 5 0 2 2;
#X connect 7 0 2 1;
#X connect 8 0 9 0;
#X connect 9 0 2 3;
#X connect 10 0 9 1;
#X restore 47 -38 pd randombits;
#X obj 46 19 s \$1-to-SPIN-TCP;
#X obj 46 -60 f \$2;
#X text 282 -117 args: \$0 \, ML instance number;
#X obj 158 -96 bng 15 250 50 0 empty empty empty 17 7 0 10 -262144
-1 -1;
#X obj 659 89 playlist all 400 300 {Helvetica 10 bold} #457782 yellow
black red;
#X obj 659 -2 thisdir;
#X msg 468 223 seek \$1;
#X floatatom 513 74 5 0 0 0 - - -;
#X obj 661 -28 bng 15 250 50 0 empty empty empty 17 7 0 10 -262144
-1 -1;
#X obj 659 20 makefilename %s/../snd;
#X msg 189 194 /snd\$1 setParam path \$2;
#X obj 189 171 pack f s;
#X obj 46 -84 t b b b b;
#X obj 320 56 r count_media;
#X msg 45 -16 /snd\$1 setParam speed \$2 \, /snd\$1 setParam mul \$4
\, /snd\$1 setParam play 1;
#X obj 102 210 unpack;
#X obj 124 231 * 1000;
#X obj 105 251 pack;
#N canvas 420 210 553 414 sequence 0;
#X obj 94 98 bng 15 250 50 0 empty empty empty 0 -6 0 8 -262144 -1
-1;
#X obj 320 101 bng 15 250 50 0 empty empty empty 0 -6 0 8 -262144 -1
-1;
#X text 315 79 clear;
#X text 91 78 send;
#X obj 94 177 list append;
#X obj 241 152 t l;
#X obj 122 138 list prepend;
#X obj 94 245 t l l;
#X obj 149 245 print start;
#X obj 248 196 print stored;
#X obj 94 321 del;
#X obj 133 323 list append;
#X msg 122 99 250 57;
#X msg 182 99 500 52;
#X msg 243 99 750 55;
#X obj 94 296 unpack;
#X obj 94 270 list split 2;
#X text 175 77 -- add --;
#X obj 225 301 print done;
#X obj 90 12 inlet;
#X obj 90 34 t b a;
#X obj 130 366 outlet;
#X msg 42 77 \$1;
#X obj 31 104 del;
#X connect 0 0 4 0;
#X connect 1 0 6 1;
#X connect 4 0 7 0;
#X connect 5 0 6 1;
#X connect 6 0 5 0;
#X connect 6 0 4 1;
#X connect 6 0 9 0;
#X connect 7 0 16 0;
#X connect 7 1 8 0;
#X connect 10 0 11 0;
#X connect 11 0 16 0;
#X connect 12 0 6 0;
#X connect 13 0 6 0;
#X connect 14 0 6 0;
#X connect 15 0 10 0;
#X connect 15 1 21 0;
#X connect 16 0 15 0;
#X connect 16 1 11 1;
#X connect 16 2 18 0;
#X connect 16 2 1 0;
#X connect 19 0 20 0;
#X connect 20 0 0 0;
#X connect 20 0 23 0;
#X connect 20 1 6 0;
#X connect 20 1 22 0;
#X connect 22 0 23 1;
#X connect 23 0 0 0;
#X restore 104 295 pd sequence;
#X msg 104 273 \$2 \$1;
#X msg 105 315 \; toSpin /reporter* removeTarget constrained\$1;
#X msg 59 421 \; toSpin /reporter* addTarget constrained\$1;
#X msg 102 188 \$1 10;
#N canvas 571 150 450 300 linearTranslations 0;
#X obj 124 53 inlet;
#X obj 140 99 random 10;
#X obj 140 121 - 5;
#X obj 207 100 random 10;
#X obj 207 122 - 5;
#X obj 125 181 pack f f f f;
#X obj 125 203 outlet;
#X floatatom 225 20 5 0 0 0 - - -;
#X obj 225 41 / 2;
#X obj 272 99 random 3;
#X obj 271 120 + 0.5;
#X obj 124 75 t f b b b;
#X connect 0 0 11 0;
#X connect 1 0 2 0;
#X connect 2 0 5 1;
#X connect 3 0 4 0;
#X connect 4 0 5 2;
#X connect 5 0 6 0;
#X connect 7 0 8 0;
#X connect 7 0 1 1;
#X connect 7 0 3 1;
#X connect 7 0 9 1;
#X connect 8 0 2 1;
#X connect 8 0 4 1;
#X connect 8 0 10 1;
#X connect 9 0 10 0;
#X connect 10 0 5 3;
#X connect 11 0 5 0;
#X connect 11 1 1 0;
#X connect 11 2 3 0;
#X connect 11 3 9 0;
#X restore 403 437 pd linearTranslations;
#X obj 403 477 s \$1-to-SPIN;
#X obj 400 416 r \$0-self;
#X obj 180 -57 s \$0-self;
#X msg 403 456 /constrained\$1 translateTo \$2 \$3 0 \$4 LinearMotion
;
#X msg 659 42 location \$1 \, sort 0;
#X obj 273 78 weighted;
#X connect 0 0 14 0;
#X connect 1 0 16 0;
#X connect 1 0 23 0;
#X connect 1 0 24 0;
#X connect 3 0 1 0;
#X connect 3 0 13 0;
#X connect 3 0 28 0;
#X connect 5 0 14 0;
#X connect 6 0 13 1;
#X connect 7 0 11 0;
#X connect 8 0 6 0;
#X connect 9 0 8 0;
#X connect 10 0 7 0;
#X connect 11 0 30 0;
#X connect 12 0 2 0;
#X connect 13 0 12 0;
#X connect 14 0 3 0;
#X connect 14 2 31 0;
#X connect 14 3 10 0;
#X connect 15 0 31 1;
#X connect 16 0 2 0;
#X connect 17 0 19 0;
#X connect 17 1 18 0;
#X connect 18 0 19 1;
#X connect 19 0 21 0;
#X connect 20 0 22 0;
#X connect 21 0 20 0;
#X connect 24 0 17 0;
#X connect 25 0 29 0;
#X connect 27 0 25 0;
#X connect 29 0 26 0;
#X connect 30 0 6 0;
#X connect 31 0 8 0;
