#N canvas 0 22 673 449 10;
#X obj 168 137 inlet~;
#X obj 182 298 outlet~;
#X obj 298 79 inlet;
#X msg 306 109 \$1 450;
#X obj 447 20 loadbang;
#X obj 452 45 tgl 15 0 empty empty empty 17 7 0 10 -262144 -1 -1 1
1;
#X obj 303 135 line~;
#X obj 457 190 line 200 40;
#X msg 259 53 200;
#X obj 456 76 metro 10000;
#X msg 461 164 \$1 10000;
#X obj 458 129 + 140;
#X obj 457 103 random 1000;
#X obj 297 235 *~ 0.75;
#X obj 295 167 vd~ \$1;
#X obj 171 376 delwrite~ \$1 3000;
#X obj 296 205 bp~ 200 35;
#X connect 0 0 1 0;
#X connect 0 0 15 0;
#X connect 2 0 3 0;
#X connect 3 0 6 0;
#X connect 4 0 5 0;
#X connect 4 0 8 0;
#X connect 5 0 9 0;
#X connect 6 0 14 0;
#X connect 7 0 16 1;
#X connect 8 0 6 0;
#X connect 9 0 12 0;
#X connect 10 0 7 0;
#X connect 11 0 10 0;
#X connect 12 0 11 0;
#X connect 13 0 1 0;
#X connect 13 0 15 0;
#X connect 14 0 16 0;
#X connect 16 0 13 0;
