#N canvas 352 114 396 450 10;
#X declare -lib mrpeach;
#X obj 57 17 route setOrientation;
#X obj 57 39 unpack f f f;
#X obj 126 60 % 30;
#X obj 168 107 bng 15 250 50 0 empty empty empty 17 7 0 10 -262144
-1 -1;
#X obj 126 123 timer;
#X obj 126 103 t b b;
#X floatatom 168 141 5 0 0 0 - - -;
#X obj 126 145 t b f;
#X obj 126 167 tgl 15 0 empty empty empty 17 7 0 10 -262144 -1 -1 0
1;
#X obj 126 187 t f f;
#X obj 153 208 != 1;
#X obj 127 231 pack f f f;
#X msg 127 253 \$1 \, \$2 \$3;
#X obj 127 275 line;
#X obj 57 -25 r \$1-from-SPIN;
#X obj 57 -4 routeOSC /spinner\$2;
#X obj 126 80 sel \$2;
#X obj 274 -15 import mrpeach;
#X obj 127 296 s LED-\$3;
#X text 81 357 sound spinner controls a LED;
#X text 81 390 args: <spinner #> <LED# to control>;
#X connect 0 0 1 0;
#X connect 1 2 2 0;
#X connect 2 0 16 0;
#X connect 4 0 6 0;
#X connect 4 0 7 0;
#X connect 5 0 4 0;
#X connect 5 1 4 1;
#X connect 7 0 8 0;
#X connect 7 1 11 2;
#X connect 8 0 9 0;
#X connect 9 0 11 0;
#X connect 9 1 10 0;
#X connect 10 0 11 1;
#X connect 11 0 12 0;
#X connect 12 0 13 0;
#X connect 13 0 18 0;
#X connect 14 0 15 0;
#X connect 15 0 0 0;
#X connect 16 0 3 0;
#X connect 16 0 5 0;
