#N canvas 3 75 450 300 10;
#X obj 85 27 inlet;
#X floatatom 246 136 5 0 0 1 (deg/sec) - -;
#X msg 275 113 0;
#X obj 85 76 until;
#X msg 245 113 \$1;
#X obj 85 120 t f b;
#X obj 112 144 random 50;
#X obj 85 164 pack f f;
#X msg 83 185 /spinner\$1 setSpin 0 0 \$2;
#X obj 34 161 print;
#X obj 85 98 counter 5 30;
#X msg 85 54 30;
#X obj 83 204 s to-spin;
#X connect 0 0 11 0;
#X connect 1 0 7 1;
#X connect 2 0 1 0;
#X connect 3 0 10 0;
#X connect 4 0 1 0;
#X connect 5 0 7 0;
#X connect 5 1 6 0;
#X connect 6 0 4 0;
#X connect 7 0 8 0;
#X connect 8 0 12 0;
#X connect 10 0 5 0;
#X connect 10 0 9 0;
#X connect 11 0 3 0;
