#N canvas 3 75 521 450 10;
#X floatatom 208 365 5 0 0 0 - - -;
#X msg 198 338 1;
#X msg 169 338 0;
#X obj 123 49 t b b;
#X obj 123 93 t b b;
#X obj 123 137 t b b;
#X obj 123 181 t b b;
#X obj 123 225 t b b;
#X obj 123 247 del 150;
#X obj 123 25 inlet;
#X obj 185 389 s LED-\$1;
#X text 254 27 Arg: LED number;
#X obj 123 71 del 75;
#X obj 122 116 del 75;
#X obj 123 159 del 75;
#X obj 123 203 del 75;
#X connect 0 0 10 0;
#X connect 1 0 10 0;
#X connect 2 0 10 0;
#X connect 3 0 12 0;
#X connect 3 1 1 0;
#X connect 4 0 13 0;
#X connect 4 1 2 0;
#X connect 5 0 14 0;
#X connect 5 1 1 0;
#X connect 6 0 15 0;
#X connect 6 1 2 0;
#X connect 7 0 8 0;
#X connect 7 1 1 0;
#X connect 8 0 2 0;
#X connect 9 0 3 0;
#X connect 12 0 4 0;
#X connect 13 0 5 0;
#X connect 14 0 6 0;
#X connect 15 0 7 0;
