#N canvas 450 257 394 507 10;
#X obj 28 96 inlet~;
#X obj 145 94 inlet;
#X obj 28 354 *~;
#X obj 145 296 line~;
#X obj 28 384 outlet~;
#X obj 251 93 r \$1;
#X obj 79 118 loadbang;
#X obj 79 138 1;
#X text 23 453 xjimmies lib. z. settel/jm dumas 2003-2007;
#X text 21 401 signal output;
#X text 13 60 signal input;
#X obj 249 272 outlet;
#X text 253 291 state;
#X obj 145 272 pack 1 8;
#X obj 145 117 t f;
#X obj 145 221 != 0;
#X text 10 -6 sw1~ : audio switch;
#X text 10 12 arg1 : receive_name <optional> for switch control;
#X text 144 59 on/off (1 : 0);
#X connect 0 0 2 0;
#X connect 1 0 14 0;
#X connect 2 0 4 0;
#X connect 3 0 2 1;
#X connect 5 0 14 0;
#X connect 6 0 7 0;
#X connect 7 0 3 0;
#X connect 7 0 11 0;
#X connect 13 0 3 0;
#X connect 14 0 11 0;
#X connect 14 0 15 0;
#X connect 15 0 13 0;
