#N canvas 3 75 737 528 10;
#X msg 312 271 \; LED-1 \$1 \; LED-2 \$1 \; LED-3 \$1 \; LED-4 \$1
\; LED-5 \$1;
#X obj 331 203 prepend;
#X obj 370 97 loadbang;
#X obj 370 141 - 6;
#X obj 330 231 route 0 6 12 18 24;
#X obj 193 290 line;
#X obj 364 60 bng 15 250 50 0 empty empty empty 17 7 0 10 -262144 -1
-1;
#X obj 189 189 t a b;
#X obj 215 209 del 1000;
#X obj 190 32 inlet;
#X msg 388 271 \; LED-7 \$1 \; LED-8 \$1 \; LED-9 \$1 \; LED-10 \$1
\; LED-11 \$1;
#X msg 471 274 \; LED-13 \$1 \; LED-14 \$1 \; LED-15 \$1 \; LED-16
\$1 \; LED-17 \$1;
#X msg 547 274 \; LED-19 \$1 \; LED-20 \$1 \; LED-21 \$1 \; LED-22
\$1 \; LED-23 \$1;
#X msg 628 276 \; LED-25 \$1 \; LED-26 \$1 \; LED-27 \$1 \; LED-28
\$1 \; LED-29 \$1;
#X obj 182 437 s LED-\$1;
#X obj 190 125 pack 0 1 0;
#X obj 215 234 pack 1 0 0;
#X obj 190 54 t b b;
#X obj 217 76 random 1000;
#X obj 217 98 + 500;
#X obj 171 33 bng 15 250 50 0 empty empty empty 17 7 0 10 -262144 -1
-1;
#X msg 189 167 \$1 \, \$2 \$3;
#X msg 215 261 \$1 \, \$2 \$3;
#X obj 370 119 i \$1;
#X floatatom 137 301 5 0 0 0 - - -;
#X floatatom 324 168 5 0 0 0 - - -;
#X obj 213 351 pipe 1000;
#X connect 1 0 4 0;
#X connect 2 0 23 0;
#X connect 3 0 1 1;
#X connect 4 0 0 0;
#X connect 4 1 10 0;
#X connect 4 2 11 0;
#X connect 4 3 12 0;
#X connect 4 4 13 0;
#X connect 5 0 1 0;
#X connect 5 0 26 0;
#X connect 6 0 23 0;
#X connect 7 0 5 0;
#X connect 7 1 8 0;
#X connect 8 0 16 0;
#X connect 9 0 17 0;
#X connect 15 0 21 0;
#X connect 16 0 22 0;
#X connect 17 0 15 0;
#X connect 17 1 18 0;
#X connect 18 0 19 0;
#X connect 18 0 26 1;
#X connect 19 0 15 2;
#X connect 19 0 16 2;
#X connect 19 0 8 1;
#X connect 20 0 17 0;
#X connect 21 0 7 0;
#X connect 22 0 5 0;
#X connect 23 0 3 0;
#X connect 24 0 14 0;
#X connect 25 0 1 0;
#X connect 26 0 14 0;
