#N canvas 137 196 450 300 10;
#X obj 74 118 moses 60;
#X obj 74 98 random 100;
#X obj 74 140 t b;
#X obj 74 162 random 20;
#X obj 119 140 t b;
#X obj 139 162 random 100;
#X obj 146 104 - 20;
#X text 150 115 compensate for discarting of the first 20 sounds;
#X obj 139 184 + 20;
#X text 171 187 skip the first 20;
#X obj 70 25 inlet;
#X obj 179 26 inlet;
#X text 86 40 bang;
#X text 214 37 count media;
#X obj 92 228 outlet;
#X connect 0 0 2 0;
#X connect 0 1 4 0;
#X connect 1 0 0 0;
#X connect 2 0 3 0;
#X connect 3 0 14 0;
#X connect 4 0 5 0;
#X connect 5 0 8 0;
#X connect 6 0 5 1;
#X connect 8 0 14 0;
#X connect 10 0 1 0;
#X connect 11 0 6 0;
