#N canvas -6 24 1010 644 10;
#X declare -path .;
#X declare -path .;
#X declare -path ./pd;
#X declare -path ./rj;
#X obj 178 591 soundoutput;
#X msg 246 17 \; #transport play 1;
#X obj 38 3079 tabwrite~;
#X obj 36 3140 tabread~;
#X obj 38 3079 tabwrite~;
#X obj 36 3140 tabread~;
#X obj 38 3079 tabwrite~;
#X obj 36 3140 tabread~;
#X obj 54 472 simpledelay delL;
#X obj 97 182 *~ 0.5;
#X obj 88 204 tabwrite~ left;
#X obj 87 68 rj/e_softclip soundinL;
#X obj 412 427 r del;
#X obj 163 442 r del;
#N canvas 361 289 450 300 analyseL 0;
#X obj 38 73 loadbang;
#X obj 28 32 env~;
#X obj 28 114 clip 20 100;
#X msg 38 94 30;
#X obj 28 136 - 15;
#X obj 28 157 * 4;
#X obj 28 177 s del;
#X obj 27 10 inlet~;
#X obj 121 61 +;
#X floatatom 121 120 5 0 0 0 - - -;
#X obj 121 139 vsl 10 100 0 1 0 0 empty empty empty 0 -9 0 10 -262144
-1 -1 947 1;
#X obj 121 101 clip 0 0.98;
#X obj 121 245 s Lenv;
#X obj 121 81 * 0.001;
#X obj 149 61 * 0.7;
#X obj 298 63 vsl 10 80 0 127 0 0 empty empty empty 0 -9 0 10 -262144
-1 -1 1762 1;
#X obj 298 150 t f f;
#X obj 299 174 -;
#X obj 299 197 > 20;
#X obj 299 218 change;
#X obj 299 238 sel 1;
#X obj 300 259 s trigger_rec;
#X connect 0 0 3 0;
#X connect 1 0 2 0;
#X connect 1 0 8 0;
#X connect 1 0 15 0;
#X connect 2 0 4 0;
#X connect 3 0 2 0;
#X connect 4 0 5 0;
#X connect 5 0 6 0;
#X connect 7 0 1 0;
#X connect 8 0 13 0;
#X connect 8 0 14 0;
#X connect 9 0 10 0;
#X connect 10 0 12 0;
#X connect 11 0 9 0;
#X connect 13 0 11 0;
#X connect 14 0 8 1;
#X connect 15 0 16 0;
#X connect 16 0 17 1;
#X connect 16 1 17 0;
#X connect 17 0 18 0;
#X connect 18 0 19 0;
#X connect 19 0 20 0;
#X connect 20 0 21 0;
#X restore 123 98 pd analyseL;
#X obj 304 457 simpledelay delR;
#X obj 294 207 *~ 0.5;
#N canvas 497 249 450 300 analyseR 0;
#X obj 38 73 loadbang;
#X obj 28 32 env~;
#X obj 28 114 clip 20 100;
#X msg 38 94 30;
#X obj 28 136 - 15;
#X obj 28 157 * 4;
#X obj 27 10 inlet~;
#X obj 121 61 +;
#X floatatom 121 120 5 0 0 0 - - -;
#X obj 121 139 vsl 10 100 0 1 0 0 empty empty empty 0 -9 0 10 -262144
-1 -1 6899 1;
#X obj 121 101 clip 0 0.98;
#X obj 149 61 * 0.95;
#X obj 121 81 * 0.001;
#X obj 122 245 s Renv;
#X obj 28 177 s Rdel;
#X obj 108 25 s~ guit;
#X connect 0 0 3 0;
#X connect 1 0 2 0;
#X connect 1 0 7 0;
#X connect 2 0 4 0;
#X connect 3 0 2 0;
#X connect 4 0 5 0;
#X connect 5 0 14 0;
#X connect 6 0 1 0;
#X connect 6 0 15 0;
#X connect 7 0 11 0;
#X connect 7 0 12 0;
#X connect 8 0 9 0;
#X connect 9 0 13 0;
#X connect 10 0 8 0;
#X connect 11 0 7 1;
#X connect 12 0 10 0;
#X restore 308 97 pd analyseR;
#X obj 285 229 tabwrite~ right;
#X obj 96 160 r~ Lechoed;
#X obj 172 354 s~ Lechoed;
#X obj 426 402 s~ Rechoed;
#X obj 294 187 r~ Rechoed;
#X obj 173 161 r Renv;
#X obj 370 187 r Lenv;
#X obj 729 84 bang~;
#X obj 729 124 s dspbangR;
#X obj 88 135 r dspbangL;
#X obj 285 163 r dspbangR;
#X obj 526 114 table right 264600;
#X obj 729 104 rj/m_speedlimit 6000;
#X obj 286 311 r dspbangL;
#X obj 163 311 r dspbangR;
#X obj 383 274 r dspbangL;
#X obj 466 273 r dspbangR;
#N canvas 15 98 622 480 presets 0;
#X obj 40 26 inlet;
#X msg 43 122 \; param1 0 \; param2 22050 \; param3 22050 \; param4
0.5 \; param5 0.75 \; param6 0.625 \; param7 0.7 \; param8 0.5 \; param9
0.53761 \;;
#X msg 116 307 \; param1 0 \; param2 10000 \; param3 4637 \; param4
0.98 \; param5 0.685 \; param6 0.779 \; param7 0.74 \; param8 0.68
\; param9 0.53761 \;;
#X msg 199 123 \; param1 0 \; param2 10000 \; param3 4637 \; param4
0.98 \; param5 0.685 \; param6 0.779 \; param7 0.74 \; param8 0.68
\; param9 0 \;;
#X msg 278 304 \; param1 10 \; param2 10000 \; param3 4637 \; param4
0.99 \; param5 0.685 \; param6 0.779 \; param7 0.889 \; param8 0.84
\; param9 0.53761 \;;
#X msg 359 131 \; param1 10 \; param2 10000 \; param3 4637 \; param4
0.99 \; param5 0.685 \; param6 0.779 \; param7 0.889 \; param8 0.84
\; param9 0 \;;
#X msg 443 303 \; param1 216.535 \; param2 22050 \; param3 22050 \;
param4 0.677165 \; param5 0.850394 \; param6 0.92126 \; param7 0.80315
\; param8 0.818898 \; param9 0.11811 \;;
#X obj 39 70 route default large large_noexcursion huge huge_noexcursion
tadada;
#X connect 0 0 7 0;
#X connect 7 0 1 0;
#X connect 7 1 2 0;
#X connect 7 2 3 0;
#X connect 7 3 4 0;
#X connect 7 4 5 0;
#X connect 7 5 6 0;
#X restore 868 435 pd presets;
#X msg 868 293 default;
#X msg 868 362 huge;
#X msg 868 385 huge_noexcursion;
#X msg 868 316 large;
#X msg 868 339 large_noexcursion;
#X msg 868 408 tadada;
#N canvas 744 72 280 336 edit_params 0;
#X obj 25 92 hsl 128 15 220.5 22050 1 0 param3 param3 damping -2 -8
0 10 -262144 -1 -1 8400 0;
#X floatatom 157 91 10 0 0 0 - param3 damping;
#X obj 25 123 hsl 128 15 0 1 0 0 param4 param4 decay -2 -8 0 10 -262144
-1 -1 12573 0;
#X floatatom 157 122 10 0 0 0 - param4 decay;
#X obj 25 28 hsl 128 15 0 250 0 0 param1 param1 predelay -2 -8 0 10
-262144 -1 -1 508 0;
#X floatatom 157 27 10 0 0 0 - param1 predelay;
#X obj 25 60 hsl 128 15 220.5 22050 1 0 param2 param2 bandwidth -2
-8 0 10 -262144 -1 -1 10519 0;
#X floatatom 157 59 10 0 0 0 - param2 bandwidth;
#X obj 24 191 hsl 128 15 0 1 0 0 param6 param6 input_diffusion_2 -2
-8 0 10 -262144 -1 -1 9893 0;
#X floatatom 156 190 10 0 0 0 - param6 input_diffusion2;
#X obj 25 156 hsl 128 15 0 1 0 0 param5 param5 input_diffusion_1 -2
-8 0 10 -262144 -1 -1 8700 0;
#X floatatom 157 155 10 0 0 0 - param5 input_diffusion1;
#X obj 23 255 hsl 128 15 0 1 0 0 param8 param8 decay_diffusion_2 -2
-8 0 10 -262144 -1 -1 10668 0;
#X floatatom 155 254 10 0 0 0 - param8 decay_diffusion2;
#X obj 24 222 hsl 128 15 0 1 0 0 param7 param7 decay_diffusion_1 -2
-8 0 10 -262144 -1 -1 11290 0;
#X floatatom 156 221 10 0 0 0 - param7 decay_diffusion1;
#X obj 23 287 hsl 128 15 0 5 0 0 param9 param9 excursion -2 -8 0 10
-262144 -1 -1 0 0;
#X floatatom 155 286 10 0 0 0 - param9 excursion;
#X restore 868 270 pd edit_params;
#N canvas 66 24 387 608 receive_params 0;
#X msg 58 293 input_diffusion1 \$1;
#X msg 70 349 input_diffusion2 \$1;
#X msg 78 410 decay_diffusion1 \$1;
#X msg 87 469 decay_diffusion2 \$1;
#X msg 33 75 predelay \$1;
#X msg 33 132 bandwidth \$1;
#X msg 33 183 damping \$1;
#X msg 33 238 decay \$1;
#X msg 125 533 excursion \$1;
#X obj 33 547 outlet;
#X obj 33 48 r predelay;
#X obj 33 105 r bandwidth;
#X obj 33 159 r damping;
#X obj 33 213 r decay;
#X obj 58 268 r input_diffusion1;
#X obj 70 322 r input_diffusion2;
#X obj 78 383 r decay_diffusion1;
#X obj 87 442 r decay_diffusion2;
#X obj 125 503 r excursion;
#X connect 0 0 9 0;
#X connect 1 0 9 0;
#X connect 2 0 9 0;
#X connect 3 0 9 0;
#X connect 4 0 9 0;
#X connect 5 0 9 0;
#X connect 6 0 9 0;
#X connect 7 0 9 0;
#X connect 8 0 9 0;
#X connect 10 0 4 0;
#X connect 11 0 5 0;
#X connect 12 0 6 0;
#X connect 13 0 7 0;
#X connect 14 0 0 0;
#X connect 15 0 1 0;
#X connect 16 0 2 0;
#X connect 17 0 3 0;
#X connect 18 0 8 0;
#X restore 606 400 pd receive_params;
#X obj 635 474 hsl 128 15 0 1 0 0 empty empty empty -2 -8 0 10 -262144
-1 -1 1215 1;
#X msg 632 493 dry \$1;
#X obj 632 428 loadbang;
#X msg 632 449 0.33;
#X obj 163 331 revechoplayer left;
#X obj 382 353 *~ 0.5;
#X obj 512 353 *~ 0.5;
#X obj 164 381 *~ 0.3;
#X obj 231 382 *~ 0.3;
#X obj 381 382 *~ 0.5;
#X obj 513 383 *~ 0.5;
#N canvas 468 334 450 300 guitartone 0;
#X obj 68 17 r~ guit;
#X floatatom 196 38 5 0 0 0 - - -;
#X obj 77 95 bp~ 55 2;
#X obj 72 218 outlet~;
#X obj 220 95 bp~ 10000 12;
#X obj 142 96 hip~ 1000;
#X obj 152 130 lop~ 15000;
#X connect 0 0 3 0;
#X connect 1 0 2 1;
#X connect 2 0 3 0;
#X connect 4 0 3 0;
#X connect 5 0 6 0;
#X connect 6 0 3 0;
#X restore 250 140 pd guitartone;
#N canvas 468 334 450 300 voxtone 0;
#X obj 140 115 lop~ 15000;
#X obj 77 95 bp~ 55 2;
#X obj 142 96 hip~ 1000;
#X obj 220 95 bp~ 10000 18;
#X obj 76 159 outlet~;
#X obj 68 17 r~ vox;
#X connect 0 0 4 0;
#X connect 1 0 4 0;
#X connect 2 0 0 0;
#X connect 3 0 4 0;
#X connect 5 0 4 0;
#X restore 2 120 pd voxtone;
#X obj 53 521 rj/e_reverb dude2;
#X obj 449 526 rj/e_platereverb mydude;
#X obj 710 432 r Lenv;
#X obj 58 94 s~ vox;
#X obj 487 174 env~;
#X obj 551 161 vu 15 120 empty empty -1 -8 0 10 -66577 -1 1 0;
#X obj 487 198 - 100;
#X obj 598 174 env~;
#X obj 662 161 vu 15 120 empty empty -1 -8 0 10 -66577 -1 1 0;
#X obj 598 198 - 100;
#X obj 626 339 r Renv;
#X obj 628 361 hsl 128 15 0 1 0 0 empty empty empty -2 -8 0 10 -262144
-1 -1 8850 1;
#X obj 550 27 metro 1000;
#X obj 659 47 + 1000;
#X obj 533 72 s dspbangL;
#X obj 526 95 table left 88200;
#X obj 383 295 revechoplayer right;
#X obj 525 27 tgl 15 0 empty empty empty 17 7 0 10 -262144 -1 -1 1
1;
#X obj 43 160 *~ 0.6;
#X obj 379 584 delwrite~ \$0-gidel 2000;
#N canvas 73 110 951 510 GrainGui 0;
#N canvas 0 0 586 607 GUI 0;
#X obj 124 68 inlet;
#X obj 194 369 outlet;
#X msg 124 405 phase-rand bang;
#X obj 124 326 bng 15 250 50 0 empty empty phase-rand 17 7 1 10 -262144
-1 -1;
#X text 267 132 random panning width;
#X text 267 162 base volume;
#X text 268 193 random volume width;
#X text 270 230 delay \, random delay variation;
#X text 272 266 grain size and its variation;
#X text 272 326 randomize the phase;
#X obj 124 128 rj/g_hsl pan-r 0 1;
#X obj 124 159 rj/g_hsl vol 0 1;
#X obj 124 190 rj/g_hsl vol-r 0 1;
#X obj 124 225 rj/g_nbx delay;
#X obj 124 260 rj/g_nbx size;
#X obj 124 295 rj/g_nbx bw;
#X obj 194 225 rj/g_nbx delay-r;
#X obj 194 260 rj/g_nbx size-r;
#X obj 193 295 rj/g_nbx grain-rate;
#X connect 0 0 10 0;
#X connect 2 0 1 0;
#X connect 3 0 2 0;
#X connect 10 0 11 0;
#X connect 11 0 12 0;
#X connect 12 0 13 0;
#X connect 13 0 16 0;
#X connect 14 0 15 0;
#X connect 15 0 18 0;
#X connect 16 0 17 0;
#X connect 17 0 14 0;
#X connect 18 0 1 0;
#X coords 0 -1 1 1 380 250 1 100 100;
#X restore 543 34 pd GUI;
#X obj 543 289 s \$0-GRAIN;
#X obj 543 15 r \$0-SET-GRAIN;
#X obj 409 17 declare -path .;
#X obj 61 460 throw~ outBusL;
#X obj 387 458 throw~ outBusR;
#X msg 233 206 help;
#X msg 264 236 save;
#X obj 264 260 t a b;
#X msg 222 332 pan-r 1 \, delay-r 400 \, delay 8801.2 \, size-r 0 \,
size 21.2703 \, vol-r 0.307703 \, vol -0.423109 \, bw 1 \, phase 0.4819
\, grain-rate 30 \,;
#X obj 222 381 s \$0-SET-GRAIN;
#X obj 154 206 r \$0-GRAIN;
#X obj 321 307 loadbang;
#X obj 222 308 rj/u_cocollect;
#X obj 392 406 r \$0-GRAIN;
#X obj 36 282 rj/e_graindelread GIT \$0-gidel;
#X obj 59 435 rj/u_makepoly 8 1 rj/e_graindelread GIT \$0-gidel;
#X connect 0 0 1 0;
#X connect 2 0 0 0;
#X connect 6 0 15 1;
#X connect 7 0 8 0;
#X connect 8 0 15 1;
#X connect 8 1 13 1;
#X connect 9 0 10 0;
#X connect 11 0 15 1;
#X connect 12 0 9 0;
#X connect 13 0 9 0;
#X connect 14 0 16 1;
#X connect 15 2 13 0;
#X connect 16 0 4 0;
#X connect 16 1 5 0;
#X restore 859 484 pd GrainGui;
#X obj 42 581 catch~ outBusL;
#X obj 47 618 catch~ outBusR;
#X obj 447 548 throw~ outBusL;
#X obj 606 547 throw~ outBusR;
#X obj 567 47 random 1000;
#X obj 434 21 r Lbutton;
#X obj 433 67 spigot;
#X obj 433 42 unpack s 0;
#X obj 434 116 bng 15 250 50 0 empty empty empty 17 7 0 10 -262144
-1 -1;
#X obj 432 92 sel A B;
#X obj 875 67 declare -path .;
#X obj 878 111 declare -path ./pd;
#X obj 878 86 declare -path ./rj;
#X obj 856 590 sensor_in;
#X obj 87 19 soundinput;
#X connect 8 0 0 0;
#X connect 9 0 10 0;
#X connect 11 0 60 0;
#X connect 12 0 15 1;
#X connect 13 0 8 1;
#X connect 15 0 0 1;
#X connect 16 0 18 0;
#X connect 19 0 9 0;
#X connect 22 0 16 0;
#X connect 23 0 9 1;
#X connect 24 0 16 1;
#X connect 25 0 30 0;
#X connect 27 0 10 0;
#X connect 28 0 18 0;
#X connect 30 0 26 0;
#X connect 31 0 48 1;
#X connect 32 0 48 0;
#X connect 33 0 73 0;
#X connect 34 0 73 1;
#X connect 36 0 35 0;
#X connect 37 0 35 0;
#X connect 38 0 35 0;
#X connect 39 0 35 0;
#X connect 40 0 35 0;
#X connect 41 0 35 0;
#X connect 43 0 58 2;
#X connect 44 0 45 0;
#X connect 45 0 58 2;
#X connect 46 0 47 0;
#X connect 46 0 38 0;
#X connect 47 0 44 0;
#X connect 48 0 20 0;
#X connect 48 0 51 0;
#X connect 48 0 76 0;
#X connect 48 1 52 0;
#X connect 49 0 53 0;
#X connect 49 0 0 0;
#X connect 49 0 21 0;
#X connect 50 0 54 0;
#X connect 50 0 0 1;
#X connect 50 0 21 0;
#X connect 51 0 0 0;
#X connect 51 0 8 0;
#X connect 51 0 57 0;
#X connect 52 0 0 1;
#X connect 52 0 15 0;
#X connect 52 0 57 0;
#X connect 53 0 58 0;
#X connect 53 0 76 0;
#X connect 54 0 58 1;
#X connect 55 0 18 0;
#X connect 55 0 0 0;
#X connect 55 0 0 1;
#X connect 55 0 76 0;
#X connect 56 0 0 0;
#X connect 56 0 0 1;
#X connect 56 0 75 0;
#X connect 56 0 76 0;
#X connect 57 0 0 0;
#X connect 57 1 0 1;
#X connect 58 0 80 0;
#X connect 58 0 76 0;
#X connect 58 1 81 0;
#X connect 59 0 44 0;
#X connect 61 0 63 0;
#X connect 63 0 62 0;
#X connect 64 0 66 0;
#X connect 66 0 65 0;
#X connect 67 0 54 1;
#X connect 67 0 53 1;
#X connect 67 0 68 0;
#X connect 69 0 71 0;
#X connect 69 0 82 0;
#X connect 70 0 69 1;
#X connect 73 0 49 0;
#X connect 73 1 50 0;
#X connect 74 0 69 0;
#X connect 75 0 10 0;
#X connect 78 0 0 0;
#X connect 79 0 0 1;
#X connect 82 0 70 0;
#X connect 83 0 85 0;
#X connect 84 0 87 0;
#X connect 85 0 84 0;
#X connect 85 1 84 1;
#X connect 86 0 71 0;
#X connect 87 0 86 0;
#X connect 87 1 48 1;
#X connect 92 0 11 0;
#X connect 92 0 14 0;
#X connect 92 0 61 0;
#X connect 92 1 64 0;
#X connect 92 1 17 0;
