#N canvas 206 42 911 661 10;
#X declare -path .;
#X declare -path ./pd;
#X declare -path ./rj;
#X declare -path ./abs;
#X declare -path ./ext;
#X obj 41 552 soundoutput;
#X obj 38 3079 tabwrite~;
#X obj 36 3140 tabread~;
#X obj 38 3079 tabwrite~;
#X obj 36 3140 tabread~;
#X obj 38 3079 tabwrite~;
#X obj 36 3140 tabread~;
#X obj 698 26 declare -path .;
#X obj 698 64 declare -path ./pd;
#X obj 698 45 declare -path ./rj;
#X obj 214 17 sensor_in;
#X obj 87 19 soundinput;
#X obj 698 83 declare -path ./abs;
#X msg 317 517 sr 44100;
#X obj 317 498 loadbang;
#X obj 254 537 s_playtable;
#N canvas 1149 548 450 300 meters 1;
#X obj 46 56 meter1~;
#X obj 58 56 meter1~;
#X obj 70 56 meter1~;
#X obj 82 56 meter1~;
#X obj 94 56 meter1~;
#X obj 106 56 meter1~;
#X obj 118 56 meter1~;
#X obj 130 56 meter1~;
#X obj 38 20 inlet~;
#X obj 82 20 inlet~;
#X obj 125 20 inlet~;
#X obj 168 21 inlet~;
#X obj 211 21 inlet~;
#X obj 256 18 inlet~;
#X obj 299 19 inlet~;
#X obj 344 16 inlet~;
#X connect 8 0 0 0;
#X connect 9 0 1 0;
#X connect 10 0 2 0;
#X connect 11 0 3 0;
#X connect 12 0 4 0;
#X connect 13 0 5 0;
#X connect 14 0 6 0;
#X connect 15 0 7 0;
#X restore 198 78 pd meters ------------;
#X floatatom 569 252 5 0 0 0 - - -;
#X obj 519 271 i;
#X obj 519 253 bng 15 250 50 0 empty empty empty 17 7 0 10 -262144
-1 -1;
#X msg 519 304 \; trigger_rec_ch\$1 bang;
#X obj 547 85 until;
#X msg 547 25 8;
#X obj 547 106 f;
#X obj 572 105 + 1;
#X obj 547 44 t f b;
#X msg 574 65 1;
#X text 580 20 Clear arrays;
#X obj 436 32 r trig1;
#X obj 436 53 change;
#X obj 436 74 sel 1;
#X obj 436 94 f;
#X obj 463 94 + 1;
#X obj 436 114 % 8;
#X obj 436 135 + 1;
#X obj 386 88 r trig2;
#X obj 386 107 change;
#X obj 386 126 sel 1;
#X obj 40 399 catch~ outBus1;
#X obj 54 418 catch~ outBus2;
#X obj 71 437 catch~ outBus3;
#X obj 85 456 catch~ outBus4;
#X obj 101 475 catch~ outBus5;
#X obj 115 494 catch~ outBus6;
#X obj 130 513 catch~ outBus7;
#X obj 275 353 catch~ outBus8;
#X obj 698 102 declare -path ./ext;
#X msg 254 517 ch1_buf;
#X msg 547 126 \; ch\$1_buf const 0;
#X obj 376 587 tgl 15 0 empty trigger_rec_ch1 empty 17 7 0 10 -262144
-1 -1 0 1;
#X obj 394 587 tgl 15 0 empty trigger_rec_ch2 empty 17 7 0 10 -262144
-1 -1 0 1;
#X obj 412 587 tgl 15 0 empty trigger_rec_ch3 empty 17 7 0 10 -262144
-1 -1 0 1;
#X obj 430 587 tgl 15 0 empty trigger_rec_ch4 empty 17 7 0 10 -262144
-1 -1 0 1;
#X obj 448 587 tgl 15 0 empty trigger_rec_ch5 empty 17 7 0 10 -262144
-1 -1 0 1;
#X obj 466 587 tgl 15 0 empty trigger_rec_ch6 empty 17 7 0 10 -262144
-1 -1 0 1;
#X obj 484 587 tgl 15 0 empty trigger_rec_ch7 empty 17 7 0 10 -262144
-1 -1 0 1;
#X obj 502 587 tgl 15 0 empty trigger_rec_ch8 empty 17 7 0 10 -262144
-1 -1 0 1;
#X text 375 566 currently recording...:;
#X obj 87 232 input~ ch1;
#X obj 736 228 +;
#X obj 736 248 == 2;
#X obj 737 268 tgl 15 0 empty empty empty 17 7 0 10 -262144 -1 -1 0
1;
#X obj 744 207 t b f;
#X obj 736 166 r trig1;
#X obj 744 188 r trig2;
#N canvas 550 131 450 300 presence 0;
#X obj 55 53 r sonar1;
#X obj 153 55 r sonar2;
#X obj 256 55 r sonar3;
#X obj 55 110 > 40;
#X obj 55 73 t f f;
#X obj 87 109 < 50;
#X obj 55 135 +;
#X obj 55 160 > 1;
#X obj 55 183 change;
#X obj 55 209 tgl 15 0 empty empty empty 17 7 0 10 -262144 -1 -1 0
1;
#X connect 0 0 4 0;
#X connect 3 0 6 0;
#X connect 4 0 3 0;
#X connect 4 1 5 0;
#X connect 5 0 6 1;
#X connect 6 0 7 0;
#X connect 7 0 8 0;
#X connect 8 0 9 0;
#X restore 384 315 pd presence calc;
#X obj 100 211 input~ ch2;
#X obj 117 192 input~ ch3;
#X obj 132 173 input~ ch4;
#X obj 146 154 input~ ch5;
#X obj 161 135 input~ ch6;
#X obj 176 116 input~ ch7;
#X obj 190 97 input~ ch8;
#N canvas 33 673 450 300 meters 1;
#X obj 46 56 meter1~;
#X obj 58 56 meter1~;
#X obj 70 56 meter1~;
#X obj 82 56 meter1~;
#X obj 94 56 meter1~;
#X obj 106 56 meter1~;
#X obj 118 56 meter1~;
#X obj 130 56 meter1~;
#X obj 38 20 inlet~;
#X obj 82 20 inlet~;
#X obj 125 20 inlet~;
#X obj 168 21 inlet~;
#X obj 211 21 inlet~;
#X obj 256 18 inlet~;
#X obj 299 19 inlet~;
#X obj 344 16 inlet~;
#X connect 8 0 0 0;
#X connect 9 0 1 0;
#X connect 10 0 2 0;
#X connect 11 0 3 0;
#X connect 12 0 4 0;
#X connect 13 0 5 0;
#X connect 14 0 6 0;
#X connect 15 0 7 0;
#X restore 265 426 pd meters ------------;
#X msg 281 222 play 1 1 0;
#X msg 280 247 play 1 0.5 0;
#X obj 41 263 mis.record ch1;
#X obj 41 281 mis.record ch2;
#X obj 174 317 mis.play ch2 outBus2;
#X obj 174 295 mis.play ch1 outBus8;
#X connect 11 0 16 0;
#X connect 11 0 58 0;
#X connect 11 1 16 1;
#X connect 11 1 66 0;
#X connect 11 2 16 2;
#X connect 11 2 67 0;
#X connect 11 3 16 3;
#X connect 11 3 68 0;
#X connect 11 4 16 4;
#X connect 11 4 69 0;
#X connect 11 5 16 5;
#X connect 11 5 70 0;
#X connect 11 6 16 6;
#X connect 11 6 71 0;
#X connect 11 7 16 7;
#X connect 11 7 72 0;
#X connect 13 0 15 1;
#X connect 14 0 13 0;
#X connect 15 0 0 1;
#X connect 17 0 18 1;
#X connect 18 0 20 0;
#X connect 19 0 18 0;
#X connect 21 0 23 0;
#X connect 22 0 25 0;
#X connect 23 0 24 0;
#X connect 23 0 48 0;
#X connect 24 0 23 1;
#X connect 25 0 21 0;
#X connect 25 1 26 0;
#X connect 26 0 23 1;
#X connect 28 0 29 0;
#X connect 29 0 30 0;
#X connect 30 0 31 0;
#X connect 31 0 32 0;
#X connect 31 0 33 0;
#X connect 32 0 31 1;
#X connect 33 0 34 0;
#X connect 35 0 36 0;
#X connect 36 0 37 0;
#X connect 38 0 0 0;
#X connect 38 0 73 0;
#X connect 39 0 0 1;
#X connect 39 0 73 1;
#X connect 40 0 0 2;
#X connect 40 0 73 2;
#X connect 40 0 0 0;
#X connect 41 0 0 3;
#X connect 41 0 73 3;
#X connect 41 0 0 1;
#X connect 42 0 0 4;
#X connect 42 0 73 4;
#X connect 42 0 0 0;
#X connect 43 0 0 5;
#X connect 43 0 73 5;
#X connect 43 0 0 1;
#X connect 44 0 0 6;
#X connect 44 0 73 6;
#X connect 44 0 0 1;
#X connect 45 0 0 7;
#X connect 45 0 73 7;
#X connect 45 0 0 0;
#X connect 45 0 0 6;
#X connect 45 0 0 5;
#X connect 45 0 0 4;
#X connect 45 0 0 3;
#X connect 45 0 0 2;
#X connect 47 0 15 0;
#X connect 59 0 60 0;
#X connect 60 0 61 0;
#X connect 62 0 59 0;
#X connect 62 1 59 1;
#X connect 63 0 59 0;
#X connect 64 0 62 0;
#X connect 74 0 79 0;
#X connect 75 0 78 0;
