#N canvas 469 146 911 661 10;
#X declare -path .;
#X declare -path ./pd;
#X declare -path ./rj;
#X declare -path ./abs;
#X declare -path ./ext;
#X obj 41 552 soundoutput;
#X obj 38 3079 tabwrite~;
#X obj 36 3140 tabread~;
#X obj 38 3079 tabwrite~;
#X obj 36 3140 tabread~;
#X obj 38 3079 tabwrite~;
#X obj 36 3140 tabread~;
#X obj 698 26 declare -path .;
#X obj 698 64 declare -path ./pd;
#X obj 698 45 declare -path ./rj;
#X obj 214 17 sensor_in;
#X obj 87 19 soundinput;
#X obj 698 83 declare -path ./abs;
#X msg 317 517 sr 44100;
#X obj 317 498 loadbang;
#X obj 254 537 s_playtable;
#N canvas 1149 548 450 300 meters 1;
#X obj 46 56 meter1~;
#X obj 58 56 meter1~;
#X obj 70 56 meter1~;
#X obj 82 56 meter1~;
#X obj 94 56 meter1~;
#X obj 106 56 meter1~;
#X obj 118 56 meter1~;
#X obj 130 56 meter1~;
#X obj 38 20 inlet~;
#X obj 82 20 inlet~;
#X obj 125 20 inlet~;
#X obj 168 21 inlet~;
#X obj 211 21 inlet~;
#X obj 256 18 inlet~;
#X obj 299 19 inlet~;
#X obj 344 16 inlet~;
#X connect 8 0 0 0;
#X connect 9 0 1 0;
#X connect 10 0 2 0;
#X connect 11 0 3 0;
#X connect 12 0 4 0;
#X connect 13 0 5 0;
#X connect 14 0 6 0;
#X connect 15 0 7 0;
#X restore 198 78 pd meters ------------;
#X floatatom 436 175 5 0 0 0 - - -;
#X obj 386 194 i;
#X obj 386 176 bng 15 250 50 0 empty empty empty 17 7 0 10 -262144
-1 -1;
#X msg 386 227 \; trigger_rec_ch\$1 bang;
#X obj 547 85 until;
#X msg 547 25 8;
#X obj 547 106 f;
#X obj 572 105 + 1;
#X obj 547 44 t f b;
#X msg 574 65 1;
#X text 580 20 Clear arrays;
#X obj 436 32 r trig1;
#X obj 436 53 change;
#X obj 436 74 sel 1;
#X obj 436 94 f;
#X obj 463 94 + 1;
#X obj 436 114 % 8;
#X obj 436 135 + 1;
#X obj 386 88 r trig2;
#X obj 386 107 change;
#X obj 386 126 sel 1;
#X obj 40 399 catch~ outBus1;
#X obj 54 418 catch~ outBus2;
#X obj 71 437 catch~ outBus3;
#X obj 85 456 catch~ outBus4;
#X obj 101 475 catch~ outBus5;
#X obj 115 494 catch~ outBus6;
#X obj 130 513 catch~ outBus7;
#X obj 144 532 catch~ outBus8;
#X obj 698 102 declare -path ./ext;
#X msg 254 517 ch1_buf;
#N canvas 65 456 903 511 grains 0;
#X obj 193 421 tgl 15 0 empty empty empty 17 7 0 10 -262144 -1 -1 1
1;
#X floatatom 244 420 5 0 0 0 - - -;
#N canvas 3 22 947 456 windowstuff 0;
#X text 445 123 window shape;
#X obj 21 22 loadbang;
#X obj 85 75 soundfiler;
#X msg 86 50 read -resize tri wndw;
#X obj 85 105 s trisize;
#X obj 19 159 soundfiler;
#X obj 20 183 s playsize;
#X obj 272 -1 loadbang;
#X text 322 32 cosine window;
#X text 86 34 triangle window;
#X text 498 35 rectangle window;
#X obj 294 -35 route 0 1 2 3 4;
#X msg 295 -59 \$1 bang;
#X text 673 -26 trapezoid window;
#X msg 499 54 \; wndw const 0.4;
#X obj 708 166 pack;
#X msg 678 216 \; wndw \$2 \$1;
#X msg 296 77 \; wndw cosinesum \$1 0.5 -0.5;
#X msg 274 23 512;
#X obj 277 49 t 0 0;
#X obj 279 112 s trisize;
#X obj 731 70 line;
#X obj 762 110 int;
#X obj 791 111 + 1;
#X obj 767 22 t 0 b;
#X msg 822 53 0;
#X obj 731 90 t 0 b;
#X obj 789 216 -;
#X obj 815 197 r trisize;
#X msg 775 306 \; wndw \$2 \$1;
#X obj 775 283 pack;
#X obj 792 235 * -1;
#X obj 836 241 + 1;
#X msg 805 18 \; wndw const 1;
#X msg 749 49 0 \, 1 \$1;
#X msg 463 -7 4000;
#X obj 294 -85 inlet;
#X msg 21 139 read -resize Speech00.wav playobject;
#X text 737 -11 (ugly implementation - LP);
#X connect 1 0 37 0;
#X connect 2 0 4 0;
#X connect 3 0 2 0;
#X connect 5 0 6 0;
#X connect 7 0 18 0;
#X connect 11 0 3 0;
#X connect 11 1 18 0;
#X connect 11 2 14 0;
#X connect 11 3 35 0;
#X connect 12 0 11 0;
#X connect 15 0 16 0;
#X connect 18 0 19 0;
#X connect 19 0 20 0;
#X connect 19 1 17 0;
#X connect 21 0 26 0;
#X connect 22 0 23 0;
#X connect 22 0 15 1;
#X connect 22 0 27 0;
#X connect 23 0 22 1;
#X connect 24 0 34 0;
#X connect 24 1 25 0;
#X connect 24 1 33 0;
#X connect 25 0 22 1;
#X connect 26 0 15 0;
#X connect 26 0 30 0;
#X connect 26 1 22 0;
#X connect 27 0 31 0;
#X connect 28 0 27 1;
#X connect 30 0 29 0;
#X connect 31 0 32 0;
#X connect 32 0 30 1;
#X connect 34 0 21 0;
#X connect 35 0 24 0;
#X connect 36 0 12 0;
#X connect 37 0 5 0;
#X coords 0 0 0.00127226 0.00187266 200 140 0;
#X restore 25 396 pd windowstuff;
#X obj 25 373 hradio 15 1 0 4 empty empty Windowing_Type 0 -6 0 12
-260818 -1 -1 1;
#N canvas 0 22 450 300 (subpatch) 0;
#X array wndw 515 float 0;
#X coords 0 1 514 -1 50 35 1;
#X restore 25 430 graph;
#X obj 524 308 grainvoice ch6 outBus7;
#X obj 193 439 metro 100;
#X msg 665 78 freqmult \$1;
#X floatatom 665 59 5 0 0 0 - - -;
#X obj 63 118 grainvoice ch1 outBus7;
#X obj 215 117 grainvoice ch2 outBus6;
#X obj 364 120 grainvoice ch2 outBus5;
#X obj 61 186 grainvoice ch3 outBus6;
#X obj 216 187 grainvoice ch3 outBus5;
#X obj 365 190 grainvoice ch3 outBus2;
#X obj 220 245 grainvoice ch4 outBus7;
#X obj 372 244 grainvoice ch4 outBus6;
#X obj 525 247 grainvoice ch5 outBus5;
#X obj 220 307 grainvoice ch5 outBus6;
#X obj 374 306 grainvoice ch6 outBus5;
#X floatatom 565 76 5 0 0 0 - - -;
#X msg 565 95 gain \$1;
#X obj 666 13 loadbang;
#X obj 291 421 tgl 15 0 empty empty empty 17 7 0 10 -262144 -1 -1 1
1;
#X floatatom 342 420 5 0 0 0 - - -;
#X obj 291 439 metro 100;
#X obj 392 420 tgl 15 0 empty empty empty 17 7 0 10 -262144 -1 -1 1
1;
#X floatatom 443 418 5 0 0 0 - - -;
#X obj 392 438 metro 100;
#X msg 665 38 1;
#X msg 747 78 freqmult \$1;
#X floatatom 747 59 5 0 0 0 - - -;
#X msg 747 38 1;
#X msg 824 78 freqmult \$1;
#X floatatom 824 59 5 0 0 0 - - -;
#X msg 824 38 1;
#X obj 665 98 s v1;
#X obj 123 88 r v1;
#X obj 747 98 s v2;
#X obj 824 98 s v3;
#X obj 288 94 r v2;
#X obj 421 98 r v3;
#X obj 565 118 s v1;
#X obj 597 118 s v2;
#X obj 629 118 s v3;
#X obj 119 156 r v1;
#X obj 279 163 r v2;
#X obj 428 164 r v3;
#X obj 272 211 r v1;
#X obj 427 219 r v2;
#X obj 579 221 r v3;
#X obj 288 277 r v1;
#X obj 443 285 r v2;
#X obj 595 287 r v3;
#X obj 241 357 sonar_smooth sonar1;
#X obj 369 357 sonar_smooth sonar2;
#X obj 498 359 sonar_smooth sonar2;
#N canvas 0 22 450 300 durations 0;
#X floatatom 30 123 5 0 0 0 - - -;
#X floatatom 112 123 5 0 0 0 - - -;
#X floatatom 189 123 5 0 0 0 - - -;
#X obj 30 162 s v1;
#X obj 112 162 s v2;
#X obj 189 162 s v3;
#X msg 30 142 duration \$1;
#X msg 112 142 duration \$1;
#X msg 189 142 duration \$1;
#X obj 30 52 sonar_smooth sonar1;
#X obj 158 52 sonar_smooth sonar2;
#X obj 287 54 sonar_smooth sonar2;
#X obj 28 78 m_scale 0 127 10 150;
#X obj 159 76 m_scale 0 127 5 200;
#X obj 287 76 m_scale 0 127 20 100;
#X connect 0 0 6 0;
#X connect 1 0 7 0;
#X connect 2 0 8 0;
#X connect 6 0 3 0;
#X connect 7 0 4 0;
#X connect 8 0 5 0;
#X connect 9 0 12 0;
#X connect 10 0 13 0;
#X connect 11 0 14 0;
#X connect 12 0 0 0;
#X connect 13 0 1 0;
#X connect 14 0 2 0;
#X restore 765 181 pd durations;
#X obj 194 461 s b_v1;
#X obj 291 460 s b_v2;
#X obj 392 462 s b_v3;
#X obj 59 66 r b_v1;
#X obj 215 76 r b_v2;
#X obj 364 77 r b_v3;
#X obj 469 141 r b_v1;
#X obj 514 141 r b_v2;
#X obj 557 141 r b_v3;
#X obj 557 202 r b_v1;
#X obj 602 202 r b_v2;
#X obj 644 202 r b_v3;
#X obj 639 268 r b_v1;
#X obj 684 268 r b_v2;
#X obj 726 268 r b_v3;
#X obj 59 88 randi;
#X obj 215 96 randi;
#X obj 364 99 randi;
#X obj 60 154 randi;
#X obj 216 162 randi;
#X obj 365 165 randi;
#X obj 216 211 randi;
#X obj 372 219 randi;
#X obj 521 222 randi;
#X obj 218 273 randi;
#X obj 374 281 randi;
#X obj 523 284 randi;
#X obj 163 348 loadbang;
#X msg 162 370 1;
#X obj 238 382 m_scale 0 127 200 10;
#X obj 369 382 m_scale 0 127 200 10;
#X obj 499 381 m_scale 0 127 200 10;
#X msg 565 54 0.07;
#X msg 697 142 gpos \$1;
#X floatatom 698 120 5 0 0 0 - - -;
#X obj 110 480 s v1;
#X obj 142 480 s v2;
#X obj 174 480 s v3;
#X msg 111 456 gpos \$1;
#X floatatom 112 434 5 0 0 0 - - -;
#X obj 132 408 != 1;
#X msg 125 338 0;
#X connect 0 0 6 0;
#X connect 1 0 6 1;
#X connect 3 0 2 0;
#X connect 6 0 58 0;
#X connect 7 0 36 0;
#X connect 8 0 7 0;
#X connect 20 0 21 0;
#X connect 21 0 42 0;
#X connect 21 0 43 0;
#X connect 21 0 44 0;
#X connect 22 0 29 0;
#X connect 22 0 90 0;
#X connect 22 0 32 0;
#X connect 22 0 35 0;
#X connect 23 0 25 0;
#X connect 24 0 25 1;
#X connect 25 0 59 0;
#X connect 26 0 28 0;
#X connect 27 0 28 1;
#X connect 28 0 60 0;
#X connect 29 0 8 0;
#X connect 30 0 38 0;
#X connect 31 0 30 0;
#X connect 32 0 31 0;
#X connect 33 0 39 0;
#X connect 34 0 33 0;
#X connect 35 0 34 0;
#X connect 37 0 9 0;
#X connect 40 0 10 0;
#X connect 41 0 11 0;
#X connect 45 0 12 0;
#X connect 46 0 13 0;
#X connect 47 0 14 0;
#X connect 48 0 15 0;
#X connect 49 0 16 0;
#X connect 50 0 17 0;
#X connect 51 0 18 0;
#X connect 52 0 19 0;
#X connect 53 0 5 0;
#X connect 54 0 87 0;
#X connect 55 0 88 0;
#X connect 56 0 89 0;
#X connect 61 0 73 0;
#X connect 62 0 74 0;
#X connect 63 0 75 0;
#X connect 64 0 76 0;
#X connect 65 0 77 0;
#X connect 66 0 78 0;
#X connect 67 0 79 0;
#X connect 68 0 80 0;
#X connect 69 0 81 0;
#X connect 70 0 82 0;
#X connect 71 0 83 0;
#X connect 72 0 84 0;
#X connect 73 0 9 0;
#X connect 74 0 10 0;
#X connect 75 0 11 0;
#X connect 76 0 12 0;
#X connect 77 0 13 0;
#X connect 78 0 14 0;
#X connect 79 0 15 0;
#X connect 80 0 16 0;
#X connect 81 0 17 0;
#X connect 82 0 18 0;
#X connect 83 0 19 0;
#X connect 84 0 5 0;
#X connect 85 0 86 0;
#X connect 86 0 0 0;
#X connect 86 0 23 0;
#X connect 86 0 26 0;
#X connect 86 0 98 0;
#X connect 87 0 1 0;
#X connect 88 0 24 0;
#X connect 89 0 27 0;
#X connect 90 0 20 0;
#X connect 91 0 42 0;
#X connect 91 0 43 0;
#X connect 91 0 44 0;
#X connect 92 0 91 0;
#X connect 96 0 93 0;
#X connect 96 0 94 0;
#X connect 96 0 95 0;
#X connect 97 0 96 0;
#X connect 98 0 97 0;
#X connect 99 0 98 0;
#X connect 99 0 0 0;
#X connect 99 0 23 0;
#X connect 99 0 26 0;
#X restore 384 284 pd grains;
#X msg 547 126 \; ch\$1_buf const 0;
#X obj 376 587 tgl 15 0 empty trigger_rec_ch1 empty 17 7 0 10 -262144
-1 -1 0 1;
#X obj 394 587 tgl 15 0 empty trigger_rec_ch2 empty 17 7 0 10 -262144
-1 -1 0 1;
#X obj 412 587 tgl 15 0 empty trigger_rec_ch3 empty 17 7 0 10 -262144
-1 -1 0 1;
#X obj 430 587 tgl 15 0 empty trigger_rec_ch4 empty 17 7 0 10 -262144
-1 -1 0 1;
#X obj 448 587 tgl 15 0 empty trigger_rec_ch5 empty 17 7 0 10 -262144
-1 -1 0 1;
#X obj 466 587 tgl 15 0 empty trigger_rec_ch6 empty 17 7 0 10 -262144
-1 -1 0 1;
#X obj 484 587 tgl 15 0 empty trigger_rec_ch7 empty 17 7 0 10 -262144
-1 -1 0 1;
#X obj 502 587 tgl 15 0 empty trigger_rec_ch8 empty 17 7 0 10 -262144
-1 -1 0 1;
#X text 375 566 currently recording...:;
#X obj 87 232 input~ ch1;
#X obj 652 327 +;
#X obj 652 347 == 2;
#X obj 653 367 tgl 15 0 empty empty empty 17 7 0 10 -262144 -1 -1 0
1;
#X obj 660 306 t b f;
#X obj 652 265 r trig1;
#X obj 660 287 r trig2;
#N canvas 550 131 450 300 presence 0;
#X obj 55 53 r sonar1;
#X obj 153 55 r sonar2;
#X obj 256 55 r sonar3;
#X obj 55 110 > 40;
#X obj 55 73 t f f;
#X obj 87 109 < 50;
#X obj 55 135 +;
#X obj 55 160 > 1;
#X obj 55 183 change;
#X obj 55 209 tgl 15 0 empty empty empty 17 7 0 10 -262144 -1 -1 0
1;
#X connect 0 0 4 0;
#X connect 3 0 6 0;
#X connect 4 0 3 0;
#X connect 4 1 5 0;
#X connect 5 0 6 1;
#X connect 6 0 7 0;
#X connect 7 0 8 0;
#X connect 8 0 9 0;
#X restore 384 315 pd presence calc;
#X obj 100 211 input~ ch2;
#X obj 117 192 input~ ch3;
#X obj 132 173 input~ ch4;
#X obj 146 154 input~ ch5;
#X obj 161 135 input~ ch6;
#X obj 176 116 input~ ch7;
#X obj 190 97 input~ ch8;
#N canvas 33 673 450 300 meters 0;
#X obj 46 56 meter1~;
#X obj 58 56 meter1~;
#X obj 70 56 meter1~;
#X obj 82 56 meter1~;
#X obj 94 56 meter1~;
#X obj 106 56 meter1~;
#X obj 118 56 meter1~;
#X obj 130 56 meter1~;
#X obj 38 20 inlet~;
#X obj 82 20 inlet~;
#X obj 125 20 inlet~;
#X obj 168 21 inlet~;
#X obj 211 21 inlet~;
#X obj 256 18 inlet~;
#X obj 299 19 inlet~;
#X obj 344 16 inlet~;
#X connect 8 0 0 0;
#X connect 9 0 1 0;
#X connect 10 0 2 0;
#X connect 11 0 3 0;
#X connect 12 0 4 0;
#X connect 13 0 5 0;
#X connect 14 0 6 0;
#X connect 15 0 7 0;
#X restore 265 426 pd meters ------------;
#X obj 41 263 rec-player ch1 outBus1;
#X msg 281 222 play 1 1 0;
#X msg 280 247 play 1 0.5 0;
#X obj 41 376 rec-player ch8 outBus1;
#X obj 41 357 rec-player ch6 outBus2;
#X obj 41 338 rec-player ch5 outBus3;
#X obj 40 319 rec-player ch4 outBus4;
#X obj 41 281 rec-player ch2 outBus2;
#X obj 41 300 rec-player ch3 outBus5;
#X connect 11 0 16 0;
#X connect 11 0 59 0;
#X connect 11 1 16 1;
#X connect 11 1 67 0;
#X connect 11 2 16 2;
#X connect 11 2 68 0;
#X connect 11 3 16 3;
#X connect 11 3 69 0;
#X connect 11 4 16 4;
#X connect 11 4 70 0;
#X connect 11 5 16 5;
#X connect 11 5 71 0;
#X connect 11 6 16 6;
#X connect 11 6 72 0;
#X connect 11 7 16 7;
#X connect 11 7 73 0;
#X connect 13 0 15 1;
#X connect 14 0 13 0;
#X connect 15 0 0 1;
#X connect 17 0 18 1;
#X connect 18 0 20 0;
#X connect 19 0 18 0;
#X connect 21 0 23 0;
#X connect 22 0 25 0;
#X connect 23 0 24 0;
#X connect 23 0 49 0;
#X connect 24 0 23 1;
#X connect 25 0 21 0;
#X connect 25 1 26 0;
#X connect 26 0 23 1;
#X connect 28 0 29 0;
#X connect 29 0 30 0;
#X connect 30 0 31 0;
#X connect 31 0 32 0;
#X connect 31 0 33 0;
#X connect 32 0 31 1;
#X connect 33 0 34 0;
#X connect 35 0 36 0;
#X connect 36 0 37 0;
#X connect 38 0 0 0;
#X connect 38 0 74 0;
#X connect 39 0 0 1;
#X connect 39 0 74 1;
#X connect 40 0 0 2;
#X connect 40 0 74 2;
#X connect 41 0 0 3;
#X connect 41 0 74 3;
#X connect 42 0 0 4;
#X connect 42 0 74 4;
#X connect 43 0 0 5;
#X connect 43 0 74 5;
#X connect 44 0 0 6;
#X connect 44 0 74 6;
#X connect 45 0 0 7;
#X connect 45 0 74 7;
#X connect 47 0 15 0;
#X connect 60 0 61 0;
#X connect 61 0 62 0;
#X connect 63 0 60 0;
#X connect 63 1 60 1;
#X connect 64 0 60 0;
#X connect 65 0 63 0;
#X connect 76 0 75 0;
#X connect 77 0 75 0;
