#N canvas 953 272 914 549 10;
#X obj 20 13 cnv 15 150 200 empty empty PIR 20 12 0 14 -203904 -66577
0;
#X obj 24 113 abs/convert.ascii2pd CR;
#X msg 23 40 open \$1;
#X floatatom 76 40 5 0 0 0 - - -;
#X obj 24 175 route 0 1 2 3 4 5;
#X obj 24 196 tgl 15 0 empty empty empty 17 7 0 10 -262144 -1 -1 0
1;
#X obj 40 196 tgl 15 0 empty empty empty 17 7 0 10 -262144 -1 -1 0
1;
#X obj 57 196 tgl 15 0 empty empty empty 17 7 0 10 -262144 -1 -1 0
1;
#X obj 73 196 tgl 15 0 empty empty empty 17 7 0 10 -262144 -1 -1 0
1;
#X obj 90 196 tgl 15 0 empty empty empty 17 7 0 10 -262144 -1 -1 0
1;
#X obj 106 196 tgl 15 0 empty empty empty 17 7 0 10 -262144 -1 -1 0
1;
#X obj 24 154 l2i;
#X obj 24 135 route LF;
#X obj 173 13 cnv 15 580 230 empty empty LEDs 20 12 0 14 -203904 -66577
0;
#X obj 388 200 prepend set;
#X msg 388 222 0 0 0 0 0 0 0 0 0 0 0 0 0 0 0 0 0 0 0 0 0 0 0 0 0 0
0 0 0 0;
#X obj 184 107 pack 0 0 0 0 0 0 0 0 0 0 0 0 0 0 0 0 0 0 0 0 0 0 0 0
0 0 0 0 0 0;
#N canvas 3 75 450 300 (subpatch) 0;
#X array \$0-LED 19 float 3;
#A 0 -0.0104469 -0.0104469 -0.003304 -0.003304 -0.003304 0.0038389
0.0109818 0.0181247 0.0181247 0.0252676 0.0181247 0.0181247 0.0109818
0.0109818 0.0181247 0.0252676 0.0252676 0.0038389 0.0038389;
#X coords 0 1 19 0 200 140 1 0 0;
#X restore 543 28 graph;
#X obj 184 181 prepend 255;
#X obj 388 180 r \$0-vizu;
#X obj 184 141 s \$0-vizu;
#X obj 184 161 r \$0-vizu;
#X obj 388 138 cnv 15 120 40 empty empty Table_based 20 12 0 14 -204800
-66577 0;
#N canvas 3 75 450 300 read-table 0;
#X obj 90 150 tabread \$0-LED;
#X obj 92 58 tgl 15 0 empty empty empty 17 7 0 10 -262144 -1 -1 0 1
;
#X obj 90 130 counter 30;
#X obj 90 191 int;
#X obj 90 170 expr 127 * pow(($f1 * 0.8 + 0.2) \, 1.75);
#X obj 90 213 list-group 31;
#X obj 90 233 s \$0-vizu;
#X obj 92 29 inlet;
#X obj 90 78 metro 10;
#X obj 144 101 s tick;
#X obj 90 100 t b b;
#X floatatom 165 63 5 0 0 0 - - -;
#X connect 0 0 4 0;
#X connect 1 0 8 0;
#X connect 2 0 0 0;
#X connect 3 0 5 0;
#X connect 4 0 3 0;
#X connect 5 0 6 0;
#X connect 7 0 1 0;
#X connect 8 0 10 0;
#X connect 10 0 2 0;
#X connect 10 1 9 0;
#X connect 11 0 8 1;
#X restore 416 159 pd read-table;
#X obj 398 159 tgl 15 0 empty empty empty 17 7 0 10 -262144 -1 -1 0
1;
#X obj 174 70 tgl 15 0 empty LED_ctrl empty 17 7 0 10 -262144 -1 -1
0 1;
#X obj 174 86 metro 100;
#X obj 232 17 abs/LEDslider 1 1;
#X msg 192 201 close;
#X obj 148 404 s entrance;
#X obj 162 286 s cluster;
#N canvas 91 248 712 387 welcome 0;
#X obj 78 23 inlet;
#X obj 76 154 line;
#X obj 76 42 bng 15 250 50 0 empty empty empty 17 7 0 10 -262144 -1
-1;
#X obj 100 84 del 1000;
#X msg 76 132 0 \, 60 1000;
#X obj 76 176 moses 10;
#X obj 201 176 moses 20;
#X msg 100 111 60 \, 0 1000;
#X obj 76 230 s LED-6;
#X obj 200 230 s LED-12;
#X obj 327 230 s LED-18;
#X obj 457 230 s LED-24;
#X obj 581 230 s LED-30;
#X obj 76 62 t b b b;
#X obj 173 84 del 3000;
#N canvas 440 139 450 300 spinners 0;
#X obj 75 17 inlet;
#X obj 75 66 until;
#X obj 75 110 t f b;
#X obj 73 244 s \$0-to-SPIN-TCP;
#X obj 75 88 counter 5 30;
#X msg 75 44 30;
#X msg 73 225 /spinner\$1 setSpin 0 0 0;
#X connect 0 0 5 0;
#X connect 1 0 4 0;
#X connect 2 0 6 0;
#X connect 4 0 2 0;
#X connect 5 0 1 0;
#X connect 6 0 3 0;
#X restore 54 252 pd spinners stop;
#N canvas 440 142 450 300 spinners 0;
#X obj 75 17 inlet;
#X floatatom 236 126 5 0 0 1 (deg/sec) - -;
#X msg 265 103 0;
#X obj 75 66 until;
#X msg 235 103 \$1;
#X obj 75 110 t f b;
#X obj 102 134 random 50;
#X obj 75 154 pack f f;
#X msg 73 175 /spinner\$1 setSpin 0 0 \$2;
#X obj 73 194 s \$0-to-SPIN-TCP;
#X obj 24 151 print;
#X obj 75 88 counter 5 30;
#X msg 75 44 30;
#X connect 0 0 12 0;
#X connect 1 0 7 1;
#X connect 2 0 1 0;
#X connect 3 0 11 0;
#X connect 4 0 1 0;
#X connect 5 0 7 0;
#X connect 5 1 6 0;
#X connect 6 0 4 0;
#X connect 7 0 8 0;
#X connect 8 0 9 0;
#X connect 11 0 5 0;
#X connect 11 0 10 0;
#X connect 12 0 3 0;
#X restore 174 107 pd spinners go;
#X obj 76 198 rj/m_scale 0 10 0 1;
#X obj 201 198 rj/m_scale 10 20 0 1;
#X obj 327 199 rj/m_scale 20 30 0 1;
#X obj 457 199 rj/m_scale 30 40 0 1;
#X obj 327 176 moses 30;
#X obj 457 175 moses 40;
#X obj 581 198 rj/m_scale 40 50 0 1;
#X obj 36 216 bng 15 250 50 0 empty empty empty 17 7 0 10 -262144 -1
-1;
#X connect 0 0 2 0;
#X connect 1 0 5 0;
#X connect 2 0 13 0;
#X connect 3 0 7 0;
#X connect 4 0 1 0;
#X connect 5 0 17 0;
#X connect 5 1 6 0;
#X connect 6 0 18 0;
#X connect 6 1 21 0;
#X connect 7 0 1 0;
#X connect 13 0 4 0;
#X connect 13 0 15 0;
#X connect 13 1 3 0;
#X connect 13 2 14 0;
#X connect 14 0 16 0;
#X connect 17 0 8 0;
#X connect 18 0 9 0;
#X connect 19 0 10 0;
#X connect 20 0 11 0;
#X connect 21 0 19 0;
#X connect 21 1 22 0;
#X connect 22 0 20 0;
#X connect 22 1 23 0;
#X connect 23 0 12 0;
#X connect 24 0 15 0;
#X restore 153 385 pd welcome;
#N canvas 829 575 756 394 power 1;
#X obj 86 300 s LED-6;
#X obj 210 300 s LED-12;
#X obj 337 300 s LED-18;
#X obj 467 300 s LED-24;
#X obj 591 300 s LED-30;
#X obj 46 286 bng 15 250 50 0 empty empty empty 17 7 0 10 -262144 -1
-1;
#N canvas 440 127 450 300 spinners 0;
#X obj 75 17 inlet;
#X obj 75 66 until;
#X obj 75 110 t f b;
#X obj 75 88 counter 5 30;
#X msg 75 44 30;
#X msg 73 225 /spinner\$1 setSpin 0 0 0;
#X obj 73 244 s to-spin;
#X connect 0 0 4 0;
#X connect 1 0 3 0;
#X connect 2 0 5 0;
#X connect 3 0 2 0;
#X connect 4 0 1 0;
#X connect 5 0 6 0;
#X restore 41 331 pd spinners stop;
#X obj 79 62 inlet;
#X obj 119 62 inlet;
#X obj 159 62 inlet;
#X obj 199 62 inlet;
#X obj 239 62 inlet;
#X obj 88 191 abs/greeting;
#X obj 409 191 abs/greeting;
#X obj 328 191 abs/greeting;
#X obj 248 191 abs/greeting;
#X obj 168 191 abs/greeting;
#X connect 5 0 6 0;
#X connect 7 0 5 0;
#X connect 7 0 12 0;
#X connect 8 0 5 0;
#X connect 8 0 16 0;
#X connect 9 0 5 0;
#X connect 9 0 15 0;
#X connect 10 0 5 0;
#X connect 10 0 14 0;
#X connect 11 0 5 0;
#X connect 11 0 13 0;
#X connect 12 0 0 0;
#X connect 13 0 4 0;
#X connect 14 0 3 0;
#X connect 15 0 2 0;
#X connect 16 0 1 0;
#X restore 28 277 pd power random;
#X obj 144 431 abs/LED-flicker 0;
#X obj 127 431 bng 15 250 50 0 trig1 empty empty 17 7 0 10 -262144
-1 -1;
#X obj 127 451 bng 15 250 50 0 trig2 empty empty 17 7 0 10 -262144
-1 -1;
#X obj 127 471 bng 15 250 50 0 trig3 empty empty 17 7 0 10 -262144
-1 -1;
#X obj 127 491 bng 15 250 50 0 trig4 empty empty 17 7 0 10 -262144
-1 -1;
#X obj 127 511 bng 15 250 50 0 trig5 empty empty 17 7 0 10 -262144
-1 -1;
#N canvas 536 352 450 300 chase 0;
#X obj 227 200 qlist;
#X msg 210 8 30;
#X obj 210 30 until;
#X obj 210 52 counter 1 30;
#X obj 210 74 t f f;
#X msg 277 201 print;
#X obj 323 132 bng 15 250 50 0 empty empty empty 17 7 0 10 -262144
-1 -1;
#X msg 192 239 clear;
#X obj 256 80 sel 1;
#X msg 226 150 add 50 LED-\$1 1;
#X msg 219 171 add 50 LED-\$1 0;
#X obj 153 7 inlet;
#X connect 0 1 7 0;
#X connect 1 0 2 0;
#X connect 2 0 3 0;
#X connect 3 0 4 0;
#X connect 3 2 8 0;
#X connect 4 0 10 0;
#X connect 4 1 9 0;
#X connect 5 0 0 0;
#X connect 6 0 0 0;
#X connect 7 0 0 0;
#X connect 8 0 6 0;
#X connect 9 0 0 0;
#X connect 10 0 0 0;
#X connect 11 0 1 0;
#X restore 163 356 pd chase;
#X obj 144 450 abs/LED-flicker 6;
#X obj 143 471 abs/LED-flicker 12;
#X obj 143 511 abs/LED-flicker 24;
#X obj 144 491 abs/LED-flicker 18;
#X obj 16 219 abs/activity_timer 1;
#X obj 175 34 loadbang;
#X msg 175 52 1;
#X obj 145 220 abs/activity_timer;
#X obj 42 219 abs/activity_timer 2;
#X obj 68 219 abs/activity_timer 3;
#X obj 94 219 abs/activity_timer 4;
#X obj 119 219 abs/activity_timer 5;
#X obj 242 17 abs/LEDslider 2 2;
#X obj 252 17 abs/LEDslider 3 3;
#X obj 262 17 abs/LEDslider 4 4;
#X obj 272 17 abs/LEDslider 5 5;
#X obj 282 17 abs/LEDslider 6 p1;
#X obj 292 17 abs/LEDslider 7 6;
#X obj 302 17 abs/LEDslider 8 7;
#X obj 312 17 abs/LEDslider 9 8;
#X obj 322 17 abs/LEDslider 10 9;
#X obj 332 17 abs/LEDslider 11 10;
#X obj 342 17 abs/LEDslider 12 p2;
#X obj 352 17 abs/LEDslider 13 11;
#X obj 362 17 abs/LEDslider 14 12;
#X obj 372 17 abs/LEDslider 15 13;
#X obj 382 17 abs/LEDslider 16 14;
#X obj 392 17 abs/LEDslider 17 15;
#X obj 402 17 abs/LEDslider 18 p3;
#X obj 412 17 abs/LEDslider 19 16;
#X obj 422 17 abs/LEDslider 20 17;
#X obj 432 17 abs/LEDslider 21 18;
#X obj 442 17 abs/LEDslider 22 19;
#X obj 452 17 abs/LEDslider 23 20;
#X obj 462 17 abs/LEDslider 24 p4;
#X obj 472 17 abs/LEDslider 25 21;
#X obj 482 17 abs/LEDslider 26 22;
#X obj 492 17 abs/LEDslider 27 23;
#X obj 502 17 abs/LEDslider 28 24;
#X obj 512 17 abs/LEDslider 29 25;
#X obj 522 17 abs/LEDslider 30 p5;
#X msg 155 200 2000;
#X obj 163 312 r cluster;
#X obj 163 334 del 30000;
#X obj 756 13 cnv 15 150 200 empty empty unused 20 12 0 14 -162280
-66577 0;
#N canvas 559 431 450 300 sins 0;
#X obj 75 222 tabsend~ \$0-LED;
#X obj 99 91 osc~ 1;
#X obj 99 113 *~ 0.5;
#X obj 99 135 +~ 0.5;
#X floatatom 115 70 5 0 0 0 - - -;
#X obj 193 124 osc~ 0.1;
#X floatatom 192 86 5 0 0 0 - - -;
#X obj 102 162 *~;
#X obj 192 146 *~ 0.5;
#X obj 192 168 +~ 0.5;
#X obj 186 45 unpack;
#X msg 185 19 24 0.05;
#X msg 239 19 100 0.05;
#X msg 303 18 100 0.05;
#X obj 283 133 Scope~ 130 130 256 3 128 -1 1 0 0 0 0 102 255 51 135
135 135 0;
#X obj 23 34 tgl 15 0 empty empty empty 17 7 0 10 -262144 -1 -1 0 1
;
#X obj 19 -1 inlet;
#X obj 35 75 switch~ 64;
#X connect 1 0 2 0;
#X connect 2 0 3 0;
#X connect 3 0 7 0;
#X connect 4 0 1 0;
#X connect 5 0 8 0;
#X connect 6 0 5 0;
#X connect 7 0 0 0;
#X connect 7 0 14 0;
#X connect 8 0 9 0;
#X connect 9 0 7 1;
#X connect 10 0 4 0;
#X connect 10 1 6 0;
#X connect 11 0 10 0;
#X connect 12 0 10 0;
#X connect 13 0 10 0;
#X connect 15 0 17 0;
#X connect 16 0 15 0;
#X restore 771 82 pd sins;
#X obj 771 61 tgl 15 0 empty empty empty 17 7 0 10 -262144 -1 -1 0
1;
#X obj 772 104 tgl 15 0 empty empty empty 17 7 0 10 -262144 -1 -1 0
1;
#X obj 772 146 s autopilot;
#X obj 772 124 metro 5000;
#N canvas 96 351 450 300 old 0;
#X msg 70 62 30;
#X obj 70 84 until;
#X obj 70 106 counter 30;
#X obj 72 266 tabwrite \$0-LED;
#X obj 71 128 t f f b;
#X obj 152 140 time;
#X obj 157 15 r tick;
#X obj 157 67 f;
#X obj 183 67 + 1;
#X obj 157 89 % 10;
#X floatatom 188 90 5 0 0 0 - - -;
#X obj 72 169 expr (sin($f2 * 2 + $f1*360/16*3.14159/180) + 1) / 2
;
#X obj 72 196 * 0.8;
#X obj 72 218 + 0.2;
#X obj 156 40 spigot;
#X obj 206 42 tgl 15 0 empty empty empty 17 7 0 10 -262144 -1 -1 0
1;
#X obj 157 110 sel 0;
#X connect 0 0 1 0;
#X connect 1 0 2 0;
#X connect 2 0 4 0;
#X connect 4 0 11 0;
#X connect 4 1 3 1;
#X connect 4 2 5 0;
#X connect 5 2 11 1;
#X connect 6 0 14 0;
#X connect 7 0 8 0;
#X connect 7 0 9 0;
#X connect 8 0 7 1;
#X connect 9 0 16 0;
#X connect 10 0 9 1;
#X connect 11 0 12 0;
#X connect 12 0 13 0;
#X connect 13 0 3 0;
#X connect 14 0 7 0;
#X connect 15 0 14 1;
#X connect 16 0 0 0;
#X restore 772 169 pd old stuff;
#X text 223 286 these bangs are picked up in the main patch;
#X msg 526 255 devices;
#X text 579 254 print devices to pd window;
#X obj 526 278 comport;
#X msg 33 62 close;
#X floatatom 282 201 5 0 0 0 - - -;
#X msg 231 201 open \$1;
#X obj 184 222 comport 32 57600;
#X obj 23 91 comport 33 57600;
#X connect 1 0 12 0;
#X connect 2 0 99 0;
#X connect 3 0 2 0;
#X connect 4 0 5 0;
#X connect 4 1 6 0;
#X connect 4 2 7 0;
#X connect 4 3 8 0;
#X connect 4 4 9 0;
#X connect 4 5 10 0;
#X connect 5 0 44 0;
#X connect 6 0 48 0;
#X connect 7 0 49 0;
#X connect 8 0 50 0;
#X connect 9 0 51 0;
#X connect 10 0 47 0;
#X connect 11 0 4 0;
#X connect 12 1 11 0;
#X connect 14 0 15 0;
#X connect 16 0 20 0;
#X connect 18 0 98 0;
#X connect 19 0 14 0;
#X connect 21 0 18 0;
#X connect 24 0 23 0;
#X connect 25 0 26 0;
#X connect 26 0 16 0;
#X connect 27 0 16 0;
#X connect 28 0 98 0;
#X connect 34 0 33 0;
#X connect 35 0 40 0;
#X connect 36 0 41 0;
#X connect 37 0 43 0;
#X connect 38 0 42 0;
#X connect 44 0 30 0;
#X connect 44 0 34 0;
#X connect 44 0 32 0;
#X connect 45 0 46 0;
#X connect 45 0 81 0;
#X connect 46 0 25 0;
#X connect 47 0 29 0;
#X connect 47 0 31 0;
#X connect 47 0 39 0;
#X connect 48 0 30 0;
#X connect 48 0 35 0;
#X connect 48 0 32 1;
#X connect 49 0 30 0;
#X connect 49 0 36 0;
#X connect 49 0 32 2;
#X connect 50 0 30 0;
#X connect 50 0 37 0;
#X connect 50 0 32 3;
#X connect 51 0 30 0;
#X connect 51 0 38 0;
#X connect 51 0 32 4;
#X connect 52 0 16 1;
#X connect 53 0 16 2;
#X connect 54 0 16 3;
#X connect 55 0 16 4;
#X connect 56 0 16 5;
#X connect 57 0 16 6;
#X connect 58 0 16 7;
#X connect 59 0 16 8;
#X connect 60 0 16 9;
#X connect 61 0 16 10;
#X connect 62 0 16 11;
#X connect 63 0 16 12;
#X connect 64 0 16 13;
#X connect 65 0 16 14;
#X connect 66 0 16 15;
#X connect 67 0 16 16;
#X connect 68 0 16 17;
#X connect 69 0 16 18;
#X connect 70 0 16 19;
#X connect 71 0 16 20;
#X connect 72 0 16 21;
#X connect 73 0 16 22;
#X connect 74 0 16 23;
#X connect 75 0 16 24;
#X connect 76 0 16 25;
#X connect 77 0 16 26;
#X connect 78 0 16 27;
#X connect 79 0 16 28;
#X connect 80 0 16 29;
#X connect 81 0 47 1;
#X connect 82 0 83 0;
#X connect 83 0 39 0;
#X connect 86 0 85 0;
#X connect 87 0 89 0;
#X connect 89 0 88 0;
#X connect 92 0 94 0;
#X connect 95 0 99 0;
#X connect 96 0 97 0;
#X connect 97 0 98 0;
#X connect 99 0 1 0;
