#N canvas 135 75 984 665 10;
#X msg 137 386 devices;
#X obj 168 463 vsl 15 80 0 255 0 0 empty empty empty 0 -9 0 10 -262144
-1 -1 0 1;
#X text 213 379 list available devices;
#X text 196 379 1;
#X text 242 407 2;
#X text 262 408 Open arduino serial device;
#X msg 149 409 open \$1;
#X floatatom 202 409 5 0 0 0 - - -;
#X text 263 421 (click and type the number obtained from 1.);
#X text 193 464 3;
#X text 195 482 wiggle the slider;
#X obj 86 601 print Arduino;
#X text 182 601 Arduino will echo received values;
#X msg 267 532 close;
#N canvas 0 0 450 300 (subpatch) 0;
#X array \$0-spec 512 float 2;
#X coords 0 1 512 0 200 140 1 0 0;
#X restore 604 78 graph;
#X obj 82 173 hsl 128 15 0 127 0 0 empty empty empty -2 -8 0 10 -262144
-1 -1 0 1;
#X obj 78 201 dbtorms;
#X obj 52 227 *~;
#X obj 75 142 abs/spectrum.mmb~ \$0-spec;
#X obj 308 192 tabread \$0-spec;
#X obj 308 39 tgl 15 0 empty empty empty 17 7 0 10 -262144 -1 -1 0
1;
#X obj 308 60 metro 33;
#X obj 308 164 f;
#X obj 336 164 + 1;
#X msg 350 117 0;
#X msg 308 106 30;
#X obj 308 128 until;
#X obj 308 259 s arduino;
#X obj 86 357 r arduino;
#X text 44 24 load a sound file (WAV or AIFF);
#X text 47 42 and play/loop it;
#X text 340 28 activate sending values to the arduino;
#X obj 308 214 * 255;
#X obj 308 236 int;
#X obj 51 65 abs/playsf~;
#X obj 149 355 print toArduino;
#X msg 670 513 baud 57600;
#X msg 702 552 baud 230400;
#X msg 689 532 baud 115200;
#X msg 651 494 baud 38400;
#X msg 632 475 baud 19200;
#X msg 613 456 baud 9600;
#X obj 615 583 s arduino;
#X text 611 436 choose a baudrate;
#X obj 308 82 t b b b;
#X msg 397 115 255;
#X obj 149 334 spigot;
#X text 371 257 send first 30 values of the spectrum to the arduino
as a stream;
#X text 424 104 start-frame delimiter;
#X obj 182 313 tgl 15 0 empty empty DEBUG 17 7 0 10 -262144 -1 -1 0
1;
#X obj 52 257 dac~ 1 2 3 4 5 6;
#X msg 119 528 help;
#X obj 366 548 route data;
#X obj 276 571 print info;
#X msg 155 438 info;
#X obj 86 579 abs/convert.ascii2pd CR;
#X obj 86 558 comport 32 57600;
#X obj 598 375 gui.VUmeters8;
#X connect 0 0 56 0;
#X connect 1 0 56 0;
#X connect 6 0 56 0;
#X connect 7 0 6 0;
#X connect 13 0 56 0;
#X connect 15 0 16 0;
#X connect 16 0 17 1;
#X connect 17 0 50 1;
#X connect 17 0 50 0;
#X connect 17 0 50 2;
#X connect 17 0 50 3;
#X connect 17 0 50 4;
#X connect 17 0 50 5;
#X connect 19 0 32 0;
#X connect 20 0 21 0;
#X connect 21 0 44 0;
#X connect 22 0 23 0;
#X connect 22 0 19 0;
#X connect 23 0 22 1;
#X connect 24 0 22 1;
#X connect 25 0 26 0;
#X connect 26 0 22 0;
#X connect 28 0 46 0;
#X connect 28 0 56 0;
#X connect 32 0 33 0;
#X connect 33 0 27 0;
#X connect 34 0 17 0;
#X connect 34 0 18 0;
#X connect 36 0 42 0;
#X connect 37 0 42 0;
#X connect 38 0 42 0;
#X connect 39 0 42 0;
#X connect 40 0 42 0;
#X connect 41 0 42 0;
#X connect 44 0 25 0;
#X connect 44 1 24 0;
#X connect 44 2 45 0;
#X connect 45 0 27 0;
#X connect 46 0 35 0;
#X connect 49 0 46 1;
#X connect 51 0 56 0;
#X connect 54 0 56 0;
#X connect 55 0 11 0;
#X connect 56 0 55 0;
#X connect 56 1 53 0;
