#N canvas 594 22 803 820 10;
#X obj 578 33 t b b;
#X obj 639 36 r delay1;
#X obj 642 143 +;
#X obj 659 118 random 5;
#X obj 712 83 r delrng1;
#X obj 579 172 delay 50;
#X obj 513 134 loadbang;
#X obj 597 221 r user_offset;
#X obj 581 339 +;
#X obj 644 279 r user_offset_range;
#X obj 502 402 tabplay~ granfile;
#X obj 335 733 outlet~;
#X obj 73 227 +;
#X obj 90 200 random 5;
#X obj 71 105 r dur1;
#X obj 143 165 r durrng1;
#X obj 27 267 del 100;
#X obj 289 96 t b b b b;
#X obj 93 268 int;
#X obj 191 269 r grain_shape1;
#X obj 192 303 / 100;
#X obj 613 312 random 35;
#X obj 158 368 * 0.3;
#X msg 299 269 30;
#X obj 193 332 t b f;
#X obj 97 426 - 0;
#X obj 158 395 t f f f;
#X obj 63 468 del 100;
#X obj 80 503 float;
#X obj 148 504 float;
#X obj 218 506 float;
#X obj 255 473 r gain1;
#X obj 92 550 pack;
#X obj 166 550 pack;
#X msg 72 583 \$2 \, 0 \$1;
#X msg 161 584 0 \, \$2 \$1;
#X obj 112 621 line~;
#X obj 335 682 *~;
#X obj 580 288 t f b;
#X obj 580 254 float;
#X obj 640 67 float;
#X obj 641 94 t f b;
#X obj 72 176 t f b;
#X obj 72 142 float;
#X connect 0 0 5 0;
#X connect 0 1 40 0;
#X connect 1 0 40 0;
#X connect 2 0 5 1;
#X connect 3 0 2 1;
#X connect 4 0 3 1;
#X connect 5 0 17 0;
#X connect 5 0 39 0;
#X connect 6 0 5 0;
#X connect 6 0 23 0;
#X connect 7 0 39 1;
#X connect 8 0 10 0;
#X connect 9 0 21 1;
#X connect 10 0 37 0;
#X connect 12 0 16 1;
#X connect 12 0 18 0;
#X connect 13 0 12 1;
#X connect 14 0 43 0;
#X connect 15 0 13 1;
#X connect 16 0 0 0;
#X connect 17 0 29 0;
#X connect 17 1 27 0;
#X connect 17 1 30 0;
#X connect 17 2 16 0;
#X connect 17 3 43 0;
#X connect 18 0 22 0;
#X connect 18 0 25 0;
#X connect 19 0 20 0;
#X connect 20 0 24 0;
#X connect 21 0 8 1;
#X connect 22 0 26 0;
#X connect 23 0 20 0;
#X connect 24 0 18 0;
#X connect 24 1 22 1;
#X connect 25 0 27 1;
#X connect 26 0 25 1;
#X connect 26 1 28 1;
#X connect 26 2 29 1;
#X connect 27 0 28 0;
#X connect 28 0 32 0;
#X connect 29 0 33 0;
#X connect 30 0 32 1;
#X connect 30 0 33 1;
#X connect 31 0 30 1;
#X connect 32 0 34 0;
#X connect 33 0 35 0;
#X connect 34 0 36 0;
#X connect 35 0 36 0;
#X connect 36 0 37 1;
#X connect 37 0 11 0;
#X connect 38 0 8 0;
#X connect 38 1 21 0;
#X connect 39 0 38 0;
#X connect 40 0 41 0;
#X connect 41 0 2 0;
#X connect 41 1 3 0;
#X connect 42 0 12 0;
#X connect 42 1 13 0;
#X connect 43 0 42 0;
