#N canvas 261 80 1009 665 10;
#X declare -lib mrpeach;
#X declare -lib mrpeach;
#X declare -lib mrpeach;
#X declare -lib mrpeach;
#X declare -lib mrpeach;
#X declare -lib mrpeach;
#X declare -lib mrpeach;
#X declare -lib mrpeach;
#X declare -lib mrpeach;
#X declare -lib mrpeach;
#X declare -lib mrpeach;
#X declare -lib mrpeach;
#X declare -lib mrpeach;
#X declare -lib mrpeach;
#X declare -lib mrpeach;
#X declare -lib mrpeach;
#X declare -lib mrpeach;
#X declare -lib mrpeach;
#X declare -lib mrpeach;
#X declare -lib mrpeach;
#X declare -lib mrpeach;
#X declare -lib mrpeach;
#X declare -lib mrpeach;
#X declare -lib mrpeach;
#X declare -lib mrpeach;
#X declare -lib mrpeach;
#X declare -path abs;
#X declare -path rj;
#X obj 6 -263 widget-spinConnect \$0;
#X obj 478 -291 widget-nodeEditor \$0;
#N canvas 353 125 548 276 spinners 0;
#X obj 17 -16 abs/spinzone \$0 5 5;
#X obj 17 4 abs/spinzone \$0 6 1;
#X obj 137 4 abs/spinzone \$0 12 2;
#X obj 257 4 abs/spinzone \$0 18 3;
#X obj 377 4 abs/spinzone \$0 24 4;
#X obj 16 124 abs/spinzone \$0 30 5;
#X obj 17 24 abs/spinzone \$0 7 7;
#X obj 17 44 abs/spinzone \$0 8 8;
#X obj 17 64 abs/spinzone \$0 9 9;
#X obj 17 84 abs/spinzone \$0 10 10;
#X obj 16 105 abs/spinzone \$0 29 29;
#X obj 137 -15 abs/spinzone \$0 11 11;
#X obj 136 24 abs/spinzone \$0 13 13;
#X obj 137 43 abs/spinzone \$0 14 14;
#X obj 136 64 abs/spinzone \$0 15 15;
#X obj 137 83 abs/spinzone \$0 16 16;
#X obj 257 -16 abs/spinzone \$0 17 17;
#X obj 256 24 abs/spinzone \$0 19 19;
#X obj 257 43 abs/spinzone \$0 20 20;
#X obj 257 64 abs/spinzone \$0 21 21;
#X obj 257 83 abs/spinzone \$0 22 22;
#X obj 378 -16 abs/spinzone \$0 23 23;
#X obj 376 24 abs/spinzone \$0 25 25;
#X obj 377 42 abs/spinzone \$0 26 26;
#X obj 377 64 abs/spinzone \$0 27 27;
#X obj 377 83 abs/spinzone \$0 28 28;
#X restore 858 -185 pd spinners;
#X obj 6 -303 loadbang;
#X msg 6 -283 ReCollect;
#N canvas 12 75 1009 665 pulsars 0;
#X msg 57 67 createNode listener0 Listener;
#X obj 550 131 playlist all 400 300 {Helvetica 10 bold} #457782 yellow
black red;
#X obj 550 40 thisdir;
#X obj 550 62 makefilename %s/snd;
#X obj 552 20 bng 15 250 50 0 empty empty empty 17 7 0 10 -262144 -1
-1;
#X msg 550 84 location \$1;
#X obj 112 112 until;
#X obj 57 496 s \$0-to-SPIN-TCP;
#X obj 151 224 s \$0-to-SPIN-TCP;
#X obj 112 414 pack f s;
#X obj 276 542 print;
#X obj 550 435 print playlist;
#X msg 381 181 seek \$1;
#X obj 262 12 inlet;
#X obj 262 34 t b b b;
#X text 199 315 Offset the sound by 4m along the y-axis so that it
appears to orbit around the spinner:;
#X text 581 543 <- set the spinner speed;
#X obj 162 391 s \$0-to-SPIN-TCP;
#X msg 151 201 createNode pulse\$1 SoundNode;
#X msg 112 446 /pulse\$1 setDirectivityFlag 1 \, /pulse\$1 setParam
setMediaURI plugin://PulsarSampler \, /pulse\$1 setParam path \$2 \,
/pulse\$1 setParam stop 1;
#X msg 112 90 5;
#X obj 112 177 t a f f;
#X msg 162 369 /pulse\$1 setParent spinner\$2 \, /pulse\$1 setTranslation
0 4 0;
#X obj 131 260 t f f;
#X obj 131 315 pack f f;
#X obj 158 286 + 6;
#X obj 112 155 t f b;
#X obj 280 168 random 200;
#X msg 211 97 0;
#X obj 112 134 counter 5;
#X connect 0 0 7 0;
#X connect 1 0 11 0;
#X connect 1 0 9 1;
#X connect 2 0 3 0;
#X connect 3 0 5 0;
#X connect 4 0 2 0;
#X connect 5 0 1 0;
#X connect 6 0 29 0;
#X connect 9 0 19 0;
#X connect 12 0 1 0;
#X connect 13 0 14 0;
#X connect 14 0 20 0;
#X connect 14 1 0 0;
#X connect 14 2 4 0;
#X connect 14 2 28 0;
#X connect 18 0 8 0;
#X connect 19 0 7 0;
#X connect 19 0 10 0;
#X connect 20 0 6 0;
#X connect 21 0 9 0;
#X connect 21 1 23 0;
#X connect 21 2 18 0;
#X connect 22 0 17 0;
#X connect 23 0 24 0;
#X connect 23 1 25 0;
#X connect 24 0 22 0;
#X connect 25 0 24 1;
#X connect 26 0 21 0;
#X connect 26 1 27 0;
#X connect 27 0 12 0;
#X connect 28 0 29 2;
#X connect 29 0 26 0;
#X restore 867 -227 pd pulsars;
#X obj 851 -226 bng 15 250 50 0 empty empty empty 17 7 0 10 -262144
-1 -1;
#X obj 6 -216 sel ReCollect;
#X obj 858 -127 s \$0-to-SPIN-TCP;
#X obj 858 -146 r to-spin;
#N canvas 62 503 813 534 tell 0;
#X obj 44 392 s \$0-to-SPIN-TCP;
#X text 271 341 node 2;
#X text 286 300 translation 0 7 0;
#X text 286 310 spinnner:;
#X text 271 351 node 3;
#X text 271 331 node 1;
#X text 271 361 node 4;
#X text 271 371 node 5;
#X text 321 331 0 0 -45;
#X text 321 341 0 0 0;
#X text 321 351 0 0 45;
#X text 321 361 0 0 90;
#X text 322 371 0 0 135;
#X msg 186 436 /snd\$1 setParent spinner\$1 \, /snd\$1 setTranslation
0 4 0;
#X msg 155 415 createNode spinner\$1 GroupNode;
#X msg 46 19 createNode vox1 SoundNode \, /vox1 setTranslation 0 7
0 \, /vox1 setParam setMediaURI file:///home/mis/src/Re-Collect/snd/test-vox1.wav
\, /vox1 setParam loop 0 \, /vox1 setParam play 1 \, createNode vox1group
GroupNode \, /vox1 setParent vox1group \, /vox1group setOrientation
0 0 -45;
#X obj 432 205 s \$0-to-SPIN-TCP;
#X msg 57 109 createNode vox2 SoundNode \, /vox2 setTranslation 0 7
0 \, /vox2 setParam setMediaURI file:///home/mis/src/Re-Collect/snd/test-vox1.wav
\, /vox2 setParam loop 0 \, /vox2 setParam play 1 \, createNode vox2group
GroupNode \, /vox2 setParent vox2group \, /vox2group setOrientation
0 0 0;
#X msg 69 195 createNode vox3 SoundNode \, /vox3 setTranslation 0 7
0 \, /vox3 setParam setMediaURI file:///home/mis/src/Re-Collect/snd/test-vox1.wav
\, /vox3 setParam loop 0 \, /vox3 setParam play 1 \, createNode vox3group
GroupNode \, /vox3 setParent vox3group \, /vox3group setOrientation
0 0 45;
#X msg 427 19 createNode vox4 SoundNode \, /vox4 setTranslation 0 7
0 \, /vox4 setParam setMediaURI file:///home/mis/src/Re-Collect/snd/test-vox1.wav
\, /vox4 setParam loop 0 \, /vox4 setParam play 1 \, createNode vox4group
GroupNode \, /vox4 setParent vox4group \, /vox4group setOrientation
0 0 90;
#X msg 438 105 createNode vox5 SoundNode \, /vox5 setTranslation 0
7 0 \, /vox5 setParam setMediaURI file:///home/mis/src/Re-Collect/snd/test-vox1.wav
\, /vox5 setParam loop 0 \, /vox5 setParam play 1 \, createNode vox5group
GroupNode \, /vox5 setParent vox5group \, /vox5group setOrientation
0 0 135;
#X msg 513 262 /vox1 setParam play 1;
#X msg 513 282 /vox2 setParam play 1;
#X msg 513 301 /vox3 setParam play 1;
#X msg 513 323 /vox4 setParam play 1;
#X msg 513 343 /vox5 setParam play 1;
#X obj 653 240 r Trigger1;
#X obj 652 262 r Trigger2;
#X obj 651 282 r Trigger3;
#X obj 651 301 r Trigger4;
#X obj 653 323 r Trigger5;
#X obj 535 438 s \$0-to-SPIN-TCP;
#X connect 15 0 0 0;
#X connect 17 0 0 0;
#X connect 18 0 0 0;
#X connect 19 0 16 0;
#X connect 20 0 16 0;
#X connect 21 0 31 0;
#X connect 22 0 31 0;
#X connect 23 0 31 0;
#X connect 24 0 31 0;
#X connect 25 0 31 0;
#X connect 26 0 21 0;
#X connect 27 0 22 0;
#X connect 28 0 23 0;
#X connect 29 0 24 0;
#X connect 30 0 25 0;
#X restore 858 -166 pd tell me;
#N canvas 145 119 827 548 pulsar 0;
#X msg 68 273 /pulse\$1 setParam stop 1;
#X floatatom 67 254 5 0 0 0 - - -;
#X floatatom 53 143 5 0 0 0 - - -;
#X obj 53 164 t a b;
#X msg 52 231 /pulse\$1 setParam play 1 \, /pulse\$1 setParam freq
\$2;
#X obj 53 206 pack;
#X floatatom 92 209 5 0 0 0 - - -;
#X obj 398 15 r LED-5;
#X floatatom 450 36 5 0 0 0 - - -;
#X obj 398 37 t f f;
#X obj 390 61 < 0.6;
#X obj 390 83 &&;
#X obj 390 105 sel 1;
#X obj 389 126 bng 15 250 50 0 empty empty empty 17 7 0 10 -262144
-1 -1;
#X obj 427 60 > 0.555;
#X obj 389 146 t b b b;
#X obj 430 170 expr random(0 \, 100)*0.1;
#X obj 414 196 expr random(0 \, 100)*0.1;
#X obj 383 219 expr random(0 \, 100)*0.1;
#X obj 378 240 pack f f f;
#X obj 377 262 prepend;
#X msg 376 284 /pulse\$1 setParam lfo_freq \$1 \, /pulse\$1 setParam
lfo_add \$2 \, /pulse\$1 setParam lfo_mul \$3 \, /pulse\$1 setParam
freq \$4;
#X obj 29 408 s \$0-to-SPIN-TCP;
#X text 87 140 0 - 5;
#X obj 81 186 expr random(0 \, 1000)*0.1;
#X obj 375 320 s \$0-to-SPIN-TCP;
#X obj 29 14 r tick;
#X msg 29 119 /gr\$1 setParam stop 1;
#X floatatom 29 100 5 0 0 0 - - -;
#X obj 29 35 % 23;
#X obj 29 79 random 5;
#X obj 29 57 sel 0;
#X connect 0 0 22 0;
#X connect 1 0 0 0;
#X connect 2 0 3 0;
#X connect 3 0 5 0;
#X connect 3 0 20 1;
#X connect 3 1 24 0;
#X connect 4 0 22 0;
#X connect 5 0 4 0;
#X connect 7 0 8 0;
#X connect 7 0 9 0;
#X connect 9 0 10 0;
#X connect 9 1 14 0;
#X connect 10 0 11 0;
#X connect 11 0 12 0;
#X connect 12 0 13 0;
#X connect 13 0 15 0;
#X connect 14 0 11 1;
#X connect 15 0 18 0;
#X connect 15 1 17 0;
#X connect 15 2 16 0;
#X connect 16 0 19 2;
#X connect 17 0 19 1;
#X connect 18 0 19 0;
#X connect 19 0 20 0;
#X connect 20 0 21 0;
#X connect 21 0 25 0;
#X connect 24 0 5 1;
#X connect 24 0 6 0;
#X connect 26 0 29 0;
#X connect 27 0 22 0;
#X connect 28 0 27 0;
#X connect 29 0 31 0;
#X connect 30 0 28 0;
#X connect 31 0 30 0;
#X restore 858 -205 pd pulsar controls;
#X obj 464 -45 nbx 5 14 -1e+37 1e+37 0 0 empty count_media num_of_soundfiles
0 -8 0 10 -4034 -1 -1 0 256;
#X obj 6 -194 s __init;
#X obj 809 -298 declare -path abs;
#X obj 809 -279 declare -path rj;
#X obj 7 -120 cnv 15 160 155 empty empty SoundNodes_initializers 20
12 0 10 -233017 -66577 0;
#X obj 26 17 bng 15 250 50 0 empty init_MicroLoops empty 17 7 0 10
-262144 -1 -1;
#N canvas 12 85 1009 665 MicroLoops 0;
#X msg 57 67 createNode listener0 Listener;
#X obj 550 131 playlist all 400 300 {Helvetica 10 bold} #457782 yellow
black red;
#X obj 550 40 thisdir;
#X obj 550 62 makefilename %s/snd;
#X obj 552 20 bng 15 250 50 0 empty empty empty 17 7 0 10 -262144 -1
-1;
#X msg 550 84 location \$1;
#X obj 112 112 until;
#X obj 57 496 s \$0-to-SPIN-TCP;
#X obj 139 247 s \$0-to-SPIN-TCP;
#X obj 112 200 t a f;
#X obj 112 414 pack f s;
#X obj 276 542 print;
#X obj 550 435 print playlist;
#X msg 381 181 seek \$1;
#X obj 262 12 inlet;
#X obj 262 34 t b b b;
#X obj 125 281 t f f;
#X obj 162 391 s \$0-to-SPIN-TCP;
#X msg 139 224 createNode ml\$1 SoundNode;
#X obj 238 13 bng 15 250 50 0 empty empty empty 17 7 0 10 -262144 -1
-1;
#X obj 199 114 bng 15 250 50 0 empty empty empty 17 7 0 10 -262144
-1 -1;
#X msg 113 446 /ml\$1 setDirectivityFlag 1 \, /ml\$1 setParam setMediaURI
plugin://MicroLooper \, /ml\$1 setParam path \$2 \, /ml\$1 setParam
stop 1;
#X msg 112 90 5;
#X obj 125 333 pack f f;
#X obj 112 178 t f b;
#X obj 152 307 + 0;
#X obj 327 159 random 14;
#X obj 392 130 r count_media;
#X obj 112 134 counter 11 15;
#X msg 175 89 11;
#X obj 470 566 s \$0-to-SPIN-TCP;
#X msg 162 369 /ml\$1 setParent constrained\$2 \, /ml\$1 setTranslation
0 0 0;
#X msg 470 517 createNode constrained\$1 ConstraintsNode \, /constrained\$1
setTarget box \, /constrained\$1 setConstraintMode 3 \, /constrained\$1
setComputationMode 0 \,;
#X connect 0 0 7 0;
#X connect 1 0 12 0;
#X connect 1 0 10 1;
#X connect 2 0 3 0;
#X connect 3 0 5 0;
#X connect 4 0 2 0;
#X connect 5 0 1 0;
#X connect 6 0 28 0;
#X connect 9 0 10 0;
#X connect 9 0 16 0;
#X connect 9 1 18 0;
#X connect 9 1 32 0;
#X connect 10 0 21 0;
#X connect 13 0 1 0;
#X connect 14 0 15 0;
#X connect 15 0 22 0;
#X connect 15 1 0 0;
#X connect 15 2 4 0;
#X connect 15 2 29 0;
#X connect 16 0 23 0;
#X connect 16 1 25 0;
#X connect 18 0 8 0;
#X connect 19 0 15 0;
#X connect 20 0 28 0;
#X connect 21 0 7 0;
#X connect 21 0 11 0;
#X connect 22 0 6 0;
#X connect 23 0 31 0;
#X connect 24 0 9 0;
#X connect 24 1 26 0;
#X connect 25 0 23 1;
#X connect 26 0 13 0;
#X connect 27 0 26 1;
#X connect 28 0 24 0;
#X connect 29 0 28 2;
#X connect 31 0 17 0;
#X connect 32 0 30 0;
#X restore 44 17 pd MicroLoops;
#N canvas 0 90 1187 650 blits 0;
#X obj 122 122 until;
#X obj 122 520 s \$0-to-SPIN-TCP;
#X obj 149 257 s \$0-to-SPIN-TCP;
#X obj 122 210 t a f;
#X obj 139 460 s \$0-to-SPIN-TCP;
#X msg 186 108 0;
#X obj 122 188 t f b;
#X msg 149 234 createNode blit\$1 SoundNode;
#X msg 173 306 createNode blitOrbit\$1 GroupNode;
#X msg 122 486 /blit\$1 setDirectivityFlag 1 \, /blit\$1 setParam setMediaURI
plugin://ResoSine \, /blit\$1 setParam stop 1;
#X obj 156 360 f;
#X obj 188 359 % 360;
#X obj 139 405 pack f f;
#X obj 120 -8 inlet;
#X obj 120 42 t b b;
#X text 1130 250 classical just intonation scale;
#X obj 1127 338 list-nth;
#X obj 1127 291 t a b;
#X msg 1127 269 1 1.066 1.111 1.2 1.25 1.333 1.5 1.6 1.666 1.8 1.875
2;
#X obj 1154 313 random 12;
#X obj 1100 361 *;
#X msg 1100 169 4;
#X obj 1100 191 until;
#X obj 1100 237 t f b;
#X obj 1100 383 list-group 4;
#X obj 1148 406 prepend set;
#X msg 1148 428 275 412.5 293.26 412.5;
#X floatatom 1146 191 5 0 0 0 - - -;
#X obj 1220 362 list-group 4;
#X obj 1268 385 prepend set;
#X msg 1268 407 4 10 5 10;
#X obj 1100 215 f 220;
#X obj 1230 628 s \$0-to-SPIN;
#X obj 172 328 s \$0-to-SPIN-TCP;
#X obj 386 44 route setParam;
#X obj 386 66 route play;
#X obj 386 88 sel 1;
#X obj 953 554 s \$0-to-SPIN-TCP;
#X msg 386 110 0;
#X obj 485 48 route setParam;
#X obj 485 70 route play;
#X obj 485 71 sel 1;
#X obj 585 48 route setParam;
#X obj 585 70 route play;
#X obj 585 92 sel 1;
#X obj 686 48 route setParam;
#X obj 686 70 route play;
#X obj 686 92 sel 1;
#X obj 785 48 route setParam;
#X obj 785 70 route play;
#X obj 785 92 sel 1;
#X obj 885 48 route setParam;
#X obj 885 70 route play;
#X obj 885 92 sel 1;
#X msg 953 532 /blit\$1 event freq \$2 \$3 \$4 \$5;
#X obj 1047 157 t a b;
#X obj 997 461 list append;
#X obj 826 334 + 1;
#X obj 798 371 pack f f f;
#X obj 896 337 + 1;
#X obj 800 291 t a b b;
#X obj 386 132 s blitTrig;
#X obj 386 -16 r blitPlay;
#X obj 386 5 route blit0 blit1 blit2 blit3 blit4 blit5;
#X obj 1047 124 r blitTrig;
#X obj 485 136 s blitTrig;
#X obj 585 136 s blitTrig;
#X obj 686 136 s blitTrig;
#X obj 785 136 s blitTrig;
#X obj 885 136 s blitTrig;
#X obj 1198 468 t a b b b b;
#X obj 1229 568 pack f f f f f;
#X msg 1232 605 /blit\$1 event res_mix \$2 \$3 \$4 \$5;
#X obj 1288 499 expr random(30 \, 100)*0.01;
#X obj 1275 521 expr random(30 \, 100)*0.01;
#X obj 1263 542 expr random(30 \, 100)*0.01;
#X obj 122 284 t a a b a;
#X msg 485 92 1;
#X msg 585 114 2;
#X msg 686 114 3;
#X msg 785 114 4;
#X msg 885 114 5;
#X msg 560 527 /blit\$1 setParam harms \$2 \, /blit\$1 setParam res_len
\$3 \, /blit\$1 setParam play 1;
#X msg 67 77 createNode listener0 Listener;
#X obj 199 34 bng 15 250 50 0 empty empty empty 17 7 0 10 -262144 -1
-1;
#X obj 188 380 + 45;
#X obj 369 236 s \$0-to-SPIN-TCP;
#X msg 369 210 /blit* event harms 1 0.5 0 0.1;
#X msg 473 354 /blit* setParam stop 1;
#X msg 122 100 1;
#X obj 122 144 counter 1;
#X msg 139 426 /blit\$1 setParent blitOrbit\$1 \, /blit\$1 setTranslation
0 4 6 \, /blitOrbit\$1 setOrientation 0 0 \$2;
#X obj 1441 590 prepend set;
#X msg 1441 612 0 0.49 0.54 0.61 9.2;
#X obj 1300 478 expr random(30 \, 100)*0.1;
#X obj 708 413 prepend set;
#X msg 708 435 0 11 4;
#X obj 897 317 random 10;
#X obj 827 314 random 20;
#X msg 797 412 /blit\$1 setParam dur 0.233 \, /blit\$1 setParam mul
3 \, /blit\$1 setParam play 1;
#X connect 0 0 90 0;
#X connect 3 0 76 0;
#X connect 3 1 7 0;
#X connect 5 0 90 2;
#X connect 6 0 3 0;
#X connect 7 0 2 0;
#X connect 8 0 33 0;
#X connect 9 0 1 0;
#X connect 10 0 11 0;
#X connect 10 0 12 1;
#X connect 11 0 85 0;
#X connect 12 0 91 0;
#X connect 13 0 14 0;
#X connect 14 0 89 0;
#X connect 14 0 83 0;
#X connect 14 1 5 0;
#X connect 16 0 20 1;
#X connect 17 0 16 0;
#X connect 17 1 19 0;
#X connect 18 0 17 0;
#X connect 19 0 16 1;
#X connect 19 0 28 0;
#X connect 20 0 24 0;
#X connect 21 0 22 0;
#X connect 22 0 31 0;
#X connect 23 0 20 0;
#X connect 23 1 18 0;
#X connect 24 0 25 0;
#X connect 24 0 56 1;
#X connect 25 0 26 0;
#X connect 27 0 31 1;
#X connect 28 0 29 0;
#X connect 29 0 30 0;
#X connect 31 0 23 0;
#X connect 34 0 35 0;
#X connect 35 0 36 0;
#X connect 36 0 38 0;
#X connect 38 0 61 0;
#X connect 39 0 40 0;
#X connect 40 0 41 0;
#X connect 41 0 77 0;
#X connect 42 0 43 0;
#X connect 43 0 44 0;
#X connect 44 0 78 0;
#X connect 45 0 46 0;
#X connect 46 0 47 0;
#X connect 47 0 79 0;
#X connect 48 0 49 0;
#X connect 49 0 50 0;
#X connect 50 0 80 0;
#X connect 51 0 52 0;
#X connect 52 0 53 0;
#X connect 53 0 81 0;
#X connect 54 0 37 0;
#X connect 55 0 56 0;
#X connect 55 0 60 0;
#X connect 55 0 70 0;
#X connect 55 1 21 0;
#X connect 56 0 54 0;
#X connect 57 0 58 1;
#X connect 58 0 99 0;
#X connect 58 0 95 0;
#X connect 59 0 58 2;
#X connect 60 0 58 0;
#X connect 60 1 98 0;
#X connect 60 2 97 0;
#X connect 62 0 63 0;
#X connect 62 0 87 0;
#X connect 63 0 34 0;
#X connect 63 1 39 0;
#X connect 63 1 34 0;
#X connect 63 2 42 0;
#X connect 63 2 34 0;
#X connect 63 3 45 0;
#X connect 63 3 34 0;
#X connect 63 4 48 0;
#X connect 63 4 34 0;
#X connect 63 5 51 0;
#X connect 63 5 34 0;
#X connect 64 0 55 0;
#X connect 70 0 71 0;
#X connect 70 1 75 0;
#X connect 70 2 74 0;
#X connect 70 3 73 0;
#X connect 70 4 94 0;
#X connect 71 0 72 0;
#X connect 71 0 92 0;
#X connect 72 0 32 0;
#X connect 73 0 71 3;
#X connect 74 0 71 2;
#X connect 75 0 71 1;
#X connect 76 0 9 0;
#X connect 76 1 12 0;
#X connect 76 2 10 0;
#X connect 76 3 8 0;
#X connect 77 0 65 0;
#X connect 78 0 66 0;
#X connect 79 0 67 0;
#X connect 80 0 68 0;
#X connect 81 0 69 0;
#X connect 83 0 1 0;
#X connect 84 0 14 0;
#X connect 85 0 10 1;
#X connect 87 0 86 0;
#X connect 88 0 1 0;
#X connect 89 0 0 0;
#X connect 90 0 6 0;
#X connect 91 0 4 0;
#X connect 92 0 93 0;
#X connect 94 0 71 4;
#X connect 95 0 96 0;
#X connect 97 0 59 0;
#X connect 98 0 57 0;
#X connect 99 0 37 0;
#X restore 43 -42 pd blits;
#X obj 26 -41 bng 15 250 50 0 empty __init_blits empty 17 7 0 10 -262144
-1 -1;
#X obj 26 -1 bng 15 250 50 0 empty init_Grannys empty 17 7 0 10 -262144
-1 -1;
#N canvas 12 80 1009 665 Grannys 0;
#X msg 57 67 createNode listener0 Listener;
#X obj 550 131 playlist all 400 300 {Helvetica 10 bold} #457782 yellow
black red;
#X obj 550 40 thisdir;
#X obj 550 62 makefilename %s/snd;
#X obj 552 20 bng 15 250 50 0 empty empty empty 17 7 0 10 -262144 -1
-1;
#X msg 550 84 location \$1;
#X obj 112 112 until;
#X obj 57 496 s \$0-to-SPIN-TCP;
#X obj 139 247 s \$0-to-SPIN-TCP;
#X obj 112 200 t a f;
#X obj 112 414 pack f s;
#X obj 276 542 print;
#X obj 550 435 print playlist;
#X msg 381 181 seek \$1;
#X obj 262 12 inlet;
#X obj 262 34 t b b b;
#X text 199 315 Offset the sound by 4m along the y-axis so that it
appears to orbit around the spinner:;
#X obj 125 281 t f f;
#X obj 161 390 s \$0-to-SPIN-TCP;
#X obj 221 203 sel 1;
#X obj 238 13 bng 15 250 50 0 empty empty empty 17 7 0 10 -262144 -1
-1;
#X obj 199 114 bng 15 250 50 0 empty empty empty 17 7 0 10 -262144
-1 -1;
#X obj 125 333 pack f f;
#X obj 112 178 t f b;
#X msg 139 227 createNode gr\$1 SoundNode;
#X msg 114 446 /gr\$1 setDirectivityFlag 1 \, /gr\$1 setParam setMediaURI
plugin://Granny \, /gr\$1 setParam path \$2 \, /gr\$1 setParam stop
1;
#X obj 1158 619 s \$0-to-SPIN-TCP;
#X msg 1298 483 /gr setParam basedur \$1;
#X obj 1239 219 t f f;
#X obj 1266 241 + 0.02;
#X obj 1222 360 s \$0-to-SPIN-TCP;
#X obj 1195 246 pack f f;
#X msg 1225 270 /gr\$1 setParam pitch_min \$2;
#X msg 1242 324 /gr\$1 setParam pitch_max \$2;
#X obj 1207 296 pack f f;
#X obj 1145 168 s \$0-gran;
#X obj 1194 218 r \$0-gran;
#X obj 1152 274 r \$0-gran;
#X obj 1264 425 pack f f;
#X obj 1209 403 r \$0-gran;
#X obj 1150 77 bng 15 250 50 0 empty empty empty 17 7 0 10 -262144
-1 -1;
#X obj 1103 528 r \$0-gran;
#X msg 1299 454 /gr\$1 setParam density \$2;
#X msg 1100 561 /gr\$1 setParam play 1;
#X msg 1307 632 /gr\$1 setParam mul \$1;
#X obj 1352 601 pack f f;
#X obj 1298 572 r \$0-gran;
#X obj 1383 562 expr random(5 \, 10)*0.1;
#X obj 1150 132 t f b b;
#X obj 1229 113 r granny;
#X obj 1239 197 expr random(1 \, 10)*0.1;
#X obj 152 307 + 6;
#X obj 1302 402 expr random(4 \, 8);
#X msg 1114 102 0;
#X floatatom 1099 140 5 0 0 0 - - -;
#X msg 112 90 5;
#X obj 1150 109 random 5;
#X obj 327 159 random 14;
#X obj 382 120 r count_media;
#X obj 460 556 s \$0-to-SPIN-TCP;
#X msg 175 92 6;
#X obj 112 135 counter 6 10;
#X msg 162 369 /gr\$1 setParent constrained\$2 \, /gr\$1 setTranslation
0 0 0;
#X msg 460 507 createNode constrained\$1 ConstraintsNode \, /constrained\$1
setTarget box \, /constrained\$1 setConstraintMode 3 \, /constrained\$1
setComputationMode 0 \,;
#X connect 0 0 7 0;
#X connect 1 0 12 0;
#X connect 1 0 10 1;
#X connect 2 0 3 0;
#X connect 3 0 5 0;
#X connect 4 0 2 0;
#X connect 5 0 1 0;
#X connect 6 0 61 0;
#X connect 9 0 10 0;
#X connect 9 0 17 0;
#X connect 9 1 24 0;
#X connect 9 1 63 0;
#X connect 10 0 25 0;
#X connect 13 0 1 0;
#X connect 14 0 15 0;
#X connect 15 0 55 0;
#X connect 15 1 0 0;
#X connect 15 2 4 0;
#X connect 15 2 60 0;
#X connect 17 0 22 0;
#X connect 17 1 51 0;
#X connect 20 0 15 0;
#X connect 21 0 61 0;
#X connect 22 0 62 0;
#X connect 23 0 9 0;
#X connect 23 1 57 0;
#X connect 24 0 8 0;
#X connect 25 0 7 0;
#X connect 25 0 11 0;
#X connect 28 0 31 1;
#X connect 28 1 29 0;
#X connect 29 0 34 1;
#X connect 31 0 32 0;
#X connect 32 0 30 0;
#X connect 33 0 30 0;
#X connect 34 0 33 0;
#X connect 36 0 31 0;
#X connect 37 0 34 0;
#X connect 38 0 42 0;
#X connect 39 0 38 0;
#X connect 40 0 56 0;
#X connect 41 0 43 0;
#X connect 42 0 26 0;
#X connect 43 0 26 0;
#X connect 44 0 26 0;
#X connect 45 0 44 0;
#X connect 46 0 45 0;
#X connect 47 0 45 1;
#X connect 48 0 35 0;
#X connect 48 1 50 0;
#X connect 48 1 52 0;
#X connect 48 2 47 0;
#X connect 49 0 48 0;
#X connect 50 0 28 0;
#X connect 51 0 22 1;
#X connect 52 0 38 1;
#X connect 53 0 48 0;
#X connect 55 0 6 0;
#X connect 56 0 48 0;
#X connect 56 0 54 0;
#X connect 57 0 13 0;
#X connect 58 0 57 1;
#X connect 60 0 61 2;
#X connect 61 0 23 0;
#X connect 61 2 19 0;
#X connect 62 0 18 0;
#X connect 63 0 59 0;
#X restore 44 -2 pd Grannys;
#X obj 26 -61 bng 15 250 50 0 empty __init_players empty 17 7 0 10
-262144 -1 -1;
#X obj 6 39 cnv 15 160 100 empty empty SoundNodes_controllers 20 12
0 10 -233017 -66577 0;
#N canvas 900 463 777 585 recorders 0;
#X obj 41 24 r Trigger1;
#X obj 138 24 r Trigger2;
#X obj 234 23 r Trigger3;
#X obj 331 22 r Trigger4;
#X obj 429 25 r Trigger5;
#X obj 41 161 abs/MicRec \$0 0;
#X obj 134 161 abs/MicRec \$0 1;
#X obj 234 160 abs/MicRec \$0 2;
#X obj 331 159 abs/MicRec \$0 3;
#X obj 429 158 abs/MicRec \$0 4;
#X obj 61 68 prepend set;
#X msg 61 90 3;
#X obj 150 70 prepend set;
#X msg 150 92 9;
#X obj 249 71 prepend set;
#X msg 249 93 9;
#X obj 341 69 prepend set;
#X msg 341 91 10;
#X obj 437 71 prepend set;
#X msg 437 93 5;
#X obj 58 45 counter 10;
#X obj 147 47 counter 10;
#X obj 246 48 counter 10;
#X obj 338 46 counter 10;
#X obj 434 48 counter 10;
#X obj 23 91 ==;
#X obj 23 116 sel 1;
#X obj 214 91 ==;
#X obj 214 116 sel 1;
#X obj 122 90 ==;
#X obj 122 115 sel 1;
#X obj 300 94 ==;
#X obj 300 119 sel 1;
#X obj 395 94 ==;
#X obj 395 119 sel 1;
#X obj 72 183 bng 15 250 50 0 empty empty empty 17 7 0 10 -262144 -1
-1;
#X obj 151 183 bng 15 250 50 0 empty empty empty 17 7 0 10 -262144
-1 -1;
#X obj 241 188 bng 15 250 50 0 empty empty empty 17 7 0 10 -262144
-1 -1;
#X obj 336 186 bng 15 250 50 0 empty empty empty 17 7 0 10 -262144
-1 -1;
#X obj 446 184 bng 15 250 50 0 empty empty empty 17 7 0 10 -262144
-1 -1;
#X msg 166 120 1;
#X msg 260 115 1;
#X msg 356 117 1;
#X obj 130 209 superflicker 12;
#X obj 26 208 superflicker 6;
#X obj 433 211 superflicker 30;
#X obj 224 211 superflicker 18;
#X obj 332 210 superflicker 24;
#X connect 0 0 20 0;
#X connect 1 0 21 0;
#X connect 2 0 22 0;
#X connect 3 0 23 0;
#X connect 4 0 24 0;
#X connect 10 0 11 0;
#X connect 12 0 13 0;
#X connect 14 0 15 0;
#X connect 16 0 17 0;
#X connect 18 0 19 0;
#X connect 20 0 10 0;
#X connect 20 0 25 0;
#X connect 21 0 12 0;
#X connect 21 0 25 1;
#X connect 21 0 27 1;
#X connect 21 0 29 0;
#X connect 22 0 14 0;
#X connect 22 0 27 0;
#X connect 22 0 29 1;
#X connect 22 0 31 1;
#X connect 22 0 33 1;
#X connect 23 0 16 0;
#X connect 23 0 31 0;
#X connect 24 0 18 0;
#X connect 24 0 33 0;
#X connect 25 0 26 0;
#X connect 26 0 5 0;
#X connect 26 0 44 0;
#X connect 27 0 28 0;
#X connect 28 0 7 0;
#X connect 28 0 46 0;
#X connect 29 0 30 0;
#X connect 30 0 6 0;
#X connect 30 0 43 0;
#X connect 31 0 32 0;
#X connect 32 0 8 0;
#X connect 32 0 47 0;
#X connect 33 0 34 0;
#X connect 34 0 9 0;
#X connect 34 0 45 0;
#X connect 35 0 44 0;
#X connect 36 0 43 0;
#X connect 37 0 46 0;
#X connect 38 0 47 0;
#X connect 39 0 45 0;
#X connect 40 0 30 0;
#X connect 41 0 28 0;
#X connect 42 0 32 0;
#X restore 15 69 pd recorders;
#N canvas 205 507 738 487 instrument_controls 0;
#X obj 9 -32 r gr_ctrl;
#X obj 9 -10 sel 0 1 2 3 4;
#X obj 263 -12 sel 0 1 2 3 4;
#X obj 262 -34 r ml_ctrl;
#X obj 378 -13 sel 0 1 2 3 4;
#X obj 377 -35 r ml_ctrl;
#X floatatom 96 195 5 0 0 0 - - -;
#X obj 97 151 r cluster;
#X obj 161 148 bng 15 250 50 0 empty manual_trig empty 17 7 0 10 -262144
-1 -1;
#X obj 96 217 s ml_ctrl;
#X obj 186 197 sel 0 1 2 3 4;
#X obj 306 353 s \$0-to-SPIN-TCP;
#X obj 306 306 pack 0 0;
#X obj 306 225 bng 15 250 50 0 empty empty empty 17 7 0 10 -262144
-1 -1;
#X obj 306 245 t b b;
#X obj 351 287 expr random(1 \, 11)*0.1;
#X obj 410 346 prepend set;
#X msg 410 368 /snd28 setParam play 1;
#X msg 306 326 /snd\$1 setParam speed \$2 \, /snd\$1 setParam play
1;
#X obj 96 171 expr random(0 \, 5);
#X floatatom 272 170 5 0 0 0 - - -;
#X obj 31 238 s blitTrig;
#X msg 30 217 0;
#X obj 306 267 expr random(25 \, 30);
#X obj 185 220 monitor_and_delay;
#X obj 186 240 monitor_and_delay;
#X obj 185 260 monitor_and_delay;
#X obj 185 280 monitor_and_delay;
#X obj 185 299 monitor_and_delay;
#X obj 517 5 bng 15 250 50 0 empty empty empty 17 7 0 10 -262144 -1
-1;
#X obj 517 25 bng 15 250 50 0 empty empty empty 17 7 0 10 -262144 -1
-1;
#X obj 516 45 bng 15 250 50 0 empty empty empty 17 7 0 10 -262144 -1
-1;
#X obj 518 66 bng 15 250 50 0 empty empty empty 17 7 0 10 -262144 -1
-1;
#X obj 518 87 bng 15 250 50 0 empty empty empty 17 7 0 10 -262144 -1
-1;
#X obj 376 89 sfplayer_control \$0 4;
#X obj 243 6 bng 15 250 50 0 empty empty empty 17 7 0 10 -262144 -1
-1;
#X obj 243 25 bng 15 250 50 0 empty empty empty 17 7 0 10 -262144 -1
-1;
#X obj 243 45 bng 15 250 50 0 empty empty empty 17 7 0 10 -262144 -1
-1;
#X obj 243 65 bng 15 250 50 0 empty empty empty 17 7 0 10 -262144 -1
-1;
#X obj 243 85 bng 15 250 50 0 empty empty empty 17 7 0 10 -262144 -1
-1;
#X obj 171 -2 bng 15 250 50 0 empty empty empty 17 7 0 10 -262144 -1
-1;
#X obj 171 17 bng 15 250 50 0 empty empty empty 17 7 0 10 -262144 -1
-1;
#X obj 171 37 bng 15 250 50 0 empty empty empty 17 7 0 10 -262144 -1
-1;
#X obj 171 57 bng 15 250 50 0 empty empty empty 17 7 0 10 -262144 -1
-1;
#X obj 171 77 bng 15 250 50 0 empty empty empty 17 7 0 10 -262144 -1
-1;
#X obj 263 88 abs/ml-ctrl \$0 15;
#X obj 11 92 abs/granula_control \$0 10;
#X obj 378 7 sfplayer_control \$0 0;
#X obj 377 27 sfplayer_control \$0 1;
#X obj 375 46 sfplayer_control \$0 2;
#X obj 377 67 sfplayer_control \$0 3;
#X obj 263 8 abs/ml-ctrl \$0 11;
#X obj 263 26 abs/ml-ctrl \$0 12;
#X obj 263 48 abs/ml-ctrl \$0 13;
#X obj 263 68 abs/ml-ctrl \$0 14;
#X obj 11 12 abs/granula_control \$0 6;
#X obj 11 32 abs/granula_control \$0 7;
#X obj 11 52 abs/granula_control \$0 8;
#X obj 11 72 abs/granula_control \$0 9;
#X connect 0 0 1 0;
#X connect 1 0 55 0;
#X connect 1 1 56 0;
#X connect 1 2 57 0;
#X connect 1 3 58 0;
#X connect 1 4 46 0;
#X connect 2 0 51 0;
#X connect 2 1 52 0;
#X connect 2 2 53 0;
#X connect 2 3 54 0;
#X connect 2 4 45 0;
#X connect 3 0 2 0;
#X connect 4 0 47 0;
#X connect 4 1 48 0;
#X connect 4 2 49 0;
#X connect 4 3 50 0;
#X connect 4 4 34 0;
#X connect 5 0 4 0;
#X connect 6 0 9 0;
#X connect 7 0 19 0;
#X connect 7 0 22 0;
#X connect 8 0 19 0;
#X connect 10 0 24 0;
#X connect 10 1 13 0;
#X connect 10 1 25 0;
#X connect 10 2 26 0;
#X connect 10 3 13 0;
#X connect 10 3 27 0;
#X connect 10 4 28 0;
#X connect 12 0 18 0;
#X connect 13 0 14 0;
#X connect 14 0 23 0;
#X connect 14 1 15 0;
#X connect 15 0 12 1;
#X connect 16 0 17 0;
#X connect 18 0 11 0;
#X connect 18 0 16 0;
#X connect 19 0 6 0;
#X connect 19 0 10 0;
#X connect 19 0 20 0;
#X connect 22 0 21 0;
#X connect 23 0 12 0;
#X connect 29 0 47 0;
#X connect 30 0 48 0;
#X connect 31 0 49 0;
#X connect 32 0 50 0;
#X connect 33 0 34 0;
#X connect 35 0 51 0;
#X connect 36 0 52 0;
#X connect 37 0 53 0;
#X connect 38 0 54 0;
#X connect 39 0 45 0;
#X connect 40 0 55 0;
#X connect 41 0 56 0;
#X connect 42 0 57 0;
#X connect 43 0 58 0;
#X connect 44 0 46 0;
#X restore 16 107 pd instrument_controls;
#N canvas 295 201 850 818 MicroLoops_controls 0;
#N canvas 109 139 450 300 randombits 0;
#X obj 114 35 inlet;
#X obj 114 57 t f b b b;
#X obj 114 149 pack f f f f;
#X obj 114 171 outlet;
#X obj 165 79 expr random(1 \, 1000)*0.1;
#X obj 147 99 expr random(0 \, 70)*0.1;
#X obj 131 120 expr random(1 \, 200) * 0.01;
#X text 297 118 pitch;
#X text 299 100 loop start;
#X text 320 79 loop duration;
#X connect 0 0 1 0;
#X connect 1 0 2 0;
#X connect 1 1 6 0;
#X connect 1 2 5 0;
#X connect 1 3 4 0;
#X connect 2 0 3 0;
#X connect 4 0 2 3;
#X connect 5 0 2 2;
#X connect 6 0 2 1;
#X restore 292 -78 pd randombits;
#X floatatom 293 -102 5 0 0 0 - - -;
#X obj 329 -58 prepend set;
#X msg 329 -36 13 1.56 5.9 23.9;
#X msg 132 -72 /ml\$1 setParam stop 1;
#X floatatom 129 -93 5 0 0 0 - - -;
#N canvas 88 79 504 418 microChords 0;
#X text 126 115 classical just intonation scale;
#X obj 123 203 list-nth;
#X obj 123 156 t a b;
#X msg 123 134 1 1.066 1.111 1.2 1.25 1.333 1.5 1.6 1.666 1.8 1.875
2;
#X obj 150 178 random 12;
#X obj 96 226 *;
#X obj 96 102 t f b;
#X obj 144 271 prepend set;
#X msg 144 293 222.2 266.6;
#X floatatom 177 57 5 0 0 0 - - -;
#X obj 264 250 prepend set;
#X msg 264 272 2 5;
#X obj -2 341 outlet;
#X obj 207 342 outlet;
#X obj 93 9 inlet;
#X obj 96 56 until;
#X obj 96 81 f 200;
#X obj 174 25 inlet;
#X msg 96 34 2;
#X obj 96 248 list-group 2;
#X obj 216 227 list-group 2;
#X connect 1 0 5 1;
#X connect 2 0 1 0;
#X connect 2 1 4 0;
#X connect 3 0 2 0;
#X connect 4 0 1 1;
#X connect 4 0 20 0;
#X connect 5 0 19 0;
#X connect 6 0 5 0;
#X connect 6 1 3 0;
#X connect 7 0 8 0;
#X connect 7 0 13 0;
#X connect 9 0 16 1;
#X connect 10 0 11 0;
#X connect 14 0 18 0;
#X connect 15 0 16 0;
#X connect 16 0 6 0;
#X connect 17 0 9 0;
#X connect 18 0 15 0;
#X connect 19 0 7 0;
#X connect 19 0 12 0;
#X connect 20 0 10 0;
#X restore 488 -153 pd microChords;
#X obj 487 -172 bng 15 250 50 0 empty empty empty 17 7 0 10 -262144
-1 -1;
#X msg 565 -124 222.2 266.6;
#X floatatom 560 -178 5 0 0 0 - - -;
#X obj 495 -106 f;
#X obj 497 -132 t b a;
#X obj 496 -81 list append;
#X obj 621 88 prepend set;
#X msg 619 113 /ml16 event freq 222.2 266.6;
#X obj 292 -159 random 5;
#X obj 488 -236 r tick;
#X obj 488 -214 % 27;
#X obj 291 -224 r tick;
#X obj 291 -202 % 11;
#X obj 21 -209 r tick;
#X obj 21 -188 % 15;
#X obj 488 -192 sel 0;
#X obj 291 -180 sel 0;
#X obj 20 -168 sel 0;
#X obj 20 -144 random 5;
#X msg 619 19 /ml\$1 setParam transposition \$2;
#X obj 619 44 s \$0-to-SPIN-TCP;
#X floatatom 662 -47 5 0 0 0 - - -;
#X obj 623 -51 bng 15 250 50 0 empty empty empty 17 7 0 10 -262144
-1 -1;
#N canvas 3 80 1009 665 MicroLoopsFiles 0;
#X obj 560 141 playlist all 400 300 {Helvetica 10 bold} #457782 yellow
black red;
#X obj 560 50 thisdir;
#X obj 560 72 makefilename %s/snd;
#X obj 562 30 bng 15 250 50 0 empty empty empty 17 7 0 10 -262144 -1
-1;
#X msg 560 94 location \$1;
#X obj 122 210 t a f;
#X obj 122 424 pack f s;
#X obj 122 188 t f b;
#X obj 215 174 random 200;
#X msg 215 196 seek \$1;
#X msg 123 456 ml\$1 setParam path \$2 \, /ml\$1 setParam stop 1;
#X obj 121 480 s \$0-to-SPIN-TCP;
#X floatatom 124 116 5 0 0 0 - - -;
#X obj 116 33 inlet;
#X obj 116 55 random 5;
#X connect 0 0 6 1;
#X connect 1 0 2 0;
#X connect 2 0 4 0;
#X connect 3 0 1 0;
#X connect 4 0 0 0;
#X connect 5 0 6 0;
#X connect 6 0 10 0;
#X connect 7 0 5 0;
#X connect 7 1 8 0;
#X connect 8 0 9 0;
#X connect 9 0 0 0;
#X connect 10 0 11 0;
#X connect 12 0 7 0;
#X connect 13 0 14 0;
#X connect 13 0 3 0;
#X connect 14 0 12 0;
#X restore 80 -143 pd MicroLoopsFiles;
#X obj 617 -16 pack 0 -7;
#X msg 457 -6 /ml\$1 event freq \$2 \$3;
#X obj 80 -164 bng 15 250 50 0 empty empty empty 17 7 0 10 -262144
-1 -1;
#X text 122 -225 Driven by a metronome tick;
#X msg 80 285 /reporter* addTarget constrained\$1;
#X obj 355 84 i;
#X msg 406 72 \$1;
#X msg 115 312 /reporter* removeTarget constrained\$1;
#X obj 360 42 del;
#X obj 360 -4 t b a a;
#X msg 384 21 \$4;
#X obj 384 43 * 1000;
#X obj 65 346 s \$0-to-SPIN-TCP;
#X obj 360 -188 bng 15 250 50 0 empty empty empty 17 7 0 10 -262144
-1 -1;
#X obj 442 54 bng 15 250 50 0 empty empty empty 17 7 0 10 -262144 -1
-1;
#X floatatom 388 95 5 0 0 0 - - -;
#X obj 476 294 qlist;
#X obj 30 242 r toSpin;
#X msg 539 266 print;
#X msg 495 164 \$1 \$4;
#X obj 495 186 unpack;
#X obj 526 208 * 1000;
#X obj 495 228 pack;
#X msg 454 242 add \$2 toSpin /reporter* removeTarget constrained\$1
;
#X msg 590 264 clear;
#X obj 603 168 bng 15 250 50 0 empty empty empty 17 7 0 10 -262144
-1 -1;
#X obj 32 363 p;
#N canvas 420 209 553 414 sequence 0;
#X obj 94 98 bng 15 250 50 0 empty empty empty 0 -6 0 8 -262144 -1
-1;
#X obj 320 101 bng 15 250 50 0 empty empty empty 0 -6 0 8 -262144 -1
-1;
#X text 315 79 clear;
#X text 91 78 send;
#X obj 94 177 list append;
#X obj 241 152 t l;
#X obj 122 138 list prepend;
#X obj 94 245 t l l;
#X obj 149 245 print start;
#X obj 248 196 print stored;
#X obj 94 321 del;
#X obj 133 323 list append;
#X msg 122 99 250 57;
#X msg 182 99 500 52;
#X msg 243 99 750 55;
#X obj 94 296 unpack;
#X obj 94 270 list split 2;
#X text 175 77 -- add --;
#X obj 225 301 print done;
#X obj 90 12 inlet;
#X obj 90 34 t b a;
#X obj 130 366 outlet;
#X msg 42 77 \$1;
#X obj 31 104 del;
#X connect 0 0 4 0;
#X connect 1 0 6 1;
#X connect 4 0 7 0;
#X connect 5 0 6 1;
#X connect 6 0 5 0;
#X connect 6 0 4 1;
#X connect 6 0 9 0;
#X connect 7 0 16 0;
#X connect 7 1 8 0;
#X connect 10 0 11 0;
#X connect 11 0 16 0;
#X connect 12 0 6 0;
#X connect 13 0 6 0;
#X connect 14 0 6 0;
#X connect 15 0 10 0;
#X connect 15 1 21 0;
#X connect 16 0 15 0;
#X connect 16 1 11 1;
#X connect 16 2 18 0;
#X connect 16 2 1 0;
#X connect 19 0 20 0;
#X connect 20 0 0 0;
#X connect 20 0 23 0;
#X connect 20 1 6 0;
#X connect 20 1 22 0;
#X connect 22 0 23 1;
#X connect 23 0 0 0;
#X restore 519 315 pd sequence;
#X msg 518 294 \$2 \$1;
#X msg 519 335 \; toSpin /reporter* removeTarget constrained\$1;
#X obj 249 185 s \$0-to-SPIN-TCP;
#X obj 287 -128 + 12;
#X text 324 -138 because ml are 11-15;
#X msg 276 439 /ml13 setParam dur \$1;
#X floatatom 276 414 8 0 0 0 - - -;
#X msg 276 480 /ml13 setParam start \$1;
#X floatatom 276 460 5 0 0 0 - - -;
#X obj 213 510 s \$0-to-SPIN-TCP;
#X floatatom 507 419 5 0 0 0 - - -;
#X obj 507 462 line;
#X msg 507 440 \$1 6000;
#X msg 305 365 0.001;
#X obj 372 509 prepend /ml13;
#X floatatom 591 412 5 0 0 0 - - -;
#X msg 590 435 setParam xfade \$1;
#X floatatom 593 483 5 0 0 0 - - -;
#X msg 592 506 setParam res_len \$1;
#X floatatom 527 519 5 0 0 0 - - -;
#X msg 526 542 setParam res_mix \$1;
#X floatatom 712 453 5 0 0 0 - - -;
#X floatatom 388 358 5 0 0 0 - - -;
#X msg 711 477 setParam harm_wet \$1;
#X msg 387 381 setParam transposition \$1;
#X msg 249 116 /ml\$1 setParam pitch \$2 \, /ml\$1 setParam start \$3
\, /ml\$1 setParam dur \$4 \, /ml\$1 setParam play 1 \, /ml\$1 setParam
mul 0.3 \, /ml\$1 setParam harm_wet 0.5 \, /ml\$1 setParam xfade 20
\, /ml\$1 setParam res_mix 0.5;
#X connect 0 0 84 0;
#X connect 0 0 2 0;
#X connect 0 0 35 0;
#X connect 0 0 40 0;
#X connect 0 0 50 0;
#X connect 1 0 0 0;
#X connect 1 0 10 1;
#X connect 1 0 31 0;
#X connect 2 0 3 0;
#X connect 4 0 61 0;
#X connect 5 0 4 0;
#X connect 6 0 11 0;
#X connect 6 1 8 0;
#X connect 7 0 6 0;
#X connect 9 0 6 1;
#X connect 10 0 12 0;
#X connect 11 0 10 0;
#X connect 11 1 12 1;
#X connect 12 0 32 0;
#X connect 13 0 14 0;
#X connect 15 0 62 0;
#X connect 16 0 17 0;
#X connect 17 0 22 0;
#X connect 18 0 19 0;
#X connect 19 0 23 0;
#X connect 20 0 21 0;
#X connect 22 0 7 0;
#X connect 23 0 15 0;
#X connect 24 0 25 0;
#X connect 24 0 30 0;
#X connect 26 0 27 0;
#X connect 28 0 31 1;
#X connect 29 0 31 0;
#X connect 31 0 26 0;
#X connect 32 0 13 0;
#X connect 32 0 61 0;
#X connect 33 0 30 0;
#X connect 35 0 43 0;
#X connect 37 0 36 1;
#X connect 38 0 43 0;
#X connect 39 0 36 0;
#X connect 40 0 39 0;
#X connect 40 1 41 0;
#X connect 40 2 37 0;
#X connect 41 0 42 0;
#X connect 42 0 39 1;
#X connect 44 0 15 0;
#X connect 45 0 36 0;
#X connect 46 0 36 1;
#X connect 48 0 43 0;
#X connect 48 0 57 0;
#X connect 49 0 47 0;
#X connect 50 0 51 0;
#X connect 51 0 53 0;
#X connect 51 1 52 0;
#X connect 52 0 53 1;
#X connect 53 0 59 0;
#X connect 54 0 47 0;
#X connect 55 0 47 0;
#X connect 56 0 47 0;
#X connect 58 0 60 0;
#X connect 59 0 58 0;
#X connect 62 0 1 0;
#X connect 64 0 68 0;
#X connect 65 0 64 0;
#X connect 66 0 68 0;
#X connect 67 0 66 0;
#X connect 69 0 71 0;
#X connect 70 0 66 0;
#X connect 71 0 70 0;
#X connect 72 0 64 0;
#X connect 73 0 68 0;
#X connect 74 0 75 0;
#X connect 75 0 73 0;
#X connect 76 0 77 0;
#X connect 77 0 73 0;
#X connect 78 0 79 0;
#X connect 79 0 73 0;
#X connect 80 0 82 0;
#X connect 81 0 83 0;
#X connect 82 0 73 0;
#X connect 83 0 73 0;
#X connect 84 0 61 0;
#X restore 15 88 pd MicroLoops_controls;
#N canvas 571 101 450 300 base_conf 0;
#X obj 34 207 shell;
#X obj 34 148 bng 15 250 50 0 empty __init init_media_count 17 7 0
10 -262144 -1 -1;
#X obj 34 167 thisdir;
#X msg 34 187 ls -l \$1/snd | wc -l;
#X obj 34 227 s count_media;
#X msg 50 69 createNode box ShapeNode;
#X obj 25 19 r __init;
#X obj 25 41 t b b;
#X text 144 31 create the box that contains the sound nodes;
#N canvas 368 244 592 316 setCamerViewOnLuoda 0;
#X obj 128 84 bng 15 250 50 0 empty empty empty 17 7 0 10 -262144 -1
-1;
#X text 147 79 set view for this example;
#X obj 134 156 spin.toCamera \$0;
#X msg 130 179 createNode grid GridNode;
#X obj 130 199 s \$0-to-SPIN-TCP;
#X msg 252 53 luoda;
#X obj 252 30 loadbang;
#X obj 119 24 inlet;
#X obj 135 48 t b b;
#X msg 159 105 setTranslation -26.11 -20.85 -16.31 \, setOrientation
-386 -175 -51 0 -50;
#X connect 0 0 9 0;
#X connect 3 0 4 0;
#X connect 5 0 2 1;
#X connect 6 0 5 0;
#X connect 7 0 8 0;
#X connect 8 0 0 0;
#X connect 8 1 5 0;
#X connect 9 0 2 0;
#X restore 203 133 pd setCamerViewOnLuoda;
#X obj 186 134 bng 15 250 50 0 empty __init empty 17 7 0 10 -262144
-1 -1;
#X msg 161 212 50;
#X obj 26 114 s \$0-to-SPIN;
#X msg 27 85 /box setScale 20 20 20 \, /box setColor 0.58 0.66 0.79
0.3 \, /box setRenderBin 200;
#X obj 88 7 inlet;
#X obj 88 29 t b b b;
#X connect 0 0 4 0;
#X connect 1 0 2 0;
#X connect 2 0 3 0;
#X connect 3 0 0 0;
#X connect 5 0 12 0;
#X connect 6 0 7 0;
#X connect 7 0 13 0;
#X connect 7 1 5 0;
#X connect 10 0 9 0;
#X connect 11 0 4 0;
#X connect 13 0 12 0;
#X connect 14 0 15 0;
#X connect 15 0 10 0;
#X connect 15 0 1 0;
#X connect 15 1 13 0;
#X connect 15 2 5 0;
#X restore 257 -216 pd base_conf;
#X symbolatom 478 -310 10 0 0 0 - - -;
#X obj 382 -244 r __init;
#X msg 382 -223 \; pd dsp 1;
#N canvas 167 339 450 300 force? 0;
#X obj 47 154 s \$0-to-SPIN-TCP;
#X msg 338 155 -1;
#X msg 488 155 1;
#X msg 416 155 0;
#X msg 369 155 -0.5;
#X msg 456 155 0.5;
#X msg 307 155 -5;
#X msg 520 155 5;
#X msg 47 96 createNode force\$1 AttractorNode \, /force\$1 addTarget
constrained\$1 \, /force\$1 setAngularDecay 0 \, /force\$1 setDistanceDecay
1;
#X msg 416 196 /force* setForce \$1;
#X floatatom 56 37 5 0 0 0 - - -;
#X connect 1 0 9 0;
#X connect 2 0 9 0;
#X connect 3 0 9 0;
#X connect 4 0 9 0;
#X connect 5 0 9 0;
#X connect 6 0 9 0;
#X connect 7 0 9 0;
#X connect 8 0 0 0;
#X connect 9 0 0 0;
#X connect 10 0 8 0;
#X restore 859 -107 pd force?;
#N canvas 3 75 450 300 audio_monitors 0;
#X obj 48 67 env~;
#X obj 48 89 * 0.01;
#X obj 91 67 env~;
#X obj 91 89 * 0.01;
#X obj 134 67 env~;
#X obj 134 89 * 0.01;
#X obj 177 67 env~;
#X obj 177 89 * 0.01;
#X obj 219 67 env~;
#X obj 219 89 * 0.01;
#X obj 261 67 env~;
#X obj 261 89 * 0.01;
#X obj 303 67 env~;
#X obj 303 89 * 0.01;
#X obj 345 67 env~;
#X obj 345 89 * 0.01;
#X obj 48 13 adc~ 1 2 3 4 5 6 7 8;
#X obj 49 173 / 8;
#X obj 49 195 s LED_coefficient;
#X obj 49 111 expr ($f1 + $f2 + $f3 + $f4 + $f5 + $f6 + $f7 + $f8)
* 2;
#X msg 22 254 \; LED-6 \$1;
#X msg 101 252 \; LED-12 \$1;
#X msg 174 250 \; LED-18 \$1;
#X msg 258 245 \; LED-24 \$1;
#X msg 339 242 \; LED-30 \$1;
#X floatatom 374 175 5 0 0 0 - - -;
#X obj 21 229 * 0.3;
#X obj 105 229 * 0.3;
#X obj 172 228 * 0.3;
#X obj 258 223 * 0.3;
#X obj 339 220 * 0.3;
#X connect 0 0 1 0;
#X connect 1 0 19 0;
#X connect 1 0 26 0;
#X connect 2 0 3 0;
#X connect 3 0 19 1;
#X connect 3 0 27 0;
#X connect 4 0 5 0;
#X connect 5 0 19 2;
#X connect 5 0 28 0;
#X connect 6 0 7 0;
#X connect 7 0 19 3;
#X connect 7 0 29 0;
#X connect 8 0 9 0;
#X connect 9 0 19 4;
#X connect 9 0 30 0;
#X connect 10 0 11 0;
#X connect 11 0 19 5;
#X connect 12 0 13 0;
#X connect 13 0 19 6;
#X connect 14 0 15 0;
#X connect 15 0 19 7;
#X connect 16 0 0 0;
#X connect 16 1 2 0;
#X connect 16 2 4 0;
#X connect 16 3 6 0;
#X connect 16 4 8 0;
#X connect 16 5 10 0;
#X connect 16 6 12 0;
#X connect 16 7 14 0;
#X connect 17 0 18 0;
#X connect 19 0 17 0;
#X connect 25 0 26 1;
#X connect 25 0 27 1;
#X connect 25 0 28 1;
#X connect 25 0 29 1;
#X connect 25 0 30 1;
#X connect 26 0 20 0;
#X connect 27 0 21 0;
#X connect 28 0 22 0;
#X connect 29 0 23 0;
#X connect 30 0 24 0;
#X restore 684 -54 pd audio_monitors;
#N canvas 1101 401 714 629 physics 0;
#X obj 264 104 until;
#N canvas 571 157 450 300 velocities 0;
#X obj 124 53 inlet;
#X obj 124 75 t a b b b;
#X obj 140 99 random 10;
#X obj 140 121 - 5;
#X obj 140 143 * 0.1;
#X obj 207 100 random 10;
#X obj 207 122 - 5;
#X obj 207 144 * 0.1;
#X obj 272 99 random 10;
#X obj 272 121 - 5;
#X obj 272 143 * 0.1;
#X obj 125 181 pack f f f f;
#X obj 125 203 outlet;
#X floatatom 225 20 5 0 0 0 - - -;
#X obj 225 41 / 2;
#X connect 0 0 1 0;
#X connect 1 0 11 0;
#X connect 1 1 2 0;
#X connect 1 2 5 0;
#X connect 1 3 8 0;
#X connect 2 0 3 0;
#X connect 3 0 4 0;
#X connect 4 0 11 1;
#X connect 5 0 6 0;
#X connect 6 0 7 0;
#X connect 7 0 11 2;
#X connect 8 0 9 0;
#X connect 9 0 10 0;
#X connect 10 0 11 3;
#X connect 11 0 12 0;
#X connect 13 0 14 0;
#X connect 13 0 2 1;
#X connect 13 0 5 1;
#X connect 13 0 8 1;
#X connect 14 0 3 1;
#X connect 14 0 6 1;
#X connect 14 0 9 1;
#X restore 264 148 pd velocities;
#X msg 124 142 /ml* setParam play 1;
#X obj 302 56 r ml_ctrl;
#X msg 133 166 /gr* setParam play 1;
#X msg 430 33 0 0 0 0;
#X msg 437 56 0 1 0 0;
#X msg 436 80 0 -1 0 0;
#X msg 436 104 0 0 1 0;
#X msg 434 125 0 0 -1 0;
#X msg 166 217 /constrained0 setVelocity 1 0.7 0;
#X msg -44 100 /snd0 setParam play 1 \, /snd0 setParam loop 1 \, /snd0
setParam mul 5;
#X msg 292 226 /constrained* setVelocity \$2 \$3 0;
#X msg 435 147 0 0.5 -1 0;
#X msg -47 238 /snd* setParam play 1 \, /snd* setParam loop 1 \, /snd*
setParam mul 5;
#X msg 264 82 15;
#X obj 264 126 counter 0 15;
#X msg 264 168 /constrained\$1 setVelocity \$2 \$3 0;
#X obj 263 9 r tick;
#X obj 263 31 % 20;
#X obj 263 53 sel 0;
#X msg 293 249 /constrained* translateTo -10 -10 0 3 LinearMotion;
#X msg 121 477 /constrained* translateTo \$2 \$3 0 \$4 LinearMotion
;
#N canvas 571 148 450 300 linearTranslations 0;
#X obj 124 53 inlet;
#X obj 140 99 random 10;
#X obj 140 121 - 5;
#X obj 207 100 random 10;
#X obj 207 122 - 5;
#X obj 125 181 pack f f f f;
#X obj 125 203 outlet;
#X floatatom 225 20 5 0 0 0 - - -;
#X obj 225 41 / 2;
#X obj 124 75 t b b b b;
#X obj 272 99 random 3;
#X obj 271 120 + 0.5;
#X connect 0 0 9 0;
#X connect 1 0 2 0;
#X connect 2 0 5 1;
#X connect 3 0 4 0;
#X connect 4 0 5 2;
#X connect 5 0 6 0;
#X connect 7 0 8 0;
#X connect 7 0 1 1;
#X connect 7 0 3 1;
#X connect 7 0 10 1;
#X connect 8 0 2 1;
#X connect 8 0 4 1;
#X connect 8 0 11 1;
#X connect 9 0 5 0;
#X connect 9 1 1 0;
#X connect 9 2 3 0;
#X connect 9 3 10 0;
#X connect 10 0 11 0;
#X connect 11 0 5 3;
#X restore 121 458 pd linearTranslations;
#X obj 123 311 r Trigger1;
#X obj 193 311 r Trigger2;
#X obj 263 311 r Trigger3;
#X obj 333 311 r Trigger4;
#X obj 403 311 r Trigger5;
#X obj 121 498 s \$0-to-SPIN;
#X obj 264 189 s \$0-to-SPIN;
#X msg 297 267 /constrained* translateTo 0 0 0 3 LinearMotion;
#X connect 0 0 16 0;
#X connect 1 0 17 0;
#X connect 2 0 30 0;
#X connect 3 0 15 0;
#X connect 4 0 30 0;
#X connect 5 0 12 0;
#X connect 6 0 12 0;
#X connect 7 0 12 0;
#X connect 8 0 12 0;
#X connect 9 0 12 0;
#X connect 10 0 30 0;
#X connect 11 0 30 0;
#X connect 12 0 30 0;
#X connect 13 0 12 0;
#X connect 14 0 30 0;
#X connect 15 0 0 0;
#X connect 16 0 1 0;
#X connect 17 0 30 0;
#X connect 18 0 19 0;
#X connect 19 0 20 0;
#X connect 20 0 15 0;
#X connect 21 0 30 0;
#X connect 22 0 29 0;
#X connect 23 0 22 0;
#X connect 31 0 30 0;
#X restore 683 -33 pd physics;
#X obj 6 143 cnv 15 160 150 empty empty Visualization 20 12 0 10 -233017
-66577 0;
#N canvas 995 197 753 341 speakers 0;
#X obj 48 16 inlet;
#X obj 19 251 s \$0-to-SPIN;
#X msg 21 52 createNode speaker1 ShapeNode \, /speaker1 setTranslation
0 3.91 0 \, /speaker1 setColor 0.3 0.3 0.3 1;
#X msg 31 93 createNode speaker2 ShapeNode \, /speaker2 setTranslation
3 1.48 0 \, /speaker2 setColor 0.3 0.3 0.3 1;
#X msg 38 135 createNode speaker3 ShapeNode \, /speaker3 setTranslation
1.69 -2.49 0 \, /speaker3 setColor 0.3 0.3 0.3 1;
#X msg 48 175 createNode speaker4 ShapeNode \, /speaker4 setTranslation
-1.69 -2.49 0 \, /speaker4 setColor 0.3 0.3 0.3 1;
#X msg 57 215 createNode speaker5 ShapeNode \, /speaker5 setTranslation
-3 1.48 0 \, /speaker5 setColor 0.3 0.3 0.3 1;
#X connect 0 0 2 0;
#X connect 0 0 3 0;
#X connect 0 0 4 0;
#X connect 0 0 5 0;
#X connect 0 0 6 0;
#X connect 2 0 1 0;
#X connect 3 0 1 0;
#X connect 4 0 1 0;
#X connect 5 0 1 0;
#X connect 6 0 1 0;
#X restore 30 167 pd speakers;
#X obj 14 167 bng 15 250 50 0 empty __init_speakers empty 17 7 0 10
-262144 -1 -1;
#N canvas 67 152 738 585 LEDs 0;
#X obj 193 81 bng 15 250 50 0 empty empty empty 17 7 0 10 -262144 -1
-1;
#X obj 191 101 bng 15 250 50 0 empty empty empty 17 7 0 10 -262144
-1 -1;
#X obj 191 121 bng 15 250 50 0 empty empty empty 17 7 0 10 -262144
-1 -1;
#X obj 191 141 bng 15 250 50 0 empty empty empty 17 7 0 10 -262144
-1 -1;
#X obj 191 161 bng 15 250 50 0 empty empty empty 17 7 0 10 -262144
-1 -1;
#X obj 78 54 t b b b b b;
#X obj 53 163 t b;
#X obj 75 26 inlet;
#X msg 39 334 /nodeRoot0 setTranslation 0 3.91 -1;
#X msg 47 354 /nodeRoot5 setTranslation 3 1.48 -1;
#X msg 55 377 /nodeRoot10 setTranslation 1.69 -2.49 -1;
#X msg 65 395 /nodeRoot15 setTranslation -1.69 -2.49 -1;
#X msg 76 417 /nodeRoot20 setTranslation -3 1.48 -1;
#X obj 209 160 cluster3D \$0 20;
#X obj 44 440 s \$0-to-SPIN-TCP;
#X obj 123 80 del 1000;
#X obj 108 102 del 2000;
#X obj 103 126 del 3000;
#X obj 103 148 t b b;
#X obj 103 170 del 1000;
#X msg 350 428 /reporter* removeTarget constrained\$1;
#X floatatom 354 403 5 0 0 0 - - -;
#X obj 209 81 cluster3D \$0 0;
#X obj 209 101 cluster3D \$0 5;
#X obj 208 120 cluster3D \$0 10;
#X obj 209 141 cluster3D \$0 15;
#X connect 0 0 22 0;
#X connect 1 0 23 0;
#X connect 2 0 24 0;
#X connect 3 0 25 0;
#X connect 4 0 13 0;
#X connect 5 0 6 0;
#X connect 5 1 17 0;
#X connect 5 2 16 0;
#X connect 5 3 15 0;
#X connect 5 4 0 0;
#X connect 6 0 12 0;
#X connect 6 0 11 0;
#X connect 6 0 10 0;
#X connect 6 0 9 0;
#X connect 6 0 8 0;
#X connect 7 0 5 0;
#X connect 8 0 14 0;
#X connect 9 0 14 0;
#X connect 10 0 14 0;
#X connect 11 0 14 0;
#X connect 12 0 14 0;
#X connect 15 0 1 0;
#X connect 16 0 2 0;
#X connect 17 0 18 0;
#X connect 18 0 19 0;
#X connect 18 1 3 0;
#X connect 19 0 4 0;
#X connect 20 0 14 0;
#X connect 21 0 20 0;
#X restore 31 189 pd LEDs;
#X obj 13 189 bng 15 250 50 0 empty __init_leds empty 17 7 0 10 -262144
-1 -1;
#X obj 105 -212 bng 15 250 50 0 empty empty INIT 17 7 0 10 -260097
-258113 -258113;
#X obj 170 142 cnv 15 160 150 empty empty Manual_ctrl 20 12 0 10 -233017
-66577 0;
#X obj 183 166 bng 15 250 50 0 manual_trig empty trigger_random 17
7 0 10 -262144 -1 -1;
#X obj 464 -23 tgl 15 1 reporterON reporterON-set reporterON 17 7 0
10 -204786 -1 -159808 1 1;
#N canvas 488 407 450 300 swells 0;
#X obj 54 105 swell 6;
#X obj 54 88 bng 15 250 50 0 empty empty empty 17 7 0 10 -262144 -1
-1;
#X obj 104 88 bng 15 250 50 0 empty empty empty 17 7 0 10 -262144 -1
-1;
#X obj 154 88 bng 15 250 50 0 empty empty empty 17 7 0 10 -262144 -1
-1;
#X obj 204 88 bng 15 250 50 0 empty empty empty 17 7 0 10 -262144 -1
-1;
#X obj 264 88 bng 15 250 50 0 empty empty empty 17 7 0 10 -262144 -1
-1;
#X obj 104 105 swell 12;
#X obj 154 105 swell 18;
#X obj 205 105 swell 24;
#X obj 265 105 swell 30;
#X obj 59 33 r trig1;
#X obj 111 34 r trig2;
#X obj 160 35 r trig3;
#X obj 212 36 r trig4;
#X obj 262 35 r trig5;
#X connect 1 0 0 0;
#X connect 2 0 6 0;
#X connect 3 0 7 0;
#X connect 4 0 8 0;
#X connect 5 0 9 0;
#X connect 10 0 1 0;
#X connect 11 0 2 0;
#X connect 12 0 3 0;
#X connect 13 0 4 0;
#X connect 14 0 5 0;
#X restore 181 192 pd swells;
#X msg 768 21 \; init_MicroLoops bang;
#X obj 464 -5 tgl 15 1 dronesON dronesON-set dronesON 17 7 0 10 -204786
-1 -1 0 1;
#N canvas 157 83 800 569 buzz 0;
#X obj 116 99 until;
#X obj 116 477 s \$0-to-SPIN-TCP;
#X obj 143 214 s \$0-to-SPIN-TCP;
#X obj 116 167 t a f;
#X obj 133 417 s \$0-to-SPIN-TCP;
#X msg 180 85 0;
#X obj 116 145 t f b;
#X obj 150 317 f;
#X obj 182 316 % 360;
#X obj 133 362 pack f f;
#X obj 166 285 s \$0-to-SPIN-TCP;
#X obj 116 241 t a a b a;
#X obj 182 337 + 45;
#X msg 143 191 createNode buzz\$1 SoundNode;
#X msg 167 263 createNode buzzOrbit\$1 GroupNode;
#X obj 380 186 pack f f f;
#X obj 490 127 + 1;
#X obj 382 106 t a b b;
#X obj 491 107 random 10;
#X obj 372 358 s \$0-to-SPIN-TCP;
#X msg 186 125 0;
#X msg 116 443 /buzz\$1 setDirectivityFlag 1 \, /buzz\$1 setParam setMediaURI
plugin://Buzz;
#X msg -73 174 createNode listener0 Listener;
#X obj 490 149 * 0.1;
#X obj 513 498 p;
#X msg 133 383 /buzz\$1 setParent buzzOrbit\$1 \, /buzz\$1 setTranslation
0 1 1 \, /buzzOrbit\$1 setOrientation 0 0 \$2;
#X msg 561 412 /buzz0 setParam harmonicity \$1;
#X obj 728 264 vsl 15 128 0.1 0.9 0 0 empty empty empty 0 -9 0 10 -262144
-1 -1 0 1;
#X obj 408 149 + 5;
#X msg 396 328 /buzz\$1 event freq \$2 \$3;
#X obj 468 302 pack 0 0 0;
#X obj 409 129 random 5;
#X obj 573 168 p;
#X obj 113 51 t b b;
#X obj 112 33 bng 15 250 50 0 empty empty empty 17 7 0 10 -262144 -1
-1;
#X obj 488 282 + 20;
#X obj 563 282 + 20;
#X msg 352 216 /buzz\$1 setParam dur \$2 \, /buzz\$1 setParam play
1 \, /buzz\$1 setParam harmonicity \$3 \, /buzz\$1 setParam mul 0.3
;
#X obj 488 259 random 50;
#X obj 562 260 random 60;
#X msg 116 78 5;
#X obj 116 121 counter 5;
#X obj 306 13 r trig1;
#X obj 358 14 r trig2;
#X obj 408 13 r trig3;
#X obj 459 13 r trig4;
#X obj 508 12 r trig5;
#X msg 307 36 0;
#X msg 357 37 1;
#X msg 407 36 2;
#X msg 458 36 3;
#X msg 509 35 4;
#X obj 383 80 spigot 1;
#X obj 455 75 r dronesON;
#X obj 108 8 inlet;
#X connect 0 0 41 0;
#X connect 3 0 11 0;
#X connect 3 1 13 0;
#X connect 5 0 41 2;
#X connect 6 0 3 0;
#X connect 7 0 8 0;
#X connect 7 0 9 1;
#X connect 8 0 12 0;
#X connect 9 0 25 0;
#X connect 11 0 21 0;
#X connect 11 1 9 0;
#X connect 11 2 7 0;
#X connect 11 3 14 0;
#X connect 12 0 7 1;
#X connect 13 0 2 0;
#X connect 14 0 10 0;
#X connect 15 0 37 0;
#X connect 16 0 23 0;
#X connect 17 0 15 0;
#X connect 17 0 30 0;
#X connect 17 1 31 0;
#X connect 17 1 38 0;
#X connect 17 2 18 0;
#X connect 17 2 39 0;
#X connect 18 0 16 0;
#X connect 20 0 6 0;
#X connect 21 0 1 0;
#X connect 22 0 1 0;
#X connect 23 0 15 2;
#X connect 23 0 32 0;
#X connect 25 0 4 0;
#X connect 26 0 19 0;
#X connect 27 0 26 0;
#X connect 28 0 15 1;
#X connect 29 0 19 0;
#X connect 29 0 24 0;
#X connect 30 0 29 0;
#X connect 31 0 28 0;
#X connect 33 0 40 0;
#X connect 33 1 22 0;
#X connect 33 1 5 0;
#X connect 34 0 33 0;
#X connect 35 0 30 1;
#X connect 36 0 30 2;
#X connect 37 0 19 0;
#X connect 38 0 35 0;
#X connect 39 0 36 0;
#X connect 40 0 0 0;
#X connect 41 0 6 0;
#X connect 42 0 47 0;
#X connect 43 0 48 0;
#X connect 44 0 49 0;
#X connect 45 0 50 0;
#X connect 46 0 51 0;
#X connect 47 0 52 0;
#X connect 48 0 52 0;
#X connect 49 0 52 0;
#X connect 50 0 52 0;
#X connect 51 0 52 0;
#X connect 52 0 17 0;
#X connect 53 0 52 1;
#X connect 54 0 34 0;
#X restore 925 -105 pd buzz;
#N canvas 571 203 450 300 reporters 0;
#X obj -170 16 LEDfromReporter \$0 0;
#X obj -170 35 LEDfromReporter \$0 1;
#X obj -170 56 LEDfromReporter \$0 2;
#X obj -171 76 LEDfromReporter \$0 3;
#X obj -170 96 LEDfromReporter \$0 4;
#X obj -170 117 LEDfromReporter \$0 5;
#X obj -40 35 LEDfromReporter \$0 7;
#X obj -40 56 LEDfromReporter \$0 8;
#X obj -41 76 LEDfromReporter \$0 9;
#X obj -40 96 LEDfromReporter \$0 10;
#X obj -39 117 LEDfromReporter \$0 11;
#X obj 90 35 LEDfromReporter \$0 13;
#X obj 90 56 LEDfromReporter \$0 14;
#X obj 89 76 LEDfromReporter \$0 15;
#X obj 90 96 LEDfromReporter \$0 16;
#X obj 90 117 LEDfromReporter \$0 17;
#X obj -166 161 LEDfromReporter \$0 19;
#X obj -166 182 LEDfromReporter \$0 20;
#X obj -168 203 LEDfromReporter \$0 21;
#X obj -166 222 LEDfromReporter \$0 22;
#X obj -166 243 LEDfromReporter \$0 23;
#X obj -36 161 LEDfromReporter \$0 25;
#X restore 683 -8 pd reporters;
#X msg 766 55 \; init_Grannys bang;
#X obj 380 -301 cnv 15 80 50 empty empty arduino_I/O 10 12 0 10 -261234
-66577 0;
#X obj 387 -279 Arduino-LED;
#X text 897 65 start Grannys;
#X text 543 -26 sounds affect lights;
#X obj 238 -217 bng 15 250 50 0 empty empty empty 17 7 0 10 -262144
-1 -1;
#X msg 768 101 \; deletePlayers bang;
#X text 881 109 delete players;
#X text 873 -73 3 states:;
#X text 876 -63 rest;
#X text 877 -49 agitation;
#X text 878 -31 dream;
#X text 898 29 start MLoops;
#N canvas 869 113 1009 665 players 0;
#X msg 57 67 createNode listener0 Listener;
#X obj 550 131 playlist all 400 300 {Helvetica 10 bold} #457782 yellow
black red;
#X obj 550 40 thisdir;
#X obj 550 62 makefilename %s/snd;
#X obj 552 20 bng 15 250 50 0 empty empty empty 17 7 0 10 -262144 -1
-1;
#X msg 550 84 location \$1;
#X obj 112 112 until;
#X obj 57 496 s \$0-to-SPIN-TCP;
#X obj 233 317 s \$0-to-SPIN-TCP;
#X obj 112 200 t a f;
#X obj 112 414 pack f s;
#X obj 276 542 print;
#X obj 550 435 print playlist;
#X msg 381 181 seek \$1;
#X obj 262 12 inlet;
#X obj 262 34 t b b b;
#X msg 233 294 createNode snd\$1 SoundNode;
#X obj 162 391 s \$0-to-SPIN-TCP;
#X obj 221 203 sel 1;
#X msg 112 446 /snd\$1 setDirectivityFlag 1 \, /snd\$1 setParam setMediaURI
file://\$2 \, /snd\$1 setParam loop 0 \, /snd\$1 setParam stop 1;
#X obj 112 178 t f b;
#X obj 269 267 bng 15 250 50 0 empty empty empty 17 7 0 10 -262144
-1 -1;
#X floatatom 411 130 5 0 0 0 - - -;
#X obj 322 152 random 14;
#X obj 235 13 bng 15 250 50 0 empty empty empty 17 7 0 10 -262144 -1
-1;
#X obj 372 110 r count_media;
#X msg 176 97 0;
#X obj 450 546 s \$0-to-SPIN-TCP;
#X obj 108 240 t a a;
#X msg 450 497 createNode constrained\$1 ConstraintsNode \, /constrained\$1
setTarget box \, /constrained\$1 setConstraintMode 3 \, /constrained\$1
setComputationMode 1 \,;
#X obj 112 135 counter 5;
#X msg 112 91 5;
#X msg 162 369 /snd\$1 setParent constrained\$1 \, /snd\$1 setTranslation
0 0 0;
#X obj 108 282 t a a;
#X msg 57 615 deleteNode snd\$1;
#X obj 57 569 until;
#X obj 57 592 counter 5;
#X msg 57 548 5;
#X obj 57 636 s \$0-to-SPIN-TCP;
#X obj 57 528 r deletePlayers;
#X connect 0 0 7 0;
#X connect 1 0 12 0;
#X connect 1 0 10 1;
#X connect 2 0 3 0;
#X connect 3 0 5 0;
#X connect 4 0 2 0;
#X connect 5 0 1 0;
#X connect 6 0 30 0;
#X connect 9 0 28 0;
#X connect 9 1 16 0;
#X connect 10 0 19 0;
#X connect 13 0 1 0;
#X connect 14 0 15 0;
#X connect 15 0 31 0;
#X connect 15 1 0 0;
#X connect 15 2 4 0;
#X connect 15 2 26 0;
#X connect 16 0 8 0;
#X connect 18 0 21 0;
#X connect 19 0 7 0;
#X connect 19 0 11 0;
#X connect 20 0 9 0;
#X connect 20 1 23 0;
#X connect 22 0 13 0;
#X connect 23 0 13 0;
#X connect 24 0 15 0;
#X connect 25 0 23 1;
#X connect 26 0 30 2;
#X connect 28 0 33 0;
#X connect 28 1 29 0;
#X connect 29 0 27 0;
#X connect 30 0 20 0;
#X connect 30 2 18 0;
#X connect 31 0 6 0;
#X connect 32 0 17 0;
#X connect 33 0 10 0;
#X connect 33 1 32 0;
#X connect 34 0 38 0;
#X connect 35 0 36 0;
#X connect 36 0 34 0;
#X connect 37 0 35 0;
#X connect 39 0 37 0;
#X restore 43 -61 pd players;
#X obj 173 -75 bng 15 250 50 0 empty __init_buzz empty 17 7 0 10 -262144
-1 -1;
#N canvas 931 147 850 818 droning_controls 0;
#N canvas 109 142 788 295 randombits 0;
#X obj 114 35 inlet;
#X obj 114 57 t f b b b;
#X obj 114 149 pack f f f f;
#X obj 114 171 outlet;
#X obj 147 99 expr random(0 \, 70)*0.1;
#X obj 131 120 expr random(1 \, 200) * 0.01;
#X text 297 118 pitch;
#X text 299 100 loop start;
#X text 320 79 loop duration;
#X obj 165 79 expr random(1 \, 100)*0.001;
#X connect 0 0 1 0;
#X connect 1 0 2 0;
#X connect 1 1 5 0;
#X connect 1 2 4 0;
#X connect 1 3 9 0;
#X connect 2 0 3 0;
#X connect 4 0 2 2;
#X connect 5 0 2 1;
#X connect 9 0 2 3;
#X restore 227 -27 pd randombits;
#X floatatom 293 -102 5 0 0 0 - - -;
#X floatatom 53 -96 5 0 0 0 - - -;
#N canvas 88 79 504 418 microChords 0;
#X text 126 115 classical just intonation scale;
#X obj 123 203 list-nth;
#X obj 123 156 t a b;
#X msg 123 134 1 1.066 1.111 1.2 1.25 1.333 1.5 1.6 1.666 1.8 1.875
2;
#X obj 150 178 random 12;
#X obj 96 226 *;
#X obj 96 102 t f b;
#X obj 144 271 prepend set;
#X msg 144 293 320 320;
#X floatatom 177 57 5 0 0 0 - - -;
#X obj 264 250 prepend set;
#X msg 264 272 7 7;
#X obj -2 341 outlet;
#X obj 207 342 outlet;
#X obj 93 9 inlet;
#X obj 96 56 until;
#X obj 96 81 f 200;
#X obj 174 25 inlet;
#X msg 96 34 2;
#X obj 96 248 list-group 2;
#X obj 216 227 list-group 2;
#X connect 1 0 5 1;
#X connect 2 0 1 0;
#X connect 2 1 4 0;
#X connect 3 0 2 0;
#X connect 4 0 1 1;
#X connect 4 0 20 0;
#X connect 5 0 19 0;
#X connect 6 0 5 0;
#X connect 6 1 3 0;
#X connect 7 0 8 0;
#X connect 7 0 13 0;
#X connect 9 0 16 1;
#X connect 10 0 11 0;
#X connect 14 0 18 0;
#X connect 15 0 16 0;
#X connect 16 0 6 0;
#X connect 17 0 9 0;
#X connect 18 0 15 0;
#X connect 19 0 7 0;
#X connect 19 0 12 0;
#X connect 20 0 10 0;
#X restore 495 -147 pd microChords;
#X obj 495 -166 bng 15 250 50 0 empty empty empty 17 7 0 10 -262144
-1 -1;
#X msg 565 -124 320 320;
#X floatatom 576 -167 5 0 0 0 - - -;
#X obj 495 -99 f;
#X obj 495 -126 t b a;
#X obj 495 -79 list append;
#X obj 533 36 s \$0-to-SPIN-TCP;
#X floatatom 583 -31 5 0 0 0 - - -;
#X obj 529 -31 bng 15 250 50 0 empty empty empty 17 7 0 10 -262144
-1 -1;
#X obj 532 -10 pack 0 -7;
#X obj 65 346 s \$0-to-SPIN-TCP;
#X obj 30 242 r toSpin;
#X obj 32 363 p;
#X obj 106 157 s \$0-to-SPIN-TCP;
#X msg 276 439 /ml13 setParam dur \$1;
#X floatatom 276 414 8 0 0 0 - - -;
#X msg 276 480 /ml13 setParam start \$1;
#X floatatom 276 460 5 0 0 0 - - -;
#X obj 213 510 s \$0-to-SPIN-TCP;
#X floatatom 507 419 5 0 0 0 - - -;
#X obj 507 462 line;
#X msg 507 440 \$1 6000;
#X msg 305 365 0.001;
#X obj 372 509 prepend /ml13;
#X floatatom 591 412 5 0 0 0 - - -;
#X msg 590 435 setParam xfade \$1;
#X floatatom 593 483 5 0 0 0 - - -;
#X msg 592 506 setParam res_len \$1;
#X floatatom 527 519 5 0 0 0 - - -;
#X msg 526 542 setParam res_mix \$1;
#X floatatom 712 453 5 0 0 0 - - -;
#X floatatom 388 358 5 0 0 0 - - -;
#X msg 711 477 setParam harm_wet \$1;
#X msg 387 381 setParam transposition \$1;
#X msg 56 -75 /drone\$1 setParam stop 1;
#X msg 495 -59 /drone\$1 event freq \$2 \$3;
#X msg 533 11 /drone\$1 setParam transposition \$2;
#X obj 227 -5 t a a;
#X msg 296 230 /drone\$1;
#X obj 257 260 prepend;
#X msg 478 108 1 \, 0 2000;
#X obj 478 130 line;
#X obj 297 -236 r ml_ctrl;
#X msg 491 169 /drone\$1;
#X obj 450 243 prepend;
#X obj 254 19 t a b a a;
#X obj 510 282 s \$0-to-SPIN-TCP;
#X obj 239 53 t a b a a;
#X msg 259 139 \$3 2000;
#X obj 259 161 line;
#X obj 296 -182 t a b;
#X floatatom 199 -222 5 0 0 0 - - -;
#X msg 451 222 setParam mul \$1;
#X msg 258 201 setParam start \$1;
#X obj 598 94 prepend set;
#X msg 596 113 1 1.33 0.3 0.056;
#X msg 92 88 /drone\$1 setParam pitch \$2 \, /drone\$1 setParam dur
\$4 \, /drone\$1 setParam play 1 \, /drone\$1 setParam harm_wet 0.5
\, /drone\$1 setParam res_mix 0.7 \, /drone\$1 setParam xfade 20;
#X obj 368 -213 r dronesON;
#X obj 296 -208 spigot 0;
#X connect 0 0 41 0;
#X connect 1 0 0 0;
#X connect 1 0 7 1;
#X connect 1 0 13 0;
#X connect 2 0 38 0;
#X connect 3 0 8 0;
#X connect 3 1 5 0;
#X connect 4 0 3 0;
#X connect 6 0 3 1;
#X connect 7 0 9 0;
#X connect 8 0 7 0;
#X connect 8 1 9 1;
#X connect 9 0 39 0;
#X connect 11 0 13 1;
#X connect 12 0 13 0;
#X connect 13 0 40 0;
#X connect 15 0 14 0;
#X connect 15 0 16 0;
#X connect 18 0 22 0;
#X connect 19 0 18 0;
#X connect 20 0 22 0;
#X connect 21 0 20 0;
#X connect 23 0 25 0;
#X connect 24 0 20 0;
#X connect 25 0 24 0;
#X connect 26 0 18 0;
#X connect 27 0 22 0;
#X connect 28 0 29 0;
#X connect 29 0 27 0;
#X connect 30 0 31 0;
#X connect 31 0 27 0;
#X connect 32 0 33 0;
#X connect 33 0 27 0;
#X connect 34 0 36 0;
#X connect 35 0 37 0;
#X connect 36 0 27 0;
#X connect 37 0 27 0;
#X connect 38 0 17 0;
#X connect 39 0 10 0;
#X connect 40 0 10 0;
#X connect 41 0 60 0;
#X connect 41 1 49 0;
#X connect 41 1 58 0;
#X connect 42 0 43 1;
#X connect 43 0 50 0;
#X connect 44 0 45 0;
#X connect 45 0 56 0;
#X connect 46 0 62 0;
#X connect 47 0 48 1;
#X connect 48 0 50 0;
#X connect 49 0 51 0;
#X connect 49 1 44 0;
#X connect 49 3 47 0;
#X connect 51 2 52 0;
#X connect 51 3 42 0;
#X connect 52 0 53 0;
#X connect 53 0 57 0;
#X connect 54 0 1 0;
#X connect 54 1 4 0;
#X connect 55 0 54 0;
#X connect 56 0 48 0;
#X connect 57 0 43 0;
#X connect 58 0 59 0;
#X connect 60 0 17 0;
#X connect 61 0 62 1;
#X connect 62 0 54 0;
#X restore 173 -56 pd droning_controls;
#N canvas 1276 588 450 300 init 0;
#X obj 144 14 r __init;
#X obj 208 57 s __init_leds;
#X obj 209 97 s __init_speakers;
#X obj 144 36 t b b;
#X obj 171 57 t b b;
#X obj 171 98 t b b;
#X obj 171 120 del 5000;
#X obj 171 142 t b b;
#X obj 171 164 del 3000;
#X obj 171 77 del 7000;
#X obj 211 142 s __init_players;
#X obj 171 186 t b b;
#X obj 171 206 del 2000;
#X obj 212 186 s __init_buzz;
#X msg 171 228 1;
#X obj 171 248 s __show_ctrl;
#X obj 228 165 s __init_leds;
#X connect 0 0 3 0;
#X connect 3 1 4 0;
#X connect 4 0 9 0;
#X connect 4 1 1 0;
#X connect 5 0 6 0;
#X connect 5 1 2 0;
#X connect 6 0 7 0;
#X connect 7 0 8 0;
#X connect 7 1 10 0;
#X connect 7 1 16 0;
#X connect 8 0 11 0;
#X connect 9 0 5 0;
#X connect 11 0 12 0;
#X connect 11 1 13 0;
#X connect 12 0 14 0;
#X connect 14 0 15 0;
#X restore 7 -169 pd init stuff;
#N canvas 38 221 1009 665 droning 0;
#X msg 57 67 createNode listener0 Listener;
#X obj 550 131 playlist all 400 300 {Helvetica 10 bold} #457782 yellow
black red;
#X obj 550 40 thisdir;
#X obj 550 62 makefilename %s/snd;
#X obj 552 20 bng 15 250 50 0 empty empty empty 17 7 0 10 -262144 -1
-1;
#X msg 550 84 location \$1;
#X obj 112 112 until;
#X obj 57 596 s \$0-to-SPIN-TCP;
#X obj 139 247 s \$0-to-SPIN-TCP;
#X obj 112 200 t a f;
#X obj 112 414 pack f s;
#X obj 276 542 print;
#X obj 550 435 print playlist;
#X msg 381 181 seek \$1;
#X obj 262 12 inlet;
#X obj 262 34 t b b b;
#X obj 238 13 bng 15 250 50 0 empty empty empty 17 7 0 10 -262144 -1
-1;
#X obj 199 114 bng 15 250 50 0 empty empty empty 17 7 0 10 -262144
-1 -1;
#X msg 112 90 5;
#X obj 112 178 t f b;
#X obj 327 159 random 14;
#X obj 392 130 r count_media;
#X msg 139 224 createNode drone\$1 SoundNode;
#X msg 113 446 /drone\$1 setDirectivityFlag 1 \, /drone\$1 setParam
setMediaURI plugin://MicroLooper \, /drone\$1 setParam path \$2 \,
/drone\$1 setParam stop 1;
#X msg 175 89 0;
#X obj 112 134 counter 5;
#X connect 0 0 7 0;
#X connect 1 0 12 0;
#X connect 1 0 10 1;
#X connect 2 0 3 0;
#X connect 3 0 5 0;
#X connect 4 0 2 0;
#X connect 5 0 1 0;
#X connect 6 0 25 0;
#X connect 9 0 10 0;
#X connect 9 1 22 0;
#X connect 10 0 23 0;
#X connect 13 0 1 0;
#X connect 14 0 15 0;
#X connect 15 0 18 0;
#X connect 15 1 0 0;
#X connect 15 2 4 0;
#X connect 15 2 24 0;
#X connect 16 0 15 0;
#X connect 17 0 25 0;
#X connect 18 0 6 0;
#X connect 19 0 9 0;
#X connect 19 1 20 0;
#X connect 20 0 13 0;
#X connect 21 0 20 1;
#X connect 22 0 8 0;
#X connect 23 0 7 0;
#X connect 23 0 11 0;
#X connect 24 0 25 2;
#X connect 25 0 19 0;
#X restore 191 -75 pd droning;
#N canvas 11 471 778 606 show_control 0;
#X obj 40 -111 cnv 15 500 500 empty empty Show_control 20 12 0 10 -233017
-66577 0;
#X obj 112 -79 tgl 15 0 empty __show_ctrl Start/Stop_state_alternations
17 7 0 10 -262144 -1 -1 0 1;
#X obj 113 -17 s tick;
#X obj 113 -61 metro 1000;
#X obj 113 -39 f;
#X obj 139 -39 + 1;
#X obj 44 61 until;
#X msg 44 41 5;
#X msg 44 101 deleteNode ml\$1;
#X obj 44 121 s to-spin;
#X obj 180 64 until;
#X msg 180 45 5;
#X obj 180 121 s to-spin;
#X msg 180 102 deleteNode gr\$1;
#X obj 180 4 t b b;
#X obj 207 25 del 1000;
#X obj 207 45 s init_MicroLoops;
#X obj 44 -4 t b b;
#X obj 71 17 del 1000;
#X obj 180 -61 r tick;
#X obj 180 -39 % 300;
#X obj 180 -17 sel 0;
#X obj 44 -69 r tick;
#X obj 44 -25 sel 0;
#X obj 44 -47 % 600;
#X obj 71 37 s init_Grannys;
#X obj 242 -61 r tick;
#X obj 242 -17 sel 0;
#X obj 242 -39 % 900;
#X obj 262 9 sel 30;
#X obj 44 81 counter 11 15;
#X obj 180 83 counter 6 10;
#X obj 250 124 bng 15 250 50 0 empty deleteMlGr delete_MLoops_and_Grannys
17 7 0 10 -262144 -1 -1;
#X obj 583 -49 r cluster;
#X obj 583 -27 del 60000;
#X obj 583 -5 t b b;
#X msg 605 24 0;
#X obj 605 52 s __show_ctrl;
#X obj 583 87 s deleteMlGr;
#X obj 389 -51 r tick;
#X obj 389 -7 + 30000;
#X obj 389 -29 random 50000;
#X obj 389 15 s cluster;
#X connect 1 0 3 0;
#X connect 3 0 4 0;
#X connect 4 0 5 0;
#X connect 4 0 2 0;
#X connect 5 0 4 1;
#X connect 6 0 30 0;
#X connect 7 0 6 0;
#X connect 8 0 9 0;
#X connect 10 0 31 0;
#X connect 11 0 10 0;
#X connect 13 0 12 0;
#X connect 14 0 11 0;
#X connect 14 1 15 0;
#X connect 15 0 16 0;
#X connect 17 0 7 0;
#X connect 17 1 18 0;
#X connect 18 0 25 0;
#X connect 19 0 20 0;
#X connect 20 0 21 0;
#X connect 21 0 14 0;
#X connect 22 0 24 0;
#X connect 23 0 17 0;
#X connect 24 0 23 0;
#X connect 26 0 28 0;
#X connect 26 0 29 0;
#X connect 27 0 7 0;
#X connect 27 0 11 0;
#X connect 28 0 27 0;
#X connect 29 0 16 0;
#X connect 30 0 8 0;
#X connect 31 0 13 0;
#X connect 32 0 11 0;
#X connect 32 0 7 0;
#X connect 33 0 34 0;
#X connect 34 0 35 0;
#X connect 35 0 38 0;
#X connect 35 1 36 0;
#X connect 36 0 37 0;
#X connect 39 0 41 0;
#X connect 40 0 42 0;
#X connect 41 0 40 0;
#X restore 172 -119 pd show_control;
#X connect 3 0 4 0;
#X connect 4 0 0 0;
#X connect 6 0 5 0;
#X connect 7 0 13 0;
#X connect 9 0 8 0;
#X connect 17 0 18 0;
#X connect 20 0 19 0;
#X connect 21 0 22 0;
#X connect 23 0 62 0;
#X connect 29 0 1 0;
#X connect 37 0 36 0;
#X connect 39 0 38 0;
#X connect 40 0 13 0;
#X connect 54 0 28 0;
#X connect 63 0 66 0;
