#N canvas 7 22 1360 820 10;
#X obj 214 125 clip 1 320;
#X obj 261 183 > 206;
#X obj 162 186 > 0;
#X obj 202 184 > 103;
#X obj 225 260 +;
#X obj 259 218 t b f;
#X obj 199 320 +;
#X obj 219 289 t b f;
#X obj 271 10 r #touch;
#X obj 270 33 route xy;
#X obj 150 84 unpack;
#X obj 270 58 route 1 2;
#X obj 445 92 unpack;
#X obj 77 129 clip 1 320;
#X obj 0 191 > 0;
#X obj 50 353 +;
#X obj 90 229 t b f;
#X obj 168 477 +;
#X obj 181 354 t b f;
#X msg 44 444 0;
#X msg 83 444 3;
#X obj 825 23 loadbang;
#X obj 849 195 soundfiler;
#X obj 486 736 outlet~;
#X obj 588 737 outlet~;
#X obj 278 539 change;
#X obj 50 408 sel 1 2 3;
#X obj 45 192 > 103;
#X obj 68 268 +;
#X obj 63 303 t b f;
#X obj 96 191 > 206;
#X msg 122 444 6;
#X obj 341 588 sel 1 2 3 4 5 6 7 8 9;
#X obj 6 670 *~ 0.5;
#X obj 132 670 *~ 0.5;
#X obj 266 670 *~ 0.5;
#X obj 425 670 *~ 0.5;
#X obj 500 670 *~ 0.5;
#X obj 616 669 *~ 0.5;
#X obj 739 670 *~ 0.5;
#X obj 866 672 *~ 0.5;
#X obj 985 670 *~ 0.5;
#X floatatom 281 506 5 0 0 0 - - -;
#X msg 613 497 0.3;
#X obj 369 526 change;
#X obj 525 118 clip 1 320;
#X obj 572 176 > 206;
#X obj 473 179 > 0;
#X obj 513 177 > 103;
#X obj 536 253 +;
#X obj 570 211 t b f;
#X obj 510 313 +;
#X obj 530 282 t b f;
#X obj 388 122 clip 1 320;
#X obj 311 184 > 0;
#X obj 361 346 +;
#X obj 401 222 t b f;
#X obj 479 470 +;
#X obj 492 347 t b f;
#X msg 355 437 0;
#X msg 394 437 3;
#X obj 361 401 sel 1 2 3;
#X obj 356 185 > 103;
#X obj 379 261 +;
#X obj 374 296 t b f;
#X obj 407 184 > 206;
#X msg 433 437 6;
#X floatatom 369 505 5 0 0 0 - - -;
#X obj 4 641 tabplay~ sample1;
#X obj 129 641 tabplay~ sample2;
#X obj 252 641 tabplay~ sample3;
#X obj 376 640 tabplay~ sample4;
#X obj 500 640 tabplay~ sample5;
#X obj 624 638 tabplay~ sample6;
#X obj 748 639 tabplay~ sample7;
#X obj 870 639 tabplay~ sample8;
#X obj 991 638 tabplay~ sample9;
#N canvas 49 22 1198 548 recorder 0;
#X obj 292 351 soundinput;
#X obj 342 498 tabwrite~ sample1;
#X obj 378 396 line~;
#X obj 360 421 *~;
#X msg 472 323 1 70;
#X obj 383 3 inlet;
#X obj 462 269 t b b b;
#X msg 522 323 0;
#X msg 388 349 0 70;
#X msg 31 199 write -wave sample1.wav sample1;
#X obj 235 285 soundfiler;
#X msg 79 116 set sample1;
#X obj 370 59 sel 1 2 3 4 5 6 7 8 9;
#X obj 387 323 delay 6900;
#X obj 384 26 t b f;
#X obj 31 173 delay 8000;
#X msg 176 116 set sample2;
#X msg 271 116 set sample3;
#X msg 368 116 set sample4;
#X msg 461 116 set sample5;
#X msg 555 110 set sample6;
#X msg 653 116 set sample7;
#X msg 750 116 set sample8;
#X msg 844 116 set sample9;
#X obj 175 144 delay 8000;
#X obj 264 199 delay 8000;
#X obj 407 145 delay 8000;
#X obj 497 198 delay 8000;
#X obj 638 145 delay 8000;
#X obj 729 198 delay 8000;
#X msg 175 170 write -wave sample2.wav sample2;
#X msg 264 225 write -wave sample3.wav sample3;
#X msg 407 171 write -wave sample4.wav sample4;
#X msg 497 224 write -wave sample5.wav sample5;
#X msg 638 171 write -wave sample6.wav sample6;
#X msg 729 224 write -wave sample7.wav sample7;
#X obj 871 144 delay 8000;
#X obj 962 197 delay 8000;
#X msg 871 170 write -wave sample8.wav sample8;
#X msg 962 223 write -wave sample9.wav sample9;
#X obj 294 372 rj/e_softclip soundin;
#X connect 0 0 40 0;
#X connect 2 0 3 1;
#X connect 3 0 1 0;
#X connect 4 0 2 0;
#X connect 5 0 14 0;
#X connect 6 0 4 0;
#X connect 6 0 13 0;
#X connect 6 1 1 0;
#X connect 6 2 7 0;
#X connect 7 0 2 0;
#X connect 8 0 2 0;
#X connect 9 0 10 0;
#X connect 11 0 1 0;
#X connect 12 0 11 0;
#X connect 12 0 15 0;
#X connect 12 1 16 0;
#X connect 12 1 24 0;
#X connect 12 2 17 0;
#X connect 12 2 25 0;
#X connect 12 3 18 0;
#X connect 12 3 26 0;
#X connect 12 4 19 0;
#X connect 12 4 27 0;
#X connect 12 5 20 0;
#X connect 12 5 28 0;
#X connect 12 6 21 0;
#X connect 12 6 29 0;
#X connect 12 7 22 0;
#X connect 12 7 36 0;
#X connect 12 8 23 0;
#X connect 12 8 37 0;
#X connect 13 0 8 0;
#X connect 14 0 6 0;
#X connect 14 1 12 0;
#X connect 15 0 9 0;
#X connect 16 0 1 0;
#X connect 17 0 1 0;
#X connect 18 0 1 0;
#X connect 19 0 1 0;
#X connect 20 0 1 0;
#X connect 21 0 1 0;
#X connect 22 0 1 0;
#X connect 23 0 1 0;
#X connect 24 0 30 0;
#X connect 25 0 31 0;
#X connect 26 0 32 0;
#X connect 27 0 33 0;
#X connect 28 0 34 0;
#X connect 29 0 35 0;
#X connect 30 0 10 0;
#X connect 31 0 10 0;
#X connect 32 0 10 0;
#X connect 33 0 10 0;
#X connect 34 0 10 0;
#X connect 35 0 10 0;
#X connect 36 0 38 0;
#X connect 37 0 39 0;
#X connect 38 0 10 0;
#X connect 39 0 10 0;
#X connect 40 0 3 0;
#X restore 368 550 pd recorder;
#X obj 666 249 table sample1 154350;
#X obj 669 270 table sample2 154350;
#X obj 668 296 table sample3 154350;
#X obj 819 247 table sample4 154350;
#X obj 817 270 table sample5 154350;
#X obj 822 294 table sample6 154350;
#X obj 974 248 table sample7 154350;
#X obj 970 270 table sample8 154350;
#X obj 976 295 table sample9 154350;
#X msg 621 75 read sample1.wav sample1;
#X msg 622 107 read sample4.wav sample4;
#X msg 630 135 read sample7.wav sample7;
#X msg 810 76 read sample2.wav sample2;
#X msg 812 109 read sample5.wav sample5;
#X msg 816 133 read sample8.wav sample8;
#X msg 1005 76 read sample3.wav sample3;
#X msg 1006 108 read sample6.wav sample6;
#X msg 1012 135 read sample9.wav sample9;
#X connect 0 0 1 0;
#X connect 0 0 3 0;
#X connect 0 0 2 0;
#X connect 1 0 5 0;
#X connect 2 0 6 0;
#X connect 3 0 4 0;
#X connect 4 0 7 0;
#X connect 5 0 4 0;
#X connect 5 1 4 1;
#X connect 6 0 18 0;
#X connect 7 0 6 0;
#X connect 7 1 6 1;
#X connect 8 0 9 0;
#X connect 9 0 11 0;
#X connect 10 0 13 0;
#X connect 10 1 0 0;
#X connect 11 0 10 0;
#X connect 11 1 12 0;
#X connect 12 0 53 0;
#X connect 12 1 45 0;
#X connect 13 0 14 0;
#X connect 13 0 30 0;
#X connect 13 0 27 0;
#X connect 14 0 15 0;
#X connect 15 0 26 0;
#X connect 16 0 28 0;
#X connect 16 1 28 1;
#X connect 17 0 25 0;
#X connect 18 0 17 0;
#X connect 18 1 17 1;
#X connect 19 0 17 0;
#X connect 20 0 17 0;
#X connect 21 0 43 0;
#X connect 21 0 87 0;
#X connect 21 0 88 0;
#X connect 21 0 89 0;
#X connect 21 0 90 0;
#X connect 21 0 91 0;
#X connect 21 0 92 0;
#X connect 21 0 93 0;
#X connect 21 0 94 0;
#X connect 21 0 95 0;
#X connect 25 0 32 0;
#X connect 26 0 19 0;
#X connect 26 1 20 0;
#X connect 26 2 31 0;
#X connect 27 0 28 0;
#X connect 28 0 29 0;
#X connect 29 0 15 0;
#X connect 29 1 15 1;
#X connect 30 0 16 0;
#X connect 31 0 17 0;
#X connect 32 0 68 0;
#X connect 32 1 69 0;
#X connect 32 2 70 0;
#X connect 32 3 71 0;
#X connect 32 4 72 0;
#X connect 32 5 73 0;
#X connect 32 6 74 0;
#X connect 32 7 75 0;
#X connect 32 8 76 0;
#X connect 33 0 23 0;
#X connect 34 0 23 0;
#X connect 35 0 23 0;
#X connect 36 0 23 0;
#X connect 36 0 24 0;
#X connect 37 0 23 0;
#X connect 37 0 24 0;
#X connect 38 0 23 0;
#X connect 38 0 24 0;
#X connect 39 0 24 0;
#X connect 40 0 24 0;
#X connect 41 0 24 0;
#X connect 42 0 25 0;
#X connect 43 0 33 1;
#X connect 43 0 34 1;
#X connect 43 0 35 1;
#X connect 43 0 36 1;
#X connect 43 0 37 1;
#X connect 43 0 38 1;
#X connect 43 0 39 1;
#X connect 43 0 40 1;
#X connect 43 0 41 1;
#X connect 44 0 77 0;
#X connect 45 0 46 0;
#X connect 45 0 48 0;
#X connect 45 0 47 0;
#X connect 46 0 50 0;
#X connect 47 0 51 0;
#X connect 48 0 49 0;
#X connect 49 0 52 0;
#X connect 50 0 49 0;
#X connect 50 1 49 1;
#X connect 51 0 58 0;
#X connect 52 0 51 0;
#X connect 52 1 51 1;
#X connect 53 0 54 0;
#X connect 53 0 65 0;
#X connect 53 0 62 0;
#X connect 54 0 55 0;
#X connect 55 0 61 0;
#X connect 56 0 63 0;
#X connect 56 1 63 1;
#X connect 57 0 44 0;
#X connect 58 0 57 0;
#X connect 58 1 57 1;
#X connect 59 0 57 0;
#X connect 60 0 57 0;
#X connect 61 0 59 0;
#X connect 61 1 60 0;
#X connect 61 2 66 0;
#X connect 62 0 63 0;
#X connect 63 0 64 0;
#X connect 64 0 55 0;
#X connect 64 1 55 1;
#X connect 65 0 56 0;
#X connect 66 0 57 0;
#X connect 67 0 44 0;
#X connect 68 0 33 0;
#X connect 69 0 34 0;
#X connect 70 0 35 0;
#X connect 71 0 36 0;
#X connect 72 0 37 0;
#X connect 73 0 38 0;
#X connect 74 0 39 0;
#X connect 75 0 40 0;
#X connect 76 0 41 0;
#X connect 87 0 22 0;
#X connect 88 0 22 0;
#X connect 89 0 22 0;
#X connect 90 0 22 0;
#X connect 91 0 22 0;
#X connect 92 0 22 0;
#X connect 93 0 22 0;
#X connect 94 0 22 0;
#X connect 95 0 22 0;
