#N canvas 6 75 1009 665 10;
#X declare -lib mrpeach;
#X declare -lib mrpeach;
#X declare -lib mrpeach;
#X declare -lib mrpeach;
#X declare -lib mrpeach;
#X declare -lib mrpeach;
#X declare -lib mrpeach;
#X declare -lib mrpeach;
#X declare -lib mrpeach;
#X declare -lib mrpeach;
#X declare -lib mrpeach;
#X declare -lib mrpeach;
#X declare -lib mrpeach;
#X declare -lib mrpeach;
#X declare -lib mrpeach;
#X declare -lib mrpeach;
#X declare -lib mrpeach;
#X declare -lib mrpeach;
#X declare -lib mrpeach;
#X declare -lib mrpeach;
#X declare -lib mrpeach;
#X declare -lib mrpeach;
#X declare -lib mrpeach;
#X declare -lib mrpeach;
#X declare -lib mrpeach;
#X declare -lib mrpeach;
#X obj 5 -114 bng 15 250 50 0 empty empty empty 17 7 0 10 -262144 -1
-1;
#N canvas 3 75 1009 665 audio_ctl+spin 0;
#X msg 57 67 createNode listener0 Listener;
#X obj 550 131 playlist all 400 300 {Helvetica 10 bold} #457782 yellow
black red;
#X obj 550 40 thisdir;
#X obj 550 62 makefilename %s/snd;
#X obj 552 20 bng 15 250 50 0 empty empty empty 17 7 0 10 -262144 -1
-1;
#X msg 550 84 location \$1;
#X obj 112 112 until;
#X obj 57 496 s \$0-to-SPIN-TCP;
#X obj 139 247 s \$0-to-SPIN-TCP;
#X obj 112 200 t a f;
#X obj 112 414 pack f s;
#X obj 276 542 print;
#X obj 550 435 print playlist;
#X msg 381 181 seek \$1;
#X obj 262 12 inlet;
#X obj 262 34 t b b b;
#X msg 139 224 createNode snd\$1 SoundNode;
#X text 581 543 <- set the spinner speed;
#X obj 162 391 s \$0-to-SPIN-TCP;
#X msg 162 369 /snd\$1 setParent spinner\$1 \, /snd\$1 setTranslation
0 4 0;
#X obj 221 203 sel 1;
#N canvas 440 130 450 300 spinners 0;
#X obj 75 17 inlet;
#X floatatom 106 182 5 0 0 1 (deg/sec) - -;
#X msg 135 159 0;
#X obj 75 66 until;
#X msg 105 159 \$1;
#X obj 102 134 random 50;
#X obj 75 204 pack f f;
#X msg 73 225 /spinner\$1 setSpin 0 0 \$2;
#X obj 73 244 s \$0-to-SPIN-TCP;
#X obj 75 88 counter 5 30;
#X msg 75 44 30;
#X obj 75 110 t f b b;
#X connect 0 0 10 0;
#X connect 1 0 6 1;
#X connect 2 0 1 0;
#X connect 3 0 9 0;
#X connect 4 0 1 0;
#X connect 5 0 4 0;
#X connect 6 0 7 0;
#X connect 7 0 8 0;
#X connect 9 0 11 0;
#X connect 10 0 3 0;
#X connect 11 0 6 0;
#X connect 11 1 5 0;
#X restore 319 531 pd spinners;
#X msg 145 346 createNode spinner\$1 GroupNode;
#X msg 112 446 /snd\$1 setDirectivityFlag 1 \, /snd\$1 setParam setMediaURI
file://\$2 \, /snd\$1 setParam loop 0 \, /snd\$1 setParam stop 1;
#X msg 176 98 0;
#X msg 112 90 10;
#X obj 112 134 counter 9;
#X obj 333 499 bng 15 250 50 0 empty empty empty 17 7 0 10 -262144
-1 -1;
#X obj 112 178 t f b;
#X obj 322 152 random 50;
#X connect 0 0 7 0;
#X connect 1 0 12 0;
#X connect 1 0 10 1;
#X connect 2 0 3 0;
#X connect 3 0 5 0;
#X connect 4 0 2 0;
#X connect 5 0 1 0;
#X connect 6 0 26 0;
#X connect 9 0 22 0;
#X connect 9 0 19 0;
#X connect 9 1 16 0;
#X connect 10 0 23 0;
#X connect 13 0 1 0;
#X connect 14 0 15 0;
#X connect 15 0 25 0;
#X connect 15 1 0 0;
#X connect 15 2 4 0;
#X connect 15 2 24 0;
#X connect 16 0 8 0;
#X connect 19 0 18 0;
#X connect 20 0 21 0;
#X connect 22 0 18 0;
#X connect 23 0 7 0;
#X connect 23 0 11 0;
#X connect 24 0 26 2;
#X connect 25 0 6 0;
#X connect 26 0 28 0;
#X connect 26 2 20 0;
#X connect 27 0 21 0;
#X connect 28 0 9 0;
#X connect 28 1 29 0;
#X connect 29 0 13 0;
#X restore 4 -96 pd audio_ctl+spin;
#X obj 6 -183 widget-spinConnect \$0;
#X obj 337 -184 widget-nodeEditor \$0;
#X obj 251 357 s \$0-to-SPIN-TCP;
#X floatatom 251 279 5 0 0 0 - - -;
#X obj 251 116 r entrance;
#X msg 251 138 3;
#X obj 322 116 r cluster;
#X obj 321 136 expr random(4 \, 9);
#X obj 325 241 expr random(10 \, 23);
#X obj 325 159 b;
#X text 351 156 monitor activity;
#X floatatom 346 262 5 0 0 0 - - -;
#X obj 383 182 bng 15 250 50 0 empty empty empty 17 7 0 10 -262144
-1 -1;
#X obj 325 181 del 2500;
#X obj 348 -215 testAll;
#N canvas 353 157 548 276 spinners 1;
#X obj 17 4 abs/spinzone \$0 6 1;
#X obj 137 4 abs/spinzone \$0 12 2;
#X obj 257 4 abs/spinzone \$0 18 3;
#X obj 377 4 abs/spinzone \$0 24 4;
#X obj 16 124 abs/spinzone \$0 30 5;
#X obj 17 -16 abs/spinzone \$0 5 5;
#X obj 17 24 abs/spinzone \$0 7 7;
#X obj 17 44 abs/spinzone \$0 8 8;
#X obj 17 64 abs/spinzone \$0 9 9;
#X obj 17 84 abs/spinzone \$0 10 10;
#X obj 16 105 abs/spinzone \$0 29 29;
#X obj 137 -15 abs/spinzone \$0 11 11;
#X obj 136 24 abs/spinzone \$0 13 13;
#X obj 137 43 abs/spinzone \$0 14 14;
#X obj 136 64 abs/spinzone \$0 15 15;
#X obj 137 83 abs/spinzone \$0 16 16;
#X obj 257 -16 abs/spinzone \$0 17 17;
#X obj 256 24 abs/spinzone \$0 19 19;
#X obj 257 43 abs/spinzone \$0 20 20;
#X obj 257 64 abs/spinzone \$0 21 21;
#X obj 257 83 abs/spinzone \$0 22 22;
#X obj 378 -16 abs/spinzone \$0 23 23;
#X obj 376 24 abs/spinzone \$0 25 25;
#X obj 377 42 abs/spinzone \$0 26 26;
#X obj 377 64 abs/spinzone \$0 27 27;
#X obj 377 83 abs/spinzone \$0 28 28;
#X restore 113 -95 pd spinners;
#X obj 6 -223 loadbang;
#X msg 6 -203 ReCollect;
#X obj 325 203 t b b;
#X obj 364 309 pack f f;
#X msg 251 337 /snd\$1 setParam play 1 \, /snd\$1 setParam speed \$2
;
#X floatatom 509 292 5 0 0 0 - - -;
#X obj 442 110 bng 15 250 50 0 empty empty empty 17 7 0 10 -262144
-1 -1;
#X obj 490 251 expr random(-200 \, 200)*0.01;
#X obj 5 -134 del 2000;
#X msg 132 223 /snd\$1 setParam play 1 \, /snd\$1 setParam speed 1
;
#N canvas 12 75 1009 665 pulsars 0;
#X msg 57 67 createNode listener0 Listener;
#X obj 550 131 playlist all 400 300 {Helvetica 10 bold} #457782 yellow
black red;
#X obj 550 40 thisdir;
#X obj 550 62 makefilename %s/snd;
#X obj 552 20 bng 15 250 50 0 empty empty empty 17 7 0 10 -262144 -1
-1;
#X msg 550 84 location \$1;
#X obj 112 112 until;
#X obj 57 496 s \$0-to-SPIN-TCP;
#X obj 151 224 s \$0-to-SPIN-TCP;
#X obj 112 414 pack f s;
#X obj 276 542 print;
#X obj 550 435 print playlist;
#X msg 381 181 seek \$1;
#X obj 262 12 inlet;
#X obj 262 34 t b b b;
#X text 199 315 Offset the sound by 4m along the y-axis so that it
appears to orbit around the spinner:;
#X text 581 543 <- set the spinner speed;
#X obj 162 391 s \$0-to-SPIN-TCP;
#X msg 151 201 createNode pulse\$1 SoundNode;
#X msg 112 446 /pulse\$1 setDirectivityFlag 1 \, /pulse\$1 setParam
setMediaURI plugin://PulsarSampler \, /pulse\$1 setParam path \$2 \,
/pulse\$1 setParam stop 1;
#X msg 112 90 5;
#X obj 112 177 t a f f;
#X msg 162 369 /pulse\$1 setParent spinner\$2 \, /pulse\$1 setTranslation
0 4 0;
#X obj 131 260 t f f;
#X obj 131 315 pack f f;
#X obj 158 286 + 6;
#X obj 112 155 t f b;
#X obj 280 168 random 200;
#X msg 211 97 0;
#X obj 112 134 counter 5;
#X connect 0 0 7 0;
#X connect 1 0 11 0;
#X connect 1 0 9 1;
#X connect 2 0 3 0;
#X connect 3 0 5 0;
#X connect 4 0 2 0;
#X connect 5 0 1 0;
#X connect 6 0 29 0;
#X connect 9 0 19 0;
#X connect 12 0 1 0;
#X connect 13 0 14 0;
#X connect 14 0 20 0;
#X connect 14 1 0 0;
#X connect 14 2 4 0;
#X connect 14 2 28 0;
#X connect 18 0 8 0;
#X connect 19 0 7 0;
#X connect 19 0 10 0;
#X connect 20 0 6 0;
#X connect 21 0 9 0;
#X connect 21 1 23 0;
#X connect 21 2 18 0;
#X connect 22 0 17 0;
#X connect 23 0 24 0;
#X connect 23 1 25 0;
#X connect 24 0 22 0;
#X connect 25 0 24 1;
#X connect 26 0 21 0;
#X connect 26 1 27 0;
#X connect 27 0 12 0;
#X connect 28 0 29 2;
#X connect 29 0 26 0;
#X restore 690 -94 pd pulsars;
#X obj 691 -119 bng 15 250 50 0 empty empty empty 17 7 0 10 -262144
-1 -1;
#X msg 583 187 /pulse\$1 setParam stop 1;
#X floatatom 777 170 5 0 0 0 - - -;
#X floatatom 552 57 5 0 0 0 - - -;
#X obj 552 78 t a b;
#X msg 551 145 /pulse\$1 setParam play 1 \, /pulse\$1 setParam freq
\$2;
#X obj 552 120 pack;
#X floatatom 591 123 5 0 0 0 - - -;
#X obj 926 103 r LED-5;
#X floatatom 978 124 5 0 0 0 - - -;
#X obj 926 125 t f f;
#X obj 918 149 < 0.6;
#X obj 918 171 &&;
#X obj 918 193 sel 1;
#X obj 917 214 bng 15 250 50 0 empty empty empty 17 7 0 10 -262144
-1 -1;
#X obj 955 148 > 0.555;
#X obj 917 234 t b b b;
#X obj 955 260 expr random(0 \, 100)*0.1;
#X obj 939 286 expr random(0 \, 100)*0.1;
#X obj 908 309 expr random(0 \, 100)*0.1;
#X obj 872 352 pack f f f;
#X obj 823 376 prepend;
#X msg 787 408 /pulse\$1 setParam lfo_freq \$1 \, /pulse\$1 setParam
lfo_add \$2 \, /pulse\$1 setParam lfo_mul \$3 \, /pulse\$1 setParam
freq \$4;
#X obj 761 -119 bng 15 250 50 0 empty empty empty 17 7 0 10 -262144
-1 -1;
#N canvas 12 75 1009 665 MicroLoops 0;
#X msg 57 67 createNode listener0 Listener;
#X obj 550 131 playlist all 400 300 {Helvetica 10 bold} #457782 yellow
black red;
#X obj 550 40 thisdir;
#X obj 550 62 makefilename %s/snd;
#X obj 552 20 bng 15 250 50 0 empty empty empty 17 7 0 10 -262144 -1
-1;
#X msg 550 84 location \$1;
#X obj 112 112 until;
#X obj 57 496 s \$0-to-SPIN-TCP;
#X obj 139 247 s \$0-to-SPIN-TCP;
#X obj 112 200 t a f;
#X obj 112 414 pack f s;
#X obj 276 542 print;
#X obj 550 435 print playlist;
#X msg 381 181 seek \$1;
#X obj 262 12 inlet;
#X obj 262 34 t b b b;
#X text 199 315 Offset the sound by 4m along the y-axis so that it
appears to orbit around the spinner:;
#X obj 125 281 t f f;
#X obj 162 391 s \$0-to-SPIN-TCP;
#X obj 221 203 sel 1;
#X msg 139 224 createNode ml\$1 SoundNode;
#X obj 238 13 bng 15 250 50 0 empty empty empty 17 7 0 10 -262144 -1
-1;
#X msg 175 89 0;
#X obj 199 114 bng 15 250 50 0 empty empty empty 17 7 0 10 -262144
-1 -1;
#X msg 113 446 /ml\$1 setDirectivityFlag 1 \, /ml\$1 setParam setMediaURI
plugin://MicroLooper \, /ml\$1 setParam path \$2 \, /ml\$1 setParam
stop 1;
#X msg 112 90 5;
#X obj 125 333 pack f f;
#X msg 162 369 /ml\$1 setParent spinner\$2 \, /ml\$1 setTranslation
0 4 0;
#X obj 152 307 + 11;
#X obj 112 134 counter 5;
#X obj 327 159 random 50;
#X obj 112 178 t f b;
#X connect 0 0 7 0;
#X connect 1 0 12 0;
#X connect 1 0 10 1;
#X connect 2 0 3 0;
#X connect 3 0 5 0;
#X connect 4 0 2 0;
#X connect 5 0 1 0;
#X connect 6 0 29 0;
#X connect 9 0 10 0;
#X connect 9 0 17 0;
#X connect 9 1 20 0;
#X connect 10 0 24 0;
#X connect 13 0 1 0;
#X connect 14 0 15 0;
#X connect 15 0 25 0;
#X connect 15 1 0 0;
#X connect 15 2 4 0;
#X connect 15 2 22 0;
#X connect 17 0 26 0;
#X connect 17 1 28 0;
#X connect 20 0 8 0;
#X connect 21 0 15 0;
#X connect 22 0 29 2;
#X connect 23 0 29 0;
#X connect 24 0 7 0;
#X connect 24 0 11 0;
#X connect 25 0 6 0;
#X connect 26 0 27 0;
#X connect 27 0 18 0;
#X connect 28 0 26 1;
#X connect 29 0 31 0;
#X connect 29 2 19 0;
#X connect 30 0 13 0;
#X connect 31 0 9 0;
#X connect 31 1 30 0;
#X restore 760 -94 pd MicroLoops;
#N canvas 109 138 450 300 randombits 0;
#X obj 114 35 inlet;
#X obj 114 57 t f b b b;
#X obj 114 149 pack f f f f;
#X obj 114 171 outlet;
#X obj 165 79 expr random(1 \, 1000)*0.1;
#X obj 147 99 expr random(0 \, 70)*0.1;
#X obj 131 120 expr random(1 \, 200) * 0.01;
#X connect 0 0 1 0;
#X connect 1 0 2 0;
#X connect 1 1 6 0;
#X connect 1 2 5 0;
#X connect 1 3 4 0;
#X connect 2 0 3 0;
#X connect 4 0 2 3;
#X connect 5 0 2 2;
#X connect 6 0 2 1;
#X restore 927 -143 pd randombits;
#X floatatom 925 -164 5 0 0 0 - - -;
#X obj 800 18 s \$0-to-SPIN-TCP;
#X obj 567 217 s \$0-to-SPIN-TCP;
#X obj 927 -121 prepend set;
#X msg 927 -99 1 0.77 6.7 69.8;
#X msg 799 -16 /ml\$1 setParam pitch \$2 \, /ml\$1 setParam start \$3
\, /ml\$1 setParam dur \$4 \, /ml\$1 setParam play 1;
#X msg 959 46 /ml\$1 setParam stop 1;
#X floatatom 956 25 5 0 0 0 - - -;
#X text 919 -183 0 - 5;
#X text 586 54 0 - 5;
#N canvas 88 75 504 418 microChords 0;
#X text 126 115 classical just intonation scale;
#X obj 123 203 list-nth;
#X obj 123 156 t a b;
#X msg 123 134 1 1.066 1.111 1.2 1.25 1.333 1.5 1.6 1.666 1.8 1.875
2;
#X obj 150 178 random 12;
#X obj 96 226 *;
#X msg 96 34 4;
#X obj 96 102 t f b;
#X obj 96 248 list-group 4;
#X obj 144 271 prepend set;
#X msg 144 293 264 330 396 440;
#X floatatom 177 57 5 0 0 0 - - -;
#X obj 216 227 list-group 4;
#X obj 264 250 prepend set;
#X msg 264 272 3 6 9 11;
#X obj -2 341 outlet;
#X obj 207 342 outlet;
#X obj 93 9 inlet;
#X obj 96 56 until;
#X obj 96 81 f 200;
#X obj 174 25 inlet;
#X connect 1 0 5 1;
#X connect 2 0 1 0;
#X connect 2 1 4 0;
#X connect 3 0 2 0;
#X connect 4 0 1 1;
#X connect 4 0 12 0;
#X connect 5 0 8 0;
#X connect 6 0 18 0;
#X connect 7 0 5 0;
#X connect 7 1 3 0;
#X connect 8 0 9 0;
#X connect 8 0 15 0;
#X connect 9 0 10 0;
#X connect 9 0 16 0;
#X connect 11 0 19 1;
#X connect 12 0 13 0;
#X connect 13 0 14 0;
#X connect 17 0 6 0;
#X connect 18 0 19 0;
#X connect 19 0 7 0;
#X connect 20 0 11 0;
#X restore 1028 -133 pd microChords;
#X obj 1027 -152 bng 15 250 50 0 empty empty empty 17 7 0 10 -262144
-1 -1;
#X msg 1105 -104 264 330 396 440;
#X floatatom 1100 -158 5 0 0 0 - - -;
#X obj 1035 -86 f;
#X obj 1037 -112 t b a;
#X obj 1036 -61 list append;
#X msg 951 -38 /ml\$1 event freq \$2 \$3 \$4 \$5;
#X obj 883 59 prepend set;
#X msg 881 84 /ml3 event freq 264 330 396 440;
#X obj 580 100 expr random(0 \, 1000)*0.1;
#X obj 690 -201 tgl 15 0 empty empty empty 17 7 0 10 -262144 -1 -1
1 1;
#X obj 920 -197 random 5;
#X obj 713 -158 s tick;
#X obj 713 -202 metro 1000;
#X obj 713 -180 f;
#X obj 739 -180 + 1;
#X obj 1043 -217 r tick;
#X obj 1043 -195 % 27;
#X obj 856 -215 r tick;
#X obj 856 -193 % 11;
#X obj 705 -21 r tick;
#X obj 705 0 % 15;
#X obj 1043 -173 sel 0;
#X obj 856 -171 sel 0;
#X obj 704 20 sel 0;
#X obj 704 44 random 5;
#X connect 0 0 1 0;
#X connect 2 0 26 0;
#X connect 5 0 21 0;
#X connect 6 0 7 0;
#X connect 7 0 27 0;
#X connect 8 0 9 0;
#X connect 9 0 5 0;
#X connect 9 0 11 0;
#X connect 10 0 5 0;
#X connect 10 0 13 0;
#X connect 11 0 15 0;
#X connect 15 0 14 0;
#X connect 15 0 20 0;
#X connect 18 0 19 0;
#X connect 19 0 2 0;
#X connect 20 0 10 0;
#X connect 20 1 25 0;
#X connect 21 0 22 0;
#X connect 22 0 4 0;
#X connect 24 0 9 0;
#X connect 25 0 21 1;
#X connect 25 0 23 0;
#X connect 26 0 0 0;
#X connect 27 0 4 0;
#X connect 29 0 28 0;
#X connect 30 0 57 0;
#X connect 31 0 30 0;
#X connect 32 0 33 0;
#X connect 33 0 35 0;
#X connect 33 0 50 1;
#X connect 33 1 75 0;
#X connect 34 0 57 0;
#X connect 35 0 34 0;
#X connect 37 0 38 0;
#X connect 37 0 39 0;
#X connect 39 0 40 0;
#X connect 39 1 44 0;
#X connect 40 0 41 0;
#X connect 41 0 42 0;
#X connect 42 0 43 0;
#X connect 43 0 45 0;
#X connect 44 0 41 1;
#X connect 45 0 48 0;
#X connect 45 1 47 0;
#X connect 45 2 46 0;
#X connect 46 0 49 2;
#X connect 47 0 49 1;
#X connect 48 0 49 0;
#X connect 49 0 50 0;
#X connect 50 0 51 0;
#X connect 51 0 4 0;
#X connect 52 0 53 0;
#X connect 54 0 60 0;
#X connect 54 0 58 0;
#X connect 55 0 54 0;
#X connect 55 0 69 1;
#X connect 58 0 59 0;
#X connect 60 0 56 0;
#X connect 61 0 56 0;
#X connect 62 0 61 0;
#X connect 65 0 70 0;
#X connect 65 1 67 0;
#X connect 66 0 65 0;
#X connect 68 0 65 1;
#X connect 69 0 71 0;
#X connect 70 0 69 0;
#X connect 70 1 71 1;
#X connect 71 0 72 0;
#X connect 72 0 56 0;
#X connect 72 0 73 0;
#X connect 73 0 74 0;
#X connect 75 0 35 1;
#X connect 75 0 36 0;
#X connect 76 0 79 0;
#X connect 77 0 55 0;
#X connect 79 0 80 0;
#X connect 80 0 81 0;
#X connect 80 0 78 0;
#X connect 81 0 80 1;
#X connect 82 0 83 0;
#X connect 83 0 88 0;
#X connect 84 0 85 0;
#X connect 85 0 89 0;
#X connect 86 0 87 0;
#X connect 88 0 66 0;
#X connect 89 0 77 0;
#X connect 90 0 91 0;
#X connect 91 0 32 0;
