#N canvas 12 75 1009 665 10;
#X declare -lib mrpeach;
#X declare -lib mrpeach;
#X declare -lib mrpeach;
#X declare -lib mrpeach;
#X declare -lib mrpeach;
#X declare -lib mrpeach;
#X declare -lib mrpeach;
#X declare -lib mrpeach;
#X declare -lib mrpeach;
#X declare -lib mrpeach;
#X declare -lib mrpeach;
#X declare -lib mrpeach;
#X declare -lib mrpeach;
#X declare -lib mrpeach;
#X declare -lib mrpeach;
#X declare -lib mrpeach;
#X declare -lib mrpeach;
#X declare -lib mrpeach;
#X declare -lib mrpeach;
#X declare -lib mrpeach;
#X declare -lib mrpeach;
#X declare -lib mrpeach;
#X declare -lib mrpeach;
#X declare -lib mrpeach;
#X declare -lib mrpeach;
#X declare -lib mrpeach;
#X declare -lib mrpeach;
#X obj 11 105 bng 15 250 50 0 empty empty empty 17 7 0 10 -262144 -1
-1;
#N canvas 3 75 1009 665 audio_ctl+spin 0;
#X msg 57 67 createNode listener0 Listener;
#X obj 550 131 playlist all 400 300 {Helvetica 10 bold} #457782 yellow
black red;
#X obj 550 40 thisdir;
#X obj 550 62 makefilename %s/snd;
#X obj 552 20 bng 15 250 50 0 empty empty empty 17 7 0 10 -262144 -1
-1;
#X msg 550 84 location \$1;
#X obj 112 112 until;
#X obj 222 156 moses 11;
#X obj 112 178 t f f;
#X obj 57 496 s \$0-to-SPIN-TCP;
#X obj 139 247 s \$0-to-SPIN-TCP;
#X obj 112 200 t a f;
#X obj 112 414 pack f s;
#N canvas 273 156 488 456 sines 0;
#X obj 64 20 inlet;
#X obj 91 85 s \$0-to-SPIN-TCP;
#X obj 64 42 t f f;
#X obj 64 270 s \$0-to-SPIN-TCP;
#X obj 64 108 t a b b;
#X obj 103 130 expr random(7 \, 20);
#X obj 83 150 expr random(1000 \, 10000) * 0.01;
#X obj 83 173 *;
#X obj 64 204 pack f f;
#X msg 64 236 /snd\$1 setParam setMediaURI pyo://Sine \, /snd\$1 setParam
mul 0.1 \, /snd\$1 setParam freq \$2;
#X msg 91 63 createNode snd\$1 SoundNode \, /snd\$1 setParent con\$1
;
#X connect 0 0 2 0;
#X connect 2 0 4 0;
#X connect 2 1 10 0;
#X connect 4 0 8 0;
#X connect 4 1 6 0;
#X connect 4 2 5 0;
#X connect 5 0 7 1;
#X connect 6 0 7 0;
#X connect 7 0 8 1;
#X connect 8 0 9 0;
#X connect 9 0 3 0;
#X connect 10 0 1 0;
#X restore 292 165 pd sines;
#X obj 276 542 print;
#X obj 550 435 print playlist;
#X msg 381 181 seek \$1;
#X obj 262 12 inlet;
#X obj 262 34 t b b b;
#X msg 139 224 createNode snd\$1 SoundNode;
#X msg 112 446 /snd\$1 setParam setMediaURI file://\$2 \, /snd\$1 setParam
loop 0 \, /snd\$1 setParam stop 1;
#X text 199 315 Offset the sound by 4m along the y-axis so that it
appears to orbit around the spinner:;
#X text 581 543 <- set the spinner speed;
#X msg 169 347 createNode spinner\$1 GroupNode;
#X obj 150 319 t f f;
#X obj 162 391 s \$0-to-SPIN-TCP;
#X msg 162 369 /snd\$1 setParent spinner\$1 \, /snd\$1 setTranslation
0 4 0;
#X obj 135 289 moses 5;
#X obj 221 203 sel 1;
#X obj 112 134 counter 30;
#X msg 112 90 30;
#N canvas 440 145 450 300 spinners 0;
#X obj 75 17 inlet;
#X floatatom 236 126 5 0 0 1 (deg/sec) - -;
#X msg 265 103 0;
#X obj 75 66 until;
#X msg 235 103 \$1;
#X obj 75 110 t f b;
#X obj 102 134 random 50;
#X obj 75 154 pack f f;
#X msg 73 175 /spinner\$1 setSpin 0 0 \$2;
#X obj 73 194 s \$0-to-SPIN-TCP;
#X obj 24 151 print;
#X obj 75 88 counter 5 30;
#X msg 75 44 30;
#X connect 0 0 12 0;
#X connect 1 0 7 1;
#X connect 2 0 1 0;
#X connect 3 0 11 0;
#X connect 4 0 1 0;
#X connect 5 0 7 0;
#X connect 5 1 6 0;
#X connect 6 0 4 0;
#X connect 7 0 8 0;
#X connect 8 0 9 0;
#X connect 11 0 5 0;
#X connect 11 0 10 0;
#X connect 12 0 3 0;
#X restore 319 531 pd spinners;
#X connect 0 0 9 0;
#X connect 1 0 15 0;
#X connect 1 0 12 1;
#X connect 2 0 3 0;
#X connect 3 0 5 0;
#X connect 4 0 2 0;
#X connect 5 0 1 0;
#X connect 6 0 29 0;
#X connect 7 0 8 0;
#X connect 7 1 13 0;
#X connect 8 0 11 0;
#X connect 8 1 16 0;
#X connect 11 0 12 0;
#X connect 11 0 27 0;
#X connect 11 1 19 0;
#X connect 12 0 20 0;
#X connect 16 0 1 0;
#X connect 17 0 18 0;
#X connect 18 0 30 0;
#X connect 18 1 0 0;
#X connect 18 2 4 0;
#X connect 19 0 10 0;
#X connect 20 0 9 0;
#X connect 20 0 14 0;
#X connect 23 0 25 0;
#X connect 24 0 26 0;
#X connect 24 1 23 0;
#X connect 26 0 25 0;
#X connect 27 1 24 0;
#X connect 28 0 31 0;
#X connect 29 0 8 0;
#X connect 29 2 28 0;
#X connect 30 0 6 0;
#X restore 10 123 pd audio_ctl+spin;
#X obj 6 -183 widget-spinConnect \$0;
#X obj 5 -139 widget-nodeEditor \$0;
#X obj 251 297 s \$0-to-SPIN-TCP;
#X floatatom 251 259 5 0 0 0 - - -;
#X msg 251 277 /snd\$1 setParam play 1;
#X obj 251 116 r entrance;
#X msg 251 138 3;
#X obj 322 116 r cluster;
#X obj 321 136 expr random(4 \, 9);
#X obj 325 221 expr random(10 \, 23);
#X obj 325 179 b;
#X text 351 176 monitor activity;
#X floatatom 346 242 5 0 0 0 - - -;
#X obj 383 202 bng 15 250 50 0 empty empty empty 17 7 0 10 -262144
-1 -1;
#X obj 325 201 del 2500;
#X obj 348 -215 testAll;
#N canvas 359 211 548 276 spinners 0;
#X obj 15 -36 abs/spinzone \$0 1;
#X obj 17 -16 abs/spinzone \$0 5;
#X obj 17 4 abs/spinzone \$0 6;
#X obj 17 24 abs/spinzone \$0 7;
#X obj 17 44 abs/spinzone \$0 8;
#X obj 17 64 abs/spinzone \$0 9;
#X obj 17 84 abs/spinzone \$0 10;
#X obj 137 -16 abs/spinzone \$0 11;
#X obj 137 4 abs/spinzone \$0 12;
#X obj 136 24 abs/spinzone \$0 13;
#X obj 137 43 abs/spinzone \$0 14;
#X obj 137 64 abs/spinzone \$0 15;
#X obj 137 83 abs/spinzone \$0 16;
#X obj 257 -16 abs/spinzone \$0 17;
#X obj 257 4 abs/spinzone \$0 18;
#X obj 256 24 abs/spinzone \$0 19;
#X obj 257 43 abs/spinzone \$0 20;
#X obj 257 64 abs/spinzone \$0 21;
#X obj 257 83 abs/spinzone \$0 22;
#X obj 377 -16 abs/spinzone \$0 23;
#X obj 377 4 abs/spinzone \$0 24;
#X obj 376 24 abs/spinzone \$0 25;
#X obj 377 43 abs/spinzone \$0 26;
#X obj 377 64 abs/spinzone \$0 27;
#X obj 377 83 abs/spinzone \$0 28;
#X obj 16 105 abs/spinzone \$0 29;
#X obj 16 124 abs/spinzone \$0 30;
#X restore 119 124 pd spinners;
#X obj 6 -223 loadbang;
#X msg 6 -203 ReCollect;
#X connect 0 0 1 0;
#X connect 5 0 6 0;
#X connect 6 0 4 0;
#X connect 7 0 8 0;
#X connect 8 0 5 0;
#X connect 9 0 10 0;
#X connect 10 0 5 0;
#X connect 10 0 12 0;
#X connect 11 0 5 0;
#X connect 11 0 14 0;
#X connect 12 0 16 0;
#X connect 16 0 11 0;
#X connect 16 0 15 0;
#X connect 19 0 20 0;
#X connect 20 0 2 0;
