#N canvas 3 75 1009 665 10;
#X obj 11 175 bng 15 250 50 0 empty empty empty 17 7 0 10 -262144 -1
-1;
#N canvas 3 75 1009 665 audio_ctl+spin 0;
#X msg 57 67 createNode listener0 Listener;
#X obj 550 181 playlist all 400 300 {Helvetica 10 bold} #457782 yellow
black red;
#X obj 550 90 thisdir;
#X obj 550 112 makefilename %s/snd;
#X obj 552 70 bng 15 250 50 0 empty empty empty 17 7 0 10 -262144 -1
-1;
#X msg 550 134 location \$1;
#X obj 112 112 until;
#X obj 222 156 moses 11;
#X obj 112 178 t f f;
#X obj 57 496 s \$0-to-SPIN-TCP;
#X obj 139 247 s \$0-to-SPIN-TCP;
#X obj 112 200 t a f;
#X obj 112 414 pack f s;
#N canvas 273 156 488 456 sines 0;
#X obj 64 20 inlet;
#X obj 91 85 s \$0-to-SPIN-TCP;
#X obj 64 42 t f f;
#X obj 64 270 s \$0-to-SPIN-TCP;
#X obj 64 108 t a b b;
#X obj 103 130 expr random(7 \, 20);
#X obj 83 150 expr random(1000 \, 10000) * 0.01;
#X obj 83 173 *;
#X obj 64 204 pack f f;
#X msg 64 236 /snd\$1 setParam setMediaURI pyo://Sine \, /snd\$1 setParam
mul 0.1 \, /snd\$1 setParam freq \$2;
#X msg 91 63 createNode snd\$1 SoundNode \, /snd\$1 setParent con\$1
;
#X connect 0 0 2 0;
#X connect 2 0 4 0;
#X connect 2 1 10 0;
#X connect 4 0 8 0;
#X connect 4 1 6 0;
#X connect 4 2 5 0;
#X connect 5 0 7 1;
#X connect 6 0 7 0;
#X connect 7 0 8 1;
#X connect 8 0 9 0;
#X connect 9 0 3 0;
#X connect 10 0 1 0;
#X restore 292 165 pd sines;
#X obj 276 542 print;
#X obj 554 513 print playlist;
#X msg 381 181 seek \$1;
#X obj 262 12 inlet;
#X obj 262 34 t b b b;
#X obj 112 134 counter 22;
#X msg 112 90 22;
#X msg 139 224 createNode snd\$1 SoundNode;
#X msg 112 446 /snd\$1 setParam setMediaURI file://\$2 \, /snd\$1 setParam
loop 0 \, /snd\$1 setParam stop 1;
#X connect 0 0 9 0;
#X connect 1 0 15 0;
#X connect 1 0 12 1;
#X connect 2 0 3 0;
#X connect 3 0 5 0;
#X connect 4 0 2 0;
#X connect 5 0 1 0;
#X connect 6 0 19 0;
#X connect 7 0 8 0;
#X connect 7 1 13 0;
#X connect 8 0 11 0;
#X connect 8 1 16 0;
#X connect 11 0 12 0;
#X connect 11 1 21 0;
#X connect 12 0 22 0;
#X connect 16 0 1 0;
#X connect 17 0 18 0;
#X connect 18 0 20 0;
#X connect 18 1 0 0;
#X connect 18 2 4 0;
#X connect 19 0 8 0;
#X connect 20 0 6 0;
#X connect 21 0 10 0;
#X connect 22 0 9 0;
#X connect 22 0 14 0;
#X restore 10 193 pd audio_ctl+spin;
#X obj 6 -113 widget-spinConnect \$0;
#X obj 5 -69 widget-nodeEditor \$0;
#X obj 251 407 s \$0-to-SPIN-TCP;
#X floatatom 251 369 5 0 0 0 - - -;
#X msg 251 387 /snd\$1 setParam play 1;
#X obj 251 226 r entrance;
#X msg 251 248 3;
#X obj 322 226 r cluster;
#X obj 321 246 expr random(4 \, 9);
#X obj 325 331 expr random(10 \, 23);
#X obj 325 289 b;
#X text 351 286 monitor activity;
#X floatatom 346 352 5 0 0 0 - - -;
#X obj 376 312 bng 15 250 50 0 empty empty empty 17 7 0 10 -262144
-1 -1;
#X obj 325 311 del 2500;
#X obj 470 -46 testAll;
#X connect 0 0 1 0;
#X connect 5 0 6 0;
#X connect 6 0 4 0;
#X connect 7 0 8 0;
#X connect 8 0 5 0;
#X connect 9 0 10 0;
#X connect 10 0 5 0;
#X connect 10 0 12 0;
#X connect 11 0 5 0;
#X connect 11 0 14 0;
#X connect 12 0 16 0;
#X connect 16 0 11 0;
#X connect 16 0 15 0;
