#N canvas 3 77 1355 767 10;
#X declare -lib mrpeach;
#X declare -lib mrpeach;
#X declare -lib mrpeach;
#X declare -lib mrpeach;
#X declare -lib mrpeach;
#X declare -lib mrpeach;
#X declare -lib mrpeach;
#X declare -lib mrpeach;
#X declare -lib mrpeach;
#X declare -lib mrpeach;
#X declare -lib mrpeach;
#X declare -lib mrpeach;
#X declare -lib mrpeach;
#X declare -lib mrpeach;
#X declare -lib mrpeach;
#X declare -lib mrpeach;
#X declare -lib mrpeach;
#X declare -lib mrpeach;
#X declare -lib mrpeach;
#X declare -lib mrpeach;
#X declare -lib mrpeach;
#X declare -lib mrpeach;
#X declare -lib mrpeach;
#X declare -lib mrpeach;
#X declare -lib mrpeach;
#X declare -lib mrpeach;
#X obj 6 -84 bng 15 250 50 0 empty empty empty 17 7 0 10 -262144 -1
-1;
#N canvas 899 185 1009 665 audio_ctl+spin 1;
#X msg 57 67 createNode listener0 Listener;
#X obj 550 131 playlist all 400 300 {Helvetica 10 bold} #457782 yellow
black red;
#X obj 550 40 thisdir;
#X obj 550 62 makefilename %s/snd;
#X obj 552 20 bng 15 250 50 0 empty empty empty 17 7 0 10 -262144 -1
-1;
#X msg 550 84 location \$1;
#X obj 112 112 until;
#X obj 57 496 s \$0-to-SPIN-TCP;
#X obj 139 247 s \$0-to-SPIN-TCP;
#X obj 112 200 t a f;
#X obj 112 414 pack f s;
#X obj 276 542 print;
#X obj 550 435 print playlist;
#X msg 381 181 seek \$1;
#X obj 262 12 inlet;
#X obj 262 34 t b b b;
#X msg 139 224 createNode snd\$1 SoundNode;
#X text 581 543 <- set the spinner speed;
#X obj 162 391 s \$0-to-SPIN-TCP;
#X msg 162 369 /snd\$1 setParent spinner\$1 \, /snd\$1 setTranslation
0 4 0;
#N canvas 440 123 450 300 spinners 0;
#X obj 75 17 inlet;
#X floatatom 106 182 5 0 0 1 (deg/sec) - -;
#X msg 135 159 0;
#X obj 75 66 until;
#X msg 105 159 \$1;
#X obj 102 134 random 50;
#X obj 75 204 pack f f;
#X msg 73 225 /spinner\$1 setSpin 0 0 \$2;
#X obj 73 244 s \$0-to-SPIN-TCP;
#X obj 75 110 t f b b;
#X msg 75 44 30;
#X obj 75 88 counter 30;
#X connect 0 0 10 0;
#X connect 1 0 6 1;
#X connect 2 0 1 0;
#X connect 3 0 11 0;
#X connect 4 0 1 0;
#X connect 5 0 4 0;
#X connect 6 0 7 0;
#X connect 7 0 8 0;
#X connect 9 0 6 0;
#X connect 9 1 5 0;
#X connect 10 0 3 0;
#X connect 11 0 9 0;
#X restore 319 531 pd spinners;
#X msg 124 323 createNode spinner\$1 GroupNode;
#X msg 112 446 /snd\$1 setDirectivityFlag 1 \, /snd\$1 setParam setMediaURI
file://\$2 \, /snd\$1 setParam loop 0 \, /snd\$1 setParam stop 1;
#X obj 333 499 bng 15 250 50 0 empty empty empty 17 7 0 10 -262144
-1 -1;
#X obj 112 178 t f b;
#X obj 322 152 random 50;
#X msg 176 98 bang;
#X msg 112 91 30;
#X obj 112 135 counter 30;
#X obj 228 184 sel 1;
#X obj 228 206 del 1000;
#X connect 0 0 7 0;
#X connect 1 0 12 0;
#X connect 1 0 10 1;
#X connect 2 0 3 0;
#X connect 3 0 5 0;
#X connect 4 0 2 0;
#X connect 5 0 1 0;
#X connect 6 0 28 0;
#X connect 9 0 21 0;
#X connect 9 0 19 0;
#X connect 13 0 1 0;
#X connect 14 0 15 0;
#X connect 15 0 27 0;
#X connect 15 1 0 0;
#X connect 15 2 4 0;
#X connect 15 2 26 0;
#X connect 16 0 8 0;
#X connect 19 0 18 0;
#X connect 21 0 18 0;
#X connect 22 0 7 0;
#X connect 22 0 11 0;
#X connect 23 0 20 0;
#X connect 24 0 9 0;
#X connect 24 1 25 0;
#X connect 25 0 13 0;
#X connect 26 0 28 2;
#X connect 27 0 6 0;
#X connect 28 0 24 0;
#X connect 28 2 29 0;
#X connect 29 0 30 0;
#X connect 30 0 23 0;
#X restore 5 -66 pd audio_ctl+spin;
#X obj 6 -183 widget-spinConnect \$0;
#X obj 337 -183 widget-nodeEditor \$0;
#X floatatom 41 359 5 0 0 0 - - -;
#X obj 41 196 r entrance;
#X msg 41 218 3;
#X obj 112 196 r cluster;
#X obj 348 -215 testAll;
#N canvas 353 155 548 276 spinners 0;
#X obj 17 4 abs/spinzone \$0 6 1;
#X obj 137 4 abs/spinzone \$0 12 2;
#X obj 257 4 abs/spinzone \$0 18 3;
#X obj 377 4 abs/spinzone \$0 24 4;
#X obj 16 124 abs/spinzone \$0 30 5;
#X obj 17 -16 abs/spinzone \$0 5 5;
#X obj 17 24 abs/spinzone \$0 7 7;
#X obj 17 44 abs/spinzone \$0 8 8;
#X obj 17 64 abs/spinzone \$0 9 9;
#X obj 17 84 abs/spinzone \$0 10 10;
#X obj 16 105 abs/spinzone \$0 29 29;
#X obj 137 -15 abs/spinzone \$0 11 11;
#X obj 136 24 abs/spinzone \$0 13 13;
#X obj 137 43 abs/spinzone \$0 14 14;
#X obj 136 64 abs/spinzone \$0 15 15;
#X obj 137 83 abs/spinzone \$0 16 16;
#X obj 257 -16 abs/spinzone \$0 17 17;
#X obj 256 24 abs/spinzone \$0 19 19;
#X obj 257 43 abs/spinzone \$0 20 20;
#X obj 257 64 abs/spinzone \$0 21 21;
#X obj 257 83 abs/spinzone \$0 22 22;
#X obj 378 -16 abs/spinzone \$0 23 23;
#X obj 376 24 abs/spinzone \$0 25 25;
#X obj 377 42 abs/spinzone \$0 26 26;
#X obj 377 64 abs/spinzone \$0 27 27;
#X obj 377 83 abs/spinzone \$0 28 28;
#X restore 114 -65 pd spinners;
#X obj 6 -223 loadbang;
#X msg 6 -203 ReCollect;
#X obj 176 193 bng 15 250 50 0 empty empty empty 17 7 0 10 -262144
-1 -1;
#X obj 6 -104 del 2000;
#N canvas 12 77 1009 665 pulsars 0;
#X msg 57 67 createNode listener0 Listener;
#X obj 550 131 playlist all 400 300 {Helvetica 10 bold} #457782 yellow
black red;
#X obj 550 40 thisdir;
#X obj 550 62 makefilename %s/snd;
#X obj 552 20 bng 15 250 50 0 empty empty empty 17 7 0 10 -262144 -1
-1;
#X msg 550 84 location \$1;
#X obj 112 112 until;
#X obj 57 496 s \$0-to-SPIN-TCP;
#X obj 151 224 s \$0-to-SPIN-TCP;
#X obj 112 414 pack f s;
#X obj 276 542 print;
#X obj 550 435 print playlist;
#X msg 381 181 seek \$1;
#X obj 262 12 inlet;
#X obj 262 34 t b b b;
#X text 199 315 Offset the sound by 4m along the y-axis so that it
appears to orbit around the spinner:;
#X text 581 543 <- set the spinner speed;
#X obj 162 391 s \$0-to-SPIN-TCP;
#X msg 151 201 createNode pulse\$1 SoundNode;
#X msg 112 446 /pulse\$1 setDirectivityFlag 1 \, /pulse\$1 setParam
setMediaURI plugin://PulsarSampler \, /pulse\$1 setParam path \$2 \,
/pulse\$1 setParam stop 1;
#X msg 112 90 5;
#X obj 112 177 t a f f;
#X msg 162 369 /pulse\$1 setParent spinner\$2 \, /pulse\$1 setTranslation
0 4 0;
#X obj 131 260 t f f;
#X obj 131 315 pack f f;
#X obj 158 286 + 6;
#X obj 112 155 t f b;
#X obj 280 168 random 200;
#X msg 211 97 0;
#X obj 112 134 counter 5;
#X connect 0 0 7 0;
#X connect 1 0 11 0;
#X connect 1 0 9 1;
#X connect 2 0 3 0;
#X connect 3 0 5 0;
#X connect 4 0 2 0;
#X connect 5 0 1 0;
#X connect 6 0 29 0;
#X connect 9 0 19 0;
#X connect 12 0 1 0;
#X connect 13 0 14 0;
#X connect 14 0 20 0;
#X connect 14 1 0 0;
#X connect 14 2 4 0;
#X connect 14 2 28 0;
#X connect 18 0 8 0;
#X connect 19 0 7 0;
#X connect 19 0 10 0;
#X connect 20 0 6 0;
#X connect 21 0 9 0;
#X connect 21 1 23 0;
#X connect 21 2 18 0;
#X connect 22 0 17 0;
#X connect 23 0 24 0;
#X connect 23 1 25 0;
#X connect 24 0 22 0;
#X connect 25 0 24 1;
#X connect 26 0 21 0;
#X connect 26 1 27 0;
#X connect 27 0 12 0;
#X connect 28 0 29 2;
#X connect 29 0 26 0;
#X restore 690 -94 pd pulsars;
#X obj 691 -119 bng 15 250 50 0 empty empty empty 17 7 0 10 -262144
-1 -1;
#X msg 567 187 /pulse\$1 setParam stop 1;
#X floatatom 566 168 5 0 0 0 - - -;
#X floatatom 552 57 5 0 0 0 - - -;
#X obj 552 78 t a b;
#X msg 551 145 /pulse\$1 setParam play 1 \, /pulse\$1 setParam freq
\$2;
#X obj 552 120 pack;
#X floatatom 591 123 5 0 0 0 - - -;
#X obj 926 103 r LED-5;
#X floatatom 978 124 5 0 0 0 - - -;
#X obj 926 125 t f f;
#X obj 918 149 < 0.6;
#X obj 918 171 &&;
#X obj 918 193 sel 1;
#X obj 917 214 bng 15 250 50 0 empty empty empty 17 7 0 10 -262144
-1 -1;
#X obj 955 148 > 0.555;
#X obj 917 234 t b b b;
#X obj 955 260 expr random(0 \, 100)*0.1;
#X obj 939 286 expr random(0 \, 100)*0.1;
#X obj 908 309 expr random(0 \, 100)*0.1;
#X obj 872 352 pack f f f;
#X obj 823 376 prepend;
#X msg 787 408 /pulse\$1 setParam lfo_freq \$1 \, /pulse\$1 setParam
lfo_add \$2 \, /pulse\$1 setParam lfo_mul \$3 \, /pulse\$1 setParam
freq \$4;
#X obj 761 -119 bng 15 250 50 0 empty empty empty 17 7 0 10 -262144
-1 -1;
#N canvas 12 75 1009 665 MicroLoops 0;
#X msg 57 67 createNode listener0 Listener;
#X obj 550 131 playlist all 400 300 {Helvetica 10 bold} #457782 yellow
black red;
#X obj 550 40 thisdir;
#X obj 550 62 makefilename %s/snd;
#X obj 552 20 bng 15 250 50 0 empty empty empty 17 7 0 10 -262144 -1
-1;
#X msg 550 84 location \$1;
#X obj 112 112 until;
#X obj 57 496 s \$0-to-SPIN-TCP;
#X obj 139 247 s \$0-to-SPIN-TCP;
#X obj 112 200 t a f;
#X obj 112 414 pack f s;
#X obj 276 542 print;
#X obj 550 435 print playlist;
#X msg 381 181 seek \$1;
#X obj 262 12 inlet;
#X obj 262 34 t b b b;
#X text 199 315 Offset the sound by 4m along the y-axis so that it
appears to orbit around the spinner:;
#X obj 125 281 t f f;
#X obj 162 391 s \$0-to-SPIN-TCP;
#X obj 221 203 sel 1;
#X msg 139 224 createNode ml\$1 SoundNode;
#X obj 238 13 bng 15 250 50 0 empty empty empty 17 7 0 10 -262144 -1
-1;
#X msg 175 89 0;
#X obj 199 114 bng 15 250 50 0 empty empty empty 17 7 0 10 -262144
-1 -1;
#X msg 113 446 /ml\$1 setDirectivityFlag 1 \, /ml\$1 setParam setMediaURI
plugin://MicroLooper \, /ml\$1 setParam path \$2 \, /ml\$1 setParam
stop 1;
#X msg 112 90 5;
#X obj 125 333 pack f f;
#X msg 162 369 /ml\$1 setParent spinner\$2 \, /ml\$1 setTranslation
0 4 0;
#X obj 112 134 counter 5;
#X obj 327 159 random 50;
#X obj 112 178 t f b;
#X obj 152 307 + 0;
#X connect 0 0 7 0;
#X connect 1 0 12 0;
#X connect 1 0 10 1;
#X connect 2 0 3 0;
#X connect 3 0 5 0;
#X connect 4 0 2 0;
#X connect 5 0 1 0;
#X connect 6 0 28 0;
#X connect 9 0 10 0;
#X connect 9 0 17 0;
#X connect 9 1 20 0;
#X connect 10 0 24 0;
#X connect 13 0 1 0;
#X connect 14 0 15 0;
#X connect 15 0 25 0;
#X connect 15 1 0 0;
#X connect 15 2 4 0;
#X connect 15 2 22 0;
#X connect 17 0 26 0;
#X connect 17 1 31 0;
#X connect 20 0 8 0;
#X connect 21 0 15 0;
#X connect 22 0 28 2;
#X connect 23 0 28 0;
#X connect 24 0 7 0;
#X connect 24 0 11 0;
#X connect 25 0 6 0;
#X connect 26 0 27 0;
#X connect 27 0 18 0;
#X connect 28 0 30 0;
#X connect 28 2 19 0;
#X connect 29 0 13 0;
#X connect 30 0 9 0;
#X connect 30 1 29 0;
#X connect 31 0 26 1;
#X restore 760 -94 pd MicroLoops;
#X obj 213 419 s \$0-to-SPIN-TCP;
#X obj 518 217 s \$0-to-SPIN-TCP;
#X msg 215 399 /ml\$1 setParam stop 1;
#X floatatom 212 378 5 0 0 0 - - -;
#X text 586 54 0 - 5;
#X obj 883 59 prepend set;
#X msg 881 84 /ml1 event freq 300 213.2;
#X obj 580 100 expr random(0 \, 1000)*0.1;
#X obj 690 -201 tgl 15 0 empty empty empty 17 7 0 10 -262144 -1 -1
0 1;
#X obj 713 -158 s tick;
#X obj 713 -202 metro 1000;
#X obj 713 -180 f;
#X obj 739 -180 + 1;
#X obj 262 -41 r tick;
#X obj 705 -21 r tick;
#X obj 705 0 % 15;
#X obj 262 3 sel 0;
#X obj 704 20 sel 0;
#X obj 704 44 random 5;
#N canvas 3 75 1009 665 blits 0;
#X obj 122 122 until;
#X obj 122 520 s \$0-to-SPIN-TCP;
#X obj 149 257 s \$0-to-SPIN-TCP;
#X obj 122 210 t a f;
#X obj 139 460 s \$0-to-SPIN-TCP;
#X msg 186 108 0;
#X obj 122 188 t f b;
#X msg 122 100 6;
#X obj 122 144 counter 6;
#X msg 149 234 createNode blit\$1 SoundNode;
#X msg 173 306 createNode blitOrbit\$1 GroupNode;
#X msg 122 486 /blit\$1 setDirectivityFlag 1 \, /blit\$1 setParam setMediaURI
plugin://ResoSine \, /blit\$1 setParam stop 1;
#X obj 156 360 f;
#X obj 188 359 % 360;
#X obj 139 405 pack f f;
#X obj 120 20 inlet;
#X obj 120 42 t b b;
#X text 1130 250 classical just intonation scale;
#X obj 1127 338 list-nth;
#X obj 1127 291 t a b;
#X msg 1127 269 1 1.066 1.111 1.2 1.25 1.333 1.5 1.6 1.666 1.8 1.875
2;
#X obj 1154 313 random 12;
#X obj 1100 361 *;
#X msg 1100 169 4;
#X obj 1100 191 until;
#X obj 1100 237 t f b;
#X obj 1100 383 list-group 4;
#X obj 1148 406 prepend set;
#X msg 1148 428 366.52 330 440 396;
#X floatatom 1146 191 5 0 0 0 - - -;
#X obj 1220 362 list-group 4;
#X obj 1268 385 prepend set;
#X msg 1268 407 8 6 11 9;
#X obj 1100 215 f 220;
#X obj 1230 628 s \$0-to-SPIN;
#X obj 172 328 s \$0-to-SPIN-TCP;
#X obj 386 27 route setParam;
#X obj 386 49 route play;
#X obj 386 71 sel 1;
#X obj 953 554 s \$0-to-SPIN-TCP;
#X msg 386 93 0;
#X obj 485 27 route setParam;
#X obj 485 49 route play;
#X obj 485 71 sel 1;
#X obj 585 27 route setParam;
#X obj 585 49 route play;
#X obj 585 71 sel 1;
#X obj 686 27 route setParam;
#X obj 686 49 route play;
#X obj 686 71 sel 1;
#X obj 785 27 route setParam;
#X obj 785 49 route play;
#X obj 785 71 sel 1;
#X obj 885 27 route setParam;
#X obj 885 49 route play;
#X obj 885 71 sel 1;
#X msg 953 532 /blit\$1 event freq \$2 \$3 \$4 \$5;
#X obj 1047 157 t a b;
#X obj 997 461 list append;
#X obj 826 334 + 1;
#X obj 798 371 pack f f f;
#X obj 896 337 + 1;
#X obj 800 291 t a b b;
#X msg 139 426 /blit\$1 setParent blitOrbit\$1 \, /blit\$1 setTranslation
0 4 0 \, /blitOrbit\$1 setOrientation 0 0 \$2;
#X obj 386 115 s blitTrig;
#X obj 386 -16 r blitPlay;
#X obj 386 5 route blit0 blit1 blit2 blit3 blit4 blit5;
#X obj 1047 124 r blitTrig;
#X obj 485 115 s blitTrig;
#X obj 585 115 s blitTrig;
#X obj 686 115 s blitTrig;
#X obj 785 115 s blitTrig;
#X obj 885 115 s blitTrig;
#X obj 897 317 random 0 20;
#X obj 827 314 random 0 20;
#X obj 1198 468 t a b b b b;
#X obj 1229 568 pack f f f f f;
#X msg 1232 605 /blit\$1 event res_mix \$2 \$3 \$4 \$5;
#X obj 1300 478 expr random(30 \, 100)*0.01;
#X obj 1288 499 expr random(30 \, 100)*0.01;
#X obj 1275 521 expr random(30 \, 100)*0.01;
#X obj 1263 542 expr random(30 \, 100)*0.01;
#X obj 122 284 t a a b a;
#X msg 485 92 1;
#X msg 585 93 2;
#X msg 686 93 3;
#X msg 785 93 4;
#X msg 885 93 5;
#X msg 560 527 /blit\$1 setParam harms \$2 \, /blit\$1 setParam res_len
\$3 \, /blit\$1 setParam play 1;
#X msg 67 77 createNode listener0 Listener;
#X obj 199 34 bng 15 250 50 0 empty empty empty 17 7 0 10 -262144 -1
-1;
#X msg 797 412 /blit\$1 setParam res_len \$3 \, /blit\$1 setParam mul
1 \, /blit\$1 setParam play 1;
#X obj 188 380 + 45;
#X obj 369 236 s \$0-to-SPIN-TCP;
#X msg 369 210 /blit* event harms 1 0.5 0 0.1;
#X msg 473 354 /blit* setParam stop 1;
#X connect 0 0 8 0;
#X connect 3 0 82 0;
#X connect 3 1 9 0;
#X connect 5 0 8 2;
#X connect 6 0 3 0;
#X connect 7 0 0 0;
#X connect 8 0 6 0;
#X connect 9 0 2 0;
#X connect 10 0 35 0;
#X connect 11 0 1 0;
#X connect 12 0 13 0;
#X connect 12 0 14 1;
#X connect 13 0 92 0;
#X connect 14 0 63 0;
#X connect 15 0 16 0;
#X connect 16 0 7 0;
#X connect 16 0 89 0;
#X connect 16 1 5 0;
#X connect 18 0 22 1;
#X connect 19 0 18 0;
#X connect 19 1 21 0;
#X connect 20 0 19 0;
#X connect 21 0 18 1;
#X connect 21 0 30 0;
#X connect 22 0 26 0;
#X connect 23 0 24 0;
#X connect 24 0 33 0;
#X connect 25 0 22 0;
#X connect 25 1 20 0;
#X connect 26 0 27 0;
#X connect 26 0 58 1;
#X connect 27 0 28 0;
#X connect 29 0 33 1;
#X connect 30 0 31 0;
#X connect 31 0 32 0;
#X connect 33 0 25 0;
#X connect 36 0 37 0;
#X connect 37 0 38 0;
#X connect 38 0 40 0;
#X connect 40 0 64 0;
#X connect 41 0 42 0;
#X connect 42 0 43 0;
#X connect 43 0 83 0;
#X connect 44 0 45 0;
#X connect 45 0 46 0;
#X connect 46 0 84 0;
#X connect 47 0 48 0;
#X connect 48 0 49 0;
#X connect 49 0 85 0;
#X connect 50 0 51 0;
#X connect 51 0 52 0;
#X connect 52 0 86 0;
#X connect 53 0 54 0;
#X connect 54 0 55 0;
#X connect 55 0 87 0;
#X connect 56 0 39 0;
#X connect 57 0 58 0;
#X connect 57 0 62 0;
#X connect 57 0 75 0;
#X connect 57 1 23 0;
#X connect 58 0 56 0;
#X connect 59 0 60 1;
#X connect 60 0 91 0;
#X connect 61 0 60 2;
#X connect 62 0 60 0;
#X connect 62 1 74 0;
#X connect 62 2 73 0;
#X connect 63 0 4 0;
#X connect 65 0 66 0;
#X connect 65 0 94 0;
#X connect 66 0 36 0;
#X connect 66 1 41 0;
#X connect 66 2 44 0;
#X connect 66 3 47 0;
#X connect 66 4 50 0;
#X connect 66 5 53 0;
#X connect 67 0 57 0;
#X connect 73 0 61 0;
#X connect 74 0 59 0;
#X connect 75 0 76 0;
#X connect 75 1 81 0;
#X connect 75 2 80 0;
#X connect 75 3 79 0;
#X connect 75 4 78 0;
#X connect 76 0 77 0;
#X connect 77 0 34 0;
#X connect 78 0 76 4;
#X connect 79 0 76 3;
#X connect 80 0 76 2;
#X connect 81 0 76 1;
#X connect 82 0 11 0;
#X connect 82 1 14 0;
#X connect 82 2 12 0;
#X connect 82 3 10 0;
#X connect 83 0 68 0;
#X connect 84 0 69 0;
#X connect 85 0 70 0;
#X connect 86 0 71 0;
#X connect 87 0 72 0;
#X connect 89 0 1 0;
#X connect 90 0 16 0;
#X connect 91 0 39 0;
#X connect 92 0 12 1;
#X connect 94 0 93 0;
#X connect 95 0 1 0;
#X restore 71 -26 pd blits;
#X obj 111 216 expr random(0 \, 5);
#X obj 50 -29 bng 15 250 50 0 empty empty empty 17 7 0 10 -262144 -1
-1;
#X obj 786 444 s \$0-to-SPIN-TCP;
#N canvas 3 75 1009 665 MicroLoopsFiles 0;
#X obj 560 141 playlist all 400 300 {Helvetica 10 bold} #457782 yellow
black red;
#X obj 560 50 thisdir;
#X obj 560 72 makefilename %s/snd;
#X obj 562 30 bng 15 250 50 0 empty empty empty 17 7 0 10 -262144 -1
-1;
#X msg 560 94 location \$1;
#X obj 122 210 t a f;
#X obj 122 424 pack f s;
#X obj 122 188 t f b;
#X obj 215 174 random 200;
#X msg 215 196 seek \$1;
#X msg 123 456 ml\$1 setParam path \$2 \, /ml\$1 setParam stop 1;
#X obj 121 480 s \$0-to-SPIN-TCP;
#X floatatom 124 116 5 0 0 0 - - -;
#X obj 116 33 inlet;
#X obj 116 55 random 5;
#X connect 0 0 6 1;
#X connect 1 0 2 0;
#X connect 2 0 4 0;
#X connect 3 0 1 0;
#X connect 4 0 0 0;
#X connect 5 0 6 0;
#X connect 6 0 10 0;
#X connect 7 0 5 0;
#X connect 7 1 8 0;
#X connect 8 0 9 0;
#X connect 9 0 0 0;
#X connect 10 0 11 0;
#X connect 12 0 7 0;
#X connect 13 0 14 0;
#X connect 13 0 3 0;
#X connect 14 0 12 0;
#X restore 764 45 pd MicroLoopsFiles;
#X obj 6 -136 sel ReCollect;
#X obj 186 -38 bng 15 250 50 0 empty empty empty 17 7 0 10 -262144
-1 -1;
#N canvas 12 75 1009 665 Grannys 0;
#X msg 57 67 createNode listener0 Listener;
#X obj 550 131 playlist all 400 300 {Helvetica 10 bold} #457782 yellow
black red;
#X obj 550 40 thisdir;
#X obj 550 62 makefilename %s/snd;
#X obj 552 20 bng 15 250 50 0 empty empty empty 17 7 0 10 -262144 -1
-1;
#X msg 550 84 location \$1;
#X obj 112 112 until;
#X obj 57 496 s \$0-to-SPIN-TCP;
#X obj 139 247 s \$0-to-SPIN-TCP;
#X obj 112 200 t a f;
#X obj 112 414 pack f s;
#X obj 276 542 print;
#X obj 550 435 print playlist;
#X msg 381 181 seek \$1;
#X obj 262 12 inlet;
#X obj 262 34 t b b b;
#X text 199 315 Offset the sound by 4m along the y-axis so that it
appears to orbit around the spinner:;
#X obj 125 281 t f f;
#X obj 161 390 s \$0-to-SPIN-TCP;
#X obj 221 203 sel 1;
#X obj 238 13 bng 15 250 50 0 empty empty empty 17 7 0 10 -262144 -1
-1;
#X msg 175 89 0;
#X obj 199 114 bng 15 250 50 0 empty empty empty 17 7 0 10 -262144
-1 -1;
#X obj 125 333 pack f f;
#X obj 327 159 random 50;
#X obj 112 178 t f b;
#X msg 139 227 createNode gr\$1 SoundNode;
#X msg 162 369 /gr\$1 setParent spinner\$2 \, /gr\$1 setTranslation
0 4 0;
#X msg 114 446 /gr\$1 setDirectivityFlag 1 \, /gr\$1 setParam setMediaURI
plugin://Granny \, /gr\$1 setParam path \$2 \, /gr\$1 setParam stop
1;
#X obj 1158 619 s \$0-to-SPIN-TCP;
#X msg 1298 483 /gr setParam basedur \$1;
#X obj 1239 219 t f f;
#X obj 1266 241 + 0.02;
#X obj 1222 360 s \$0-to-SPIN-TCP;
#X obj 1195 246 pack f f;
#X msg 1225 270 /gr\$1 setParam pitch_min \$2;
#X msg 1242 324 /gr\$1 setParam pitch_max \$2;
#X obj 1207 296 pack f f;
#X obj 1145 168 s \$0-gran;
#X obj 1194 218 r \$0-gran;
#X obj 1152 274 r \$0-gran;
#X obj 1264 425 pack f f;
#X obj 1209 403 r \$0-gran;
#X obj 1150 77 bng 15 250 50 0 empty empty empty 17 7 0 10 -262144
-1 -1;
#X obj 1103 528 r \$0-gran;
#X msg 1299 454 /gr\$1 setParam density \$2;
#X msg 1100 561 /gr\$1 setParam play 1;
#X msg 1307 632 /gr\$1 setParam mul \$1;
#X obj 1352 601 pack f f;
#X obj 1298 572 r \$0-gran;
#X obj 1383 562 expr random(5 \, 10)*0.1;
#X obj 1150 132 t f b b;
#X obj 1229 113 r granny;
#X obj 1239 197 expr random(1 \, 10)*0.1;
#X obj 152 307 + 6;
#X obj 1302 402 expr random(4 \, 8);
#X msg 1114 102 0;
#X floatatom 1099 140 5 0 0 0 - - -;
#X msg 112 90 5;
#X obj 112 134 counter 5;
#X obj 1150 109 random 5;
#X connect 0 0 7 0;
#X connect 1 0 12 0;
#X connect 1 0 10 1;
#X connect 2 0 3 0;
#X connect 3 0 5 0;
#X connect 4 0 2 0;
#X connect 5 0 1 0;
#X connect 6 0 59 0;
#X connect 9 0 10 0;
#X connect 9 0 17 0;
#X connect 9 1 26 0;
#X connect 10 0 28 0;
#X connect 13 0 1 0;
#X connect 14 0 15 0;
#X connect 15 0 58 0;
#X connect 15 1 0 0;
#X connect 15 2 4 0;
#X connect 15 2 21 0;
#X connect 17 0 23 0;
#X connect 17 1 54 0;
#X connect 20 0 15 0;
#X connect 21 0 59 2;
#X connect 22 0 59 0;
#X connect 23 0 27 0;
#X connect 24 0 13 0;
#X connect 25 0 9 0;
#X connect 25 1 24 0;
#X connect 26 0 8 0;
#X connect 27 0 18 0;
#X connect 28 0 7 0;
#X connect 28 0 11 0;
#X connect 31 0 34 1;
#X connect 31 1 32 0;
#X connect 32 0 37 1;
#X connect 34 0 35 0;
#X connect 35 0 33 0;
#X connect 36 0 33 0;
#X connect 37 0 36 0;
#X connect 39 0 34 0;
#X connect 40 0 37 0;
#X connect 41 0 45 0;
#X connect 42 0 41 0;
#X connect 43 0 60 0;
#X connect 44 0 46 0;
#X connect 45 0 29 0;
#X connect 46 0 29 0;
#X connect 47 0 29 0;
#X connect 48 0 47 0;
#X connect 49 0 48 0;
#X connect 50 0 48 1;
#X connect 51 0 38 0;
#X connect 51 1 53 0;
#X connect 51 1 55 0;
#X connect 51 2 50 0;
#X connect 52 0 51 0;
#X connect 53 0 31 0;
#X connect 54 0 23 1;
#X connect 55 0 41 1;
#X connect 56 0 51 0;
#X connect 58 0 6 0;
#X connect 59 0 25 0;
#X connect 59 2 19 0;
#X connect 60 0 51 0;
#X connect 60 0 57 0;
#X restore 185 -13 pd Grannys;
#X obj 419 74 r tick;
#X msg 419 179 /gr\$1 setParam stop 1;
#X floatatom 419 160 5 0 0 0 - - -;
#X obj 419 95 % 23;
#X obj 419 139 random 5;
#X obj 419 117 sel 0;
#N canvas 3 77 1009 665 GranularFiles 0;
#X obj 560 141 playlist all 400 300 {Helvetica 10 bold} #457782 yellow
black red;
#X obj 560 50 thisdir;
#X obj 560 72 makefilename %s/snd;
#X obj 562 30 bng 15 250 50 0 empty empty empty 17 7 0 10 -262144 -1
-1;
#X msg 560 94 location \$1;
#X obj 122 210 t a f;
#X obj 122 424 pack f s;
#X obj 122 188 t f b;
#X obj 215 174 random 200;
#X msg 215 196 seek \$1;
#X obj 121 480 s \$0-to-SPIN-TCP;
#X floatatom 124 116 5 0 0 0 - - -;
#X obj 116 33 inlet;
#X obj 116 55 random 5;
#X msg 123 456 /gr\$1 setParam path \$2;
#X connect 0 0 6 1;
#X connect 1 0 2 0;
#X connect 2 0 4 0;
#X connect 3 0 1 0;
#X connect 4 0 0 0;
#X connect 5 0 6 0;
#X connect 6 0 14 0;
#X connect 7 0 5 0;
#X connect 7 1 8 0;
#X connect 8 0 9 0;
#X connect 9 0 0 0;
#X connect 11 0 7 0;
#X connect 12 0 13 0;
#X connect 12 0 3 0;
#X connect 13 0 11 0;
#X connect 14 0 10 0;
#X restore 181 31 pd GranularFiles;
#X obj 184 9 bng 15 250 50 0 empty empty empty 17 7 0 10 -262144 -1
-1;
#X obj 764 24 bng 15 250 50 0 empty empty empty 17 7 0 10 -262144 -1
-1;
#X obj 608 307 s \$0-to-SPIN-TCP;
#X obj 607 281 r to-spin;
#X obj 15 59 abs/granula_control \$0 0;
#X obj 13 15 r gr_ctrl;
#X obj 13 37 sel 0 1 2 3 4;
#X obj 41 381 s ml_ctrl;
#X obj 224 75 sel 0 1 2 3 4;
#X obj 224 95 abs/ml-ctrl \$0 0;
#X obj 223 53 r ml_ctrl;
#X obj 201 242 sel 0 1 2 3 4;
#N canvas 457 428 450 300 monitor_and_delay 0;
#X floatatom 92 201 5 0 0 0 - - -;
#X obj 71 138 del 2500;
#X obj 71 158 t b b;
#X obj 71 180 expr random(0 \, 5);
#X obj 80 218 s gr_ctrl;
#X obj 78 63 inlet;
#X connect 1 0 2 0;
#X connect 2 0 3 0;
#X connect 3 0 0 0;
#X connect 3 0 4 0;
#X connect 5 0 1 0;
#X restore 200 265 pd monitor_and_delay;
#N canvas 457 428 450 300 monitor_and_delay 0;
#X floatatom 92 201 5 0 0 0 - - -;
#X obj 71 138 del 2500;
#X obj 71 158 t b b;
#X obj 71 180 expr random(0 \, 5);
#X obj 80 218 s gr_ctrl;
#X obj 78 63 inlet;
#X connect 1 0 2 0;
#X connect 2 0 3 0;
#X connect 3 0 0 0;
#X connect 3 0 4 0;
#X connect 5 0 1 0;
#X restore 200 285 pd monitor_and_delay;
#N canvas 457 428 450 300 monitor_and_delay 0;
#X floatatom 92 201 5 0 0 0 - - -;
#X obj 71 138 del 2500;
#X obj 71 158 t b b;
#X obj 71 180 expr random(0 \, 5);
#X obj 80 218 s gr_ctrl;
#X obj 78 63 inlet;
#X connect 1 0 2 0;
#X connect 2 0 3 0;
#X connect 3 0 0 0;
#X connect 3 0 4 0;
#X connect 5 0 1 0;
#X restore 200 305 pd monitor_and_delay;
#N canvas 457 428 450 300 monitor_and_delay 0;
#X floatatom 92 201 5 0 0 0 - - -;
#X obj 71 138 del 2500;
#X obj 71 158 t b b;
#X obj 71 180 expr random(0 \, 5);
#X obj 80 218 s gr_ctrl;
#X obj 78 63 inlet;
#X connect 1 0 2 0;
#X connect 2 0 3 0;
#X connect 3 0 0 0;
#X connect 3 0 4 0;
#X connect 5 0 1 0;
#X restore 200 325 pd monitor_and_delay;
#N canvas 457 428 450 300 monitor_and_delay 0;
#X floatatom 92 201 5 0 0 0 - - -;
#X obj 71 138 del 2500;
#X obj 71 158 t b b;
#X obj 71 180 expr random(0 \, 5);
#X obj 80 218 s gr_ctrl;
#X obj 78 63 inlet;
#X connect 1 0 2 0;
#X connect 2 0 3 0;
#X connect 3 0 0 0;
#X connect 3 0 4 0;
#X connect 5 0 1 0;
#X restore 200 345 pd monitor_and_delay;
#X obj 224 114 abs/ml-ctrl \$0 1;
#X obj 224 135 abs/ml-ctrl \$0 2;
#X obj 224 155 abs/ml-ctrl \$0 3;
#X obj 224 175 abs/ml-ctrl \$0 4;
#X obj 15 79 abs/granula_control \$0 1;
#X obj 15 99 abs/granula_control \$0 2;
#X obj 15 119 abs/granula_control \$0 3;
#X obj 15 139 abs/granula_control \$0 4;
#X obj 262 -19 % 62;
#X connect 0 0 1 0;
#X connect 2 0 64 0;
#X connect 4 0 81 0;
#X connect 5 0 6 0;
#X connect 7 0 60 0;
#X connect 10 0 11 0;
#X connect 11 0 2 0;
#X connect 12 0 60 0;
#X connect 13 0 0 0;
#X connect 15 0 14 0;
#X connect 16 0 41 0;
#X connect 17 0 16 0;
#X connect 18 0 19 0;
#X connect 19 0 21 0;
#X connect 19 0 36 1;
#X connect 19 1 47 0;
#X connect 20 0 41 0;
#X connect 21 0 20 0;
#X connect 23 0 24 0;
#X connect 23 0 25 0;
#X connect 25 0 26 0;
#X connect 25 1 30 0;
#X connect 26 0 27 0;
#X connect 27 0 28 0;
#X connect 28 0 29 0;
#X connect 29 0 31 0;
#X connect 30 0 27 1;
#X connect 31 0 34 0;
#X connect 31 1 33 0;
#X connect 31 2 32 0;
#X connect 32 0 35 2;
#X connect 33 0 35 1;
#X connect 34 0 35 0;
#X connect 35 0 36 0;
#X connect 36 0 37 0;
#X connect 37 0 62 0;
#X connect 38 0 39 0;
#X connect 42 0 40 0;
#X connect 43 0 42 0;
#X connect 45 0 46 0;
#X connect 47 0 21 1;
#X connect 47 0 22 0;
#X connect 48 0 50 0;
#X connect 50 0 51 0;
#X connect 51 0 52 0;
#X connect 51 0 49 0;
#X connect 52 0 51 1;
#X connect 53 0 99 0;
#X connect 54 0 55 0;
#X connect 56 0 74 0;
#X connect 57 0 58 0;
#X connect 57 0 63 0;
#X connect 60 0 4 0;
#X connect 60 0 85 0;
#X connect 61 0 59 0;
#X connect 65 0 66 0;
#X connect 67 0 70 0;
#X connect 68 0 41 0;
#X connect 69 0 68 0;
#X connect 70 0 72 0;
#X connect 71 0 69 0;
#X connect 72 0 71 0;
#X connect 74 0 73 0;
#X connect 75 0 63 0;
#X connect 77 0 76 0;
#X connect 79 0 80 0;
#X connect 80 0 78 0;
#X connect 80 1 95 0;
#X connect 80 2 96 0;
#X connect 80 3 97 0;
#X connect 80 4 98 0;
#X connect 82 0 83 0;
#X connect 82 1 91 0;
#X connect 82 2 92 0;
#X connect 82 3 93 0;
#X connect 82 4 94 0;
#X connect 84 0 82 0;
#X connect 85 0 86 0;
#X connect 85 1 87 0;
#X connect 85 2 88 0;
#X connect 85 3 89 0;
#X connect 85 4 90 0;
#X connect 99 0 56 0;
