#N canvas 3 75 1009 665 10;
#X declare -lib mrpeach;
#X declare -lib mrpeach;
#X declare -lib mrpeach;
#X declare -lib mrpeach;
#X declare -lib mrpeach;
#X declare -lib mrpeach;
#X declare -lib mrpeach;
#X declare -lib mrpeach;
#X declare -lib mrpeach;
#X declare -lib mrpeach;
#X declare -lib mrpeach;
#X declare -lib mrpeach;
#X declare -lib mrpeach;
#X declare -lib mrpeach;
#X declare -lib mrpeach;
#X declare -lib mrpeach;
#X declare -lib mrpeach;
#X declare -lib mrpeach;
#X declare -lib mrpeach;
#X declare -lib mrpeach;
#X declare -lib mrpeach;
#X declare -lib mrpeach;
#X declare -lib mrpeach;
#X declare -lib mrpeach;
#X declare -lib mrpeach;
#X declare -lib mrpeach;
#X obj 6 -84 bng 15 250 50 0 empty empty empty 17 7 0 10 -262144 -1
-1;
#N canvas 12 75 1009 665 audio_ctl+spin 0;
#X msg 57 67 createNode listener0 Listener;
#X obj 550 131 playlist all 400 300 {Helvetica 10 bold} #457782 yellow
black red;
#X obj 550 40 thisdir;
#X obj 550 62 makefilename %s/snd;
#X obj 552 20 bng 15 250 50 0 empty empty empty 17 7 0 10 -262144 -1
-1;
#X msg 550 84 location \$1;
#X obj 112 112 until;
#X obj 57 496 s \$0-to-SPIN-TCP;
#X obj 233 317 s \$0-to-SPIN-TCP;
#X obj 112 200 t a f;
#X obj 112 414 pack f s;
#X obj 276 542 print;
#X obj 550 435 print playlist;
#X msg 381 181 seek \$1;
#X obj 262 12 inlet;
#X obj 262 34 t b b b;
#X msg 233 294 createNode snd\$1 SoundNode;
#X obj 162 391 s \$0-to-SPIN-TCP;
#X msg 162 369 /snd\$1 setParent spinner\$1 \, /snd\$1 setTranslation
0 4 0;
#X obj 221 203 sel 1;
#N canvas 440 123 450 300 spinners 0;
#X obj 75 17 inlet;
#X floatatom 106 182 5 0 0 1 (deg/sec) - -;
#X msg 135 159 0;
#X obj 75 66 until;
#X msg 105 159 \$1;
#X obj 102 134 random 50;
#X obj 75 204 pack f f;
#X msg 73 225 /spinner\$1 setSpin 0 0 \$2;
#X obj 73 244 s \$0-to-SPIN-TCP;
#X obj 75 110 t f b b;
#X msg 75 44 30;
#X obj 75 88 counter 30;
#X connect 0 0 10 0;
#X connect 1 0 6 1;
#X connect 2 0 1 0;
#X connect 3 0 11 0;
#X connect 4 0 1 0;
#X connect 5 0 4 0;
#X connect 6 0 7 0;
#X connect 7 0 8 0;
#X connect 9 0 6 0;
#X connect 9 1 5 0;
#X connect 10 0 3 0;
#X connect 11 0 9 0;
#X restore 319 531 pd spinners;
#X msg 131 348 createNode spinner\$1 GroupNode;
#X msg 112 446 /snd\$1 setDirectivityFlag 1 \, /snd\$1 setParam setMediaURI
file://\$2 \, /snd\$1 setParam loop 0 \, /snd\$1 setParam stop 1;
#X obj 333 499 bng 15 250 50 0 empty empty empty 17 7 0 10 -262144
-1 -1;
#X obj 112 178 t f b;
#X obj 322 152 random 50;
#X msg 176 98 bang;
#X obj 269 267 bng 15 250 50 0 empty empty empty 17 7 0 10 -262144
-1 -1;
#X msg 112 91 30;
#X obj 112 135 counter 30;
#X floatatom 411 130 5 0 0 0 - - -;
#X obj 138 221 moses 25;
#X obj 184 243 t f f f;
#X connect 0 0 7 0;
#X connect 1 0 12 0;
#X connect 1 0 10 1;
#X connect 2 0 3 0;
#X connect 3 0 5 0;
#X connect 4 0 2 0;
#X connect 5 0 1 0;
#X connect 6 0 29 0;
#X connect 9 0 21 0;
#X connect 9 1 31 0;
#X connect 10 0 22 0;
#X connect 13 0 1 0;
#X connect 14 0 15 0;
#X connect 15 0 28 0;
#X connect 15 1 0 0;
#X connect 15 2 4 0;
#X connect 15 2 26 0;
#X connect 16 0 8 0;
#X connect 18 0 17 0;
#X connect 19 0 20 0;
#X connect 19 0 27 0;
#X connect 21 0 17 0;
#X connect 22 0 7 0;
#X connect 22 0 11 0;
#X connect 23 0 20 0;
#X connect 24 0 9 0;
#X connect 24 1 25 0;
#X connect 25 0 13 0;
#X connect 26 0 29 2;
#X connect 28 0 6 0;
#X connect 29 0 24 0;
#X connect 29 2 19 0;
#X connect 30 0 13 0;
#X connect 31 1 32 0;
#X connect 32 0 10 0;
#X connect 32 1 18 0;
#X connect 32 2 16 0;
#X restore 5 -66 pd audio_ctl+spin;
#X obj 6 -183 widget-spinConnect \$0;
#X obj 337 -183 widget-nodeEditor \$0;
#X floatatom 41 359 5 0 0 0 - - -;
#X obj 41 196 r entrance;
#X msg 41 218 3;
#X obj 112 196 r cluster;
#X obj 348 -215 testAll;
#N canvas 353 146 548 276 spinners 0;
#X obj 17 -16 abs/spinzone \$0 5 5;
#X obj 17 4 abs/spinzone \$0 6 1;
#X obj 137 4 abs/spinzone \$0 12 2;
#X obj 257 4 abs/spinzone \$0 18 3;
#X obj 377 4 abs/spinzone \$0 24 4;
#X obj 16 124 abs/spinzone \$0 30 5;
#X obj 17 24 abs/spinzone \$0 7 7;
#X obj 17 44 abs/spinzone \$0 8 8;
#X obj 17 64 abs/spinzone \$0 9 9;
#X obj 17 84 abs/spinzone \$0 10 10;
#X obj 16 105 abs/spinzone \$0 29 29;
#X obj 137 -15 abs/spinzone \$0 11 11;
#X obj 136 24 abs/spinzone \$0 13 13;
#X obj 137 43 abs/spinzone \$0 14 14;
#X obj 136 64 abs/spinzone \$0 15 15;
#X obj 137 83 abs/spinzone \$0 16 16;
#X obj 257 -16 abs/spinzone \$0 17 17;
#X obj 256 24 abs/spinzone \$0 19 19;
#X obj 257 43 abs/spinzone \$0 20 20;
#X obj 257 64 abs/spinzone \$0 21 21;
#X obj 257 83 abs/spinzone \$0 22 22;
#X obj 378 -16 abs/spinzone \$0 23 23;
#X obj 376 24 abs/spinzone \$0 25 25;
#X obj 377 42 abs/spinzone \$0 26 26;
#X obj 377 64 abs/spinzone \$0 27 27;
#X obj 377 83 abs/spinzone \$0 28 28;
#X restore 114 -65 pd spinners;
#X obj 6 -223 loadbang;
#X msg 6 -203 ReCollect;
#X obj 176 193 bng 15 250 50 0 empty empty empty 17 7 0 10 -262144
-1 -1;
#X obj 6 -104 del 2000;
#N canvas 12 75 1009 665 pulsars 0;
#X msg 57 67 createNode listener0 Listener;
#X obj 550 131 playlist all 400 300 {Helvetica 10 bold} #457782 yellow
black red;
#X obj 550 40 thisdir;
#X obj 550 62 makefilename %s/snd;
#X obj 552 20 bng 15 250 50 0 empty empty empty 17 7 0 10 -262144 -1
-1;
#X msg 550 84 location \$1;
#X obj 112 112 until;
#X obj 57 496 s \$0-to-SPIN-TCP;
#X obj 151 224 s \$0-to-SPIN-TCP;
#X obj 112 414 pack f s;
#X obj 276 542 print;
#X obj 550 435 print playlist;
#X msg 381 181 seek \$1;
#X obj 262 12 inlet;
#X obj 262 34 t b b b;
#X text 199 315 Offset the sound by 4m along the y-axis so that it
appears to orbit around the spinner:;
#X text 581 543 <- set the spinner speed;
#X obj 162 391 s \$0-to-SPIN-TCP;
#X msg 151 201 createNode pulse\$1 SoundNode;
#X msg 112 446 /pulse\$1 setDirectivityFlag 1 \, /pulse\$1 setParam
setMediaURI plugin://PulsarSampler \, /pulse\$1 setParam path \$2 \,
/pulse\$1 setParam stop 1;
#X msg 112 90 5;
#X obj 112 177 t a f f;
#X msg 162 369 /pulse\$1 setParent spinner\$2 \, /pulse\$1 setTranslation
0 4 0;
#X obj 131 260 t f f;
#X obj 131 315 pack f f;
#X obj 158 286 + 6;
#X obj 112 155 t f b;
#X obj 280 168 random 200;
#X msg 211 97 0;
#X obj 112 134 counter 5;
#X connect 0 0 7 0;
#X connect 1 0 11 0;
#X connect 1 0 9 1;
#X connect 2 0 3 0;
#X connect 3 0 5 0;
#X connect 4 0 2 0;
#X connect 5 0 1 0;
#X connect 6 0 29 0;
#X connect 9 0 19 0;
#X connect 12 0 1 0;
#X connect 13 0 14 0;
#X connect 14 0 20 0;
#X connect 14 1 0 0;
#X connect 14 2 4 0;
#X connect 14 2 28 0;
#X connect 18 0 8 0;
#X connect 19 0 7 0;
#X connect 19 0 10 0;
#X connect 20 0 6 0;
#X connect 21 0 9 0;
#X connect 21 1 23 0;
#X connect 21 2 18 0;
#X connect 22 0 17 0;
#X connect 23 0 24 0;
#X connect 23 1 25 0;
#X connect 24 0 22 0;
#X connect 25 0 24 1;
#X connect 26 0 21 0;
#X connect 26 1 27 0;
#X connect 27 0 12 0;
#X connect 28 0 29 2;
#X connect 29 0 26 0;
#X restore 690 -94 pd pulsars;
#X obj 691 -119 bng 15 250 50 0 empty empty empty 17 7 0 10 -262144
-1 -1;
#X msg 567 187 /pulse\$1 setParam stop 1;
#X floatatom 566 168 5 0 0 0 - - -;
#X floatatom 552 57 5 0 0 0 - - -;
#X obj 552 78 t a b;
#X msg 551 145 /pulse\$1 setParam play 1 \, /pulse\$1 setParam freq
\$2;
#X obj 552 120 pack;
#X floatatom 591 123 5 0 0 0 - - -;
#X obj 926 103 r LED-5;
#X floatatom 978 124 5 0 0 0 - - -;
#X obj 926 125 t f f;
#X obj 918 149 < 0.6;
#X obj 918 171 &&;
#X obj 918 193 sel 1;
#X obj 917 214 bng 15 250 50 0 empty empty empty 17 7 0 10 -262144
-1 -1;
#X obj 955 148 > 0.555;
#X obj 917 234 t b b b;
#X obj 955 260 expr random(0 \, 100)*0.1;
#X obj 939 286 expr random(0 \, 100)*0.1;
#X obj 908 309 expr random(0 \, 100)*0.1;
#X obj 872 352 pack f f f;
#X obj 823 376 prepend;
#X msg 787 408 /pulse\$1 setParam lfo_freq \$1 \, /pulse\$1 setParam
lfo_add \$2 \, /pulse\$1 setParam lfo_mul \$3 \, /pulse\$1 setParam
freq \$4;
#X obj 761 -119 bng 15 250 50 0 empty empty empty 17 7 0 10 -262144
-1 -1;
#N canvas 12 75 1009 665 MicroLoops 0;
#X msg 57 67 createNode listener0 Listener;
#X obj 550 131 playlist all 400 300 {Helvetica 10 bold} #457782 yellow
black red;
#X obj 550 40 thisdir;
#X obj 550 62 makefilename %s/snd;
#X obj 552 20 bng 15 250 50 0 empty empty empty 17 7 0 10 -262144 -1
-1;
#X msg 550 84 location \$1;
#X obj 112 112 until;
#X obj 57 496 s \$0-to-SPIN-TCP;
#X obj 139 247 s \$0-to-SPIN-TCP;
#X obj 112 200 t a f;
#X obj 112 414 pack f s;
#X obj 276 542 print;
#X obj 550 435 print playlist;
#X msg 381 181 seek \$1;
#X obj 262 12 inlet;
#X obj 262 34 t b b b;
#X text 199 315 Offset the sound by 4m along the y-axis so that it
appears to orbit around the spinner:;
#X obj 125 281 t f f;
#X obj 162 391 s \$0-to-SPIN-TCP;
#X obj 221 203 sel 1;
#X msg 139 224 createNode ml\$1 SoundNode;
#X obj 238 13 bng 15 250 50 0 empty empty empty 17 7 0 10 -262144 -1
-1;
#X msg 175 89 0;
#X obj 199 114 bng 15 250 50 0 empty empty empty 17 7 0 10 -262144
-1 -1;
#X msg 113 446 /ml\$1 setDirectivityFlag 1 \, /ml\$1 setParam setMediaURI
plugin://MicroLooper \, /ml\$1 setParam path \$2 \, /ml\$1 setParam
stop 1;
#X msg 112 90 5;
#X obj 125 333 pack f f;
#X msg 162 369 /ml\$1 setParent spinner\$2 \, /ml\$1 setTranslation
0 4 0;
#X obj 112 134 counter 5;
#X obj 327 159 random 50;
#X obj 112 178 t f b;
#X obj 152 307 + 0;
#X connect 0 0 7 0;
#X connect 1 0 12 0;
#X connect 1 0 10 1;
#X connect 2 0 3 0;
#X connect 3 0 5 0;
#X connect 4 0 2 0;
#X connect 5 0 1 0;
#X connect 6 0 28 0;
#X connect 9 0 10 0;
#X connect 9 0 17 0;
#X connect 9 1 20 0;
#X connect 10 0 24 0;
#X connect 13 0 1 0;
#X connect 14 0 15 0;
#X connect 15 0 25 0;
#X connect 15 1 0 0;
#X connect 15 2 4 0;
#X connect 15 2 22 0;
#X connect 17 0 26 0;
#X connect 17 1 31 0;
#X connect 20 0 8 0;
#X connect 21 0 15 0;
#X connect 22 0 28 2;
#X connect 23 0 28 0;
#X connect 24 0 7 0;
#X connect 24 0 11 0;
#X connect 25 0 6 0;
#X connect 26 0 27 0;
#X connect 27 0 18 0;
#X connect 28 0 30 0;
#X connect 28 2 19 0;
#X connect 29 0 13 0;
#X connect 30 0 9 0;
#X connect 30 1 29 0;
#X connect 31 0 26 1;
#X restore 760 -94 pd MicroLoops;
#N canvas 109 137 450 300 randombits 0;
#X obj 114 35 inlet;
#X obj 114 57 t f b b b;
#X obj 114 149 pack f f f f;
#X obj 114 171 outlet;
#X obj 165 79 expr random(1 \, 1000)*0.1;
#X obj 147 99 expr random(0 \, 70)*0.1;
#X obj 131 120 expr random(1 \, 200) * 0.01;
#X text 297 118 pitch;
#X text 299 100 loop start;
#X text 320 79 loop duration;
#X connect 0 0 1 0;
#X connect 1 0 2 0;
#X connect 1 1 6 0;
#X connect 1 2 5 0;
#X connect 1 3 4 0;
#X connect 2 0 3 0;
#X connect 4 0 2 3;
#X connect 5 0 2 2;
#X connect 6 0 2 1;
#X restore 927 -143 pd randombits;
#X floatatom 925 -164 5 0 0 0 - - -;
#X obj 800 18 s \$0-to-SPIN-TCP;
#X obj 518 217 s \$0-to-SPIN-TCP;
#X obj 927 -121 prepend set;
#X msg 927 -99 3 0.3 1.7 98.2;
#X msg 799 -16 /ml\$1 setParam pitch \$2 \, /ml\$1 setParam start \$3
\, /ml\$1 setParam dur \$4 \, /ml\$1 setParam play 1;
#X msg 959 46 /ml\$1 setParam stop 1;
#X floatatom 956 25 5 0 0 0 - - -;
#X text 919 -183 0 - 5;
#X text 586 54 0 - 5;
#N canvas 88 75 504 418 microChords 0;
#X text 126 115 classical just intonation scale;
#X obj 123 203 list-nth;
#X obj 123 156 t a b;
#X msg 123 134 1 1.066 1.111 1.2 1.25 1.333 1.5 1.6 1.666 1.8 1.875
2;
#X obj 150 178 random 12;
#X obj 96 226 *;
#X obj 96 102 t f b;
#X obj 144 271 prepend set;
#X msg 144 293 320 266.6;
#X floatatom 177 57 5 0 0 0 - - -;
#X obj 264 250 prepend set;
#X msg 264 272 7 5;
#X obj -2 341 outlet;
#X obj 207 342 outlet;
#X obj 93 9 inlet;
#X obj 96 56 until;
#X obj 96 81 f 200;
#X obj 174 25 inlet;
#X msg 96 34 2;
#X obj 96 248 list-group 2;
#X obj 216 227 list-group 2;
#X connect 1 0 5 1;
#X connect 2 0 1 0;
#X connect 2 1 4 0;
#X connect 3 0 2 0;
#X connect 4 0 1 1;
#X connect 4 0 20 0;
#X connect 5 0 19 0;
#X connect 6 0 5 0;
#X connect 6 1 3 0;
#X connect 7 0 8 0;
#X connect 7 0 13 0;
#X connect 9 0 16 1;
#X connect 10 0 11 0;
#X connect 14 0 18 0;
#X connect 15 0 16 0;
#X connect 16 0 6 0;
#X connect 17 0 9 0;
#X connect 18 0 15 0;
#X connect 19 0 7 0;
#X connect 19 0 12 0;
#X connect 20 0 10 0;
#X restore 1028 -133 pd microChords;
#X obj 1027 -152 bng 15 250 50 0 empty empty empty 17 7 0 10 -262144
-1 -1;
#X msg 1105 -104 320 266.6;
#X floatatom 1100 -158 5 0 0 0 - - -;
#X obj 1035 -86 f;
#X obj 1037 -112 t b a;
#X obj 1036 -61 list append;
#X obj 883 59 prepend set;
#X msg 881 84 /ml3 event freq 320 266.6;
#X obj 580 100 expr random(0 \, 1000)*0.1;
#X obj 690 -201 tgl 15 0 empty empty empty 17 7 0 10 -262144 -1 -1
0 1;
#X obj 920 -197 random 5;
#X obj 713 -158 s tick;
#X obj 713 -202 metro 1000;
#X obj 713 -180 f;
#X obj 739 -180 + 1;
#X obj 1043 -217 r tick;
#X obj 1043 -195 % 27;
#X obj 856 -215 r tick;
#X obj 856 -193 % 11;
#X obj 705 -21 r tick;
#X obj 705 0 % 15;
#X obj 1043 -173 sel 0;
#X obj 856 -171 sel 0;
#X obj 704 20 sel 0;
#X obj 704 44 random 5;
#X msg 1159 39 /ml\$1 setParam transposition \$2;
#X obj 1159 64 s \$0-to-SPIN-TCP;
#X floatatom 1202 -27 5 0 0 0 - - -;
#X obj 1163 -31 bng 15 250 50 0 empty empty empty 17 7 0 10 -262144
-1 -1;
#N canvas 3 75 1009 665 blits 0;
#X obj 122 122 until;
#X obj 122 520 s \$0-to-SPIN-TCP;
#X obj 149 257 s \$0-to-SPIN-TCP;
#X obj 122 210 t a f;
#X obj 139 460 s \$0-to-SPIN-TCP;
#X msg 186 108 0;
#X obj 122 188 t f b;
#X msg 149 234 createNode blit\$1 SoundNode;
#X msg 173 306 createNode blitOrbit\$1 GroupNode;
#X msg 122 486 /blit\$1 setDirectivityFlag 1 \, /blit\$1 setParam setMediaURI
plugin://ResoSine \, /blit\$1 setParam stop 1;
#X obj 156 360 f;
#X obj 188 359 % 360;
#X obj 139 405 pack f f;
#X obj 120 20 inlet;
#X obj 120 42 t b b;
#X text 1130 250 classical just intonation scale;
#X obj 1127 338 list-nth;
#X obj 1127 291 t a b;
#X msg 1127 269 1 1.066 1.111 1.2 1.25 1.333 1.5 1.6 1.666 1.8 1.875
2;
#X obj 1154 313 random 12;
#X obj 1100 361 *;
#X msg 1100 169 4;
#X obj 1100 191 until;
#X obj 1100 237 t f b;
#X obj 1100 383 list-group 4;
#X obj 1148 406 prepend set;
#X msg 1148 428 293.26 244.42 396 352;
#X floatatom 1146 191 5 0 0 0 - - -;
#X obj 1220 362 list-group 4;
#X obj 1268 385 prepend set;
#X msg 1268 407 5 2 9 7;
#X obj 1100 215 f 220;
#X obj 1230 628 s \$0-to-SPIN;
#X obj 172 328 s \$0-to-SPIN-TCP;
#X obj 386 44 route setParam;
#X obj 386 66 route play;
#X obj 386 88 sel 1;
#X obj 953 554 s \$0-to-SPIN-TCP;
#X msg 386 110 0;
#X obj 485 48 route setParam;
#X obj 485 70 route play;
#X obj 485 71 sel 1;
#X obj 585 48 route setParam;
#X obj 585 70 route play;
#X obj 585 92 sel 1;
#X obj 686 48 route setParam;
#X obj 686 70 route play;
#X obj 686 92 sel 1;
#X obj 785 48 route setParam;
#X obj 785 70 route play;
#X obj 785 92 sel 1;
#X obj 885 48 route setParam;
#X obj 885 70 route play;
#X obj 885 92 sel 1;
#X msg 953 532 /blit\$1 event freq \$2 \$3 \$4 \$5;
#X obj 1047 157 t a b;
#X obj 997 461 list append;
#X obj 826 334 + 1;
#X obj 798 371 pack f f f;
#X obj 896 337 + 1;
#X obj 800 291 t a b b;
#X msg 139 426 /blit\$1 setParent blitOrbit\$1 \, /blit\$1 setTranslation
0 4 0 \, /blitOrbit\$1 setOrientation 0 0 \$2;
#X obj 386 132 s blitTrig;
#X obj 386 -16 r blitPlay;
#X obj 386 5 route blit0 blit1 blit2 blit3 blit4 blit5;
#X obj 1047 124 r blitTrig;
#X obj 485 136 s blitTrig;
#X obj 585 136 s blitTrig;
#X obj 686 136 s blitTrig;
#X obj 785 136 s blitTrig;
#X obj 885 136 s blitTrig;
#X obj 897 317 random 0 20;
#X obj 827 314 random 0 20;
#X obj 1198 468 t a b b b b;
#X obj 1229 568 pack f f f f f;
#X msg 1232 605 /blit\$1 event res_mix \$2 \$3 \$4 \$5;
#X obj 1300 478 expr random(30 \, 100)*0.01;
#X obj 1288 499 expr random(30 \, 100)*0.01;
#X obj 1275 521 expr random(30 \, 100)*0.01;
#X obj 1263 542 expr random(30 \, 100)*0.01;
#X obj 122 284 t a a b a;
#X msg 485 92 1;
#X msg 585 114 2;
#X msg 686 114 3;
#X msg 785 114 4;
#X msg 885 114 5;
#X msg 560 527 /blit\$1 setParam harms \$2 \, /blit\$1 setParam res_len
\$3 \, /blit\$1 setParam play 1;
#X msg 67 77 createNode listener0 Listener;
#X obj 199 34 bng 15 250 50 0 empty empty empty 17 7 0 10 -262144 -1
-1;
#X msg 797 412 /blit\$1 setParam res_len \$3 \, /blit\$1 setParam mul
1 \, /blit\$1 setParam play 1;
#X obj 188 380 + 45;
#X obj 369 236 s \$0-to-SPIN-TCP;
#X msg 369 210 /blit* event harms 1 0.5 0 0.1;
#X msg 473 354 /blit* setParam stop 1;
#X msg 122 100 1;
#X obj 122 144 counter 1;
#X connect 0 0 95 0;
#X connect 3 0 80 0;
#X connect 3 1 7 0;
#X connect 5 0 95 2;
#X connect 6 0 3 0;
#X connect 7 0 2 0;
#X connect 8 0 33 0;
#X connect 9 0 1 0;
#X connect 10 0 11 0;
#X connect 10 0 12 1;
#X connect 11 0 90 0;
#X connect 12 0 61 0;
#X connect 13 0 14 0;
#X connect 14 0 94 0;
#X connect 14 0 87 0;
#X connect 14 1 5 0;
#X connect 16 0 20 1;
#X connect 17 0 16 0;
#X connect 17 1 19 0;
#X connect 18 0 17 0;
#X connect 19 0 16 1;
#X connect 19 0 28 0;
#X connect 20 0 24 0;
#X connect 21 0 22 0;
#X connect 22 0 31 0;
#X connect 23 0 20 0;
#X connect 23 1 18 0;
#X connect 24 0 25 0;
#X connect 24 0 56 1;
#X connect 25 0 26 0;
#X connect 27 0 31 1;
#X connect 28 0 29 0;
#X connect 29 0 30 0;
#X connect 31 0 23 0;
#X connect 34 0 35 0;
#X connect 35 0 36 0;
#X connect 36 0 38 0;
#X connect 38 0 62 0;
#X connect 39 0 40 0;
#X connect 40 0 41 0;
#X connect 41 0 81 0;
#X connect 42 0 43 0;
#X connect 43 0 44 0;
#X connect 44 0 82 0;
#X connect 45 0 46 0;
#X connect 46 0 47 0;
#X connect 47 0 83 0;
#X connect 48 0 49 0;
#X connect 49 0 50 0;
#X connect 50 0 84 0;
#X connect 51 0 52 0;
#X connect 52 0 53 0;
#X connect 53 0 85 0;
#X connect 54 0 37 0;
#X connect 55 0 56 0;
#X connect 55 0 60 0;
#X connect 55 0 73 0;
#X connect 55 1 21 0;
#X connect 56 0 54 0;
#X connect 57 0 58 1;
#X connect 58 0 89 0;
#X connect 59 0 58 2;
#X connect 60 0 58 0;
#X connect 60 1 72 0;
#X connect 60 2 71 0;
#X connect 61 0 4 0;
#X connect 63 0 64 0;
#X connect 63 0 92 0;
#X connect 64 0 34 0;
#X connect 64 1 39 0;
#X connect 64 1 34 0;
#X connect 64 2 42 0;
#X connect 64 2 34 0;
#X connect 64 3 45 0;
#X connect 64 3 34 0;
#X connect 64 4 48 0;
#X connect 64 4 34 0;
#X connect 64 5 51 0;
#X connect 64 5 34 0;
#X connect 65 0 55 0;
#X connect 71 0 59 0;
#X connect 72 0 57 0;
#X connect 73 0 74 0;
#X connect 73 1 79 0;
#X connect 73 2 78 0;
#X connect 73 3 77 0;
#X connect 73 4 76 0;
#X connect 74 0 75 0;
#X connect 75 0 32 0;
#X connect 76 0 74 4;
#X connect 77 0 74 3;
#X connect 78 0 74 2;
#X connect 79 0 74 1;
#X connect 80 0 9 0;
#X connect 80 1 12 0;
#X connect 80 2 10 0;
#X connect 80 3 8 0;
#X connect 81 0 66 0;
#X connect 82 0 67 0;
#X connect 83 0 68 0;
#X connect 84 0 69 0;
#X connect 85 0 70 0;
#X connect 87 0 1 0;
#X connect 88 0 14 0;
#X connect 89 0 37 0;
#X connect 90 0 10 1;
#X connect 92 0 91 0;
#X connect 93 0 1 0;
#X connect 94 0 0 0;
#X connect 95 0 6 0;
#X restore 71 -26 pd blits;
#X obj 54 -25 bng 15 250 50 0 empty empty empty 17 7 0 10 -262144 -1
-1;
#X obj 786 444 s \$0-to-SPIN-TCP;
#N canvas 3 75 1009 665 MicroLoopsFiles 0;
#X obj 560 141 playlist all 400 300 {Helvetica 10 bold} #457782 yellow
black red;
#X obj 560 50 thisdir;
#X obj 560 72 makefilename %s/snd;
#X obj 562 30 bng 15 250 50 0 empty empty empty 17 7 0 10 -262144 -1
-1;
#X msg 560 94 location \$1;
#X obj 122 210 t a f;
#X obj 122 424 pack f s;
#X obj 122 188 t f b;
#X obj 215 174 random 200;
#X msg 215 196 seek \$1;
#X msg 123 456 ml\$1 setParam path \$2 \, /ml\$1 setParam stop 1;
#X obj 121 480 s \$0-to-SPIN-TCP;
#X floatatom 124 116 5 0 0 0 - - -;
#X obj 116 33 inlet;
#X obj 116 55 random 5;
#X connect 0 0 6 1;
#X connect 1 0 2 0;
#X connect 2 0 4 0;
#X connect 3 0 1 0;
#X connect 4 0 0 0;
#X connect 5 0 6 0;
#X connect 6 0 10 0;
#X connect 7 0 5 0;
#X connect 7 1 8 0;
#X connect 8 0 9 0;
#X connect 9 0 0 0;
#X connect 10 0 11 0;
#X connect 12 0 7 0;
#X connect 13 0 14 0;
#X connect 13 0 3 0;
#X connect 14 0 12 0;
#X restore 764 45 pd MicroLoopsFiles;
#X obj 6 -136 sel ReCollect;
#X obj 186 -38 bng 15 250 50 0 empty empty empty 17 7 0 10 -262144
-1 -1;
#N canvas 12 75 1009 665 Grannys 0;
#X msg 57 67 createNode listener0 Listener;
#X obj 550 131 playlist all 400 300 {Helvetica 10 bold} #457782 yellow
black red;
#X obj 550 40 thisdir;
#X obj 550 62 makefilename %s/snd;
#X obj 552 20 bng 15 250 50 0 empty empty empty 17 7 0 10 -262144 -1
-1;
#X msg 550 84 location \$1;
#X obj 112 112 until;
#X obj 57 496 s \$0-to-SPIN-TCP;
#X obj 139 247 s \$0-to-SPIN-TCP;
#X obj 112 200 t a f;
#X obj 112 414 pack f s;
#X obj 276 542 print;
#X obj 550 435 print playlist;
#X msg 381 181 seek \$1;
#X obj 262 12 inlet;
#X obj 262 34 t b b b;
#X text 199 315 Offset the sound by 4m along the y-axis so that it
appears to orbit around the spinner:;
#X obj 125 281 t f f;
#X obj 161 390 s \$0-to-SPIN-TCP;
#X obj 221 203 sel 1;
#X obj 238 13 bng 15 250 50 0 empty empty empty 17 7 0 10 -262144 -1
-1;
#X msg 175 89 0;
#X obj 199 114 bng 15 250 50 0 empty empty empty 17 7 0 10 -262144
-1 -1;
#X obj 125 333 pack f f;
#X obj 327 159 random 50;
#X obj 112 178 t f b;
#X msg 139 227 createNode gr\$1 SoundNode;
#X msg 162 369 /gr\$1 setParent spinner\$2 \, /gr\$1 setTranslation
0 4 0;
#X msg 114 446 /gr\$1 setDirectivityFlag 1 \, /gr\$1 setParam setMediaURI
plugin://Granny \, /gr\$1 setParam path \$2 \, /gr\$1 setParam stop
1;
#X obj 1158 619 s \$0-to-SPIN-TCP;
#X msg 1298 483 /gr setParam basedur \$1;
#X obj 1239 219 t f f;
#X obj 1266 241 + 0.02;
#X obj 1222 360 s \$0-to-SPIN-TCP;
#X obj 1195 246 pack f f;
#X msg 1225 270 /gr\$1 setParam pitch_min \$2;
#X msg 1242 324 /gr\$1 setParam pitch_max \$2;
#X obj 1207 296 pack f f;
#X obj 1145 168 s \$0-gran;
#X obj 1194 218 r \$0-gran;
#X obj 1152 274 r \$0-gran;
#X obj 1264 425 pack f f;
#X obj 1209 403 r \$0-gran;
#X obj 1150 77 bng 15 250 50 0 empty empty empty 17 7 0 10 -262144
-1 -1;
#X obj 1103 528 r \$0-gran;
#X msg 1299 454 /gr\$1 setParam density \$2;
#X msg 1100 561 /gr\$1 setParam play 1;
#X msg 1307 632 /gr\$1 setParam mul \$1;
#X obj 1352 601 pack f f;
#X obj 1298 572 r \$0-gran;
#X obj 1383 562 expr random(5 \, 10)*0.1;
#X obj 1150 132 t f b b;
#X obj 1229 113 r granny;
#X obj 1239 197 expr random(1 \, 10)*0.1;
#X obj 152 307 + 6;
#X obj 1302 402 expr random(4 \, 8);
#X msg 1114 102 0;
#X floatatom 1099 140 5 0 0 0 - - -;
#X msg 112 90 5;
#X obj 112 134 counter 5;
#X obj 1150 109 random 5;
#X connect 0 0 7 0;
#X connect 1 0 12 0;
#X connect 1 0 10 1;
#X connect 2 0 3 0;
#X connect 3 0 5 0;
#X connect 4 0 2 0;
#X connect 5 0 1 0;
#X connect 6 0 59 0;
#X connect 9 0 10 0;
#X connect 9 0 17 0;
#X connect 9 1 26 0;
#X connect 10 0 28 0;
#X connect 13 0 1 0;
#X connect 14 0 15 0;
#X connect 15 0 58 0;
#X connect 15 1 0 0;
#X connect 15 2 4 0;
#X connect 15 2 21 0;
#X connect 17 0 23 0;
#X connect 17 1 54 0;
#X connect 20 0 15 0;
#X connect 21 0 59 2;
#X connect 22 0 59 0;
#X connect 23 0 27 0;
#X connect 24 0 13 0;
#X connect 25 0 9 0;
#X connect 25 1 24 0;
#X connect 26 0 8 0;
#X connect 27 0 18 0;
#X connect 28 0 7 0;
#X connect 28 0 11 0;
#X connect 31 0 34 1;
#X connect 31 1 32 0;
#X connect 32 0 37 1;
#X connect 34 0 35 0;
#X connect 35 0 33 0;
#X connect 36 0 33 0;
#X connect 37 0 36 0;
#X connect 39 0 34 0;
#X connect 40 0 37 0;
#X connect 41 0 45 0;
#X connect 42 0 41 0;
#X connect 43 0 60 0;
#X connect 44 0 46 0;
#X connect 45 0 29 0;
#X connect 46 0 29 0;
#X connect 47 0 29 0;
#X connect 48 0 47 0;
#X connect 49 0 48 0;
#X connect 50 0 48 1;
#X connect 51 0 38 0;
#X connect 51 1 53 0;
#X connect 51 1 55 0;
#X connect 51 2 50 0;
#X connect 52 0 51 0;
#X connect 53 0 31 0;
#X connect 54 0 23 1;
#X connect 55 0 41 1;
#X connect 56 0 51 0;
#X connect 58 0 6 0;
#X connect 59 0 25 0;
#X connect 59 2 19 0;
#X connect 60 0 51 0;
#X connect 60 0 57 0;
#X restore 185 -13 pd Grannys;
#X obj 419 74 r tick;
#X msg 419 179 /gr\$1 setParam stop 1;
#X floatatom 419 160 5 0 0 0 - - -;
#X obj 419 95 % 23;
#X obj 419 139 random 5;
#X obj 1157 4 pack 0 -7;
#X msg 951 -38 /ml\$1 event freq \$2 \$3;
#X obj 419 117 sel 0;
#N canvas 3 75 1009 665 GranularFiles 0;
#X obj 560 141 playlist all 400 300 {Helvetica 10 bold} #457782 yellow
black red;
#X obj 560 50 thisdir;
#X obj 560 72 makefilename %s/snd;
#X obj 562 30 bng 15 250 50 0 empty empty empty 17 7 0 10 -262144 -1
-1;
#X msg 560 94 location \$1;
#X obj 122 210 t a f;
#X obj 122 424 pack f s;
#X obj 122 188 t f b;
#X obj 215 174 random 200;
#X msg 215 196 seek \$1;
#X obj 121 480 s \$0-to-SPIN-TCP;
#X floatatom 124 116 5 0 0 0 - - -;
#X obj 116 33 inlet;
#X obj 116 55 random 5;
#X msg 123 456 /gr\$1 setParam path \$2;
#X connect 0 0 6 1;
#X connect 1 0 2 0;
#X connect 2 0 4 0;
#X connect 3 0 1 0;
#X connect 4 0 0 0;
#X connect 5 0 6 0;
#X connect 6 0 14 0;
#X connect 7 0 5 0;
#X connect 7 1 8 0;
#X connect 8 0 9 0;
#X connect 9 0 0 0;
#X connect 11 0 7 0;
#X connect 12 0 13 0;
#X connect 12 0 3 0;
#X connect 13 0 11 0;
#X connect 14 0 10 0;
#X restore 181 31 pd GranularFiles;
#X obj 184 9 bng 15 250 50 0 empty empty empty 17 7 0 10 -262144 -1
-1;
#X obj 764 24 bng 15 250 50 0 empty empty empty 17 7 0 10 -262144 -1
-1;
#X obj 608 307 s \$0-to-SPIN-TCP;
#X obj 607 281 r to-spin;
#X obj 15 59 abs/granula_control \$0 0;
#X obj 13 15 r gr_ctrl;
#X obj 13 37 sel 0 1 2 3 4;
#X obj 41 381 s ml_ctrl;
#X obj 224 75 sel 0 1 2 3 4;
#X obj 224 95 abs/ml-ctrl \$0 0;
#X obj 223 53 r ml_ctrl;
#X obj 201 242 sel 0 1 2 3 4;
#N canvas 457 422 450 300 monitor_and_delay 0;
#X floatatom 92 201 5 0 0 0 - - -;
#X obj 71 138 del 2500;
#X obj 71 158 t b b;
#X obj 71 180 expr random(0 \, 5);
#X obj 80 218 s gr_ctrl;
#X obj 78 63 inlet;
#X connect 1 0 2 0;
#X connect 2 0 3 0;
#X connect 3 0 0 0;
#X connect 3 0 4 0;
#X connect 5 0 1 0;
#X restore 200 265 pd monitor_and_delay;
#N canvas 457 428 450 300 monitor_and_delay 0;
#X floatatom 92 201 5 0 0 0 - - -;
#X obj 71 138 del 2500;
#X obj 71 158 t b b;
#X obj 71 180 expr random(0 \, 5);
#X obj 80 218 s gr_ctrl;
#X obj 78 63 inlet;
#X connect 1 0 2 0;
#X connect 2 0 3 0;
#X connect 3 0 0 0;
#X connect 3 0 4 0;
#X connect 5 0 1 0;
#X restore 200 285 pd monitor_and_delay;
#N canvas 457 428 450 300 monitor_and_delay 0;
#X floatatom 92 201 5 0 0 0 - - -;
#X obj 71 138 del 2500;
#X obj 71 158 t b b;
#X obj 71 180 expr random(0 \, 5);
#X obj 80 218 s gr_ctrl;
#X obj 78 63 inlet;
#X connect 1 0 2 0;
#X connect 2 0 3 0;
#X connect 3 0 0 0;
#X connect 3 0 4 0;
#X connect 5 0 1 0;
#X restore 200 305 pd monitor_and_delay;
#N canvas 457 428 450 300 monitor_and_delay 0;
#X floatatom 92 201 5 0 0 0 - - -;
#X obj 71 138 del 2500;
#X obj 71 158 t b b;
#X obj 71 180 expr random(0 \, 5);
#X obj 80 218 s gr_ctrl;
#X obj 78 63 inlet;
#X connect 1 0 2 0;
#X connect 2 0 3 0;
#X connect 3 0 0 0;
#X connect 3 0 4 0;
#X connect 5 0 1 0;
#X restore 200 325 pd monitor_and_delay;
#N canvas 457 428 450 300 monitor_and_delay 0;
#X floatatom 92 201 5 0 0 0 - - -;
#X obj 71 138 del 2500;
#X obj 71 158 t b b;
#X obj 71 180 expr random(0 \, 5);
#X obj 80 218 s gr_ctrl;
#X obj 78 63 inlet;
#X connect 1 0 2 0;
#X connect 2 0 3 0;
#X connect 3 0 0 0;
#X connect 3 0 4 0;
#X connect 5 0 1 0;
#X restore 200 345 pd monitor_and_delay;
#X obj 396 371 s \$0-to-SPIN-TCP;
#X obj 398 304 pack 0 0;
#X obj 398 223 bng 15 250 50 0 empty empty empty 17 7 0 10 -262144
-1 -1;
#X obj 398 243 t b b;
#X obj 467 286 expr random(1 \, 11)*0.1;
#X obj 540 364 prepend set;
#X msg 540 386 /snd28 setParam play 1;
#X msg 388 332 /snd\$1 setParam speed \$2 \, /snd\$1 setParam play
1;
#X obj 111 216 expr random(0 \, 5);
#X floatatom 287 215 5 0 0 0 - - -;
#X msg 538 492 createNode speech SoundNode \, /speech setTranslation
0.1 1 0.1 \, /speech setParam setMediaURI file:///home/mis/src/Re-Collect/snd/test-vox1.wav
\, /speech setParam loop0 \, /speech setParam play 1;
#N canvas 199 145 813 534 tell 0;
#X obj 44 392 s \$0-to-SPIN-TCP;
#X text 271 341 node 2;
#X text 286 300 translation 0 7 0;
#X text 286 310 spinnner:;
#X text 271 351 node 3;
#X text 271 331 node 1;
#X text 271 361 node 4;
#X text 271 371 node 5;
#X text 321 331 0 0 -45;
#X text 321 341 0 0 0;
#X text 321 351 0 0 45;
#X text 321 361 0 0 90;
#X text 322 371 0 0 135;
#X msg 186 436 /snd\$1 setParent spinner\$1 \, /snd\$1 setTranslation
0 4 0;
#X msg 155 415 createNode spinner\$1 GroupNode;
#X msg 46 19 createNode vox1 SoundNode \, /vox1 setTranslation 0 7
0 \, /vox1 setParam setMediaURI file:///home/mis/src/Re-Collect/snd/test-vox1.wav
\, /vox1 setParam loop 0 \, /vox1 setParam play 1 \, createNode vox1group
GroupNode \, /vox1 setParent vox1group \, /vox1group setOrientation
0 0 -45;
#X obj 432 205 s \$0-to-SPIN-TCP;
#X msg 57 109 createNode vox2 SoundNode \, /vox2 setTranslation 0 7
0 \, /vox2 setParam setMediaURI file:///home/mis/src/Re-Collect/snd/test-vox1.wav
\, /vox2 setParam loop 0 \, /vox2 setParam play 1 \, createNode vox2group
GroupNode \, /vox2 setParent vox2group \, /vox2group setOrientation
0 0 0;
#X msg 69 195 createNode vox3 SoundNode \, /vox3 setTranslation 0 7
0 \, /vox3 setParam setMediaURI file:///home/mis/src/Re-Collect/snd/test-vox1.wav
\, /vox3 setParam loop 0 \, /vox3 setParam play 1 \, createNode vox3group
GroupNode \, /vox3 setParent vox3group \, /vox3group setOrientation
0 0 45;
#X msg 427 19 createNode vox4 SoundNode \, /vox4 setTranslation 0 7
0 \, /vox4 setParam setMediaURI file:///home/mis/src/Re-Collect/snd/test-vox1.wav
\, /vox4 setParam loop 0 \, /vox4 setParam play 1 \, createNode vox4group
GroupNode \, /vox4 setParent vox4group \, /vox4group setOrientation
0 0 90;
#X msg 438 105 createNode vox5 SoundNode \, /vox5 setTranslation 0
7 0 \, /vox5 setParam setMediaURI file:///home/mis/src/Re-Collect/snd/test-vox1.wav
\, /vox5 setParam loop 0 \, /vox5 setParam play 1 \, createNode vox5group
GroupNode \, /vox5 setParent vox5group \, /vox5group setOrientation
0 0 135;
#X msg 513 262 /vox1 setParam play 1;
#X msg 513 282 /vox2 setParam play 1;
#X msg 513 301 /vox3 setParam play 1;
#X msg 513 323 /vox4 setParam play 1;
#X msg 513 343 /vox5 setParam play 1;
#X obj 653 240 r Trigger1;
#X obj 652 262 r Trigger2;
#X obj 651 282 r Trigger3;
#X obj 651 301 r Trigger4;
#X obj 653 323 r Trigger5;
#X obj 535 438 s \$0-to-SPIN-TCP;
#X connect 15 0 0 0;
#X connect 17 0 0 0;
#X connect 18 0 0 0;
#X connect 19 0 16 0;
#X connect 20 0 16 0;
#X connect 21 0 31 0;
#X connect 22 0 31 0;
#X connect 23 0 31 0;
#X connect 24 0 31 0;
#X connect 25 0 31 0;
#X connect 26 0 21 0;
#X connect 27 0 22 0;
#X connect 28 0 23 0;
#X connect 29 0 24 0;
#X connect 30 0 25 0;
#X restore 246 -71 pd tell me;
#X obj 14 290 s blitTrig;
#X msg 45 262 0;
#X obj 224 114 abs/ml-ctrl \$0 1;
#X obj 224 135 abs/ml-ctrl \$0 2;
#X obj 224 155 abs/ml-ctrl \$0 3;
#X obj 224 175 abs/ml-ctrl \$0 4;
#X obj 15 79 abs/granula_control \$0 1;
#X obj 15 99 abs/granula_control \$0 2;
#X obj 15 119 abs/granula_control \$0 3;
#X obj 15 139 abs/granula_control \$0 4;
#X obj 398 265 expr random(25 \, 30);
#X connect 0 0 1 0;
#X connect 2 0 85 0;
#X connect 4 0 104 0;
#X connect 5 0 6 0;
#X connect 7 0 122 0;
#X connect 7 0 127 0;
#X connect 10 0 11 0;
#X connect 12 0 122 0;
#X connect 13 0 0 0;
#X connect 15 0 14 0;
#X connect 16 0 43 0;
#X connect 17 0 16 0;
#X connect 18 0 19 0;
#X connect 19 0 21 0;
#X connect 19 0 36 1;
#X connect 19 1 60 0;
#X connect 20 0 43 0;
#X connect 21 0 20 0;
#X connect 23 0 24 0;
#X connect 23 0 25 0;
#X connect 25 0 26 0;
#X connect 25 1 30 0;
#X connect 26 0 27 0;
#X connect 27 0 28 0;
#X connect 28 0 29 0;
#X connect 29 0 31 0;
#X connect 30 0 27 1;
#X connect 31 0 34 0;
#X connect 31 1 33 0;
#X connect 31 2 32 0;
#X connect 32 0 35 2;
#X connect 33 0 35 1;
#X connect 34 0 35 0;
#X connect 35 0 36 0;
#X connect 36 0 37 0;
#X connect 37 0 83 0;
#X connect 38 0 39 0;
#X connect 40 0 46 0;
#X connect 40 0 44 0;
#X connect 41 0 40 0;
#X connect 41 0 55 1;
#X connect 41 0 93 0;
#X connect 44 0 45 0;
#X connect 46 0 42 0;
#X connect 47 0 42 0;
#X connect 48 0 47 0;
#X connect 51 0 56 0;
#X connect 51 1 53 0;
#X connect 52 0 51 0;
#X connect 54 0 51 1;
#X connect 55 0 57 0;
#X connect 56 0 55 0;
#X connect 56 1 57 1;
#X connect 57 0 94 0;
#X connect 58 0 59 0;
#X connect 60 0 21 1;
#X connect 60 0 22 0;
#X connect 61 0 64 0;
#X connect 62 0 41 0;
#X connect 64 0 65 0;
#X connect 65 0 66 0;
#X connect 65 0 63 0;
#X connect 66 0 65 1;
#X connect 67 0 68 0;
#X connect 68 0 73 0;
#X connect 69 0 70 0;
#X connect 70 0 74 0;
#X connect 71 0 72 0;
#X connect 73 0 52 0;
#X connect 74 0 62 0;
#X connect 75 0 76 0;
#X connect 75 0 84 0;
#X connect 77 0 78 0;
#X connect 79 0 93 1;
#X connect 80 0 93 0;
#X connect 82 0 81 0;
#X connect 86 0 87 0;
#X connect 88 0 91 0;
#X connect 89 0 43 0;
#X connect 90 0 89 0;
#X connect 91 0 95 0;
#X connect 92 0 90 0;
#X connect 93 0 77 0;
#X connect 94 0 42 0;
#X connect 94 0 58 0;
#X connect 95 0 92 0;
#X connect 97 0 96 0;
#X connect 98 0 84 0;
#X connect 100 0 99 0;
#X connect 102 0 103 0;
#X connect 103 0 101 0;
#X connect 103 1 132 0;
#X connect 103 2 133 0;
#X connect 103 3 134 0;
#X connect 103 4 135 0;
#X connect 105 0 106 0;
#X connect 105 1 128 0;
#X connect 105 2 129 0;
#X connect 105 3 130 0;
#X connect 105 4 131 0;
#X connect 107 0 105 0;
#X connect 108 0 109 0;
#X connect 108 1 110 0;
#X connect 108 1 116 0;
#X connect 108 2 111 0;
#X connect 108 3 112 0;
#X connect 108 3 116 0;
#X connect 108 4 113 0;
#X connect 115 0 121 0;
#X connect 116 0 117 0;
#X connect 117 0 136 0;
#X connect 117 1 118 0;
#X connect 118 0 115 1;
#X connect 119 0 120 0;
#X connect 121 0 114 0;
#X connect 121 0 119 0;
#X connect 122 0 4 0;
#X connect 122 0 108 0;
#X connect 122 0 123 0;
#X connect 127 0 126 0;
#X connect 136 0 115 0;
