#N canvas 722 335 1195 707 10;
#X declare -lib mrpeach;
#X declare -lib mrpeach;
#X declare -lib mrpeach;
#X declare -lib mrpeach;
#X declare -lib mrpeach;
#X declare -lib mrpeach;
#X declare -lib mrpeach;
#X declare -lib mrpeach;
#X declare -lib mrpeach;
#X declare -lib mrpeach;
#X declare -lib mrpeach;
#X declare -lib mrpeach;
#X declare -lib mrpeach;
#X declare -lib mrpeach;
#X declare -lib mrpeach;
#X declare -lib mrpeach;
#X declare -lib mrpeach;
#X declare -lib mrpeach;
#X declare -lib mrpeach;
#X declare -lib mrpeach;
#X declare -lib mrpeach;
#X declare -lib mrpeach;
#X declare -lib mrpeach;
#X declare -lib mrpeach;
#X declare -lib mrpeach;
#X declare -lib mrpeach;
#X obj 5 -114 bng 15 250 50 0 empty empty empty 17 7 0 10 -262144 -1
-1;
#N canvas 3 77 1009 665 audio_ctl+spin 0;
#X msg 57 67 createNode listener0 Listener;
#X obj 550 131 playlist all 400 300 {Helvetica 10 bold} #457782 yellow
black red;
#X obj 550 40 thisdir;
#X obj 550 62 makefilename %s/snd;
#X obj 552 20 bng 15 250 50 0 empty empty empty 17 7 0 10 -262144 -1
-1;
#X msg 550 84 location \$1;
#X obj 112 112 until;
#X obj 222 156 moses 11;
#X obj 112 178 t f f;
#X obj 57 496 s \$0-to-SPIN-TCP;
#X obj 139 247 s \$0-to-SPIN-TCP;
#X obj 112 200 t a f;
#X obj 112 414 pack f s;
#N canvas 273 156 488 456 sines 0;
#X obj 64 20 inlet;
#X obj 91 85 s \$0-to-SPIN-TCP;
#X obj 64 42 t f f;
#X obj 64 270 s \$0-to-SPIN-TCP;
#X obj 64 108 t a b b;
#X obj 103 130 expr random(7 \, 20);
#X obj 83 150 expr random(1000 \, 10000) * 0.01;
#X obj 83 173 *;
#X obj 64 204 pack f f;
#X msg 64 236 /snd\$1 setParam setMediaURI pyo://Sine \, /snd\$1 setParam
mul 0.1 \, /snd\$1 setParam freq \$2;
#X msg 91 63 createNode snd\$1 SoundNode \, /snd\$1 setParent con\$1
;
#X connect 0 0 2 0;
#X connect 2 0 4 0;
#X connect 2 1 10 0;
#X connect 4 0 8 0;
#X connect 4 1 6 0;
#X connect 4 2 5 0;
#X connect 5 0 7 1;
#X connect 6 0 7 0;
#X connect 7 0 8 1;
#X connect 8 0 9 0;
#X connect 9 0 3 0;
#X connect 10 0 1 0;
#X restore 292 165 pd sines;
#X obj 276 542 print;
#X obj 550 435 print playlist;
#X msg 381 181 seek \$1;
#X obj 262 12 inlet;
#X obj 262 34 t b b b;
#X msg 139 224 createNode snd\$1 SoundNode;
#X text 199 315 Offset the sound by 4m along the y-axis so that it
appears to orbit around the spinner:;
#X text 581 543 <- set the spinner speed;
#X obj 150 319 t f f;
#X obj 162 391 s \$0-to-SPIN-TCP;
#X msg 162 369 /snd\$1 setParent spinner\$1 \, /snd\$1 setTranslation
0 4 0;
#X obj 135 289 moses 5;
#X obj 221 203 sel 1;
#X obj 112 134 counter 30;
#X msg 112 90 30;
#N canvas 440 142 450 300 spinners 0;
#X obj 75 17 inlet;
#X floatatom 106 182 5 0 0 1 (deg/sec) - -;
#X msg 135 159 0;
#X obj 75 66 until;
#X msg 105 159 \$1;
#X obj 102 134 random 50;
#X obj 75 204 pack f f;
#X msg 73 225 /spinner\$1 setSpin 0 0 \$2;
#X obj 73 244 s \$0-to-SPIN-TCP;
#X obj 75 88 counter 5 30;
#X msg 75 44 30;
#X obj 75 110 t f b b;
#X connect 0 0 10 0;
#X connect 1 0 6 1;
#X connect 2 0 1 0;
#X connect 3 0 9 0;
#X connect 4 0 1 0;
#X connect 5 0 4 0;
#X connect 6 0 7 0;
#X connect 7 0 8 0;
#X connect 9 0 11 0;
#X connect 10 0 3 0;
#X connect 11 0 6 0;
#X connect 11 1 5 0;
#X restore 319 531 pd spinners;
#X msg 168 346 createNode spinner\$1 GroupNode;
#X msg 112 446 /snd\$1 setDirectivityFlag 1 \, /snd\$1 setParam setMediaURI
file://\$2 \, /snd\$1 setParam loop 0 \, /snd\$1 setParam stop 1;
#X connect 0 0 9 0;
#X connect 1 0 15 0;
#X connect 1 0 12 1;
#X connect 2 0 3 0;
#X connect 3 0 5 0;
#X connect 4 0 2 0;
#X connect 5 0 1 0;
#X connect 6 0 27 0;
#X connect 7 0 8 0;
#X connect 7 1 13 0;
#X connect 8 0 11 0;
#X connect 8 1 16 0;
#X connect 11 0 12 0;
#X connect 11 0 25 0;
#X connect 11 1 19 0;
#X connect 12 0 31 0;
#X connect 16 0 1 0;
#X connect 17 0 18 0;
#X connect 18 0 28 0;
#X connect 18 1 0 0;
#X connect 18 2 4 0;
#X connect 19 0 10 0;
#X connect 22 0 24 0;
#X connect 22 1 30 0;
#X connect 24 0 23 0;
#X connect 25 1 22 0;
#X connect 26 0 29 0;
#X connect 27 0 8 0;
#X connect 27 2 26 0;
#X connect 28 0 6 0;
#X connect 30 0 23 0;
#X connect 31 0 9 0;
#X connect 31 0 14 0;
#X restore 4 -96 pd audio_ctl+spin;
#X obj 6 -183 widget-spinConnect \$0;
#X obj 337 -184 widget-nodeEditor \$0;
#X obj 251 357 s \$0-to-SPIN-TCP;
#X floatatom 251 279 5 0 0 0 - - -;
#X obj 251 116 r entrance;
#X msg 251 138 3;
#X obj 322 116 r cluster;
#X obj 321 136 expr random(4 \, 9);
#X obj 325 241 expr random(10 \, 23);
#X obj 325 159 b;
#X text 351 156 monitor activity;
#X floatatom 346 262 5 0 0 0 - - -;
#X obj 383 182 bng 15 250 50 0 empty empty empty 17 7 0 10 -262144
-1 -1;
#X obj 325 181 del 2500;
#X obj 348 -215 testAll;
#N canvas 359 203 548 276 spinners 0;
#X obj 17 4 abs/spinzone \$0 6 1;
#X obj 137 4 abs/spinzone \$0 12 2;
#X obj 257 4 abs/spinzone \$0 18 3;
#X obj 377 4 abs/spinzone \$0 24 4;
#X obj 16 124 abs/spinzone \$0 30 5;
#X obj 17 -16 abs/spinzone \$0 5 5;
#X obj 17 24 abs/spinzone \$0 7 7;
#X obj 17 44 abs/spinzone \$0 8 8;
#X obj 17 64 abs/spinzone \$0 9 9;
#X obj 17 84 abs/spinzone \$0 10 10;
#X obj 16 105 abs/spinzone \$0 29 29;
#X obj 137 -15 abs/spinzone \$0 11 11;
#X obj 136 24 abs/spinzone \$0 13 13;
#X obj 137 43 abs/spinzone \$0 14 14;
#X obj 136 64 abs/spinzone \$0 15 15;
#X obj 137 83 abs/spinzone \$0 16 16;
#X obj 257 -16 abs/spinzone \$0 17 17;
#X obj 256 24 abs/spinzone \$0 19 19;
#X obj 257 43 abs/spinzone \$0 20 20;
#X obj 257 64 abs/spinzone \$0 21 21;
#X obj 257 83 abs/spinzone \$0 22 22;
#X obj 378 -16 abs/spinzone \$0 23 23;
#X obj 376 24 abs/spinzone \$0 25 25;
#X obj 377 42 abs/spinzone \$0 26 26;
#X obj 377 64 abs/spinzone \$0 27 27;
#X obj 377 83 abs/spinzone \$0 28 28;
#X restore 113 -95 pd spinners;
#X obj 6 -223 loadbang;
#X msg 6 -203 ReCollect;
#X obj 325 203 t b b;
#X obj 364 309 pack f f;
#X msg 251 337 /snd\$1 setParam play 1 \, /snd\$1 setParam speed \$2
;
#X floatatom 509 292 5 0 0 0 - - -;
#X obj 442 110 bng 15 250 50 0 empty empty empty 17 7 0 10 -262144
-1 -1;
#X obj 490 251 expr random(-200 \, 200)*0.01;
#X obj 5 -134 del 2000;
#X msg 132 223 /snd\$1 setParam play 1 \, /snd\$1 setParam speed 1
;
#N canvas 647 411 1009 665 pulsars 0;
#X msg 57 67 createNode listener0 Listener;
#X obj 550 131 playlist all 400 300 {Helvetica 10 bold} #457782 yellow
black red;
#X obj 550 40 thisdir;
#X obj 550 62 makefilename %s/snd;
#X obj 552 20 bng 15 250 50 0 empty empty empty 17 7 0 10 -262144 -1
-1;
#X msg 550 84 location \$1;
#X obj 112 112 until;
#X obj 222 156 moses 11;
#X obj 112 178 t f f;
#X obj 57 496 s \$0-to-SPIN-TCP;
#X obj 139 247 s \$0-to-SPIN-TCP;
#X obj 112 200 t a f;
#X obj 112 414 pack f s;
#N canvas 273 156 488 456 sines 0;
#X obj 64 20 inlet;
#X obj 91 85 s \$0-to-SPIN-TCP;
#X obj 64 42 t f f;
#X obj 64 270 s \$0-to-SPIN-TCP;
#X obj 64 108 t a b b;
#X obj 103 130 expr random(7 \, 20);
#X obj 83 150 expr random(1000 \, 10000) * 0.01;
#X obj 83 173 *;
#X obj 64 204 pack f f;
#X msg 64 236 /snd\$1 setParam setMediaURI pyo://Sine \, /snd\$1 setParam
mul 0.1 \, /snd\$1 setParam freq \$2;
#X msg 91 63 createNode snd\$1 SoundNode \, /snd\$1 setParent con\$1
;
#X connect 0 0 2 0;
#X connect 2 0 4 0;
#X connect 2 1 10 0;
#X connect 4 0 8 0;
#X connect 4 1 6 0;
#X connect 4 2 5 0;
#X connect 5 0 7 1;
#X connect 6 0 7 0;
#X connect 7 0 8 1;
#X connect 8 0 9 0;
#X connect 9 0 3 0;
#X connect 10 0 1 0;
#X restore 292 165 pd sines;
#X obj 276 542 print;
#X obj 550 435 print playlist;
#X msg 381 181 seek \$1;
#X obj 262 12 inlet;
#X obj 262 34 t b b b;
#X text 199 315 Offset the sound by 4m along the y-axis so that it
appears to orbit around the spinner:;
#X text 581 543 <- set the spinner speed;
#X obj 150 319 t f f;
#X obj 162 391 s \$0-to-SPIN-TCP;
#X obj 135 289 moses 5;
#X obj 221 203 sel 1;
#X obj 112 134 counter 30;
#X msg 112 90 30;
#X msg 139 224 createNode pulse\$1 SoundNode;
#X msg 162 369 /pulse\$1 setParent spinner\$1 \, /pulse\$1 setTranslation
0 4 0;
#X msg 112 446 /pulse\$1 setDirectivityFlag 1 \, /pulse\$1 setParam
setMediaURI plugin://PulsarSampler \, /pulse\$1 setParam path \$2 \,
/pulse\$1 setParam stop 1;
#X connect 0 0 9 0;
#X connect 1 0 15 0;
#X connect 1 0 12 1;
#X connect 2 0 3 0;
#X connect 3 0 5 0;
#X connect 4 0 2 0;
#X connect 5 0 1 0;
#X connect 6 0 25 0;
#X connect 7 0 8 0;
#X connect 7 1 13 0;
#X connect 8 0 11 0;
#X connect 8 1 16 0;
#X connect 11 0 12 0;
#X connect 11 0 23 0;
#X connect 11 1 27 0;
#X connect 12 0 29 0;
#X connect 16 0 1 0;
#X connect 17 0 18 0;
#X connect 18 0 26 0;
#X connect 18 1 0 0;
#X connect 18 2 4 0;
#X connect 21 0 28 0;
#X connect 23 1 21 0;
#X connect 25 0 8 0;
#X connect 25 2 24 0;
#X connect 26 0 6 0;
#X connect 27 0 10 0;
#X connect 28 0 22 0;
#X connect 29 0 9 0;
#X connect 29 0 14 0;
#X restore 690 -94 pd pulsars;
#X obj 691 -119 bng 15 250 50 0 empty empty empty 17 7 0 10 -262144
-1 -1;
#X msg 583 187 /pulse\$1 setParam stop 1;
#X floatatom 777 170 5 0 0 0 - - -;
#X floatatom 552 57 5 0 0 0 - - -;
#X obj 552 78 t a b;
#X msg 551 148 /pulse\$1 setParam play 1 \, /pulse\$1 setParam freq
\$2;
#X obj 552 120 pack;
#X floatatom 591 123 5 0 0 0 - - -;
#X obj 579 100 expr random(0 \, 1000)*0.1;
#X obj 926 103 r LED-5;
#X floatatom 978 124 5 0 0 0 - - -;
#X obj 926 125 t f f;
#X obj 918 149 < 0.6;
#X obj 918 171 &&;
#X obj 918 193 sel 1;
#X obj 917 214 bng 15 250 50 0 empty empty empty 17 7 0 10 -262144
-1 -1;
#X obj 955 148 > 0.555;
#X obj 917 234 t b b b;
#X obj 955 260 expr random(0 \, 100)*0.1;
#X obj 939 286 expr random(0 \, 100)*0.1;
#X obj 908 309 expr random(0 \, 100)*0.1;
#X obj 872 352 pack f f f;
#X obj 823 376 prepend;
#X msg 787 408 /pulse\$1 setParam lfo_freq \$1 \, /pulse\$1 setParam
lfo_add \$2 \, /pulse\$1 setParam lfo_mul \$3 \, /pulse\$1 setParam
freq \$4;
#X obj 761 -119 bng 15 250 50 0 empty empty empty 17 7 0 10 -262144
-1 -1;
#N canvas 647 401 1009 665 MicroLoops 1;
#X msg 57 67 createNode listener0 Listener;
#X obj 550 131 playlist all 400 300 {Helvetica 10 bold} #457782 yellow
black red;
#X obj 550 40 thisdir;
#X obj 550 62 makefilename %s/snd;
#X obj 552 20 bng 15 250 50 0 empty empty empty 17 7 0 10 -262144 -1
-1;
#X msg 550 84 location \$1;
#X obj 112 112 until;
#X obj 222 156 moses 11;
#X obj 112 178 t f f;
#X obj 57 496 s \$0-to-SPIN-TCP;
#X obj 139 247 s \$0-to-SPIN-TCP;
#X obj 112 200 t a f;
#X obj 112 414 pack f s;
#N canvas 273 156 488 456 sines 0;
#X obj 64 20 inlet;
#X obj 91 85 s \$0-to-SPIN-TCP;
#X obj 64 42 t f f;
#X obj 64 270 s \$0-to-SPIN-TCP;
#X obj 64 108 t a b b;
#X obj 103 130 expr random(7 \, 20);
#X obj 83 150 expr random(1000 \, 10000) * 0.01;
#X obj 83 173 *;
#X obj 64 204 pack f f;
#X msg 64 236 /snd\$1 setParam setMediaURI pyo://Sine \, /snd\$1 setParam
mul 0.1 \, /snd\$1 setParam freq \$2;
#X msg 91 63 createNode snd\$1 SoundNode \, /snd\$1 setParent con\$1
;
#X connect 0 0 2 0;
#X connect 2 0 4 0;
#X connect 2 1 10 0;
#X connect 4 0 8 0;
#X connect 4 1 6 0;
#X connect 4 2 5 0;
#X connect 5 0 7 1;
#X connect 6 0 7 0;
#X connect 7 0 8 1;
#X connect 8 0 9 0;
#X connect 9 0 3 0;
#X connect 10 0 1 0;
#X restore 292 165 pd sines;
#X obj 276 542 print;
#X obj 550 435 print playlist;
#X msg 381 181 seek \$1;
#X obj 262 12 inlet;
#X obj 262 34 t b b b;
#X text 199 315 Offset the sound by 4m along the y-axis so that it
appears to orbit around the spinner:;
#X obj 150 319 t f f;
#X obj 162 391 s \$0-to-SPIN-TCP;
#X obj 135 289 moses 5;
#X obj 221 203 sel 1;
#X obj 112 134 counter 30;
#X msg 112 90 30;
#X msg 139 224 createNode ml\$1 SoundNode;
#X msg 162 369 /ml\$1 setParent spinner\$1 \, /ml\$1 setTranslation
0 4 0;
#X obj 238 13 bng 15 250 50 0 empty empty empty 17 7 0 10 -262144 -1
-1;
#X msg 175 89 0;
#X obj 199 114 bng 15 250 50 0 empty empty empty 17 7 0 10 -262144
-1 -1;
#X msg 113 446 /ml\$1 setDirectivityFlag 1 \, /ml\$1 setParam setMediaURI
plugin://MicroLooper \, /ml\$1 setParam path \$2 \, /ml\$1 setParam
stop 1;
#X connect 0 0 9 0;
#X connect 1 0 15 0;
#X connect 1 0 12 1;
#X connect 2 0 3 0;
#X connect 3 0 5 0;
#X connect 4 0 2 0;
#X connect 5 0 1 0;
#X connect 6 0 24 0;
#X connect 7 0 8 0;
#X connect 7 1 13 0;
#X connect 8 0 11 0;
#X connect 8 1 16 0;
#X connect 11 0 12 0;
#X connect 11 0 22 0;
#X connect 11 1 26 0;
#X connect 12 0 31 0;
#X connect 16 0 1 0;
#X connect 17 0 18 0;
#X connect 18 0 25 0;
#X connect 18 1 0 0;
#X connect 18 2 4 0;
#X connect 20 0 27 0;
#X connect 22 1 20 0;
#X connect 24 0 8 0;
#X connect 24 2 23 0;
#X connect 25 0 6 0;
#X connect 26 0 10 0;
#X connect 27 0 21 0;
#X connect 28 0 18 0;
#X connect 29 0 24 2;
#X connect 30 0 24 0;
#X connect 31 0 9 0;
#X connect 31 0 14 0;
#X restore 760 -94 pd MicroLoops;
#N canvas 722 230 450 300 randombits 0;
#X obj 114 35 inlet;
#X obj 114 57 t f b b b;
#X obj 114 149 pack f f f f;
#X obj 114 171 outlet;
#X obj 131 120 expr random(1 \, 500) * 0.1;
#X obj 165 79 expr random(1 \, 1000)*0.1;
#X obj 148 99 expr random(0 \, 70)*0.01;
#X connect 0 0 1 0;
#X connect 1 0 2 0;
#X connect 1 1 4 0;
#X connect 1 2 6 0;
#X connect 1 3 5 0;
#X connect 2 0 3 0;
#X connect 4 0 2 1;
#X connect 5 0 2 3;
#X connect 6 0 2 2;
#X restore 919 -121 pd randombits;
#X floatatom 917 -142 5 0 0 0 - - -;
#X obj 800 18 s \$0-to-SPIN-TCP;
#X obj 567 217 s \$0-to-SPIN-TCP;
#X obj 919 -99 prepend set;
#X msg 919 -77 13 47.6 0.5 50.4;
#X msg 799 -16 /ml\$1 setParam pitch \$2 \, /ml\$1 setParam start \$3
\, /ml\$1 setParam dur \$4 \, /ml\$1 setParam play 1;
#X msg 959 46 /ml\$1 setParam stop 1;
#X floatatom 956 25 5 0 0 0 - - -;
#X connect 0 0 1 0;
#X connect 2 0 26 0;
#X connect 5 0 21 0;
#X connect 6 0 7 0;
#X connect 7 0 27 0;
#X connect 8 0 9 0;
#X connect 9 0 5 0;
#X connect 9 0 11 0;
#X connect 10 0 5 0;
#X connect 10 0 13 0;
#X connect 11 0 15 0;
#X connect 15 0 14 0;
#X connect 15 0 20 0;
#X connect 18 0 19 0;
#X connect 19 0 2 0;
#X connect 20 0 10 0;
#X connect 20 1 25 0;
#X connect 21 0 22 0;
#X connect 22 0 4 0;
#X connect 24 0 9 0;
#X connect 25 0 21 1;
#X connect 25 0 23 0;
#X connect 26 0 0 0;
#X connect 27 0 4 0;
#X connect 29 0 28 0;
#X connect 30 0 58 0;
#X connect 31 0 30 0;
#X connect 32 0 33 0;
#X connect 33 0 35 0;
#X connect 33 0 51 1;
#X connect 33 1 37 0;
#X connect 34 0 58 0;
#X connect 35 0 34 0;
#X connect 37 0 35 1;
#X connect 37 0 36 0;
#X connect 38 0 39 0;
#X connect 38 0 40 0;
#X connect 40 0 41 0;
#X connect 40 1 45 0;
#X connect 41 0 42 0;
#X connect 42 0 43 0;
#X connect 43 0 44 0;
#X connect 44 0 46 0;
#X connect 45 0 42 1;
#X connect 46 0 49 0;
#X connect 46 1 48 0;
#X connect 46 2 47 0;
#X connect 47 0 50 2;
#X connect 48 0 50 1;
#X connect 49 0 50 0;
#X connect 50 0 51 0;
#X connect 51 0 52 0;
#X connect 52 0 4 0;
#X connect 53 0 54 0;
#X connect 55 0 61 0;
#X connect 55 0 59 0;
#X connect 56 0 55 0;
#X connect 59 0 60 0;
#X connect 61 0 57 0;
#X connect 62 0 57 0;
#X connect 63 0 62 0;
