#N canvas 4 75 826 454 10;
#X obj 19 13 cnv 15 150 200 empty empty PIR 20 12 0 14 -203904 -66577
0;
#X obj 24 107 abs/convert.ascii2pd CR;
#X obj 24 86 comport 32 57600;
#X msg 24 39 devices;
#X msg 32 60 open \$1;
#X floatatom 85 60 5 0 0 0 - - -;
#X obj 24 169 route 0 1 2 3 4 5;
#X obj 24 190 tgl 15 0 empty empty empty 17 7 0 10 -262144 -1 -1 0
1;
#X obj 40 190 tgl 15 0 empty empty empty 17 7 0 10 -262144 -1 -1 0
1;
#X obj 57 190 tgl 15 0 empty empty empty 17 7 0 10 -262144 -1 -1 0
1;
#X obj 73 190 tgl 15 0 empty empty empty 17 7 0 10 -262144 -1 -1 0
1;
#X obj 90 190 tgl 15 0 empty empty empty 17 7 0 10 -262144 -1 -1 1
1;
#X obj 106 190 tgl 15 0 empty empty empty 17 7 0 10 -262144 -1 -1 0
1;
#X obj 24 148 l2i;
#X obj 24 129 route LF;
#X obj 272 25 abs/LEDslider;
#X obj 282 25 abs/LEDslider;
#X obj 292 25 abs/LEDslider;
#X obj 302 25 abs/LEDslider;
#X obj 312 25 abs/LEDslider;
#X obj 322 25 abs/LEDslider;
#X obj 332 25 abs/LEDslider;
#X obj 342 25 abs/LEDslider;
#X obj 352 25 abs/LEDslider;
#X obj 362 25 abs/LEDslider;
#X obj 372 25 abs/LEDslider;
#X obj 382 25 abs/LEDslider;
#X obj 392 25 abs/LEDslider;
#X obj 402 25 abs/LEDslider;
#X obj 412 25 abs/LEDslider;
#X obj 422 25 abs/LEDslider;
#X obj 432 25 abs/LEDslider;
#X obj 442 25 abs/LEDslider;
#X obj 452 25 abs/LEDslider;
#X obj 462 25 abs/LEDslider;
#X obj 472 25 abs/LEDslider;
#X obj 482 25 abs/LEDslider;
#X obj 492 25 abs/LEDslider;
#X obj 502 25 abs/LEDslider;
#X obj 512 25 abs/LEDslider;
#X obj 522 25 abs/LEDslider;
#X obj 532 25 abs/LEDslider;
#X obj 542 25 abs/LEDslider;
#X obj 552 25 abs/LEDslider;
#X obj 562 25 abs/LEDslider;
#X obj 245 117 pack 0 0 0 0 0 0 0 0 0 0 0 0 0 0 0 0 0 0 0 0 0 0 0 0
0 0 0 0 0 0;
#X connect 1 0 14 0;
#X connect 2 0 1 0;
#X connect 3 0 2 0;
#X connect 4 0 2 0;
#X connect 5 0 4 0;
#X connect 6 0 7 0;
#X connect 6 1 8 0;
#X connect 6 2 9 0;
#X connect 6 3 10 0;
#X connect 6 4 11 0;
#X connect 6 5 12 0;
#X connect 13 0 6 0;
#X connect 14 1 13 0;
#X connect 15 0 45 0;
#X connect 16 0 45 1;
#X connect 17 0 45 2;
#X connect 18 0 45 3;
#X connect 19 0 45 4;
#X connect 20 0 45 5;
#X connect 21 0 45 6;
#X connect 22 0 45 7;
#X connect 23 0 45 8;
#X connect 24 0 45 9;
#X connect 25 0 45 10;
#X connect 26 0 45 11;
#X connect 27 0 45 12;
#X connect 28 0 45 13;
#X connect 29 0 45 14;
#X connect 30 0 45 15;
#X connect 31 0 45 16;
#X connect 32 0 45 17;
#X connect 33 0 45 18;
#X connect 34 0 45 19;
#X connect 35 0 45 20;
#X connect 36 0 45 21;
#X connect 37 0 45 22;
#X connect 38 0 45 23;
#X connect 39 0 45 24;
#X connect 40 0 45 25;
#X connect 41 0 45 26;
#X connect 42 0 45 27;
#X connect 43 0 45 28;
#X connect 44 0 45 29;
