#N canvas 913 78 826 560 10;
#X obj 20 13 cnv 15 150 200 empty empty PIR 20 12 0 14 -203904 -66577
0;
#X obj 24 107 abs/convert.ascii2pd CR;
#X msg 24 39 devices;
#X msg 32 60 open \$1;
#X floatatom 85 60 5 0 0 0 - - -;
#X obj 24 169 route 0 1 2 3 4 5;
#X obj 24 190 tgl 15 0 empty empty empty 17 7 0 10 -262144 -1 -1 0
1;
#X obj 40 190 tgl 15 0 empty empty empty 17 7 0 10 -262144 -1 -1 0
1;
#X obj 57 190 tgl 15 0 empty empty empty 17 7 0 10 -262144 -1 -1 0
1;
#X obj 73 190 tgl 15 0 empty empty empty 17 7 0 10 -262144 -1 -1 0
1;
#X obj 90 190 tgl 15 0 empty empty empty 17 7 0 10 -262144 -1 -1 0
1;
#X obj 106 190 tgl 15 0 empty empty empty 17 7 0 10 -262144 -1 -1 0
1;
#X obj 24 148 l2i;
#X obj 24 129 route LF;
#X obj 173 13 cnv 15 580 210 empty empty LEDs 20 12 0 14 -203904 -66577
0;
#X obj 290 166 prepend set;
#X msg 290 188 0 0 0 0 0 7 0 0 0 0 0 7 0 0 0 0 0 7 0 0 0 0 0 7 0 0
0 0 0 7;
#X obj 184 107 pack 0 0 0 0 0 0 0 0 0 0 0 0 0 0 0 0 0 0 0 0 0 0 0 0
0 0 0 0 0 0;
#N canvas 3 75 450 300 (subpatch) 0;
#X array \$0-LED 19 float 3;
#A 0 0.00383888 0.0181247 0.0109818 0.0109818 0.0109818 0.0109818 0.0109818
0.0109818 0.0109818 0.0109818 0.0109818 0.00383888 -0.00330402 -0.00330402
-0.00330402 0.00383888 0.00383888 0.00383888 0.00383888;
#X coords 0 1 19 0 200 140 1 0 0;
#X restore 543 28 graph;
#X obj 184 181 prepend 255;
#X obj 290 146 r \$0-vizu;
#X obj 184 141 s \$0-vizu;
#X obj 184 161 r \$0-vizu;
#X obj 402 139 cnv 15 120 40 empty empty Table_based 20 12 0 14 -204800
-66577 0;
#N canvas 3 75 450 300 read-table 0;
#X obj 90 150 tabread \$0-LED;
#X obj 92 58 tgl 15 0 empty empty empty 17 7 0 10 -262144 -1 -1 0 1
;
#X obj 90 130 counter 30;
#X obj 90 191 int;
#X obj 90 170 expr 127 * pow(($f1 * 0.8 + 0.2) \, 1.75);
#X obj 90 213 list-group 31;
#X obj 90 233 s \$0-vizu;
#X obj 92 29 inlet;
#X obj 90 78 metro 10;
#X obj 144 101 s tick;
#X obj 90 100 t b b;
#X floatatom 165 63 5 0 0 0 - - -;
#X connect 0 0 4 0;
#X connect 1 0 8 0;
#X connect 2 0 0 0;
#X connect 3 0 5 0;
#X connect 4 0 3 0;
#X connect 5 0 6 0;
#X connect 7 0 1 0;
#X connect 8 0 10 0;
#X connect 10 0 2 0;
#X connect 10 1 9 0;
#X connect 11 0 8 1;
#X restore 430 160 pd read-table;
#X obj 412 160 tgl 15 0 empty empty empty 17 7 0 10 -262144 -1 -1 0
1;
#X obj 174 66 tgl 15 0 empty LED_ctrl empty 17 7 0 10 -262144 -1 -1
0 1;
#X obj 174 86 metro 100;
#X obj 232 17 abs/LEDslider 1;
#X obj 328 238 r spatial;
#X floatatom 328 259 5 0 0 0 - - -;
#X msg 260 175 open 33;
#X msg 104 32 close;
#X floatatom 253 149 5 0 0 0 - - -;
#X msg 264 234 close;
#X obj 24 227 abs/activity_timer;
#X obj 167 263 s entrance;
#X obj 29 261 s cluster;
#X obj 52 228 abs/activity_timer;
#X obj 81 226 abs/activity_timer;
#X obj 109 229 abs/activity_timer;
#X obj 167 229 abs/activity_timer;
#X msg 511 282 30;
#X obj 511 304 until;
#X obj 511 326 counter 30;
#X obj 513 486 tabwrite \$0-LED;
#X obj 512 348 t f f b;
#X obj 593 360 time;
#X obj 598 235 r tick;
#X obj 598 287 f;
#X obj 624 287 + 1;
#X obj 598 309 % 10;
#X floatatom 629 310 5 0 0 0 - - -;
#X obj 513 389 expr (sin($f2 * 2 + $f1*360/16*3.14159/180) + 1) / 2
;
#X obj 513 416 * 0.8;
#X obj 513 438 + 0.2;
#N canvas 559 431 450 300 sins 0;
#X obj 75 222 tabsend~ \$0-LED;
#X obj 99 91 osc~ 1;
#X obj 99 113 *~ 0.5;
#X obj 99 135 +~ 0.5;
#X floatatom 115 70 5 0 0 0 - - -;
#X obj 193 124 osc~ 0.1;
#X floatatom 192 86 5 0 0 0 - - -;
#X obj 102 162 *~;
#X obj 192 146 *~ 0.5;
#X obj 192 168 +~ 0.5;
#X obj 186 45 unpack;
#X msg 185 19 24 0.05;
#X msg 239 19 100 0.05;
#X msg 303 18 100 0.05;
#X obj 283 133 Scope~ 130 130 256 3 128 -1 1 0 0 0 0 102 255 51 135
135 135 0;
#X obj 23 34 tgl 15 0 empty empty empty 17 7 0 10 -262144 -1 -1 0 1
;
#X obj 19 -1 inlet;
#X obj 35 75 switch~ 64;
#X connect 1 0 2 0;
#X connect 2 0 3 0;
#X connect 3 0 7 0;
#X connect 4 0 1 0;
#X connect 5 0 8 0;
#X connect 6 0 5 0;
#X connect 7 0 0 0;
#X connect 7 0 14 0;
#X connect 8 0 9 0;
#X connect 9 0 7 1;
#X connect 10 0 4 0;
#X connect 10 1 6 0;
#X connect 11 0 10 0;
#X connect 12 0 10 0;
#X connect 13 0 10 0;
#X connect 15 0 17 0;
#X connect 16 0 15 0;
#X restore 32 349 pd sins;
#X obj 597 260 spigot;
#X obj 647 262 tgl 15 0 empty empty empty 17 7 0 10 -262144 -1 -1 0
1;
#X obj 32 328 tgl 15 0 empty empty empty 17 7 0 10 -262144 -1 -1 0
1;
#X obj 598 330 sel 0;
#X obj 33 376 tgl 15 0 empty empty empty 17 7 0 10 -262144 -1 -1 0
1;
#X obj 33 418 s autopilot;
#X obj 33 396 metro 5000;
#X obj 24 86 comport 33 57600;
#N canvas 91 251 712 387 welcome 0;
#X obj 78 23 inlet;
#X obj 76 154 line;
#X obj 76 42 bng 15 250 50 0 empty empty empty 17 7 0 10 -262144 -1
-1;
#X obj 100 84 del 1000;
#X msg 76 132 0 \, 60 1000;
#X obj 76 176 moses 10;
#X obj 201 176 moses 20;
#X msg 100 111 60 \, 0 1000;
#X obj 76 230 s LED-6;
#X obj 200 230 s LED-12;
#X obj 327 230 s LED-18;
#X obj 457 230 s LED-24;
#X obj 581 230 s LED-30;
#X obj 76 62 t b b b;
#X obj 173 84 del 3000;
#N canvas 440 139 450 300 spinners 0;
#X obj 75 17 inlet;
#X obj 75 66 until;
#X obj 75 110 t f b;
#X obj 73 244 s \$0-to-SPIN-TCP;
#X obj 75 88 counter 5 30;
#X msg 75 44 30;
#X msg 73 225 /spinner\$1 setSpin 0 0 0;
#X connect 0 0 5 0;
#X connect 1 0 4 0;
#X connect 2 0 6 0;
#X connect 4 0 2 0;
#X connect 5 0 1 0;
#X connect 6 0 3 0;
#X restore 54 252 pd spinners stop;
#N canvas 440 142 450 300 spinners 0;
#X obj 75 17 inlet;
#X floatatom 236 126 5 0 0 1 (deg/sec) - -;
#X msg 265 103 0;
#X obj 75 66 until;
#X msg 235 103 \$1;
#X obj 75 110 t f b;
#X obj 102 134 random 50;
#X obj 75 154 pack f f;
#X msg 73 175 /spinner\$1 setSpin 0 0 \$2;
#X obj 73 194 s \$0-to-SPIN-TCP;
#X obj 24 151 print;
#X obj 75 88 counter 5 30;
#X msg 75 44 30;
#X connect 0 0 12 0;
#X connect 1 0 7 1;
#X connect 2 0 1 0;
#X connect 3 0 11 0;
#X connect 4 0 1 0;
#X connect 5 0 7 0;
#X connect 5 1 6 0;
#X connect 6 0 4 0;
#X connect 7 0 8 0;
#X connect 8 0 9 0;
#X connect 11 0 5 0;
#X connect 11 0 10 0;
#X connect 12 0 3 0;
#X restore 174 107 pd spinners go;
#X obj 76 198 rj/m_scale 0 10 0 1;
#X obj 201 198 rj/m_scale 10 20 0 1;
#X obj 327 199 rj/m_scale 20 30 0 1;
#X obj 457 199 rj/m_scale 30 40 0 1;
#X obj 327 176 moses 30;
#X obj 457 175 moses 40;
#X obj 581 198 rj/m_scale 40 50 0 1;
#X obj 36 216 bng 15 250 50 0 empty empty empty 17 7 0 10 -262144 -1
-1;
#X connect 0 0 2 0;
#X connect 1 0 5 0;
#X connect 2 0 13 0;
#X connect 3 0 7 0;
#X connect 4 0 1 0;
#X connect 5 0 17 0;
#X connect 5 1 6 0;
#X connect 6 0 18 0;
#X connect 6 1 21 0;
#X connect 7 0 1 0;
#X connect 13 0 4 0;
#X connect 13 0 15 0;
#X connect 13 1 3 0;
#X connect 13 2 14 0;
#X connect 14 0 16 0;
#X connect 17 0 8 0;
#X connect 18 0 9 0;
#X connect 19 0 10 0;
#X connect 20 0 11 0;
#X connect 21 0 19 0;
#X connect 21 1 22 0;
#X connect 22 0 20 0;
#X connect 22 1 23 0;
#X connect 23 0 12 0;
#X connect 24 0 15 0;
#X restore 160 293 pd welcome;
#N canvas 198 313 756 392 power 0;
#X obj 86 300 s LED-6;
#X obj 210 300 s LED-12;
#X obj 337 300 s LED-18;
#X obj 467 300 s LED-24;
#X obj 591 300 s LED-30;
#X obj 46 286 bng 15 250 50 0 empty empty empty 17 7 0 10 -262144 -1
-1;
#N canvas 571 355 450 300 lines 0;
#X obj 86 164 line;
#X obj 110 94 del 1000;
#X obj 86 72 t b b b;
#X obj 183 94 del 3000;
#N canvas 440 142 450 300 spinners 0;
#X obj 75 17 inlet;
#X floatatom 236 126 5 0 0 1 (deg/sec) - -;
#X msg 265 103 0;
#X obj 75 66 until;
#X msg 235 103 \$1;
#X obj 75 110 t f b;
#X obj 102 134 random 50;
#X obj 75 154 pack f f;
#X msg 73 175 /spinner\$1 setSpin 0 0 \$2;
#X obj 73 194 s \$0-to-SPIN-TCP;
#X obj 24 151 print;
#X obj 75 88 counter 5 30;
#X msg 75 44 30;
#X connect 0 0 12 0;
#X connect 1 0 7 1;
#X connect 2 0 1 0;
#X connect 3 0 11 0;
#X connect 4 0 1 0;
#X connect 5 0 7 0;
#X connect 5 1 6 0;
#X connect 6 0 4 0;
#X connect 7 0 8 0;
#X connect 8 0 9 0;
#X connect 11 0 5 0;
#X connect 11 0 10 0;
#X connect 12 0 3 0;
#X restore 184 117 pd spinners go;
#X msg 86 142 0 \, 1 1000;
#X msg 110 121 1 \, 0 1000;
#X obj 86 35 inlet;
#X obj 86 186 outlet;
#X connect 0 0 8 0;
#X connect 1 0 6 0;
#X connect 2 0 5 0;
#X connect 2 1 1 0;
#X connect 2 2 3 0;
#X connect 3 0 4 0;
#X connect 5 0 0 0;
#X connect 6 0 0 0;
#X connect 7 0 2 0;
#X restore 88 191 pd lines;
#N canvas 440 139 450 300 spinners 0;
#X obj 75 17 inlet;
#X obj 75 66 until;
#X obj 75 110 t f b;
#X obj 73 244 s \$0-to-SPIN-TCP;
#X obj 75 88 counter 5 30;
#X msg 75 44 30;
#X msg 73 225 /spinner\$1 setSpin 0 0 0;
#X connect 0 0 5 0;
#X connect 1 0 4 0;
#X connect 2 0 6 0;
#X connect 4 0 2 0;
#X connect 5 0 1 0;
#X connect 6 0 3 0;
#X restore 41 331 pd spinners stop;
#N canvas 571 355 450 300 lines 0;
#X obj 86 164 line;
#X obj 110 94 del 1000;
#X obj 86 72 t b b b;
#X obj 183 94 del 3000;
#N canvas 440 142 450 300 spinners 0;
#X obj 75 17 inlet;
#X floatatom 236 126 5 0 0 1 (deg/sec) - -;
#X msg 265 103 0;
#X obj 75 66 until;
#X msg 235 103 \$1;
#X obj 75 110 t f b;
#X obj 102 134 random 50;
#X obj 75 154 pack f f;
#X msg 73 175 /spinner\$1 setSpin 0 0 \$2;
#X obj 73 194 s \$0-to-SPIN-TCP;
#X obj 24 151 print;
#X obj 75 88 counter 5 30;
#X msg 75 44 30;
#X connect 0 0 12 0;
#X connect 1 0 7 1;
#X connect 2 0 1 0;
#X connect 3 0 11 0;
#X connect 4 0 1 0;
#X connect 5 0 7 0;
#X connect 5 1 6 0;
#X connect 6 0 4 0;
#X connect 7 0 8 0;
#X connect 8 0 9 0;
#X connect 11 0 5 0;
#X connect 11 0 10 0;
#X connect 12 0 3 0;
#X restore 184 117 pd spinners go;
#X msg 86 142 0 \, 1 1000;
#X msg 110 121 1 \, 0 1000;
#X obj 86 35 inlet;
#X obj 86 186 outlet;
#X connect 0 0 8 0;
#X connect 1 0 6 0;
#X connect 2 0 5 0;
#X connect 2 1 1 0;
#X connect 2 2 3 0;
#X connect 3 0 4 0;
#X connect 5 0 0 0;
#X connect 6 0 0 0;
#X connect 7 0 2 0;
#X restore 148 191 pd lines;
#N canvas 571 355 450 300 lines 0;
#X obj 86 164 line;
#X obj 110 94 del 1000;
#X obj 86 72 t b b b;
#X obj 183 94 del 3000;
#N canvas 440 142 450 300 spinners 0;
#X obj 75 17 inlet;
#X floatatom 236 126 5 0 0 1 (deg/sec) - -;
#X msg 265 103 0;
#X obj 75 66 until;
#X msg 235 103 \$1;
#X obj 75 110 t f b;
#X obj 102 134 random 50;
#X obj 75 154 pack f f;
#X msg 73 175 /spinner\$1 setSpin 0 0 \$2;
#X obj 73 194 s \$0-to-SPIN-TCP;
#X obj 24 151 print;
#X obj 75 88 counter 5 30;
#X msg 75 44 30;
#X connect 0 0 12 0;
#X connect 1 0 7 1;
#X connect 2 0 1 0;
#X connect 3 0 11 0;
#X connect 4 0 1 0;
#X connect 5 0 7 0;
#X connect 5 1 6 0;
#X connect 6 0 4 0;
#X connect 7 0 8 0;
#X connect 8 0 9 0;
#X connect 11 0 5 0;
#X connect 11 0 10 0;
#X connect 12 0 3 0;
#X restore 184 117 pd spinners go;
#X msg 86 142 0 \, 1 1000;
#X msg 110 121 1 \, 0 1000;
#X obj 86 35 inlet;
#X obj 86 186 outlet;
#X connect 0 0 8 0;
#X connect 1 0 6 0;
#X connect 2 0 5 0;
#X connect 2 1 1 0;
#X connect 2 2 3 0;
#X connect 3 0 4 0;
#X connect 5 0 0 0;
#X connect 6 0 0 0;
#X connect 7 0 2 0;
#X restore 208 191 pd lines;
#N canvas 571 355 450 300 lines 0;
#X obj 86 164 line;
#X obj 110 94 del 1000;
#X obj 86 72 t b b b;
#X obj 183 94 del 3000;
#N canvas 440 142 450 300 spinners 0;
#X obj 75 17 inlet;
#X floatatom 236 126 5 0 0 1 (deg/sec) - -;
#X msg 265 103 0;
#X obj 75 66 until;
#X msg 235 103 \$1;
#X obj 75 110 t f b;
#X obj 102 134 random 50;
#X obj 75 154 pack f f;
#X msg 73 175 /spinner\$1 setSpin 0 0 \$2;
#X obj 73 194 s \$0-to-SPIN-TCP;
#X obj 24 151 print;
#X obj 75 88 counter 5 30;
#X msg 75 44 30;
#X connect 0 0 12 0;
#X connect 1 0 7 1;
#X connect 2 0 1 0;
#X connect 3 0 11 0;
#X connect 4 0 1 0;
#X connect 5 0 7 0;
#X connect 5 1 6 0;
#X connect 6 0 4 0;
#X connect 7 0 8 0;
#X connect 8 0 9 0;
#X connect 11 0 5 0;
#X connect 11 0 10 0;
#X connect 12 0 3 0;
#X restore 184 117 pd spinners go;
#X msg 86 142 0 \, 1 1000;
#X msg 110 121 1 \, 0 1000;
#X obj 86 35 inlet;
#X obj 86 186 outlet;
#X connect 0 0 8 0;
#X connect 1 0 6 0;
#X connect 2 0 5 0;
#X connect 2 1 1 0;
#X connect 2 2 3 0;
#X connect 3 0 4 0;
#X connect 5 0 0 0;
#X connect 6 0 0 0;
#X connect 7 0 2 0;
#X restore 268 191 pd lines;
#N canvas 571 355 450 300 lines 0;
#X obj 86 164 line;
#X obj 110 94 del 1000;
#X obj 86 72 t b b b;
#X obj 183 94 del 3000;
#N canvas 440 142 450 300 spinners 0;
#X obj 75 17 inlet;
#X floatatom 236 126 5 0 0 1 (deg/sec) - -;
#X msg 265 103 0;
#X obj 75 66 until;
#X msg 235 103 \$1;
#X obj 75 110 t f b;
#X obj 102 134 random 50;
#X obj 75 154 pack f f;
#X msg 73 175 /spinner\$1 setSpin 0 0 \$2;
#X obj 73 194 s \$0-to-SPIN-TCP;
#X obj 24 151 print;
#X obj 75 88 counter 5 30;
#X msg 75 44 30;
#X connect 0 0 12 0;
#X connect 1 0 7 1;
#X connect 2 0 1 0;
#X connect 3 0 11 0;
#X connect 4 0 1 0;
#X connect 5 0 7 0;
#X connect 5 1 6 0;
#X connect 6 0 4 0;
#X connect 7 0 8 0;
#X connect 8 0 9 0;
#X connect 11 0 5 0;
#X connect 11 0 10 0;
#X connect 12 0 3 0;
#X restore 184 117 pd spinners go;
#X msg 86 142 0 \, 1 1000;
#X msg 110 121 1 \, 0 1000;
#X obj 86 35 inlet;
#X obj 86 186 outlet;
#X connect 0 0 8 0;
#X connect 1 0 6 0;
#X connect 2 0 5 0;
#X connect 2 1 1 0;
#X connect 2 2 3 0;
#X connect 3 0 4 0;
#X connect 5 0 0 0;
#X connect 6 0 0 0;
#X connect 7 0 2 0;
#X restore 328 191 pd lines;
#X obj 79 62 inlet;
#X obj 119 62 inlet;
#X obj 159 62 inlet;
#X obj 199 62 inlet;
#X obj 239 62 inlet;
#X connect 6 0 0 0;
#X connect 8 0 1 0;
#X connect 9 0 2 0;
#X connect 10 0 3 0;
#X connect 11 0 4 0;
#X connect 12 0 6 0;
#X connect 13 0 8 0;
#X connect 14 0 9 0;
#X connect 15 0 10 0;
#X connect 16 0 11 0;
#X restore 15 292 pd power random;
#X obj 139 229 abs/activity_timer;
#X obj 184 200 comport 32 57600;
#X obj 242 17 abs/LEDslider 2;
#X obj 252 17 abs/LEDslider 3;
#X obj 262 17 abs/LEDslider 4;
#X obj 272 17 abs/LEDslider 5;
#X obj 282 17 abs/LEDslider 6;
#X obj 292 17 abs/LEDslider 7;
#X obj 302 17 abs/LEDslider 8;
#X obj 312 17 abs/LEDslider 9;
#X obj 322 17 abs/LEDslider 10;
#X obj 332 17 abs/LEDslider 11;
#X obj 342 17 abs/LEDslider 12;
#X obj 352 17 abs/LEDslider 13;
#X obj 362 17 abs/LEDslider 14;
#X obj 372 17 abs/LEDslider 15;
#X obj 382 17 abs/LEDslider 16;
#X obj 392 17 abs/LEDslider 17;
#X obj 402 17 abs/LEDslider 18;
#X obj 412 17 abs/LEDslider 19;
#X obj 422 17 abs/LEDslider 20;
#X obj 432 17 abs/LEDslider 21;
#X obj 442 17 abs/LEDslider 22;
#X obj 452 17 abs/LEDslider 23;
#X obj 462 17 abs/LEDslider 24;
#X obj 472 17 abs/LEDslider 25;
#X obj 482 17 abs/LEDslider 26;
#X obj 492 17 abs/LEDslider 27;
#X obj 502 17 abs/LEDslider 28;
#X obj 512 17 abs/LEDslider 29;
#X obj 522 17 abs/LEDslider 30;
#X connect 1 0 13 0;
#X connect 2 0 64 0;
#X connect 3 0 64 0;
#X connect 4 0 3 0;
#X connect 5 0 6 0;
#X connect 5 1 7 0;
#X connect 5 2 8 0;
#X connect 5 3 9 0;
#X connect 5 4 10 0;
#X connect 5 5 11 0;
#X connect 6 0 35 0;
#X connect 7 0 38 0;
#X connect 8 0 39 0;
#X connect 9 0 40 0;
#X connect 10 0 67 0;
#X connect 11 0 41 0;
#X connect 12 0 5 0;
#X connect 13 1 12 0;
#X connect 15 0 16 0;
#X connect 17 0 21 0;
#X connect 19 0 68 0;
#X connect 20 0 15 0;
#X connect 22 0 19 0;
#X connect 25 0 24 0;
#X connect 26 0 27 0;
#X connect 27 0 17 0;
#X connect 28 0 17 0;
#X connect 29 0 30 0;
#X connect 31 0 68 0;
#X connect 32 0 64 0;
#X connect 34 0 68 0;
#X connect 35 0 37 0;
#X connect 35 0 66 3;
#X connect 38 0 37 0;
#X connect 38 0 66 4;
#X connect 39 0 37 0;
#X connect 39 0 66 1;
#X connect 40 0 37 0;
#X connect 40 0 66 0;
#X connect 41 0 36 0;
#X connect 41 0 65 0;
#X connect 42 0 43 0;
#X connect 43 0 44 0;
#X connect 44 0 46 0;
#X connect 46 0 53 0;
#X connect 46 1 45 1;
#X connect 46 2 47 0;
#X connect 47 2 53 1;
#X connect 48 0 57 0;
#X connect 49 0 50 0;
#X connect 49 0 51 0;
#X connect 50 0 49 1;
#X connect 51 0 60 0;
#X connect 52 0 51 1;
#X connect 53 0 54 0;
#X connect 54 0 55 0;
#X connect 55 0 45 0;
#X connect 57 0 49 0;
#X connect 58 0 57 1;
#X connect 59 0 56 0;
#X connect 60 0 42 0;
#X connect 61 0 63 0;
#X connect 63 0 62 0;
#X connect 64 0 1 0;
#X connect 67 0 66 2;
#X connect 67 0 37 0;
#X connect 69 0 17 1;
#X connect 70 0 17 2;
#X connect 71 0 17 3;
#X connect 72 0 17 4;
#X connect 73 0 17 5;
#X connect 74 0 17 6;
#X connect 75 0 17 7;
#X connect 76 0 17 8;
#X connect 77 0 17 9;
#X connect 78 0 17 10;
#X connect 79 0 17 11;
#X connect 80 0 17 12;
#X connect 81 0 17 13;
#X connect 82 0 17 14;
#X connect 83 0 17 15;
#X connect 84 0 17 16;
#X connect 85 0 17 17;
#X connect 86 0 17 18;
#X connect 87 0 17 19;
#X connect 88 0 17 20;
#X connect 89 0 17 21;
#X connect 90 0 17 22;
#X connect 91 0 17 23;
#X connect 92 0 17 24;
#X connect 93 0 17 25;
#X connect 94 0 17 26;
#X connect 95 0 17 27;
#X connect 96 0 17 28;
#X connect 97 0 17 29;
