#N canvas 369 296 784 418 10;
#X msg 212 82 on \$1;
#N canvas 0 0 495 243 tables 0;
#X obj 65 43 table \$0-sine 1026;
#X obj 65 64 table \$0-tri 1026;
#X msg 269 58 sinesum 1024 1;
#X obj 269 33 loadbang;
#X obj 269 81 s \$0-sine;
#N canvas 359 217 654 452 mktri 0;
#N canvas 480 359 450 300 count1026 0;
#X obj 121 199 f 0;
#X obj 152 199 + 1;
#X msg 171 142 0;
#X obj 121 143 until;
#X obj 121 116 max;
#X msg 121 89 1024;
#X obj 121 63 t b b;
#X obj 121 40 inlet;
#X obj 121 235 outlet;
#X connect 0 0 1 0;
#X connect 0 0 8 0;
#X connect 1 0 0 1;
#X connect 2 0 0 1;
#X connect 3 0 0 0;
#X connect 4 0 3 0;
#X connect 5 0 4 0;
#X connect 6 0 5 0;
#X connect 6 1 2 0;
#X connect 7 0 6 0;
#X restore 131 158 pd count1026;
#X obj 131 82 loadbang;
#X msg 151 118 bang;
#X obj 131 188 t a a;
#X obj 131 327 tabwrite \$0-tri;
#X obj 131 237 / 513;
#X obj 131 216 moses 513;
#X obj 192 259 / 513;
#X msg 192 281 1 \$1;
#X obj 192 307 -;
#X obj 193 236 - 513;
#X connect 0 0 3 0;
#X connect 1 0 0 0;
#X connect 2 0 0 0;
#X connect 3 0 6 0;
#X connect 3 1 4 1;
#X connect 5 0 4 0;
#X connect 6 0 5 0;
#X connect 6 1 10 0;
#X connect 7 0 8 0;
#X connect 8 0 9 0;
#X connect 9 0 4 0;
#X connect 10 0 7 0;
#X restore 267 125 pd mktri;
#X connect 2 0 4 0;
#X connect 3 0 2 0;
#X restore 688 64 pd tables;
#X obj 523 65 u_loader c_lfo-\$1 \$0;
#X obj 434 64 inlet;
#X obj 434 91 u_dispatch \$0 updates;
#X obj 434 113 u_dispatch \$0 freq;
#X obj 434 136 u_dispatch \$0 on;
#X obj 434 159 u_dispatch \$0 waveform;
#X obj 212 53 r \$0-on;
#X obj 113 42 inlet;
#X obj 30 147 r \$0-freq;
#X obj 273 53 r \$0-updates;
#X msg 273 76 updates \$1;
#X obj 434 180 u_dispatch \$0 phase;
#X obj 274 173 r \$0-phase;
#N canvas 340 93 641 641 select-wave 0;
#X obj 93 71 inlet;
#X obj 291 69 inlet;
#X obj 93 530 outlet;
#X obj 93 265 spigot 1;
#X obj 191 264 spigot 0;
#X obj 291 92 list;
#X obj 291 116 select saw sine tri;
#X obj 146 217 unpack 0 0;
#X obj 191 286 * 1024;
#X obj 191 309 + 1;
#X obj 191 463 tabread \$0-sine;
#X msg 366 310 set \$1-sine;
#X obj 366 286 f \$0;
#X obj 409 345 f \$0;
#X msg 409 369 set \$1-tri;
#X msg 291 147 1 0;
#X obj 334 146 t b b;
#X obj 377 146 t b b;
#X msg 334 174 0 1;
#X connect 0 0 3 0;
#X connect 0 0 4 0;
#X connect 1 0 5 0;
#X connect 3 0 2 0;
#X connect 4 0 8 0;
#X connect 5 0 6 0;
#X connect 6 0 15 0;
#X connect 6 1 16 0;
#X connect 6 2 17 0;
#X connect 7 0 3 1;
#X connect 7 1 4 1;
#X connect 8 0 9 0;
#X connect 9 0 10 0;
#X connect 10 0 2 0;
#X connect 11 0 10 0;
#X connect 12 0 11 0;
#X connect 13 0 14 0;
#X connect 14 0 10 0;
#X connect 15 0 7 0;
#X connect 16 0 18 0;
#X connect 16 1 12 0;
#X connect 17 0 18 0;
#X connect 17 1 13 0;
#X connect 18 0 7 0;
#X restore 113 255 pd select-wave;
#X obj 208 234 r \$0-waveform;
#X obj 113 292 outlet;
#X obj 143 84 loadbang;
#X msg 143 104 on 0;
#X obj 113 207 c_mphasor \$2 10;
#X connect 0 0 20 0;
#X connect 3 0 4 0;
#X connect 4 0 5 0;
#X connect 5 0 6 0;
#X connect 6 0 7 0;
#X connect 7 0 13 0;
#X connect 8 0 0 0;
#X connect 9 0 20 0;
#X connect 10 0 20 0;
#X connect 11 0 12 0;
#X connect 12 0 20 0;
#X connect 14 0 20 1;
#X connect 15 0 17 0;
#X connect 16 0 15 1;
#X connect 18 0 19 0;
#X connect 19 0 20 0;
#X connect 20 0 15 0;
