#N canvas 218 182 953 647 10;
#N canvas 0 0 616 548 GUI 0;
#X obj 121 136 g_nbx ratio1;
#X obj 121 202 g_nbx D1;
#X obj 121 232 g_nbx S1;
#X obj 121 262 g_nbx R1;
#X obj 121 172 g_nbx A1;
#X obj 201 136 g_nbx ratio2;
#X obj 201 202 g_nbx D2;
#X obj 201 232 g_nbx S2;
#X obj 201 262 g_nbx R2;
#X obj 201 172 g_nbx A2;
#X obj 121 296 g_nbx ratio3;
#X obj 121 362 g_nbx D3;
#X obj 121 392 g_nbx S3;
#X obj 121 422 g_nbx R3;
#X obj 121 332 g_nbx A3;
#X obj 201 296 g_nbx ratio4;
#X obj 201 362 g_nbx D4;
#X obj 201 392 g_nbx S4;
#X obj 201 422 g_nbx R4;
#X obj 201 332 g_nbx A4;
#X obj 201 462 outlet;
#X obj 121 115 inlet;
#X connect 0 0 4 0;
#X connect 1 0 2 0;
#X connect 2 0 3 0;
#X connect 3 0 10 0;
#X connect 4 0 1 0;
#X connect 5 0 9 0;
#X connect 6 0 7 0;
#X connect 7 0 8 0;
#X connect 8 0 15 0;
#X connect 9 0 6 0;
#X connect 10 0 14 0;
#X connect 11 0 12 0;
#X connect 12 0 13 0;
#X connect 13 0 5 0;
#X connect 14 0 11 0;
#X connect 15 0 19 0;
#X connect 16 0 17 0;
#X connect 17 0 18 0;
#X connect 18 0 20 0;
#X connect 19 0 16 0;
#X connect 21 0 0 0;
#X coords 0 -1 1 1 200 400 1 100 100;
#X restore 323 43 pd GUI;
#X msg 157 220 help;
#X obj 323 22 r \$0-GUI;
#X obj 323 458 s \$0-fm4;
#X obj 182 245 r \$0-fm4;
#X obj 108 406 soundoutput;
#X obj 108 107 random 14;
#X obj 108 128 m_majorscale 48;
#X obj 108 86 metro 500;
#X obj 108 67 tgl 15 0 empty empty empty 17 7 0 10 -262144 -1 -1 1
1;
#X obj 108 189 pack 0 0;
#X msg 252 245 save;
#X obj 582 266 s \$0-fm4;
#X obj 582 224 list prepend vol1;
#X obj 582 245 list trim;
#N canvas 0 0 450 300 pak4 0;
#X obj 143 51 inlet;
#X obj 91 51 inlet;
#X obj 141 72 t b f;
#X obj 191 51 inlet;
#X obj 189 72 t b f;
#X obj 238 50 inlet;
#X obj 236 71 t b f;
#X obj 148 222 outlet;
#X obj 148 179 pack 0 0 0 0;
#X connect 0 0 2 0;
#X connect 1 0 8 0;
#X connect 2 0 8 0;
#X connect 2 1 8 1;
#X connect 3 0 4 0;
#X connect 4 0 8 0;
#X connect 4 1 8 2;
#X connect 5 0 6 0;
#X connect 6 0 8 0;
#X connect 6 1 8 3;
#X connect 8 0 7 0;
#X restore 582 203 pd pak4;
#X obj 582 132 vsl 10 64 0 5 0 0 empty empty empty 0 -9 0 10 -262144
-1 -1 1000 1;
#X obj 597 132 vsl 10 64 0 5 0 0 empty empty empty 0 -9 0 10 -262144
-1 -1 0 1;
#X obj 612 132 vsl 10 64 0 5 0 0 empty empty empty 0 -9 0 10 -262144
-1 -1 0 1;
#X obj 628 132 vsl 10 64 0 5 0 0 empty empty empty 0 -9 0 10 -262144
-1 -1 0 1;
#X obj 718 266 s \$0-fm4;
#X obj 718 245 list trim;
#N canvas 0 0 450 300 pak4 0;
#X obj 143 51 inlet;
#X obj 91 51 inlet;
#X obj 141 72 t b f;
#X obj 191 51 inlet;
#X obj 189 72 t b f;
#X obj 238 50 inlet;
#X obj 236 71 t b f;
#X obj 148 222 outlet;
#X obj 148 179 pack 0 0 0 0;
#X connect 0 0 2 0;
#X connect 1 0 8 0;
#X connect 2 0 8 0;
#X connect 2 1 8 1;
#X connect 3 0 4 0;
#X connect 4 0 8 0;
#X connect 4 1 8 2;
#X connect 5 0 6 0;
#X connect 6 0 8 0;
#X connect 6 1 8 3;
#X connect 8 0 7 0;
#X restore 718 203 pd pak4;
#X obj 718 132 vsl 10 64 0 5 0 0 empty empty empty 0 -9 0 10 -262144
-1 -1 800 1;
#X obj 733 132 vsl 10 64 0 5 0 0 empty empty empty 0 -9 0 10 -262144
-1 -1 600 1;
#X obj 748 132 vsl 10 64 0 5 0 0 empty empty empty 0 -9 0 10 -262144
-1 -1 1200 1;
#X obj 764 132 vsl 10 64 0 5 0 0 empty empty empty 0 -9 0 10 -262144
-1 -1 800 1;
#X obj 583 429 s \$0-fm4;
#X obj 583 408 list trim;
#N canvas 0 0 450 300 pak4 0;
#X obj 143 51 inlet;
#X obj 91 51 inlet;
#X obj 141 72 t b f;
#X obj 191 51 inlet;
#X obj 189 72 t b f;
#X obj 238 50 inlet;
#X obj 236 71 t b f;
#X obj 148 222 outlet;
#X obj 148 179 pack 0 0 0 0;
#X connect 0 0 2 0;
#X connect 1 0 8 0;
#X connect 2 0 8 0;
#X connect 2 1 8 1;
#X connect 3 0 4 0;
#X connect 4 0 8 0;
#X connect 4 1 8 2;
#X connect 5 0 6 0;
#X connect 6 0 8 0;
#X connect 6 1 8 3;
#X connect 8 0 7 0;
#X restore 583 366 pd pak4;
#X obj 583 295 vsl 10 64 0 5 0 0 empty empty empty 0 -9 0 10 -262144
-1 -1 600 1;
#X obj 598 295 vsl 10 64 0 5 0 0 empty empty empty 0 -9 0 10 -262144
-1 -1 0 1;
#X obj 613 295 vsl 10 64 0 5 0 0 empty empty empty 0 -9 0 10 -262144
-1 -1 0 1;
#X obj 629 295 vsl 10 64 0 5 0 0 empty empty empty 0 -9 0 10 -262144
-1 -1 0 1;
#X obj 719 430 s \$0-fm4;
#X obj 719 409 list trim;
#N canvas 0 0 450 300 pak4 0;
#X obj 143 51 inlet;
#X obj 91 51 inlet;
#X obj 141 72 t b f;
#X obj 191 51 inlet;
#X obj 189 72 t b f;
#X obj 238 50 inlet;
#X obj 236 71 t b f;
#X obj 148 222 outlet;
#X obj 148 179 pack 0 0 0 0;
#X connect 0 0 2 0;
#X connect 1 0 8 0;
#X connect 2 0 8 0;
#X connect 2 1 8 1;
#X connect 3 0 4 0;
#X connect 4 0 8 0;
#X connect 4 1 8 2;
#X connect 5 0 6 0;
#X connect 6 0 8 0;
#X connect 6 1 8 3;
#X connect 8 0 7 0;
#X restore 719 367 pd pak4;
#X obj 719 296 vsl 10 64 0 5 0 0 empty empty empty 0 -9 0 10 -262144
-1 -1 1200 1;
#X obj 734 296 vsl 10 64 0 5 0 0 empty empty empty 0 -9 0 10 -262144
-1 -1 0 1;
#X obj 749 296 vsl 10 64 0 5 0 0 empty empty empty 0 -9 0 10 -262144
-1 -1 0 1;
#X obj 765 296 vsl 10 64 0 5 0 0 empty empty empty 0 -9 0 10 -262144
-1 -1 5500 1;
#X obj 719 388 list prepend vol4;
#X obj 583 387 list prepend vol3;
#X obj 718 224 list prepend vol2;
#X obj 580 55 u_loadmeter;
#X obj 85 15 tgl 15 0 empty empty empty 17 7 0 10 -262144 -1 -1 0 1
;
#N canvas 359 223 592 507 play-a-little-song-for-me 0;
#X msg 133 301 0 \, 2 \, 3 \, 5 \, 8 \, 9;
#X msg 100 326 0 \, 2 \, 4 \, 6 \, 8;
#X obj 238 223 random 7;
#X obj 139 237 ==;
#X obj 100 237 f;
#X obj 100 266 select 0 1;
#X obj 100 390 outlet;
#X obj 206 52 inlet;
#X obj 272 55 tgl 15 0 empty empty empty 17 7 0 10 -262144 -1 -1 0
1;
#X obj 330 244 f;
#X obj 364 244 + 1;
#X obj 329 411 outlet;
#X msg 329 384 60;
#X msg 365 384 58;
#X obj 330 363 select 0 1;
#X obj 330 221 b;
#X obj 330 336 f;
#X obj 363 336 ==;
#X floatatom 396 273 5 0 0 0 - - -;
#X obj 203 171 t b b b;
#X obj 330 305 select 0;
#X obj 330 274 mod 16;
#X obj 329 37 loadbang;
#X msg 329 59 220 180;
#X obj 206 86 c_multimetro 6 200;
#X obj 206 149 select 0 2 4 5;
#X connect 0 0 6 0;
#X connect 1 0 6 0;
#X connect 2 0 6 0;
#X connect 3 0 4 1;
#X connect 4 0 3 0;
#X connect 4 0 5 0;
#X connect 5 0 1 0;
#X connect 5 1 0 0;
#X connect 7 0 24 0;
#X connect 8 0 24 0;
#X connect 9 0 18 0;
#X connect 9 0 21 0;
#X connect 10 0 9 1;
#X connect 12 0 11 0;
#X connect 13 0 11 0;
#X connect 14 0 12 0;
#X connect 14 1 13 0;
#X connect 15 0 9 0;
#X connect 16 0 14 0;
#X connect 16 0 17 0;
#X connect 17 0 16 1;
#X connect 19 0 4 0;
#X connect 19 1 2 0;
#X connect 19 2 15 0;
#X connect 20 0 16 0;
#X connect 21 0 10 0;
#X connect 21 0 20 0;
#X connect 22 0 23 0;
#X connect 23 0 24 2;
#X connect 24 0 25 0;
#X connect 25 0 19 0;
#X connect 25 1 2 0;
#X connect 25 2 2 0;
#X connect 25 3 2 0;
#X restore 85 33 pd play-a-little-song-for-me;
#X obj 110 341 *~ 0.5;
#X floatatom 170 338 5 0 0 0 - - -;
#X obj 108 168 makenote 20 300;
#X floatatom 233 174 5 0 0 0 - - -;
#X obj 112 369 e_chorusr XX;
#X obj 108 273 s_fm4 MYFM$;
#X obj 184 297 u_cocollect;
#X msg 212 474 ratio2 2 \, ratio3 2 \, ratio4 1.5 \, ratio1 1 \, vol3
1.42857 0 0 0.634921 \, vol2 0.634921 0 0.31746 0.15873 \, vol1 1.26984
0 0 0 \, R4 997 \, S4 47 \, D4 67 \, A4 41 \, R3 286 \, S3 28 \, D3
23 \, A3 19 \, R2 334 \, S2 25 \, D2 37 \, A2 2 \, R1 999 \, S1 55
\, D1 38 \, A1 49 \,;
#X obj 212 547 s \$0-GUI;
#X connect 0 0 3 0;
#X connect 1 0 52 1;
#X connect 2 0 0 0;
#X connect 4 0 52 1;
#X connect 6 0 7 0;
#X connect 7 0 49 0;
#X connect 8 0 6 0;
#X connect 9 0 8 0;
#X connect 10 0 52 0;
#X connect 11 0 52 1;
#X connect 13 0 14 0;
#X connect 14 0 12 0;
#X connect 15 0 13 0;
#X connect 16 0 15 0;
#X connect 17 0 15 1;
#X connect 18 0 15 2;
#X connect 19 0 15 3;
#X connect 21 0 20 0;
#X connect 22 0 43 0;
#X connect 23 0 22 0;
#X connect 24 0 22 1;
#X connect 25 0 22 2;
#X connect 26 0 22 3;
#X connect 28 0 27 0;
#X connect 29 0 42 0;
#X connect 30 0 29 0;
#X connect 31 0 29 1;
#X connect 32 0 29 2;
#X connect 33 0 29 3;
#X connect 35 0 34 0;
#X connect 36 0 41 0;
#X connect 37 0 36 0;
#X connect 38 0 36 1;
#X connect 39 0 36 2;
#X connect 40 0 36 3;
#X connect 41 0 35 0;
#X connect 42 0 28 0;
#X connect 43 0 21 0;
#X connect 45 0 46 0;
#X connect 46 0 7 0;
#X connect 46 1 7 1;
#X connect 47 0 51 0;
#X connect 48 0 47 1;
#X connect 49 0 10 0;
#X connect 49 1 10 1;
#X connect 50 0 49 2;
#X connect 51 0 5 0;
#X connect 51 1 5 1;
#X connect 52 0 47 0;
#X connect 52 2 53 0;
#X connect 53 0 54 0;
#X connect 54 0 55 0;
