#N canvas 159 15 865 650 10;
#X obj 408 516 outlet~;
#X obj 252 61 phasor~ 20;
#X obj 234 305 +~;
#X obj 407 424 *~;
#X text 313 202 sync envelope of grain with reading sample;
#X obj 223 212 *~ 2;
#X obj 252 247 -~ 1;
#X text 14 101 play position in sample (ms);
#X obj 234 332 /~ 1000;
#X obj 253 278 *~;
#X obj 234 359 *~ 44100;
#X obj 110 263 samphold~;
#X obj 317 227 samphold~;
#X text 356 43 different phase for each grain;
#X text 146 555 sample and hold (change value only when wave~ outputs
signal 0 - for avoiding noises when play position is changed );
#X obj 634 64 inlet;
#X obj 634 88 u_dispatch \$0 gfreq;
#X obj 234 391 tabread4~ \$1;
#X obj 316 314 tabread4~ \$2;
#X obj 634 112 u_dispatch \$0 gdur;
#X obj 634 135 u_dispatch \$0 trisize;
#X obj 634 159 u_dispatch \$0 gain;
#X obj 634 181 u_dispatch \$0 window;
#X obj 634 206 u_dispatch \$0 sample;
#X obj 122 357 r \$0-sample;
#X obj 122 381 prepend set;
#X obj 429 276 prepend set;
#X obj 429 252 r \$0-window;
#X obj 448 433 r \$0-gain;
#X obj 252 25 r \$0-gfreq;
#X obj 331 25 r \$0-phase;
#X obj 634 230 u_dispatch \$0 phase;
#X obj 273 167 sig~;
#X obj 273 142 r \$0-gdur;
#X obj 198 37 sig~;
#X obj 405 481 *~ 0.75;
#X obj 84 173 sig~;
#X obj 84 148 r \$0-onset;
#X obj 634 254 u_dispatch \$0 onset;
#X obj 341 254 r \$0-trisize;
#X obj 315 281 *~ 512;
#X connect 1 0 11 1;
#X connect 1 0 12 1;
#X connect 1 0 5 0;
#X connect 2 0 8 0;
#X connect 3 0 35 0;
#X connect 5 0 6 0;
#X connect 6 0 9 0;
#X connect 6 0 40 0;
#X connect 8 0 10 0;
#X connect 9 0 2 1;
#X connect 10 0 17 0;
#X connect 11 0 2 0;
#X connect 12 0 9 1;
#X connect 15 0 16 0;
#X connect 16 0 19 0;
#X connect 17 0 3 0;
#X connect 18 0 3 1;
#X connect 19 0 20 0;
#X connect 20 0 21 0;
#X connect 21 0 22 0;
#X connect 22 0 23 0;
#X connect 23 0 31 0;
#X connect 24 0 25 0;
#X connect 25 0 17 0;
#X connect 26 0 18 0;
#X connect 27 0 26 0;
#X connect 28 0 35 1;
#X connect 29 0 34 0;
#X connect 30 0 1 1;
#X connect 31 0 38 0;
#X connect 32 0 12 0;
#X connect 33 0 32 0;
#X connect 34 0 1 0;
#X connect 35 0 0 0;
#X connect 36 0 11 0;
#X connect 37 0 36 0;
#X connect 39 0 40 1;
#X connect 40 0 18 0;
