#N canvas 231 115 678 641 10;
#X obj 81 344 *~;
#X obj 37 281 *~;
#X obj 588 215 line~;
#X obj 588 194 pack 0 20;
#X obj 114 121 hsl 50 15 0 1 0 0 \$0-vol \$0-vol volume 5 8 1 10 -4034
-1 -1 4900 1;
#X obj 588 172 r \$0-vol;
#X obj 538 93 r \$0-vol;
#X msg 538 116 \; pd dsp 1;
#X obj 38 211 inlet~;
#X obj 79 275 inlet~;
#X obj 38 255 clip~ -1 1;
#X obj 80 319 clip~ -1 1;
#X obj 38 234 hip~ 3;
#X obj 79 297 hip~ 3;
#X obj 37 366 dac~ 1 2;
#X obj 199 344 *~;
#X obj 155 281 *~;
#X obj 156 211 inlet~;
#X obj 197 275 inlet~;
#X obj 156 255 clip~ -1 1;
#X obj 198 319 clip~ -1 1;
#X obj 156 234 hip~ 3;
#X obj 197 297 hip~ 3;
#X obj 155 366 dac~ 3 4;
#X obj 314 352 *~;
#X obj 270 289 *~;
#X obj 271 219 inlet~;
#X obj 312 283 inlet~;
#X obj 271 263 clip~ -1 1;
#X obj 313 327 clip~ -1 1;
#X obj 271 242 hip~ 3;
#X obj 312 305 hip~ 3;
#X obj 432 352 *~;
#X obj 388 289 *~;
#X obj 389 219 inlet~;
#X obj 430 283 inlet~;
#X obj 389 263 clip~ -1 1;
#X obj 431 327 clip~ -1 1;
#X obj 389 242 hip~ 3;
#X obj 430 305 hip~ 3;
#X obj 270 374 dac~ 5 6;
#X obj 388 374 dac~ 7 8;
#X connect 0 0 14 1;
#X connect 1 0 14 0;
#X connect 2 0 1 1;
#X connect 2 0 16 1;
#X connect 2 0 25 1;
#X connect 2 0 33 1;
#X connect 2 0 0 1;
#X connect 2 0 15 1;
#X connect 2 0 24 1;
#X connect 2 0 32 1;
#X connect 3 0 2 0;
#X connect 5 0 3 0;
#X connect 6 0 7 0;
#X connect 8 0 12 0;
#X connect 9 0 13 0;
#X connect 10 0 1 0;
#X connect 11 0 0 0;
#X connect 12 0 10 0;
#X connect 13 0 11 0;
#X connect 15 0 23 1;
#X connect 16 0 23 0;
#X connect 17 0 21 0;
#X connect 18 0 22 0;
#X connect 19 0 16 0;
#X connect 20 0 15 0;
#X connect 21 0 19 0;
#X connect 22 0 20 0;
#X connect 24 0 40 1;
#X connect 25 0 40 0;
#X connect 26 0 30 0;
#X connect 27 0 31 0;
#X connect 28 0 25 0;
#X connect 29 0 24 0;
#X connect 30 0 28 0;
#X connect 31 0 29 0;
#X connect 32 0 41 1;
#X connect 33 0 41 0;
#X connect 34 0 38 0;
#X connect 35 0 39 0;
#X connect 36 0 33 0;
#X connect 37 0 32 0;
#X connect 38 0 36 0;
#X connect 39 0 37 0;
#X coords 0 -1 1 1 110 40 1 100 100;
