#N canvas 162 116 718 530 10;
#X obj 58 264 *~ 1;
#X obj 124 264 *~ 1;
#X obj 59 411 *~;
#X obj 125 411 *~;
#X obj 59 436 outlet~;
#X obj 125 436 outlet~;
#X obj 633 259 line~;
#X obj 632 191 r #transport;
#X obj 633 212 route play;
#X msg 633 235 \$1 10;
#X obj 104 128 hsl 50 10 0 1 0 0 empty empty empty -2 -8 0 10 -4034
-1 -1 4900 1;
#X obj 101 114 tgl 10 0 \$0_ch1 empty empty 17 7 0 10 -262144 -1 -1
0 1;
#X obj 111 114 tgl 10 0 \$0_ch2 empty empty 17 7 0 10 -262144 -1 -1
0 1;
#X obj 121 114 tgl 10 0 \$0_ch3 empty empty 17 7 0 10 -262144 -1 -1
0 1;
#X obj 131 114 tgl 10 0 \$0_ch4 empty empty 17 7 0 10 -262144 -1 -1
0 1;
#X obj 141 114 tgl 10 0 \$0_ch5 empty empty 17 7 0 10 -262144 -1 -1
0 1;
#X obj 151 114 tgl 10 0 \$0_ch6 empty empty 17 7 0 10 -262144 -1 -1
0 1;
#X obj 161 114 tgl 10 0 \$0_ch7 empty empty 17 7 0 10 -262144 -1 -1
0 1;
#X obj 171 114 tgl 10 0 \$0_ch8 empty empty 17 7 0 10 -262144 -1 -1
0 1;
#X obj 65 244 r \$0_ch1;
#X obj 129 242 r \$0_ch2;
#X obj 183 265 *~ 1;
#X obj 246 268 *~ 1;
#X obj 301 266 *~ 1;
#X obj 367 266 *~ 1;
#X obj 426 267 *~ 1;
#X obj 489 270 *~ 1;
#X obj 190 245 r \$0_ch3;
#X obj 251 246 r \$0_ch4;
#X obj 308 246 r \$0_ch5;
#X obj 372 244 r \$0_ch6;
#X obj 432 248 r \$0_ch7;
#X obj 494 248 r \$0_ch8;
#X obj 183 411 *~;
#X obj 249 411 *~;
#X obj 183 436 outlet~;
#X obj 249 436 outlet~;
#X obj 355 408 *~;
#X obj 304 411 *~;
#X obj 355 434 outlet~;
#X obj 304 436 outlet~;
#X obj 457 408 *~;
#X obj 406 411 *~;
#X obj 457 434 outlet~;
#X obj 406 436 outlet~;
#X obj 57 169 adc~ 1 2 3 4 5 6 7 8;
#X obj 193 105 tgl 15 0 empty empty empty 17 7 0 10 -262144 -1 -1 0
1;
#X connect 0 0 2 0;
#X connect 1 0 3 0;
#X connect 2 0 4 0;
#X connect 3 0 5 0;
#X connect 6 0 3 1;
#X connect 6 0 2 1;
#X connect 6 0 33 1;
#X connect 6 0 34 1;
#X connect 6 0 38 1;
#X connect 6 0 37 1;
#X connect 6 0 42 1;
#X connect 6 0 41 1;
#X connect 7 0 8 0;
#X connect 8 0 9 0;
#X connect 9 0 6 0;
#X connect 10 0 9 0;
#X connect 19 0 0 1;
#X connect 20 0 1 1;
#X connect 21 0 33 0;
#X connect 22 0 34 0;
#X connect 23 0 38 0;
#X connect 24 0 37 0;
#X connect 25 0 42 0;
#X connect 26 0 41 0;
#X connect 27 0 21 1;
#X connect 28 0 22 1;
#X connect 29 0 23 1;
#X connect 30 0 24 1;
#X connect 31 0 25 1;
#X connect 32 0 26 1;
#X connect 33 0 35 0;
#X connect 34 0 36 0;
#X connect 37 0 39 0;
#X connect 38 0 40 0;
#X connect 41 0 43 0;
#X connect 42 0 44 0;
#X connect 45 0 0 0;
#X connect 45 1 1 0;
#X connect 45 2 21 0;
#X connect 45 3 22 0;
#X connect 45 4 23 0;
#X connect 45 5 24 0;
#X connect 45 6 25 0;
#X connect 45 7 26 0;
#X connect 46 0 11 0;
#X connect 46 0 12 0;
#X connect 46 0 13 0;
#X connect 46 0 14 0;
#X connect 46 0 15 0;
#X connect 46 0 16 0;
#X connect 46 0 17 0;
#X connect 46 0 18 0;
#X coords 0 -1 1 1 110 40 1 100 100;
